<svg width="844" height="469" viewBox="0 0 844 469" fill="none" xmlns="http://www.w3.org/2000/svg">
<g id="3414494 1" clip-path="url(#clip0_1_4)">
<g id="Floor">
<g id="Floor_2">
<g id="Group">
<path id="Floor_3" d="M419.79 460.77C549.903 460.77 655.38 404.425 655.38 334.92C655.38 265.415 549.903 209.07 419.79 209.07C289.677 209.07 184.2 265.415 184.2 334.92C184.2 404.425 289.677 460.77 419.79 460.77Z" fill="#0500FF"/>
<path id="Floor_4" opacity="0.45" d="M419.79 460.77C549.903 460.77 655.38 404.425 655.38 334.92C655.38 265.415 549.903 209.07 419.79 209.07C289.677 209.07 184.2 265.415 184.2 334.92C184.2 404.425 289.677 460.77 419.79 460.77Z" fill="black"/>
<g id="Lines" opacity="0.4">
<path id="Vector" d="M0 411.81C281.2 411.71 562.39 409.73 843.59 411.81" stroke="#213CCB" stroke-width="1.13" stroke-miterlimit="10"/>
<path id="Vector_2" d="M36.31 365.26C293.31 365.17 550.31 363.4 807.31 365.26" stroke="#213CCB" stroke-width="1.13" stroke-miterlimit="10"/>
<path id="Vector_3" d="M66.3 326.84C303.3 326.75 540.3 325.2 777.3 326.84" stroke="#213CCB" stroke-width="1.13" stroke-miterlimit="10"/>
<path id="Vector_4" d="M91.13 295.02C311.58 294.93 532.03 293.6 752.47 295.02" stroke="#213CCB" stroke-width="1.13" stroke-miterlimit="10"/>
<path id="Vector_5" d="M112.01 268.27C318.54 268.19 525.07 267.06 731.6 268.27" stroke="#213CCB" stroke-width="1.13" stroke-miterlimit="10"/>
<path id="Vector_6" d="M130.11 246.93C324.58 246.86 519.04 245.93 713.51 246.93" stroke="#213CCB" stroke-width="1.13" stroke-miterlimit="10"/>
<path id="Vector_7" d="M146.62 229.47C330.09 229.42 513.55 228.68 697 229.47" stroke="#213CCB" stroke-width="1.13" stroke-miterlimit="10"/>
<path id="Vector_8" d="M162.73 215.3C335.47 215.3 508.18 214.72 680.9 215.3" stroke="#213CCB" stroke-width="1.13" stroke-miterlimit="10"/>
<path id="Vector_9" d="M630.28 196.86C653.12 232.14 675.953 267.42 698.78 302.7C721.493 337.813 744.16 372.933 766.78 408.06C779.533 427.84 792.27 447.633 804.99 467.44" stroke="#213CCB" stroke-width="1.13" stroke-miterlimit="10"/>
<path id="Vector_10" d="M579.01 196.63C624.13 286.63 670.13 376.38 715.42 467.11" stroke="#213CCB" stroke-width="1.13" stroke-miterlimit="10"/>
<path id="Vector_11" d="M537.53 196.78C570.13 286.66 602.13 377.3 634.19 466.95" stroke="#213CCB" stroke-width="1.13" stroke-miterlimit="10"/>
<path id="Vector_12" d="M490.67 196.57C497.937 231.697 505.213 266.823 512.5 301.95C519.8 337.183 527.133 372.413 534.5 407.64C538.627 427.42 542.77 447.197 546.93 466.97" stroke="#213CCB" stroke-width="1.13" stroke-miterlimit="10"/>
<path id="Vector_13" d="M443.79 197.06C447.1 286.66 454.1 377.3 459.14 467.06" stroke="#213CCB" stroke-width="1.13" stroke-miterlimit="10"/>
<path id="Vector_14" d="M396.92 196.82C387.13 286.66 379.13 377.3 371.57 467.18" stroke="#213CCB" stroke-width="1.13" stroke-miterlimit="10"/>
<path id="Vector_15" d="M350.18 196.95C330.18 275.56 313.18 352.33 292.18 432.8C289.18 444.8 288.18 455.92 284.74 467.38" stroke="#213CCB" stroke-width="1.13" stroke-miterlimit="10"/>
<path id="Vector_16" d="M303.79 196.84C278.11 259.84 254.11 322.73 229.11 386.55C219.11 414.3 208.11 440.2 199.11 467.55" stroke="#213CCB" stroke-width="1.13" stroke-miterlimit="10"/>
<path id="Vector_17" d="M262.97 196.64C215.13 286.64 167.13 377.3 120.45 467.79" stroke="#213CCB" stroke-width="1.13" stroke-miterlimit="10"/>
<path id="Vector_18" d="M212.49 196.81C153.13 287.57 93.13 377.3 34.27 467.93" stroke="#213CCB" stroke-width="1.13" stroke-miterlimit="10"/>
</g>
</g>
</g>
</g>
<g id="Shadows">
<path id="Shadow" opacity="0.25" d="M525.26 376.38C532.18 372.7 543.26 372.7 549.91 376.38C556.56 380.06 556.6 386.01 549.91 389.69C543.22 393.37 532.18 393.36 525.26 389.69C518.34 386.02 518.34 380.06 525.26 376.38Z" fill="black"/>
<path id="Shadow_2" opacity="0.25" d="M312.42 418.96C352.207 418.96 384.46 400.34 384.46 377.37C384.46 354.4 352.207 335.78 312.42 335.78C272.633 335.78 240.38 354.4 240.38 377.37C240.38 400.34 272.633 418.96 312.42 418.96Z" fill="black"/>
<path id="Shadow_3" opacity="0.25" d="M583.56 341.57L608.96 326.91C611.69 325.33 611.69 322.78 608.96 321.21L507.68 262.74C506.15 261.966 504.46 261.562 502.745 261.562C501.03 261.562 499.34 261.966 497.81 262.74L405.79 315.87C403.06 317.44 403.06 319.99 405.79 321.57L507.06 380.04C508.593 380.81 510.284 381.212 512 381.212C513.715 381.212 515.407 380.81 516.94 380.04L547.01 362.68L584.36 384.39L620.59 363.47L583.56 341.57Z" fill="black"/>
</g>
<g id="Arcade">
<g id="Arcade_2">
<path id="pantalla" d="M459.55 166.93C465.854 171.851 472.482 176.341 479.39 180.37C488.298 185.376 497.464 189.909 506.85 193.95C510.27 195.44 513.38 193.57 513.72 189.85C514.23 184.42 514.89 177.67 515.38 170.52C515.86 163.52 516.23 156.07 516.47 150.87C516.64 147.14 514.38 142.22 511.33 140.06C504.498 135.244 497.415 130.794 490.11 126.73C480.19 121.16 471.71 117 466.34 114.49C465.583 114.093 464.744 113.877 463.89 113.857C463.035 113.838 462.188 114.016 461.414 114.378C460.639 114.74 459.959 115.276 459.426 115.944C458.893 116.612 458.521 117.395 458.34 118.23C456.525 125.444 455.364 132.807 454.87 140.23C454.52 146.72 454.39 151.57 454.32 155.88C454.399 157.98 454.903 160.042 455.802 161.941C456.701 163.841 457.976 165.538 459.55 166.93V166.93Z" fill="#F5FA15"/>
<path id="Vector_19" opacity="0.2" d="M516.47 150.87C516.64 147.14 514.38 142.22 511.33 140.06C504.498 135.244 497.415 130.794 490.11 126.73C480.19 121.16 471.71 117 466.34 114.49C465.583 114.093 464.744 113.877 463.89 113.857C463.035 113.838 462.188 114.016 461.414 114.378C460.639 114.74 459.959 115.276 459.426 115.944C458.893 116.612 458.521 117.395 458.34 118.23C457.66 121 456.89 124.48 456.24 128.34L515.83 162.74C516.12 158.34 516.32 154.15 516.47 150.87Z" fill="black"/>
<path id="Vector_20" d="M527.84 277.192L510.299 361.083C509.968 362.052 507.827 361.968 503.983 360.834C498.316 359.045 488.544 354.628 476.346 348.342C464.148 342.056 450.285 334.293 437.138 326.387L421.866 317.254L417.505 314.641C418.584 314.718 419.157 314.494 419.213 313.972L431.795 227.996C432.301 225.85 439.533 228.324 451.209 234.281C462.885 240.239 537.418 278.402 546.704 283.16C535.451 277.486 528.33 275.076 527.84 277.192Z" fill="#FF0F00"/>
<path id="Vector_21" d="M425.12 319.28L427.23 247.18C427.246 246.29 427.096 245.405 426.79 244.57C426.334 243.429 425.494 242.482 424.415 241.893C423.337 241.304 422.087 241.108 420.88 241.34L419.48 241.57L419.08 241.64C419.157 242.059 419.187 242.485 419.17 242.91L416.64 314.41C416.59 316.28 417.18 317.59 418.21 318.2C419.24 318.81 425.82 322.6 426.64 323.07C425.65 322.43 425.07 321.12 425.12 319.28Z" fill="white"/>
<path id="Vector_22" opacity="0.3" d="M426.79 244.57C426.334 243.429 425.494 242.482 424.415 241.893C423.337 241.304 422.087 241.108 420.88 241.34L419.48 241.57L419.08 241.64C419.157 242.059 419.187 242.485 419.17 242.91L418.26 270.66L426.46 275.39L427.22 247.21C427.243 246.311 427.097 245.415 426.79 244.57V244.57Z" fill="black"/>
<path id="Vector_23" d="M479.2 253.29L477.32 285.79C477.201 286.511 477.29 287.251 477.575 287.923C477.86 288.596 478.33 289.174 478.93 289.59C477.71 288.89 392.17 239.51 391.78 239.27C390.959 238.739 390.303 237.99 389.884 237.107C389.466 236.224 389.302 235.241 389.41 234.27L391.22 202.57C391.45 200.49 392.11 198.481 393.16 196.67L481.16 247.46C480.098 249.241 479.43 251.229 479.2 253.29V253.29Z" fill="#455A64"/>
<path id="Vector_24" d="M524.91 212.4C523.922 214.248 522.56 215.869 520.91 217.16L485.22 242.62C483.542 243.908 482.161 245.541 481.17 247.41L393.17 196.62C394.146 194.759 395.51 193.128 397.17 191.84L432.89 166.39C434.562 165.095 435.968 163.489 437.03 161.66L524.91 212.4Z" fill="#37474F"/>
<path id="Vector_25" d="M455.65 91.12C455.661 90.7084 455.634 90.2967 455.57 89.89C455.26 87.49 452.95 86.89 450.4 88.36L448.13 89.56L439.32 155.75C438.524 159.946 436.254 163.72 432.92 166.39L397.2 191.84C393.883 194.48 391.729 198.313 391.2 202.52L389.39 234.26C389.273 235.259 389.447 236.27 389.89 237.173C390.334 238.076 391.028 238.832 391.89 239.35C392.8 239.86 398.35 243.08 399.43 243.7C399.051 243.471 398.713 243.18 398.43 242.84C397.575 241.731 397.191 240.33 397.36 238.94L399.17 207.13C399.702 202.927 401.855 199.098 405.17 196.46L439.99 171.62C439.99 171.62 440.94 170.95 440.99 170.93C443.769 168.542 445.827 165.425 446.93 161.93C447.082 161.375 447.199 160.81 447.28 160.24L455.15 98.24C455.19 97.92 455.9 91.09 455.65 91.12Z" fill="#27DEBF"/>
<path id="Vector_26" opacity="0.7" d="M455.65 91.12C455.661 90.7084 455.634 90.2967 455.57 89.89C455.26 87.49 452.95 86.89 450.4 88.36L448.13 89.56L439.32 155.75C438.524 159.946 436.254 163.72 432.92 166.39L397.2 191.84C393.883 194.48 391.729 198.313 391.2 202.52L389.39 234.26C389.273 235.259 389.447 236.27 389.89 237.173C390.334 238.076 391.028 238.832 391.89 239.35C392.8 239.86 398.35 243.08 399.43 243.7C399.051 243.471 398.713 243.18 398.43 242.84C397.575 241.731 397.191 240.33 397.36 238.94L399.17 207.13C399.702 202.927 401.855 199.098 405.17 196.46L439.99 171.62C439.99 171.62 440.94 170.95 440.99 170.93C443.769 168.542 445.827 165.425 446.93 161.93C447.082 161.375 447.199 160.81 447.28 160.24L455.15 98.24C455.19 97.92 455.9 91.09 455.65 91.12Z" fill="white"/>
<path id="Vector_27" opacity="0.2" d="M455.16 98.21L453.64 110.21L451.64 125.68L443.89 121.2L445.17 111.54L445.93 105.79L448.13 89.57L450.4 88.37C452.95 86.9 455.26 87.5 455.57 89.9C455.634 90.3067 455.661 90.7184 455.65 91.13C455.9 91.09 455.19 97.92 455.16 98.21Z" fill="black"/>
<path id="Vector_28" d="M503.86 99.39L500.55 141.88C500.521 142.321 500.608 142.762 500.803 143.159C500.997 143.555 501.293 143.894 501.66 144.14L495.55 140.57L494.65 133.85L453.65 110.17L445.97 105.75L432.79 98.15L426.56 94.57L424.79 96.19L422.38 98.33C421.6 97.87 420.91 97.46 420.38 97.15C420.27 97.0933 420.163 97.0299 420.06 96.96L418.52 96.07C417.52 95.49 417 94.16 417.2 92.25L421.32 51.76C421.371 51.2815 421.455 50.8071 421.57 50.34C421.86 49.3352 422.238 48.358 422.7 47.42C422.705 47.4091 422.708 47.3971 422.708 47.385C422.708 47.3729 422.705 47.3609 422.7 47.35C422.94 46.91 423.2 46.45 423.48 46.01L423.54 45.93L505.99 93.57C504.833 95.3159 504.103 97.3097 503.86 99.39V99.39Z" fill="#455A64"/>
<path id="Vector_29" d="M525.52 136.22L523.74 136.9L519 200.26C519 200.26 518.86 201.98 518.85 202.03C518.156 205.724 516.385 209.13 513.76 211.82C513.444 212.107 513.11 212.374 512.76 212.62L477.15 238C473.842 240.648 471.69 244.477 471.15 248.68L469.28 281.11C469.162 281.836 469.246 282.58 469.523 283.261C469.8 283.942 470.259 284.533 470.85 284.97C470.85 284.97 478.08 289.12 478.85 289.58C478.26 289.158 477.8 288.579 477.521 287.91C477.242 287.24 477.155 286.506 477.27 285.79L479.15 253.29C479.691 249.09 481.842 245.264 485.15 242.62L520.84 217.16C524.156 214.518 526.309 210.686 526.84 206.48L531.4 140.65C531.67 136.93 529.01 134.94 525.52 136.22Z" fill="#27DEBF"/>
<path id="Vector_30" opacity="0.7" d="M525.52 136.22L523.74 136.9L519 200.26C519 200.26 518.86 201.98 518.85 202.03C518.156 205.724 516.385 209.13 513.76 211.82C513.444 212.107 513.11 212.374 512.76 212.62L477.15 238C473.842 240.648 471.69 244.477 471.15 248.68L469.28 281.11C469.162 281.836 469.246 282.58 469.523 283.261C469.8 283.942 470.259 284.533 470.85 284.97C470.85 284.97 478.08 289.12 478.85 289.58C478.26 289.158 477.8 288.579 477.521 287.91C477.242 287.24 477.155 286.506 477.27 285.79L479.15 253.29C479.691 249.09 481.842 245.264 485.15 242.62L520.84 217.16C524.156 214.518 526.309 210.686 526.84 206.48L531.4 140.65C531.67 136.93 529.01 134.94 525.52 136.22Z" fill="white"/>
<path id="Vector_31" d="M509.72 368.34L507.58 287.34C507.48 283.62 504.58 281.63 501.05 282.92L499.53 283.49C499.53 284.26 499.61 285.84 499.61 285.91L501.26 363.48C501.26 365.33 501.97 366.64 503.06 367.25L511.45 372.1C510.865 371.673 510.399 371.103 510.096 370.445C509.794 369.787 509.664 369.062 509.72 368.34Z" fill="#27DEBF"/>
<path id="Vector_32" opacity="0.7" d="M509.72 368.34L507.58 287.34C507.48 283.62 504.58 281.63 501.05 282.92L499.53 283.49C499.53 284.26 499.61 285.84 499.61 285.91L501.26 363.48C501.26 365.33 501.97 366.64 503.06 367.25L511.45 372.1C510.865 371.673 510.399 371.103 510.096 370.445C509.794 369.787 509.664 369.062 509.72 368.34Z" fill="white"/>
<path id="Vector_33" opacity="0.3" d="M507.58 287.29C507.48 283.57 504.58 281.58 501.05 282.87L499.53 283.44C499.53 284.21 499.61 285.79 499.61 285.86L500.24 317.96L508.45 322.7L507.58 287.29Z" fill="black"/>
<path id="Vector_34" opacity="0.2" d="M525.52 136.22L523.74 136.9L521.56 166.02L529.34 170.52L531.41 140.65C531.67 136.93 529.01 134.94 525.52 136.22Z" fill="black"/>
<path id="Vector_35" d="M593.94 50.64C593.978 49.91 593.829 49.1822 593.507 48.5259C593.185 47.8696 592.701 47.3065 592.1 46.89C591.419 46.5628 590.662 46.4245 589.909 46.4896C589.157 46.5547 588.435 46.8208 587.82 47.26L510.25 89.38C508.521 90.5121 507.056 92.0024 505.954 93.7502C504.851 95.498 504.137 97.4622 503.86 99.51L500.56 142C500.522 142.472 500.619 142.944 500.84 143.363C501.062 143.781 501.398 144.127 501.81 144.36C502.129 144.549 502.486 144.662 502.855 144.692C503.225 144.721 503.596 144.666 503.94 144.53L525.52 136.35C529.01 135.07 531.66 137.06 531.4 140.77L526.84 206.62C526.305 210.825 524.153 214.656 520.84 217.3L485.15 242.75C481.84 245.397 479.688 249.226 479.15 253.43L477.27 285.92C477.15 286.651 477.244 287.402 477.54 288.081C477.837 288.761 478.323 289.34 478.94 289.75C479.488 290.026 480.091 290.177 480.705 290.193C481.319 290.208 481.928 290.088 482.49 289.84L501.01 283C504.5 281.71 507.43 283.7 507.52 287.42L509.67 368.42C509.557 369.159 509.671 369.916 509.998 370.588C510.325 371.261 510.85 371.818 511.501 372.185C512.153 372.552 512.901 372.712 513.646 372.643C514.391 372.574 515.097 372.28 515.67 371.8L591.91 327.8C593.601 326.697 594.995 325.195 595.969 323.427C596.944 321.659 597.47 319.679 597.5 317.66L593.94 50.64Z" fill="#37474F"/>
<path id="Vector_36" d="M592.09 46.74C590.97 46.1 589.47 46.18 587.81 47.13L510.24 89.25C508.513 90.3389 507.059 91.8101 505.99 93.55L423.5 45.93C424.583 44.1908 426.051 42.7232 427.79 41.64L498.52 0.799992C500.15 -0.130008 501.61 -0.200008 502.66 0.389992C503.71 0.979992 590.79 46.02 592.09 46.74Z" fill="#455A64"/>
<path id="Vector_37" d="M505.99 93.57L498.79 89.39L431.26 50.39L423.51 45.92C422.31 47.6593 421.536 49.6564 421.25 51.75L417.13 92.24C416.94 94.1 417.42 95.4 418.37 96.01C419.32 96.62 425.89 100.36 425.89 100.36C424.94 99.82 424.55 98.28 424.75 96.21L428.95 58.57L496.16 97.38L493.79 137.48C493.757 137.996 493.842 138.512 494.037 138.99C494.233 139.468 494.535 139.896 494.92 140.24C495.38 140.5 501.26 143.9 501.63 144.1C501.306 143.826 501.045 143.486 500.862 143.104C500.679 142.721 500.58 142.304 500.57 141.88L503.88 99.39C504.117 97.3114 504.84 95.3177 505.99 93.57V93.57Z" fill="#27DEBF"/>
<path id="Vector_38" opacity="0.7" d="M428.95 58.57L496.16 97.38L493.79 137.48C493.757 137.996 493.842 138.512 494.037 138.99C494.233 139.468 494.535 139.896 494.92 140.24C495.38 140.5 501.26 143.9 501.63 144.1C501.306 143.826 501.045 143.486 500.862 143.104C500.679 142.721 500.58 142.304 500.57 141.88L503.88 99.39C504.117 97.3114 504.84 95.3177 505.99 93.57L498.79 89.39L431.26 50.39L423.51 45.92C422.31 47.6593 421.536 49.6564 421.25 51.75L417.13 92.24C416.94 94.1 417.42 95.4 418.37 96.01C419.32 96.62 425.89 100.36 425.89 100.36C424.94 99.82 424.55 98.28 424.75 96.21L428.95 58.57Z" fill="white"/>
<path id="Vector_39" d="M458.79 269.33C457.728 269.301 456.693 268.99 455.79 268.43L412.53 243.43C410.751 242.266 409.293 240.673 408.29 238.798C407.287 236.923 406.771 234.826 406.79 232.7L407.48 221.7C407.41 220.825 407.597 219.949 408.017 219.178C408.437 218.407 409.072 217.775 409.845 217.36C410.618 216.944 411.496 216.762 412.37 216.837C413.245 216.912 414.079 217.239 414.77 217.78L458.02 242.78C459.812 243.948 461.28 245.549 462.289 247.435C463.298 249.321 463.814 251.431 463.79 253.57L463.1 264.57C463.115 265.437 462.905 266.293 462.489 267.053C462.074 267.814 461.467 268.454 460.73 268.91C460.128 269.207 459.461 269.351 458.79 269.33V269.33ZM411.79 218.24C411.344 218.237 410.905 218.343 410.51 218.55C409.98 218.902 409.55 219.383 409.259 219.949C408.969 220.514 408.828 221.145 408.85 221.78L408.16 232.78C408.142 234.666 408.6 236.526 409.492 238.188C410.383 239.851 411.679 241.261 413.26 242.29L456.51 267.29C457 267.715 457.608 267.981 458.253 268.053C458.898 268.125 459.549 267.999 460.121 267.692C460.692 267.385 461.157 266.911 461.453 266.334C461.75 265.757 461.864 265.103 461.78 264.46L462.47 253.46C462.488 251.575 462.03 249.717 461.138 248.056C460.247 246.395 458.951 244.986 457.37 243.96L414.12 218.96C413.419 218.523 412.616 218.275 411.79 218.24V218.24Z" fill="#E0E0E0"/>
<g id="text-arcade">
<path id="Vector_40" d="M443.35 98.71V98.97C443.35 99.39 443.24 99.47 442.86 99.25L441.39 98.41C441.068 98.1883 440.814 97.8797 440.66 97.52C440.421 97.1021 440.291 96.6312 440.28 96.15L440.18 93.33L438.97 92.63L438.88 95.34C438.88 96.22 438.32 96.63 437.78 96.34L436.31 95.49C436.154 95.4265 436.022 95.3146 435.933 95.1706C435.845 95.0266 435.806 94.8582 435.82 94.69C435.813 94.5934 435.813 94.4965 435.82 94.4L437.48 68.93C437.48 68.29 437.7 68.16 438.15 68.42L441 70.07C441.44 70.32 441.6 70.62 441.65 71.34L443.35 98.71ZM439.59 73.91L439.09 89.01L440.09 89.58L439.59 73.91Z" fill="#00FF38"/>
<path id="Vector_41" d="M452.92 104.2C452.92 104.87 452.81 104.99 452.38 104.74L450.94 103.91C450.622 103.688 450.375 103.379 450.23 103.02C450.028 102.619 449.919 102.178 449.91 101.73V93.48C449.903 93.2103 449.835 92.9458 449.71 92.7066C449.585 92.4674 449.407 92.2599 449.19 92.1L448.5 91.7V100.91C448.514 101.078 448.493 101.247 448.44 101.407C448.387 101.566 448.302 101.714 448.19 101.84C448.097 101.938 447.971 101.998 447.836 102.009C447.702 102.02 447.568 101.981 447.46 101.9L446.03 101.08C445.59 100.83 445.48 100.57 445.48 99.9V73.48C445.48 72.81 445.59 72.68 446.03 72.94L449.26 74.8C450.424 75.5177 451.352 76.5607 451.93 77.8C452.574 79.036 452.916 80.4065 452.93 81.8V89.48C452.93 90.93 452.49 91.72 451.64 91.88C452.072 92.3313 452.409 92.8649 452.63 93.449C452.852 94.033 452.954 94.6557 452.93 95.28L452.92 104.2ZM448.5 78.2V87.81L449.25 88.24C449.62 88.45 449.91 88.08 449.91 87.56V79.98C449.904 79.7102 449.836 79.4453 449.711 79.2061C449.586 78.9668 449.408 78.7594 449.19 78.6L448.5 78.2Z" fill="#FF09E6"/>
<path id="Vector_42" d="M462.02 83.11C462.651 84.315 462.993 85.6501 463.02 87.01V94.21C463.02 94.74 462.84 94.89 462.5 94.69L460.97 93.8C460.68 93.6221 460.437 93.3761 460.263 93.0835C460.088 92.7908 459.988 92.4601 459.97 92.12V85.49C459.966 85.2173 459.898 84.9494 459.771 84.708C459.644 84.4665 459.462 84.2583 459.24 84.1C458.86 83.88 458.55 84.16 458.55 84.66V103.84C458.554 104.106 458.618 104.367 458.738 104.604C458.857 104.841 459.029 105.049 459.24 105.21C459.68 105.46 459.96 105.14 459.96 104.66V98.04C459.96 97.35 460.42 97.18 460.91 97.46L462.45 98.35C462.629 98.4594 462.773 98.6168 462.867 98.8041C462.96 98.9915 463 99.2014 462.98 99.41V106.57C463.035 107.082 462.968 107.599 462.786 108.08C462.603 108.561 462.31 108.993 461.93 109.34C461.507 109.587 461.019 109.701 460.531 109.667C460.042 109.633 459.575 109.453 459.19 109.15C458.04 108.45 457.116 107.432 456.53 106.22C455.878 104.987 455.535 103.615 455.53 102.22V82.62C455.474 82.1126 455.535 81.599 455.708 81.1188C455.882 80.6386 456.163 80.2046 456.53 79.85C456.952 79.5966 457.442 79.4781 457.933 79.5103C458.425 79.5425 458.894 79.7238 459.28 80.03C460.464 80.7793 461.414 81.8466 462.02 83.11V83.11Z" fill="#0500FF"/>
<path id="Vector_43" d="M472.64 115.62V115.88C472.64 116.3 472.53 116.38 472.15 116.17L470.68 115.32C470.358 115.098 470.104 114.79 469.95 114.43C469.711 114.012 469.581 113.541 469.57 113.06L469.47 110.24L468.26 109.55L468.17 112.25C468.17 113.13 467.61 113.54 467.07 113.25L465.6 112.4C465.444 112.337 465.312 112.225 465.223 112.081C465.135 111.937 465.096 111.768 465.11 111.6C465.104 111.503 465.104 111.407 465.11 111.31L466.79 85.82C466.79 85.18 467.01 85.05 467.46 85.31L470.31 86.96C470.75 87.21 470.91 87.51 470.96 88.23L472.64 115.62ZM468.88 90.82L468.38 105.92L469.38 106.5L468.88 90.82Z" fill="#DBFF00"/>
<path id="Vector_44" d="M475.37 118.02C474.9 117.75 474.8 117.5 474.8 116.83V90.41C474.8 89.74 474.91 89.61 475.35 89.86L478.58 91.73C479.732 92.4356 480.658 93.4557 481.25 94.67C481.886 95.9089 482.228 97.2776 482.25 98.67V117.22C482.31 117.731 482.251 118.248 482.078 118.732C481.904 119.216 481.621 119.654 481.25 120.01C480.83 120.264 480.342 120.383 479.852 120.351C479.362 120.318 478.894 120.137 478.51 119.83L475.37 118.02ZM477.79 115.57L478.54 116C478.91 116.21 479.2 115.86 479.2 115.42V96.94C479.197 96.6696 479.13 96.4037 479.005 96.1639C478.88 95.9241 478.7 95.7172 478.48 95.56L477.79 95.16V115.57Z" fill="#FF0F00"/>
<path id="Vector_45" d="M490.03 98.34C490.228 98.4678 490.387 98.647 490.491 98.8583C490.595 99.0697 490.64 99.3053 490.62 99.54V100.23C490.62 101.67 490.14 102.23 489.32 101.81L487.81 100.94V109.33L489.57 110.33C489.76 110.462 489.913 110.641 490.013 110.849C490.113 111.058 490.157 111.289 490.14 111.52V112.21C490.14 113.66 489.68 114.27 488.86 113.8L487.81 113.2V121.32L489.32 122.19C489.785 122.544 490.15 123.014 490.378 123.552C490.606 124.091 490.689 124.679 490.62 125.26V125.95C490.62 126.52 490.4 126.68 490.03 126.47L485.36 123.77C484.92 123.52 484.8 123.26 484.8 122.61V96.18C484.8 95.51 484.91 95.38 485.34 95.63L490.03 98.34Z" fill="#00FF38"/>
</g>
<path id="Vector_46" d="M432.79 98.15L428.6 95.74L429.04 91.82L432.53 60.64L429 58.64L425.67 88.36L424.99 94.48L424.61 97.7C424.548 98.2212 424.631 98.7494 424.852 99.2257C425.073 99.702 425.421 100.108 425.859 100.397C426.297 100.686 426.807 100.848 427.331 100.865C427.856 100.881 428.375 100.752 428.83 100.49V100.49L432.79 98.15Z" fill="black"/>
<path id="Vector_47" d="M443.92 283.27V308.27C443.975 309.287 444.27 310.277 444.779 311.16C445.288 312.042 445.997 312.793 446.85 313.35L479.47 332.18C481.09 333.11 482.4 332.36 482.4 330.49V305.49C482.346 304.472 482.053 303.482 481.544 302.599C481.035 301.716 480.324 300.966 479.47 300.41L446.85 281.57C445.23 280.64 443.92 281.4 443.92 283.27Z" fill="#E0E0E0"/>
<path id="Vector_48" opacity="0.3" d="M482.4 307.66V305.49C482.346 304.472 482.053 303.482 481.544 302.599C481.035 301.716 480.324 300.966 479.47 300.41L446.85 281.57C445.23 280.63 443.92 281.39 443.92 283.26V285.43L482.4 307.66Z" fill="black"/>
<path id="Vector_49" d="M478.98 302.74C479.315 302.96 479.593 303.256 479.793 303.603C479.993 303.95 480.108 304.34 480.13 304.74C480.13 305.47 479.64 305.74 479 305.39C478.662 305.174 478.381 304.879 478.181 304.531C477.98 304.182 477.867 303.791 477.85 303.39C477.85 302.67 478.35 302.38 478.98 302.74Z" fill="#455A64"/>
<path id="Vector_50" d="M478.98 326.57C479.315 326.79 479.593 327.086 479.793 327.433C479.993 327.78 480.108 328.17 480.13 328.57C480.13 329.3 479.64 329.57 479 329.22C478.663 329.002 478.383 328.707 478.183 328.359C477.983 328.011 477.869 327.621 477.85 327.22C477.85 326.57 478.35 326.25 478.98 326.57Z" fill="#455A64"/>
<path id="Vector_51" d="M447.02 284.06C447.354 284.281 447.632 284.576 447.832 284.924C448.032 285.271 448.148 285.66 448.17 286.06C448.17 286.79 447.68 287.06 447.04 286.72C446.702 286.502 446.421 286.207 446.219 285.86C446.018 285.512 445.901 285.121 445.88 284.72C445.88 284 446.39 283.7 447.02 284.06Z" fill="#455A64"/>
<path id="Vector_52" d="M447.02 307.93C447.354 308.151 447.632 308.446 447.832 308.794C448.032 309.141 448.148 309.53 448.17 309.93C448.17 310.66 447.68 310.93 447.04 310.58C446.701 310.364 446.418 310.07 446.216 309.722C446.014 309.373 445.899 308.982 445.88 308.58C445.88 307.87 446.39 307.57 447.02 307.93Z" fill="#455A64"/>
<path id="Vector_53" d="M458.73 301.17L460.73 302.32C461.235 302.649 461.657 303.092 461.96 303.613C462.264 304.134 462.442 304.718 462.48 305.32V307.61C462.48 308.73 461.7 309.19 460.73 308.61L458.73 307.47C458.225 307.141 457.803 306.698 457.5 306.177C457.196 305.656 457.018 305.072 456.98 304.47V302.18C456.98 301.07 457.79 300.57 458.73 301.17Z" fill="#455A64"/>
<path id="Vector_54" d="M467.97 307.18V312.18C467.982 312.382 468.041 312.577 468.144 312.751C468.247 312.925 468.389 313.072 468.56 313.18L468.75 313.3C469.08 313.48 469.34 313.3 469.34 312.96V307.96C469.327 307.759 469.267 307.563 469.165 307.389C469.062 307.215 468.92 307.068 468.75 306.96L468.56 306.84C468.23 306.66 467.97 306.81 467.97 307.18Z" fill="#455A64"/>
<path id="Vector_55" d="M465.1 305.57V310.57C465.114 310.771 465.175 310.966 465.277 311.14C465.38 311.313 465.521 311.46 465.69 311.57L465.89 311.69C466.21 311.88 466.47 311.69 466.47 311.35V306.35C466.457 306.15 466.398 305.955 466.297 305.782C466.197 305.609 466.057 305.461 465.89 305.35L465.69 305.24C465.37 305 465.1 305.15 465.1 305.57Z" fill="#455A64"/>
<path id="Vector_56" d="M434.42 196.87C433.429 196.686 432.412 196.686 431.42 196.87H427.93V199.57C427.975 200.001 428.133 200.413 428.387 200.764C428.642 201.115 428.984 201.393 429.38 201.57C430.464 202.122 431.664 202.409 432.88 202.409C434.097 202.409 435.296 202.122 436.38 201.57C436.777 201.393 437.12 201.115 437.376 200.764C437.632 200.413 437.792 200.002 437.84 199.57V199.57V196.87H434.42Z" fill="#0500FF"/>
<path id="Vector_57" opacity="0.2" d="M434.42 196.87C433.429 196.686 432.412 196.686 431.42 196.87H427.93V199.57C427.975 200.001 428.133 200.413 428.387 200.764C428.642 201.115 428.984 201.393 429.38 201.57C430.464 202.122 431.664 202.409 432.88 202.409C434.097 202.409 435.296 202.122 436.38 201.57C436.777 201.393 437.12 201.115 437.376 200.764C437.632 200.413 437.792 200.002 437.84 199.57V199.57V196.87H434.42Z" fill="black"/>
<path id="Vector_58" d="M429.41 198.9C430.495 199.449 431.694 199.735 432.91 199.735C434.126 199.735 435.325 199.449 436.41 198.9C438.35 197.77 438.35 195.9 436.41 194.83C435.326 194.278 434.127 193.991 432.91 193.991C431.694 193.991 430.494 194.278 429.41 194.83C427.48 195.96 427.48 197.78 429.41 198.9Z" fill="#1648F5"/>
<path id="Vector_59" d="M450.91 187.43C449.918 187.255 448.902 187.255 447.91 187.43H444.41V190.16C444.456 190.591 444.614 191.002 444.868 191.353C445.123 191.704 445.465 191.982 445.86 192.16C446.945 192.709 448.144 192.995 449.36 192.995C450.576 192.995 451.775 192.709 452.86 192.16C453.257 191.983 453.6 191.705 453.856 191.354C454.112 191.003 454.272 190.592 454.32 190.16V190.16V187.43H450.91Z" fill="#DBFF00"/>
<path id="Vector_60" opacity="0.2" d="M450.91 187.43C449.918 187.255 448.902 187.255 447.91 187.43H444.41V190.16C444.456 190.591 444.614 191.002 444.868 191.353C445.123 191.704 445.465 191.982 445.86 192.16C446.945 192.709 448.144 192.995 449.36 192.995C450.576 192.995 451.775 192.709 452.86 192.16C453.257 191.983 453.6 191.705 453.856 191.354C454.112 191.003 454.272 190.592 454.32 190.16V190.16V187.43H450.91Z" fill="black"/>
<path id="Vector_61" d="M445.91 189.47C446.994 190.021 448.194 190.309 449.41 190.309C450.627 190.309 451.826 190.021 452.91 189.47C454.84 188.35 454.85 186.53 452.91 185.41C451.825 184.861 450.626 184.575 449.41 184.575C448.194 184.575 446.995 184.861 445.91 185.41C443.97 186.57 443.97 188.35 445.91 189.47Z" fill="#DECC27"/>
<path id="Vector_62" d="M484.97 214.72L474.33 208.57C473.422 208.111 472.418 207.872 471.4 207.872C470.382 207.872 469.379 208.111 468.47 208.57L457.84 214.71C457.505 214.855 457.216 215.089 457.004 215.387C456.793 215.685 456.667 216.036 456.64 216.4V217.95C456.675 218.306 456.805 218.645 457.016 218.934C457.227 219.222 457.512 219.449 457.84 219.59L468.47 225.73C469.377 226.193 470.381 226.435 471.4 226.435C472.419 226.435 473.423 226.193 474.33 225.73L484.97 219.57C485.295 219.428 485.577 219.203 485.786 218.916C485.995 218.63 486.124 218.293 486.16 217.94C486.16 217.67 486.16 216.63 486.16 216.38C486.129 216.022 486.002 215.679 485.793 215.387C485.584 215.095 485.299 214.864 484.97 214.72Z" fill="black"/>
<path id="Vector_63" d="M457.84 218.1L468.47 224.24C469.379 224.699 470.382 224.938 471.4 224.938C472.418 224.938 473.422 224.699 474.33 224.24L484.97 218.1C486.58 217.17 486.58 215.65 484.97 214.72L474.33 208.57C473.422 208.111 472.418 207.872 471.4 207.872C470.382 207.872 469.379 208.111 468.47 208.57L457.84 214.71C456.22 215.65 456.22 217.17 457.84 218.1Z" fill="black"/>
<path id="Vector_64" opacity="0.7" d="M457.84 218.1L468.47 224.24C469.379 224.699 470.382 224.938 471.4 224.938C472.418 224.938 473.422 224.699 474.33 224.24L484.97 218.1C486.58 217.17 486.58 215.65 484.97 214.72L474.33 208.57C473.422 208.111 472.418 207.872 471.4 207.872C470.382 207.872 469.379 208.111 468.47 208.57L457.84 214.71C456.22 215.65 456.22 217.17 457.84 218.1Z" fill="white"/>
<path id="Vector_65" d="M472.09 200.57C471.697 200.495 471.293 200.495 470.9 200.57H469.5V215.13C469.516 215.306 469.578 215.474 469.68 215.618C469.782 215.762 469.92 215.877 470.08 215.95C470.517 216.172 471 216.288 471.49 216.288C471.98 216.288 472.463 216.172 472.9 215.95C473.062 215.878 473.203 215.764 473.306 215.62C473.41 215.476 473.473 215.307 473.49 215.13V215.13V200.57H472.09Z" fill="#F5F5F5"/>
<path id="Vector_66" opacity="0.1" d="M470.9 200.57H469.5V203.24C470.136 203.503 470.82 203.631 471.508 203.618C472.197 203.604 472.875 203.448 473.5 203.16V200.57H472.1C471.704 200.494 471.296 200.494 470.9 200.57V200.57Z" fill="black"/>
<path id="Vector_67" d="M476.49 196.98C476.49 197.987 476.192 198.971 475.632 199.808C475.073 200.645 474.278 201.297 473.348 201.683C472.418 202.068 471.394 202.169 470.407 201.972C469.42 201.776 468.513 201.291 467.801 200.579C467.089 199.867 466.604 198.96 466.408 197.973C466.211 196.986 466.312 195.962 466.698 195.032C467.083 194.102 467.735 193.307 468.572 192.748C469.409 192.189 470.393 191.89 471.4 191.89C472.069 191.889 472.731 192.019 473.349 192.275C473.968 192.53 474.529 192.905 475.002 193.378C475.475 193.851 475.85 194.412 476.105 195.031C476.361 195.649 476.491 196.311 476.49 196.98V196.98Z" fill="#FF0000"/>
<path id="Vector_68" opacity="0.1" d="M471.49 199C468.36 198.2 467.1 195.09 468.23 193C467.56 193.538 467.037 194.237 466.711 195.032C466.384 195.827 466.265 196.692 466.364 197.545C466.462 198.399 466.776 199.214 467.275 199.913C467.775 200.612 468.443 201.174 469.218 201.544C469.994 201.915 470.85 202.083 471.708 202.033C472.566 201.982 473.397 201.715 474.124 201.256C474.85 200.797 475.448 200.161 475.862 199.408C476.276 198.655 476.492 197.809 476.49 196.95C476.56 197.84 474.65 199.81 471.49 199Z" fill="#FF0F00"/>
<path id="Vector_69" opacity="0.8" d="M596.38 226.14L595.78 185.87L508.42 319.37L509.47 358.92L596.38 226.14Z" fill="#FF0000"/>
<path id="Vector_70" opacity="0.4" d="M596.38 226.14L509.47 358.92L509.72 368.33C509.61 369.068 509.726 369.823 510.053 370.494C510.381 371.165 510.904 371.721 511.554 372.088C512.204 372.455 512.951 372.617 513.694 372.551C514.438 372.485 515.144 372.196 515.72 371.72L523.51 367.22L596.79 255.34L596.38 226.14Z" fill="#FF09E6"/>
<path id="Vector_71" opacity="0.15" d="M596.96 272.49L596.75 255.34L523.53 367.22L541.93 356.6L596.96 272.49Z" fill="#213CCB"/>
<path id="Skate shadow" opacity="0.2" d="M597.57 317.57L596.79 260.57L588.79 263.57L550.64 277.57V351.57L591.94 327.73C593.641 326.629 595.044 325.127 596.026 323.354C597.008 321.582 597.538 319.596 597.57 317.57Z" fill="black"/>
</g>
</g>
<g id="Skateboard">
<g id="Skateboard_2">
<path id="Vector_72" d="M588.27 356.75L585.56 346.64C585.498 346.393 585.525 346.132 585.637 345.904C585.749 345.675 585.937 345.493 586.17 345.39L595.56 341.64C595.819 341.55 596.094 341.514 596.367 341.535C596.641 341.555 596.907 341.632 597.15 341.76L597.28 341.83C597.479 341.969 597.651 342.141 597.79 342.34C597.985 342.592 598.134 342.876 598.23 343.18L601.18 354.18L590.92 358.27C590.63 358.381 590.316 358.412 590.01 358.36C589.77 358.343 589.537 358.271 589.33 358.15L589.21 358.07C588.764 357.741 588.435 357.279 588.27 356.75V356.75Z" fill="#37474F"/>
<path id="Vector_73" d="M590.05 358.41L587.2 347.79C587.126 347.506 587.155 347.205 587.284 346.941C587.412 346.676 587.631 346.467 587.9 346.35L597.04 342.7C597.165 342.647 597.301 342.622 597.437 342.628C597.573 342.633 597.706 342.669 597.826 342.732C597.947 342.795 598.052 342.884 598.134 342.993C598.216 343.101 598.272 343.227 598.3 343.36L601.22 354.23L590.96 358.32C590.67 358.431 590.356 358.462 590.05 358.41V358.41Z" fill="#455A64"/>
<path id="Vector_74" d="M612.79 354.23C614.32 354.75 617.01 353.55 617.98 352.23C618.95 350.91 619.03 349.09 618.22 346.07C617.41 343.05 616.56 341.55 615.04 341.27C614.082 341.243 613.129 341.419 612.245 341.788C611.36 342.157 610.565 342.71 609.91 343.41C609.442 345.383 609.442 347.437 609.91 349.41C610.426 351.244 611.42 352.907 612.79 354.23Z" fill="#37474F"/>
<path id="Vector_75" d="M609.93 349.4C609.12 346.4 609.23 343.61 610.17 343.23C611.11 342.85 612.54 345 613.35 348.03C614.16 351.06 614.05 353.82 613.11 354.2C612.17 354.58 610.79 352.42 609.93 349.4Z" fill="#455A64"/>
<path id="Vector_76" d="M595.67 356.45L611.97 349.94C612.46 349.74 611.8 347.27 611.31 347.47L603.06 350.76C598.24 352.69 597.68 347.52 593.7 349.1C589.72 350.68 591.77 355.27 586.95 357.2L578.71 360.49L579.37 362.95L595.67 356.45Z" fill="#27DEBF"/>
<path id="Vector_77" d="M592.79 353.57C592.645 353.031 592.699 352.458 592.941 351.955C593.184 351.452 593.598 351.053 594.11 350.83C594.348 350.732 594.604 350.687 594.861 350.699C595.118 350.711 595.369 350.778 595.597 350.898C595.824 351.017 596.023 351.184 596.179 351.389C596.335 351.593 596.445 351.829 596.5 352.08C596.638 352.619 596.582 353.19 596.34 353.691C596.099 354.192 595.688 354.592 595.18 354.82C594.942 354.918 594.686 354.963 594.429 354.951C594.172 354.939 593.921 354.872 593.693 354.752C593.466 354.633 593.267 354.466 593.111 354.261C592.955 354.057 592.845 353.821 592.79 353.57Z" fill="#37474F"/>
<path id="Vector_78" d="M576.55 368.69C578.08 369.21 580.77 368.01 581.73 366.69C582.69 365.37 582.78 363.55 581.97 360.53C581.16 357.51 580.32 356.01 578.8 355.73C577.842 355.703 576.889 355.879 576.005 356.248C575.12 356.617 574.325 357.17 573.67 357.87C573.202 359.843 573.202 361.897 573.67 363.87C574.186 365.704 575.18 367.367 576.55 368.69Z" fill="#263238"/>
<path id="Vector_79" d="M573.71 363.86C572.9 360.86 573 358.07 573.95 357.69C574.9 357.31 576.31 359.46 577.12 362.49C577.93 365.52 577.83 368.28 576.89 368.66C575.95 369.04 574.52 366.88 573.71 363.86Z" fill="#455A64"/>
<path id="Vector_80" d="M568.79 283.88L566.09 273.78C566.025 273.534 566.05 273.274 566.16 273.045C566.27 272.816 566.458 272.633 566.69 272.53L576.03 268.81C576.297 268.714 576.582 268.674 576.865 268.691C577.149 268.708 577.426 268.783 577.68 268.91L577.81 268.98C578.006 269.121 578.179 269.294 578.32 269.49C578.516 269.74 578.661 270.025 578.75 270.33L581.42 280.33C581.497 280.613 581.47 280.914 581.343 281.179C581.217 281.443 580.999 281.653 580.73 281.77L571.45 285.48C571.155 285.581 570.839 285.612 570.53 285.57C570.294 285.544 570.066 285.469 569.86 285.35L569.74 285.28C569.283 284.926 568.95 284.436 568.79 283.88V283.88Z" fill="#37474F"/>
<path id="Vector_81" d="M570.31 284.75L567.68 274.93C567.603 274.647 567.63 274.346 567.757 274.081C567.883 273.817 568.101 273.607 568.37 273.49L577.52 269.84C577.645 269.789 577.78 269.765 577.916 269.772C578.051 269.778 578.183 269.814 578.303 269.877C578.423 269.94 578.528 270.028 578.611 270.136C578.693 270.243 578.751 270.368 578.78 270.5L581.41 280.32C581.487 280.604 581.458 280.906 581.329 281.171C581.201 281.436 580.981 281.645 580.71 281.76L571.57 285.41C571.445 285.463 571.309 285.488 571.173 285.482C571.037 285.477 570.904 285.441 570.784 285.378C570.663 285.315 570.558 285.226 570.476 285.117C570.394 285.009 570.338 284.883 570.31 284.75Z" fill="#455A64"/>
<path id="Vector_82" d="M587.4 259.57C588.009 258.81 588.798 258.214 589.696 257.837C590.593 257.46 591.571 257.313 592.54 257.41C593.94 257.76 594.9 259.19 595.72 262.21C596.54 265.23 596.57 267.05 595.48 268.38C594.807 269.061 593.998 269.592 593.105 269.936C592.212 270.281 591.256 270.432 590.3 270.38C588.936 269.049 587.952 267.378 587.45 265.54C586.97 263.581 586.953 261.537 587.4 259.57Z" fill="#37474F"/>
<path id="Vector_83" d="M587.45 265.5C588.26 268.5 589.68 270.68 590.63 270.3C591.58 269.92 591.68 267.17 590.87 264.14C590.06 261.11 588.63 258.96 587.69 259.34C586.75 259.72 586.64 262.48 587.45 265.5Z" fill="#455A64"/>
<path id="Vector_84" d="M572.53 270.1L588.79 263.57C589.29 263.37 589.95 265.83 589.45 266.03L581.21 269.32C576.39 271.25 578.44 275.83 574.46 277.42C570.48 279.01 569.91 273.83 565.1 275.76L556.85 279.05L556.19 276.58L572.53 270.1Z" fill="#27DEBF"/>
<path id="Vector_85" d="M571.66 274.57C571.715 274.821 571.825 275.057 571.981 275.261C572.137 275.466 572.336 275.633 572.563 275.752C572.791 275.872 573.042 275.939 573.299 275.951C573.556 275.963 573.812 275.918 574.05 275.82C574.559 275.594 574.971 275.194 575.213 274.692C575.455 274.191 575.51 273.619 575.37 273.08C575.315 272.829 575.205 272.593 575.049 272.389C574.893 272.184 574.694 272.017 574.467 271.898C574.239 271.778 573.988 271.711 573.731 271.699C573.474 271.687 573.218 271.732 572.98 271.83C572.468 272.053 572.054 272.452 571.811 272.955C571.569 273.458 571.515 274.031 571.66 274.57Z" fill="#37474F"/>
<path id="Vector_86" d="M551.18 274.02C551.79 273.261 552.579 272.667 553.477 272.29C554.374 271.912 555.351 271.765 556.32 271.86C557.72 272.21 558.68 273.64 559.49 276.66C560.3 279.68 560.35 281.5 559.25 282.83C558.58 283.511 557.772 284.042 556.88 284.387C555.989 284.732 555.034 284.883 554.08 284.83C552.716 283.499 551.732 281.828 551.23 279.99C550.75 278.031 550.733 275.987 551.18 274.02Z" fill="#37474F"/>
<path id="Vector_87" d="M551.23 279.96C552.04 282.96 553.46 285.14 554.41 284.76C555.36 284.38 555.46 281.63 554.65 278.6C553.84 275.57 552.41 273.42 551.47 273.8C550.53 274.18 550.42 276.94 551.23 279.96Z" fill="#455A64"/>
<path id="Vector_88" d="M620.58 361.5L615.79 353.21C613.66 349.68 613.2 345.46 612.58 341.38C610.2 325.62 603.58 284.11 598.58 272.3C594.06 261.69 586.84 249.78 579.34 245.52C575.63 242.52 571.79 241.25 568.11 242.72C557.92 246.79 557.83 276.32 559.11 285.25C562.29 307.91 575.01 339.96 580.31 352.65C581.849 356.333 582.592 360.3 582.49 364.29L581.25 381.02C581.204 381.314 581.234 381.615 581.335 381.894C581.436 382.174 581.607 382.424 581.83 382.62C582.26 382.93 584.04 384.16 584.47 384.43C584.741 384.572 585.046 384.639 585.352 384.623C585.658 384.607 585.955 384.51 586.21 384.34L619.49 365.28C619.817 365.111 620.106 364.877 620.339 364.592C620.573 364.307 620.746 363.978 620.848 363.624C620.95 363.271 620.979 362.9 620.933 362.535C620.887 362.169 620.767 361.817 620.58 361.5V361.5Z" fill="#27DEBF"/>
<path id="Vector_89" opacity="0.5" d="M620.58 361.5L615.79 353.21C613.66 349.68 613.2 345.46 612.58 341.38C610.2 325.62 603.58 284.11 598.58 272.3C594.06 261.69 586.84 249.78 579.34 245.52C575.63 242.52 571.79 241.25 568.11 242.72C557.92 246.79 557.83 276.32 559.11 285.25C562.29 307.91 575.01 339.96 580.31 352.65C581.849 356.333 582.592 360.3 582.49 364.29L581.25 381.02C581.204 381.314 581.234 381.615 581.335 381.894C581.436 382.174 581.607 382.424 581.83 382.62C582.26 382.93 584.04 384.16 584.47 384.43C584.741 384.572 585.046 384.639 585.352 384.623C585.658 384.607 585.955 384.51 586.21 384.34L619.49 365.28C619.817 365.111 620.106 364.877 620.339 364.592C620.573 364.307 620.746 363.978 620.848 363.624C620.95 363.271 620.979 362.9 620.933 362.535C620.887 362.169 620.767 361.817 620.58 361.5V361.5Z" fill="black"/>
<path id="Vector_90" d="M570.71 244.5C580.9 240.43 592.34 257.62 598.59 272.3C603.59 284.11 610.2 325.62 612.59 341.38C613.21 345.46 613.67 349.68 615.8 353.21L620.59 361.5C620.776 361.819 620.895 362.172 620.939 362.538C620.984 362.904 620.953 363.275 620.849 363.629C620.746 363.983 620.57 364.312 620.335 364.596C620.1 364.88 619.809 365.113 619.48 365.28L586.19 384.34C584.79 385.06 583.73 384.34 583.83 382.81L585.06 366.07C585.166 362.079 584.423 358.112 582.88 354.43C577.58 341.74 564.88 309.69 561.68 287.03C560.43 278.1 560.52 248.57 570.68 244.5H570.71Z" fill="black"/>
<path id="Vector_91" opacity="0.25" d="M570.71 244.5C580.9 240.43 592.34 257.62 598.59 272.3C603.59 284.11 610.2 325.62 612.59 341.38C613.21 345.46 613.67 349.68 615.8 353.21L620.59 361.5C620.776 361.819 620.895 362.172 620.939 362.538C620.984 362.904 620.953 363.275 620.849 363.629C620.746 363.983 620.57 364.312 620.335 364.596C620.1 364.88 619.809 365.113 619.48 365.28L586.19 384.34C584.79 385.06 583.73 384.34 583.83 382.81L585.06 366.07C585.166 362.079 584.423 358.112 582.88 354.43C577.58 341.74 564.88 309.69 561.68 287.03C560.43 278.1 560.52 248.57 570.68 244.5H570.71Z" fill="black"/>
<path id="Vector_92" d="M620.94 363.08C617.57 360.2 607 350.71 602.66 341.16C598.79 332.57 590.79 291.98 587.92 253.68C587.65 253.34 587.38 252.95 587.12 252.55C581.95 246.22 576.12 242.33 570.71 244.5C565.35 246.64 562.78 255.84 561.71 265.38C576.11 292.49 589.37 335.24 591.02 343.48C592.67 351.72 585.86 377.69 584.07 384.07C584.47 384.67 585.23 384.82 586.16 384.34L619.44 365.28C619.858 365.073 620.216 364.762 620.479 364.377C620.742 363.992 620.9 363.545 620.94 363.08V363.08Z" fill="#00FF38"/>
<path id="Vector_93" opacity="0.4" d="M620.94 363.08C617.57 360.2 607 350.71 602.66 341.16C598.79 332.57 590.79 291.98 587.92 253.68C587.65 253.34 587.38 252.95 587.12 252.55C581.95 246.22 576.12 242.33 570.71 244.5C565.35 246.64 562.78 255.84 561.71 265.38C576.11 292.49 589.37 335.24 591.02 343.48C592.67 351.72 585.86 377.69 584.07 384.07C584.47 384.67 585.23 384.82 586.16 384.34L619.44 365.28C619.858 365.073 620.216 364.762 620.479 364.377C620.742 363.992 620.9 363.545 620.94 363.08V363.08Z" fill="white"/>
</g>
</g>
<g id="Soda">
<g id="Soda_2">
<g id="Coffe">
<path id="Vector_94" d="M522.06 340.13H552.93L549.79 380.73C549.65 382.21 548.49 383.67 546.28 384.79C541.57 387.2 533.79 387.2 528.92 384.79C526.63 383.67 525.43 382.21 525.29 380.73L522.06 340.13Z" fill="#FF0F00"/>
<path id="Vector_95" d="M520.62 340.22V333.8H524.11C524.608 333.494 525.122 333.213 525.65 332.96C532.35 329.77 543.03 329.77 549.51 332.96C550.015 333.213 550.506 333.493 550.98 333.8H554.37V340.22C554.37 342.31 552.75 344.41 549.51 346C543.03 349.19 532.35 349.19 525.65 346C522.3 344.4 520.62 342.31 520.62 340.22Z" fill="#E6E6E6"/>
<path id="Vector_96" d="M525.65 328.03C532.35 324.84 543.03 324.84 549.51 328.03C555.99 331.22 555.99 336.39 549.51 339.58C543.03 342.77 532.35 342.77 525.65 339.58C518.95 336.39 518.95 331.22 525.65 328.03Z" fill="#F5F5F5"/>
</g>
<path id="Vector_97" opacity="0.3" d="M524.44 370.73C534.92 371.62 547.04 364.73 551.76 355.24L552.21 349.49C547.8 359.64 534.97 367.03 524.07 365.89L524.44 370.73Z" fill="black"/>
<path id="Vector_98" opacity="0.2" d="M524.7 374.09C534.9 374.83 546.57 368.32 551.45 359.18L551.76 355.24C547.04 364.78 534.92 371.62 524.44 370.73L524.7 374.09Z" fill="black"/>
<path id="Vector_99" opacity="0.1" d="M524.91 376.71C534.91 377.35 546.24 371.07 551.22 362.22L551.45 359.22C546.57 368.36 534.9 374.87 524.7 374.13L524.91 376.71Z" fill="black"/>
<path id="Vector_100" d="M535.86 333.01C536.382 332.787 536.943 332.672 537.51 332.672C538.077 332.672 538.638 332.787 539.16 333.01C540.05 333.45 540.05 334.16 539.16 334.6C538.637 334.818 538.076 334.93 537.51 334.93C536.944 334.93 536.383 334.818 535.86 334.6C534.93 334.16 534.93 333.45 535.86 333.01Z" fill="#37474F"/>
<path id="Vector_101" d="M534.05 309.93L529.42 313.41L530.71 315.67L535.11 312.37C535.62 311.98 536.29 312.42 536.3 313.14L536.42 333.8H538.49V312.8C538.49 310.13 535.98 308.48 534.05 309.93Z" fill="#37474F"/>
<path id="Vector_102" d="M530.6 314.13C530.94 314.75 531 315.44 530.71 315.67C530.42 315.9 529.91 315.57 529.56 314.94C529.21 314.31 529.16 313.62 529.45 313.4C529.74 313.18 530.25 313.5 530.6 314.13Z" fill="#263238"/>
</g>
</g>
<g id="Character">
<g id="Character_2">
<path id="Vector_103" d="M281.08 127.97C276.71 129.46 271.72 129.12 266.38 140.29C261.04 151.46 254.5 163.62 253.13 168.4C251.76 173.18 254.42 177.88 261.13 177.8C267.84 177.72 278.78 178.07 278.78 178.07L281.08 127.97Z" fill="#FFA8A7"/>
<path id="Vector_104" d="M287.31 127.63C284.31 126.75 279.58 127.16 275.87 128.69C272.16 130.22 268.38 132.69 264.27 141.81C260.27 150.72 255.57 160.72 255.57 160.72C256.31 167.05 269.79 175.87 279.19 172.97L288.11 129.71L287.31 127.63Z" fill="#171717"/>
<path id="Vector_105" d="M326.02 149.34L325.15 148.86C328.62 142.52 329.01 137.2 326.26 133.86C323.72 130.78 318.65 129.91 313.36 131.62L313.05 130.68C318.74 128.84 324.22 129.84 327.05 133.23C328.79 135.36 330.98 140.27 326.02 149.34Z" fill="#263238"/>
<path id="Vector_106" d="M296.09 349.97C296.45 351.97 297.42 353.55 295 358.27C293.12 361.94 290.25 363.53 288.42 364.91C286.359 366.503 284.523 368.367 282.96 370.45C281.394 372.749 279.462 374.776 277.24 376.45C275.5 377.7 270.96 377.45 268.86 376.31C266.76 375.17 266.1 373.31 266.55 369.84C267 366.37 277.67 366.11 277.67 366.11L296.09 349.97Z" fill="black"/>
<path id="Vector_107" d="M266.79 330.03L268.57 362.39C268.64 364.29 279.18 366.26 281.29 361.83C281.454 358.474 281.848 355.132 282.47 351.83C283.16 348.56 284.32 342.83 284.32 342.83C285.26 336.05 285.59 331.05 285.59 331.05L266.79 330.03Z" fill="#FFA8A7"/>
<path id="Vector_108" d="M315.47 343.07C315.47 343.07 321.56 372.83 321.76 374.47C321.96 376.11 326.66 377.01 330.1 376.77C333.54 376.53 335.51 374.86 335.44 374.12L335.05 342.12L315.47 343.07Z" fill="#FFA8A7"/>
<path id="Vector_109" d="M309.53 303.34C309.53 303.34 308.88 297.59 304.8 280.34C301.97 268.34 299.49 255.49 299.49 255.49C299.49 255.49 295.83 271.27 293.85 283.68C292.42 292.68 290.97 301.21 288.17 318.41C287.027 325.968 285.478 333.459 283.53 340.85C277.03 344.63 267.17 340.97 267.17 340.97C267.17 340.97 266.36 330.58 266 317.72C265.53 301.02 268.92 294.35 268.92 294.35C268.92 294.35 269.46 271.8 269.49 255.18C269.49 231.58 267.95 209.67 272.79 191.1C273.64 190.84 321.38 165.38 323.91 196.48C324.53 204.16 328.04 224.48 329.22 240.87C331.22 268.69 333.12 290.29 333.52 299.78C334.06 308.9 334.52 317.46 334.97 334.51C335.18 341.95 334.97 348.28 334.97 348.28C328.9 352.71 315.35 348.1 315.35 348.1C315.35 348.1 314.47 340.8 312.22 330.52C308.3 312.5 309.53 303.34 309.53 303.34Z" fill="black"/>
<path id="Vector_110" opacity="0.65" d="M309.53 303.34C309.53 303.34 308.88 297.59 304.8 280.34C301.97 268.34 299.49 255.49 299.49 255.49C299.49 255.49 295.83 271.27 293.85 283.68C292.42 292.68 290.97 301.21 288.17 318.41C287.027 325.968 285.478 333.459 283.53 340.85C277.03 344.63 267.17 340.97 267.17 340.97C267.17 340.97 266.36 330.58 266 317.72C265.53 301.02 268.92 294.35 268.92 294.35C268.92 294.35 269.46 271.8 269.49 255.18C269.49 231.58 267.95 209.67 272.79 191.1C273.64 190.84 321.38 165.38 323.91 196.48C324.53 204.16 328.04 224.48 329.22 240.87C331.22 268.69 333.12 290.29 333.52 299.78C334.06 308.9 334.52 317.46 334.97 334.51C335.18 341.95 334.97 348.28 334.97 348.28C328.9 352.71 315.35 348.1 315.35 348.1C315.35 348.1 314.47 340.8 312.22 330.52C308.3 312.5 309.53 303.34 309.53 303.34Z" fill="black"/>
<g id="Group_2" opacity="0.2">
<path id="Vector_111" d="M305.62 234.57C305.372 234.578 305.127 234.519 304.91 234.4C304.04 233.92 295.35 227.77 295.35 225.62V224.93C295.304 220.031 295.534 215.133 296.04 210.26V209.79L317.54 210.48V210.96C317.54 211.52 317.78 224.82 316.62 227.4C315.62 229.64 309.86 233.33 306.96 234.29C306.529 234.447 306.078 234.541 305.62 234.57V234.57ZM296.99 210.77C296.521 215.455 296.308 220.162 296.35 224.87V225.57C296.35 226.78 303.52 232.42 305.4 233.48C305.4 233.48 305.67 233.63 306.7 233.29C309.58 232.29 314.94 228.77 315.76 226.94C316.58 225.11 316.66 215.5 316.6 211.4L296.99 210.77Z" fill="black"/>
</g>
<g id="Group_3" opacity="0.2">
<path id="Vector_112" d="M269.28 229.95L269.05 228.95C272.6 227.06 277.78 223.95 278.14 222.95C278.59 221.72 279.19 213.21 279.42 209.51C278.31 209.27 275.01 208.58 270 207.72L270.17 206.72C276.41 207.79 280.02 208.59 280.05 208.6L280.47 208.7V209.12C280.4 210.39 279.71 221.62 279.11 223.27C278.51 224.92 270.79 229.16 269.28 229.95Z" fill="black"/>
</g>
<path id="Vector_113" d="M335.06 339.73V342.11C335.06 342.11 333.24 344.69 325.06 345.18C316.88 345.67 314.6 343.57 314.6 343.57L314.26 341.57C312.96 341.92 313.26 343.47 314.26 347.32C315.26 351.17 316.12 354.5 316.99 355.32C317.86 356.14 322.34 357.32 327.18 356.88C332.02 356.44 335.08 354.34 335.88 353.15C336.68 351.96 336.79 347.28 336.88 344.77C336.97 342.26 336.49 339.77 335.06 339.73Z" fill="#27DEBF"/>
<path id="Vector_114" d="M286.27 328.89L285.79 331.29C285.79 331.29 283.99 333.46 275.79 333.11C267.59 332.76 266.52 330.46 266.52 330.46L266.42 328.57C264.68 328.91 264.29 330.3 264.88 334.24C265.47 338.18 266 341.57 266.79 342.39C267.58 343.21 271.9 344.89 276.79 344.99C281.68 345.09 283.87 343.5 284.79 342.39C285.71 341.28 286.37 336.16 286.79 333.67C287.21 331.18 287.69 329.09 286.27 328.89Z" fill="#27DEBF"/>
<path id="Vector_115" opacity="0.2" d="M299.49 255.46L295.04 237.12C292.604 236.066 290.434 234.483 288.686 232.485C286.939 230.487 285.66 228.125 284.94 225.57C284.94 225.57 284.64 234.04 292.18 238.05L297.46 255.48L296.21 270.73L299.49 255.46Z" fill="black"/>
<path id="Vector_116" d="M364 392.29C364.52 395.19 363.45 397.67 359.68 399.75C355.91 401.83 350.04 402.45 343.92 400.54C337.8 398.63 334.92 395.88 332.36 395.19C329.8 394.5 323.49 394.31 320.98 393.52C318.47 392.73 318.53 390.44 318.6 387.4L364 392.29Z" fill="black"/>
<path id="Vector_117" d="M318.73 373.18C318.965 374.095 319.145 375.024 319.27 375.96C319.47 376.95 319.47 377.97 319.27 378.96C318.966 379.971 318.742 381.004 318.6 382.05C318.404 383.266 318.317 384.498 318.34 385.73C318.333 386.79 318.627 387.831 319.19 388.73C320.255 389.945 321.707 390.754 323.3 391.02C324.994 391.364 326.721 391.525 328.45 391.5C331.92 391.55 337.28 394.01 340.94 396.15C344.6 398.29 348.87 398.45 352.94 398.06C357.72 397.6 362.71 394.93 363.52 392.97C364.33 391.01 364.52 389.53 353.42 384.52C350.77 383.32 348.11 382.2 345.53 380.82C343.94 379.97 342.37 379.1 340.87 378.1C339.949 377.619 339.107 377.002 338.37 376.27C337.73 375.472 337.378 374.482 337.37 373.46C337.386 372.401 337.507 371.346 337.73 370.31C337.95 368.91 338.1 367.5 338.19 366.08C338.26 365.573 338.212 365.056 338.05 364.57C337.61 363.57 336.27 363.42 335.33 363.57V365.45C334.76 366.45 333.43 366.45 332.33 366.61C331.204 366.697 330.129 367.114 329.24 367.81C328.36 368.67 328.3 370.05 328.24 371.28C328.24 372.13 327.9 375.28 326.38 373.56C326.107 373.2 325.919 372.783 325.83 372.34C325.34 370.46 324.94 368.34 323.28 367.34C322.54 366.9 320.78 366.69 320.13 366.12L319.54 363.21C319.139 363.324 318.766 363.519 318.443 363.782C318.119 364.045 317.853 364.371 317.66 364.74C317.333 365.683 317.227 366.689 317.35 367.68C317.519 368.869 317.793 370.04 318.17 371.18C318.37 371.81 318.56 372.49 318.73 373.18Z" fill="#BD00FF"/>
<g id="Group_4" opacity="0.4">
<path id="Vector_118" d="M318.73 373.18C318.965 374.095 319.145 375.024 319.27 375.96C319.47 376.95 319.47 377.97 319.27 378.96C318.966 379.971 318.742 381.004 318.6 382.05C318.404 383.266 318.317 384.498 318.34 385.73C318.333 386.79 318.627 387.831 319.19 388.73C320.255 389.945 321.707 390.754 323.3 391.02C324.994 391.364 326.721 391.525 328.45 391.5C331.92 391.55 337.28 394.01 340.94 396.15C344.6 398.29 348.87 398.45 352.94 398.06C357.72 397.6 362.71 394.93 363.52 392.97C364.33 391.01 364.52 389.53 353.42 384.52C350.77 383.32 348.11 382.2 345.53 380.82C343.94 379.97 342.37 379.1 340.87 378.1C339.949 377.619 339.107 377.002 338.37 376.27C337.73 375.472 337.378 374.482 337.37 373.46C337.386 372.401 337.507 371.346 337.73 370.31C337.95 368.91 338.1 367.5 338.19 366.08C338.26 365.573 338.212 365.056 338.05 364.57C337.61 363.57 336.27 363.42 335.33 363.57V365.45C334.76 366.45 333.43 366.45 332.33 366.61C331.204 366.697 330.129 367.114 329.24 367.81C328.36 368.67 328.3 370.05 328.24 371.28C328.24 372.13 327.9 375.28 326.38 373.56C326.107 373.2 325.919 372.783 325.83 372.34C325.34 370.46 324.94 368.34 323.28 367.34C322.54 366.9 320.78 366.69 320.13 366.12L319.54 363.21C319.139 363.324 318.766 363.519 318.443 363.782C318.119 364.045 317.853 364.371 317.66 364.74C317.333 365.683 317.227 366.689 317.35 367.68C317.519 368.869 317.793 370.04 318.17 371.18C318.37 371.81 318.56 372.49 318.73 373.18Z" fill="black"/>
</g>
<path id="Vector_119" d="M342.5 396.94C342.5 396.94 343.66 387.31 351.56 384.71C358.69 382.36 364.78 387.71 364 392.29C363.47 395.35 354.7 402.15 342.5 396.94Z" fill="#FAFAFA"/>
<path id="Vector_120" d="M349.61 382.86C347.61 383.004 345.712 383.801 344.21 385.13C341.91 386.99 341.82 388.25 341.82 388.25C341.643 388.418 341.418 388.527 341.177 388.563C340.935 388.598 340.688 388.559 340.47 388.45C340.252 388.341 340.072 388.167 339.956 387.952C339.84 387.738 339.792 387.493 339.82 387.25C339.82 387.25 340.44 382.4 346.87 381.53C347.408 381.439 347.962 381.518 348.453 381.756C348.944 381.994 349.349 382.38 349.61 382.86V382.86Z" fill="#FAFAFA"/>
<path id="Vector_121" d="M345.16 380.62C343.16 380.583 341.22 381.297 339.72 382.62C337.42 384.48 337.37 385.98 337.37 385.98C337.193 386.148 336.968 386.257 336.727 386.293C336.485 386.328 336.238 386.289 336.02 386.18C335.802 386.071 335.622 385.897 335.506 385.682C335.39 385.468 335.342 385.223 335.37 384.98C335.37 384.98 335.99 380.12 342.42 379.25C342.963 379.159 343.521 379.242 344.013 379.489C344.506 379.735 344.907 380.131 345.16 380.62V380.62Z" fill="#FAFAFA"/>
<path id="Vector_122" d="M340.79 378C338.788 377.833 336.796 378.426 335.21 379.66C332.79 381.35 332.65 382.84 332.65 382.84C332.466 383.03 332.223 383.153 331.961 383.19C331.699 383.227 331.432 383.175 331.203 383.043C330.973 382.911 330.794 382.707 330.694 382.461C330.594 382.216 330.578 381.945 330.65 381.69C330.65 381.69 331.65 376.88 338.08 376.46C338.637 376.391 339.202 376.504 339.69 376.781C340.178 377.058 340.564 377.486 340.79 378V378Z" fill="#FAFAFA"/>
<path id="Vector_123" d="M293.11 345.85C290.5 344.46 283.26 348.11 283.26 348.11L282.89 349.85L282.5 351.7C282.17 353.08 280.4 353.59 279.19 353.82C275.881 354.247 272.519 353.795 269.44 352.51C268.07 351.82 267.95 351.01 267.95 351.01C267.95 350.52 267.85 349.21 267.85 349.21C267.02 349.21 266.1 349.65 266.3 351.43C266.66 354.52 267.15 359.95 266.78 362.79C266.6 364.19 266.27 365.85 266.11 367.25C266.01 368.2 266.11 370.97 267.44 372.03C267.816 372.474 268.275 372.84 268.79 373.11C271.54 374.68 276.21 374.21 278.37 371.95C281.05 369.13 282.93 366.59 286.71 363.18C288.95 361.18 291.16 360.18 292.94 357.72C293.92 356.32 294.657 354.765 295.12 353.12C296.3 349.06 295.79 347.28 293.11 345.85Z" fill="#BD00FF"/>
<path id="Vector_124" opacity="0.4" d="M293.11 345.85C290.5 344.46 283.26 348.11 283.26 348.11L282.89 349.85L282.5 351.7C282.17 353.08 280.4 353.59 279.19 353.82C275.881 354.247 272.519 353.795 269.44 352.51C268.07 351.82 267.95 351.01 267.95 351.01C267.95 350.52 267.85 349.21 267.85 349.21C267.02 349.21 266.1 349.65 266.3 351.43C266.66 354.52 267.15 359.95 266.78 362.79C266.6 364.19 266.27 365.85 266.11 367.25C266.01 368.2 266.11 370.97 267.44 372.03C267.816 372.474 268.275 372.84 268.79 373.11C271.54 374.68 276.21 374.21 278.37 371.95C281.05 369.13 282.93 366.59 286.71 363.18C288.95 361.18 291.16 360.18 292.94 357.72C293.92 356.32 294.657 354.765 295.12 353.12C296.3 349.06 295.79 347.28 293.11 345.85Z" fill="black"/>
<path id="Vector_125" d="M286.09 356.23C285.376 354.419 284.11 352.879 282.47 351.83C282.61 351.19 282.76 350.53 282.89 349.83C284.093 350.335 285.183 351.076 286.093 352.011C287.004 352.946 287.717 354.054 288.19 355.27C288.61 356.46 286.95 357.19 286.09 356.23Z" fill="#FAFAFA"/>
<path id="Vector_126" d="M282.33 357.99C282.113 357.433 281.839 356.9 281.51 356.4C281.7 355.52 281.9 354.56 282.12 353.55C283.136 354.536 283.927 355.73 284.44 357.05C284.85 358.22 283.19 358.95 282.33 357.99Z" fill="#FAFAFA"/>
<path id="Vector_127" d="M292.9 357.72C292.9 357.41 293.06 350.12 283.26 348.12C283.26 348.06 283.41 347.42 283.46 347.12C284.664 345.945 286.187 345.152 287.84 344.84C291.36 344.21 294 345.34 295.6 347.84C297.2 350.34 294.79 356.38 292.9 357.72Z" fill="#FAFAFA"/>
<path id="Vector_128" d="M275.33 139.75C276.413 136.577 278.147 133.665 280.42 131.2C281.95 129.6 286 126.41 288.42 128.05C288.42 128.05 295.61 133.05 304.36 132.21C307.3 132.95 302.45 131.67 305.36 132.49C307.64 133.082 309.863 133.879 312 134.87C312.931 135.266 313.834 135.727 314.7 136.25C315.741 136.962 316.742 137.73 317.7 138.55C322.51 142.72 321.94 151.75 323.77 163.32C325.6 174.89 328.82 194.42 323.97 196.45C319.44 199.06 304.15 201.45 295.41 200.32C289.1 199.49 282.41 198.37 276.48 195.97C274.19 195.04 270.95 193.61 269.48 191.5C268.18 189.62 268.33 186.85 268.57 184.7C269.37 177.7 270.35 166.76 271.42 159.82C272.42 153.23 273.06 146.41 275.26 140.13C275.24 140 275.28 139.88 275.33 139.75Z" fill="#BD00FF"/>
<g id="Group_5" opacity="0.2">
<path id="Vector_129" d="M275.33 139.75C276.413 136.577 278.147 133.665 280.42 131.2C281.95 129.6 286 126.41 288.42 128.05C288.42 128.05 295.61 133.05 304.36 132.21C307.3 132.95 302.45 131.67 305.36 132.49C307.64 133.082 309.863 133.879 312 134.87C312.931 135.266 313.834 135.727 314.7 136.25C315.741 136.962 316.742 137.73 317.7 138.55C322.51 142.72 321.94 151.75 323.77 163.32C325.6 174.89 328.82 194.42 323.97 196.45C319.44 199.06 304.15 201.45 295.41 200.32C289.1 199.49 282.41 198.37 276.48 195.97C274.19 195.04 270.95 193.61 269.48 191.5C268.18 189.62 268.33 186.85 268.57 184.7C269.37 177.7 270.35 166.76 271.42 159.82C272.42 153.23 273.06 146.41 275.26 140.13C275.24 140 275.28 139.88 275.33 139.75Z" fill="black"/>
</g>
<g id="Walkman">
<path id="Vector_130" d="M314.41 220.1C314.139 220.196 313.852 220.236 313.565 220.219C313.278 220.202 312.998 220.127 312.74 220L310.21 218.57C309.934 218.393 309.704 218.153 309.539 217.87C309.373 217.586 309.278 217.268 309.26 216.94V201.22C309.275 200.89 309.367 200.568 309.53 200.28L313.95 202.83C313.784 203.116 313.691 203.439 313.68 203.77V219.46C313.68 219.97 314 220.22 314.41 220.1Z" fill="#27DEBF"/>
<path id="Vector_131" opacity="0.18" d="M314.41 220.1C314.139 220.196 313.852 220.236 313.565 220.219C313.278 220.202 312.998 220.127 312.74 220L310.21 218.57C309.934 218.393 309.704 218.153 309.539 217.87C309.373 217.586 309.278 217.268 309.26 216.94V201.22C309.275 200.89 309.367 200.568 309.53 200.28L313.95 202.83C313.784 203.116 313.691 203.439 313.68 203.77V219.46C313.68 219.97 314 220.22 314.41 220.1Z" fill="black"/>
<path id="Vector_132" d="M335.79 190.71C335.67 190.34 335.31 190.22 334.88 190.46L314.67 202.13C314.393 202.313 314.16 202.555 313.99 202.84L309.57 200.28C309.737 199.998 309.97 199.761 310.25 199.59L330.47 187.91C330.761 187.762 331.083 187.686 331.41 187.686C331.737 187.686 332.059 187.762 332.35 187.91L334.88 189.37C335.348 189.679 335.675 190.161 335.79 190.71Z" fill="#455A64"/>
<path id="Vector_133" d="M334.84 190.46L314.63 202.13C314.344 202.303 314.103 202.542 313.929 202.828C313.755 203.113 313.653 203.436 313.63 203.77V219.45C313.63 220.05 314.06 220.3 314.63 220L334.84 208.33C335.114 208.149 335.342 207.907 335.505 207.622C335.668 207.337 335.762 207.018 335.78 206.69V191.01C335.79 190.41 335.36 190.16 334.84 190.46Z" fill="#AFD3CD"/>
<path id="Vector_134" d="M335.79 191.01C335.79 190.41 335.37 190.16 334.85 190.46L314.64 202.13C314.359 202.305 314.128 202.55 313.97 202.84L309.54 200.28C309.377 200.568 309.285 200.89 309.27 201.22V202.68L313.69 205.23L335.79 192.47V191.01Z" fill="#37474F"/>
<path id="Vector_135" d="M313.68 203.77C313.693 203.44 313.786 203.117 313.95 202.83L309.53 200.28C309.367 200.568 309.275 200.89 309.26 201.22V202.68L313.68 205.23V203.77Z" fill="#263238"/>
<path id="Vector_136" d="M323.61 203.57L330.28 199.73C332.1 198.67 333.57 199.53 333.57 201.63C333.509 202.775 333.178 203.888 332.605 204.881C332.031 205.873 331.231 206.716 330.27 207.34L323.61 211.19C321.79 212.19 320.31 211.39 320.31 209.28C320.374 208.136 320.706 207.024 321.279 206.032C321.853 205.04 322.651 204.197 323.61 203.57V203.57Z" fill="#455A64"/>
<path id="Vector_137" d="M317.09 207.29C317.52 207.04 317.87 207.29 317.87 207.8V213.12C317.861 213.401 317.785 213.677 317.65 213.923C317.514 214.17 317.323 214.381 317.09 214.54C316.65 214.79 316.3 214.54 316.3 214.03V208.71C316.31 208.428 316.387 208.152 316.525 207.905C316.662 207.658 316.856 207.448 317.09 207.29V207.29Z" fill="#455A64"/>
<path id="Vector_138" d="M323.71 205.66C324.59 205.15 325.3 205.56 325.3 206.57C325.272 207.123 325.114 207.662 324.837 208.141C324.561 208.621 324.174 209.029 323.71 209.33C322.83 209.84 322.12 209.43 322.12 208.41C322.149 207.859 322.309 207.322 322.585 206.844C322.861 206.366 323.247 205.961 323.71 205.66V205.66Z" fill="#263238"/>
<path id="Vector_139" d="M330.22 201.99C331.1 201.48 331.82 201.89 331.82 202.91C331.788 203.463 331.626 204.001 331.349 204.48C331.071 204.96 330.684 205.367 330.22 205.67C329.34 206.17 328.63 205.76 328.63 204.75C328.659 204.197 328.819 203.659 329.095 203.18C329.371 202.7 329.757 202.293 330.22 201.99V201.99Z" fill="#263238"/>
<path id="Vector_140" d="M317.48 198.49V199.3C317.478 199.319 317.471 199.337 317.461 199.352C317.45 199.368 317.436 199.381 317.42 199.39L315.03 200.77C314.985 200.792 314.935 200.804 314.885 200.804C314.835 200.804 314.785 200.792 314.74 200.77L312.97 199.77C312.956 199.762 312.944 199.75 312.935 199.736C312.926 199.722 312.921 199.706 312.92 199.69V198.87C312.921 198.852 312.927 198.835 312.938 198.821C312.949 198.807 312.963 198.796 312.98 198.79L315.03 197.6L315.37 197.4C315.414 197.38 315.462 197.37 315.51 197.37C315.558 197.37 315.606 197.38 315.65 197.4L317.42 198.4C317.436 198.409 317.45 198.422 317.461 198.438C317.471 198.454 317.478 198.471 317.48 198.49Z" fill="#FF0F00"/>
<g id="Group_6" opacity="0.15">
<path id="Vector_141" d="M317.48 198.49V199.3C317.478 199.319 317.471 199.337 317.461 199.352C317.45 199.368 317.436 199.381 317.42 199.39L315.03 200.77C314.985 200.792 314.935 200.804 314.885 200.804C314.835 200.804 314.785 200.792 314.74 200.77L312.97 199.77C312.956 199.762 312.944 199.75 312.935 199.736C312.926 199.722 312.921 199.706 312.92 199.69V198.87C312.921 198.852 312.927 198.835 312.938 198.821C312.949 198.807 312.963 198.796 312.98 198.79L315.03 197.6L315.37 197.4C315.414 197.38 315.462 197.37 315.51 197.37C315.558 197.37 315.606 197.38 315.65 197.4L317.42 198.4C317.436 198.409 317.45 198.422 317.461 198.438C317.471 198.454 317.478 198.471 317.48 198.49Z" fill="black"/>
</g>
<path id="Vector_142" d="M312.92 198.84V199.66C312.921 199.676 312.926 199.692 312.935 199.706C312.944 199.72 312.956 199.732 312.97 199.74L314.74 200.74C314.786 200.75 314.834 200.75 314.88 200.74V199.92C314.834 199.93 314.786 199.93 314.74 199.92L312.98 198.92C312.927 198.9 312.907 198.873 312.92 198.84Z" fill="#27DEBF"/>
<g id="Group_7" opacity="0.3">
<path id="Vector_143" d="M312.92 198.84V199.66C312.921 199.676 312.926 199.692 312.935 199.706C312.944 199.72 312.956 199.732 312.97 199.74L314.74 200.74C314.786 200.75 314.834 200.75 314.88 200.74V199.92C314.834 199.93 314.786 199.93 314.74 199.92L312.98 198.92C312.927 198.9 312.907 198.873 312.92 198.84Z" fill="black"/>
</g>
<path id="Vector_144" d="M315.02 199.95L317.42 198.56C317.5 198.56 317.5 198.45 317.42 198.4L315.65 197.4C315.606 197.38 315.558 197.37 315.51 197.37C315.462 197.37 315.414 197.38 315.37 197.4L312.98 198.79C312.9 198.79 312.9 198.9 312.98 198.95L314.74 199.95C314.784 199.97 314.832 199.98 314.88 199.98C314.928 199.98 314.976 199.97 315.02 199.95Z" fill="#27DEBF"/>
<path id="Vector_145" d="M321.5 196.16V196.97C321.499 196.988 321.493 197.005 321.482 197.019C321.471 197.033 321.457 197.044 321.44 197.05L319.05 198.43C319.006 198.455 318.956 198.467 318.905 198.467C318.854 198.467 318.804 198.455 318.76 198.43L317 197.43C316.983 197.424 316.969 197.413 316.958 197.399C316.947 197.385 316.941 197.368 316.94 197.35V196.57C316.941 196.552 316.947 196.535 316.958 196.521C316.969 196.507 316.983 196.496 317 196.49L319 195.31L319.34 195.11C319.384 195.086 319.434 195.073 319.485 195.073C319.536 195.073 319.586 195.086 319.63 195.11V195.11L321.39 196.11C321.4 196.105 321.412 196.103 321.423 196.103C321.435 196.103 321.446 196.105 321.456 196.11C321.467 196.115 321.476 196.122 321.484 196.13C321.491 196.139 321.497 196.149 321.5 196.16V196.16Z" fill="#27DEBF"/>
<g id="Group_8" opacity="0.15">
<path id="Vector_146" d="M321.5 196.16V196.97C321.499 196.988 321.493 197.005 321.482 197.019C321.471 197.033 321.457 197.044 321.44 197.05L319.05 198.43C319.006 198.455 318.956 198.467 318.905 198.467C318.854 198.467 318.804 198.455 318.76 198.43L317 197.43C316.983 197.424 316.969 197.413 316.958 197.399C316.947 197.385 316.941 197.368 316.94 197.35V196.57C316.941 196.552 316.947 196.535 316.958 196.521C316.969 196.507 316.983 196.496 317 196.49L319 195.31L319.34 195.11C319.384 195.086 319.434 195.073 319.485 195.073C319.536 195.073 319.586 195.086 319.63 195.11V195.11L321.39 196.11C321.4 196.105 321.412 196.103 321.423 196.103C321.435 196.103 321.446 196.105 321.456 196.11C321.467 196.115 321.476 196.122 321.484 196.13C321.491 196.139 321.497 196.149 321.5 196.16V196.16Z" fill="black"/>
</g>
<path id="Vector_147" d="M316.94 196.51V197.33C316.941 197.348 316.947 197.365 316.958 197.379C316.969 197.393 316.983 197.404 317 197.41L318.76 198.41C318.809 198.426 318.861 198.426 318.91 198.41V197.59C318.861 197.606 318.809 197.606 318.76 197.59L317 196.59C316.984 196.583 316.97 196.572 316.959 196.558C316.949 196.544 316.942 196.527 316.94 196.51V196.51Z" fill="#27DEBF"/>
<g id="Group_9" opacity="0.3">
<path id="Vector_148" d="M316.94 196.51V197.33C316.941 197.348 316.947 197.365 316.958 197.379C316.969 197.393 316.983 197.404 317 197.41L318.76 198.41C318.809 198.426 318.861 198.426 318.91 198.41V197.59C318.861 197.606 318.809 197.606 318.76 197.59L317 196.59C316.984 196.583 316.97 196.572 316.959 196.558C316.949 196.544 316.942 196.527 316.94 196.51V196.51Z" fill="black"/>
</g>
<path id="Vector_149" d="M319.05 197.62L321.44 196.24C321.52 196.24 321.52 196.12 321.44 196.08L319.68 195.08C319.636 195.056 319.586 195.043 319.535 195.043C319.484 195.043 319.434 195.056 319.39 195.08L317 196.46C316.979 196.46 316.958 196.468 316.943 196.483C316.928 196.498 316.92 196.519 316.92 196.54C316.92 196.561 316.928 196.582 316.943 196.597C316.958 196.612 316.979 196.62 317 196.62L318.76 197.62C318.804 197.645 318.854 197.657 318.905 197.657C318.956 197.657 319.006 197.645 319.05 197.62V197.62Z" fill="#27DEBF"/>
<path id="Vector_150" d="M329.58 241.18L329.27 241.5L329.17 240.16C330.66 238.63 331.28 237 330.9 235.5C329.9 231.58 321.99 229.02 316.22 227.15C312.88 226.06 310.22 225.21 309.22 224.28C308.586 223.742 308.085 223.066 307.755 222.302C307.426 221.539 307.277 220.71 307.32 219.88C307.42 217.02 309.43 214.25 311.38 212.77L311.98 213.56C310.962 214.31 310.11 215.262 309.477 216.356C308.843 217.451 308.443 218.664 308.3 219.92C308.248 220.602 308.356 221.287 308.614 221.921C308.873 222.554 309.276 223.119 309.79 223.57C310.7 224.37 313.38 225.24 316.48 226.24C322.81 228.3 330.69 230.85 331.82 235.29C332.33 237.1 331.56 239.1 329.58 241.18Z" fill="#263238"/>
<path id="Vector_151" d="M312.31 213.44C312.324 213.589 312.308 213.738 312.261 213.88C312.214 214.022 312.138 214.152 312.037 214.262C311.937 214.373 311.815 214.461 311.678 214.522C311.542 214.582 311.394 214.613 311.245 214.613C311.096 214.613 310.948 214.582 310.812 214.522C310.675 214.461 310.553 214.373 310.453 214.262C310.352 214.152 310.276 214.022 310.229 213.88C310.182 213.738 310.166 213.589 310.18 213.44C310.206 213.175 310.329 212.93 310.526 212.751C310.723 212.572 310.979 212.473 311.245 212.473C311.511 212.473 311.767 212.572 311.964 212.751C312.161 212.93 312.284 213.175 312.31 213.44V213.44Z" fill="#263238"/>
</g>
<path id="Vector_152" d="M381.79 126.67C380.659 125.064 379.282 123.647 377.71 122.47C376.48 121.712 375.041 121.362 373.6 121.47C373.23 121.432 372.857 121.481 372.51 121.613C372.162 121.745 371.851 121.956 371.6 122.23C371.442 122.495 371.359 122.797 371.359 123.105C371.359 123.413 371.442 123.715 371.6 123.98C371.909 124.513 372.35 124.957 372.88 125.27C373.39 125.6 373.94 125.88 374.44 126.27C375.396 126.987 376.134 127.957 376.57 129.07C377.005 130.178 377.226 131.359 377.22 132.55C377.285 133.249 377.123 133.95 376.76 134.55C376.449 134.902 376.02 135.128 375.554 135.185C375.088 135.243 374.617 135.127 374.23 134.86C373.49 134.4 373.36 133 373.31 132.23C373.322 131.264 373.238 130.299 373.06 129.35C373.016 129.081 372.917 128.824 372.767 128.597C372.618 128.369 372.422 128.175 372.193 128.028C371.964 127.881 371.706 127.783 371.437 127.742C371.168 127.702 370.893 127.718 370.63 127.79C370.103 127.973 369.635 128.294 369.275 128.72C368.914 129.146 368.674 129.66 368.58 130.21C367.5 134.28 369.58 142.91 367.25 146.76C364.92 150.61 352.64 166.08 352.64 166.08C352.64 166.08 341.79 155.31 333.94 146.46C327.31 139.03 322.65 132.81 315.03 136.46L319.72 159.39C319.72 159.39 340.84 178.71 346.1 182.62C351.36 186.53 354.35 187.03 358.54 182.82C361.93 179.41 374.02 159.05 378.54 151.39C381.07 147.79 383.63 145.75 384.23 142.63C384.83 139.51 384.11 132.48 384 130.63C383.89 129.28 382.58 127.75 381.79 126.67Z" fill="#FFA8A7"/>
<path id="Vector_153" d="M312.6 133C322.49 133.16 324.21 133.09 330.9 140.65C338.28 149.01 347.36 159.88 347.36 159.88C346.36 168.5 342.07 174.64 329.79 179.04C329.79 179.04 319.79 163.88 314.41 156.04C309.03 148.2 307.23 138.85 312.6 133Z" fill="#171717"/>
<g id="Coin">
<path id="Vector_154" d="M371.91 122.5C371.958 123.533 372.192 124.549 372.6 125.5L373.41 129.1L375.27 128.65C375.716 128.506 376.116 128.245 376.426 127.893C376.735 127.54 376.944 127.111 377.03 126.65C377.343 125.402 377.357 124.098 377.072 122.844C376.788 121.59 376.211 120.42 375.39 119.43C375.11 119.065 374.739 118.78 374.314 118.605C373.89 118.429 373.426 118.369 372.97 118.43V118.43L371.1 118.87L371.91 122.5Z" fill="#5B6664"/>
<path id="Vector_155" opacity="0.2" d="M371.91 122.5C371.958 123.533 372.192 124.549 372.6 125.5L373.41 129.1L375.27 128.65C375.716 128.506 376.116 128.245 376.426 127.893C376.735 127.54 376.944 127.111 377.03 126.65C377.343 125.402 377.357 124.098 377.072 122.844C376.788 121.59 376.211 120.42 375.39 119.43C375.11 119.065 374.739 118.78 374.314 118.605C373.89 118.429 373.426 118.369 372.97 118.43V118.43L371.1 118.87L371.91 122.5Z" fill="black"/>
<path id="Vector_156" d="M375.17 127.18C375.484 125.932 375.499 124.628 375.214 123.374C374.929 122.119 374.352 120.95 373.53 119.96C371.92 118.23 370.05 118.65 369.35 120.9C369.034 122.147 369.018 123.452 369.303 124.707C369.588 125.962 370.166 127.131 370.99 128.12C372.59 129.86 374.46 129.43 375.17 127.18Z" fill="#8F9C9A"/>
</g>
<g id="Head">
<path id="Vector_157" d="M320.36 99.3L319.45 109.76L324.94 108.11C325.109 108.06 325.263 107.971 325.39 107.849C325.517 107.727 325.613 107.577 325.67 107.41C325.727 107.244 325.743 107.066 325.717 106.892C325.691 106.718 325.623 106.553 325.52 106.41L320.36 99.3Z" fill="#F28F8F"/>
<path id="Vector_158" d="M320.27 115.45C318.74 121.95 316.09 123.89 312.27 123.83C309.858 123.644 307.462 123.286 305.1 122.76L305.51 130.92V132.28C295.65 133.74 287.82 130.4 287.8 128.4C287.8 128.4 286.8 108.61 285.49 100.02C284.49 93.53 284.85 85.16 290.79 81.02C299.73 74.78 317.73 74.17 319.79 88.84C321.79 103.2 321.91 108.57 320.27 115.45Z" fill="#FFA8A7"/>
<path id="Vector_159" d="M280.21 85.46L274.21 82.57C274.378 82.163 274.627 81.7945 274.942 81.4869C275.256 81.1793 275.631 80.9391 276.042 80.7809C276.452 80.6228 276.891 80.55 277.331 80.567C277.771 80.5841 278.203 80.6906 278.6 80.88C279.405 81.2908 280.021 81.9955 280.321 82.8481C280.621 83.7007 280.581 84.6359 280.21 85.46V85.46Z" fill="#263238"/>
<path id="Vector_160" d="M316.86 101.57C316.876 101.805 316.846 102.04 316.771 102.263C316.695 102.486 316.577 102.692 316.421 102.868C316.266 103.045 316.077 103.189 315.866 103.292C315.655 103.396 315.425 103.456 315.19 103.47C314.717 103.478 314.259 103.301 313.915 102.975C313.571 102.65 313.368 102.203 313.35 101.73C313.325 101.491 313.348 101.25 313.42 101.021C313.491 100.792 313.609 100.58 313.765 100.397C313.922 100.215 314.114 100.067 314.329 99.9622C314.545 99.857 314.78 99.7972 315.02 99.7862C315.26 99.7753 315.499 99.8135 315.724 99.8986C315.948 99.9836 316.153 100.114 316.325 100.281C316.498 100.448 316.634 100.648 316.726 100.87C316.818 101.092 316.863 101.33 316.86 101.57V101.57Z" fill="#263238"/>
<path id="Vector_161" d="M314.53 96.83L310.79 99.57C310.435 99.0526 310.295 98.4182 310.397 97.7994C310.5 97.1806 310.838 96.6255 311.34 96.25C311.586 96.0743 311.865 95.9498 312.16 95.8838C312.455 95.8178 312.76 95.8116 313.058 95.8657C313.355 95.9198 313.639 96.033 313.892 96.1986C314.144 96.3643 314.362 96.579 314.53 96.83Z" fill="#263238"/>
<path id="Vector_162" d="M311.95 112.23L318.34 113.67C318.124 114.523 317.588 115.26 316.844 115.729C316.099 116.198 315.203 116.363 314.34 116.19C313.917 116.097 313.518 115.919 313.167 115.667C312.815 115.415 312.519 115.093 312.295 114.723C312.071 114.353 311.926 113.941 311.866 113.512C311.807 113.083 311.835 112.647 311.95 112.23Z" fill="#B16668"/>
<path id="Vector_163" d="M312.28 113.4C312.14 113.4 312.01 113.5 311.88 113.55C311.968 114.185 312.248 114.778 312.682 115.25C313.117 115.722 313.684 116.05 314.31 116.19C314.926 116.329 315.569 116.284 316.16 116.06C316.146 115.909 316.123 115.758 316.09 115.61C315.877 114.813 315.356 114.132 314.642 113.718C313.927 113.304 313.078 113.189 312.28 113.4V113.4Z" fill="#F28F8F"/>
<g id="Headphones">
<path id="Vector_164" d="M304.22 131.77C304.155 130.611 304.434 129.458 305.024 128.458C305.614 127.458 306.487 126.655 307.533 126.151C308.579 125.647 309.75 125.465 310.9 125.627C312.05 125.789 313.126 126.288 313.991 127.062C314.857 127.835 315.474 128.848 315.764 129.972C316.055 131.097 316.005 132.282 315.621 133.377C315.238 134.473 314.538 135.431 313.611 136.129C312.683 136.827 311.569 137.235 310.41 137.3C308.856 137.387 307.331 136.854 306.17 135.817C305.009 134.78 304.308 133.324 304.22 131.77V131.77Z" fill="#27DEBF"/>
<path id="Vector_165" d="M307.14 131.57C307.109 130.99 307.251 130.414 307.548 129.915C307.844 129.416 308.281 129.015 308.805 128.764C309.329 128.513 309.915 128.423 310.49 128.504C311.065 128.586 311.602 128.836 312.035 129.223C312.468 129.61 312.777 130.117 312.922 130.679C313.068 131.241 313.043 131.834 312.852 132.382C312.661 132.93 312.312 133.41 311.849 133.76C311.386 134.11 310.83 134.316 310.25 134.35C309.469 134.394 308.703 134.125 308.119 133.604C307.536 133.083 307.184 132.351 307.14 131.57V131.57Z" fill="#37474F"/>
<path id="Vector_166" d="M287.63 124.57L287.49 122.26C287.49 122.26 279.49 124.8 277.59 127.36C277.137 127.96 276.907 128.699 276.94 129.45C276.965 129.949 277.098 130.437 277.33 130.88C277.444 130.521 277.617 130.183 277.84 129.88C279.79 127.37 287.63 124.57 287.63 124.57Z" fill="#E0E0E0"/>
<path id="Vector_167" d="M308.28 130.5C303.28 132.23 291.28 135.28 284.56 134.64C280.56 134.27 278.21 132.64 277.33 130.92C277.098 130.477 276.965 129.989 276.94 129.49L277.19 132.17C277.39 134.38 279.86 136.7 284.8 137.17C291.49 137.8 303.8 134.57 308.8 132.84L308.28 130.5Z" fill="#FAFAFA"/>
<path id="Vector_168" d="M291.9 134.98L292.12 136.33C292.141 136.461 292.187 136.587 292.257 136.7C292.327 136.813 292.418 136.911 292.526 136.988C292.634 137.065 292.756 137.12 292.886 137.15C293.015 137.179 293.149 137.183 293.28 137.16C296 136.68 303.64 135.23 308.43 133.38C308.688 133.265 308.898 133.066 309.028 132.815C309.157 132.564 309.196 132.276 309.14 132L308.87 130.83C308.842 130.703 308.787 130.584 308.71 130.48C308.632 130.376 308.534 130.289 308.42 130.226C308.307 130.163 308.182 130.124 308.052 130.113C307.923 130.101 307.793 130.117 307.67 130.16C302.789 131.672 297.819 132.884 292.79 133.79C292.65 133.803 292.515 133.845 292.393 133.913C292.271 133.981 292.164 134.075 292.08 134.187C291.996 134.299 291.937 134.428 291.906 134.564C291.875 134.701 291.873 134.843 291.9 134.98V134.98Z" fill="#263238"/>
</g>
<path id="Vector_169" d="M294.48 122.57C294.829 122.04 295.127 121.477 295.37 120.89C297 116.997 297.139 112.639 295.76 108.65C293.58 110.32 290.3 108.85 289.06 106.7C288.466 105.741 288.125 104.648 288.069 103.521C288.013 102.395 288.244 101.273 288.74 100.26C289.157 99.5728 289.712 98.9792 290.369 98.5164C291.027 98.0535 291.772 97.7313 292.56 97.57C293.239 97.5118 293.923 97.624 294.548 97.8964C295.173 98.1688 295.72 98.5928 296.14 99.13C296.64 99.7111 297.008 100.393 297.22 101.13C297.41 101.79 297.42 102.38 298.05 102.78C299.05 103.4 300.05 102.37 300.49 101.41C301.061 100.127 301.265 98.7117 301.08 97.32C302.502 97.4118 303.927 97.2116 305.269 96.7318C306.61 96.2519 307.839 95.5027 308.88 94.53C310.215 93.492 311.311 92.1785 312.092 90.6789C312.874 89.1793 313.324 87.5289 313.41 85.84C315.41 86.41 319.06 87.18 320.63 95.37C321.386 95.2568 322.086 94.9066 322.63 94.37C324.328 92.3815 325.342 89.8991 325.52 87.29C326.207 88.7419 326.711 90.2736 327.02 91.85C328.908 89.7347 330.1 87.0894 330.433 84.2734C330.766 81.4574 330.223 78.6072 328.88 76.11C327.459 73.6531 325.398 71.6275 322.917 70.2487C320.435 68.8699 317.627 68.1896 314.79 68.28C311.23 68.4 307.79 69.66 304.33 70.28C300.41 70.99 296.44 70.51 292.5 71.28C289.426 71.81 286.536 73.1104 284.1 75.06C282.614 76.2999 281.422 77.8539 280.61 79.61C280.201 80.5032 279.918 81.4489 279.77 82.42C279.791 83.2549 279.683 84.0881 279.45 84.89C279.11 85.51 278.22 85.81 277.67 86.21C276.907 86.778 276.212 87.4323 275.6 88.16C274.367 89.6152 273.466 91.3214 272.96 93.16C272.085 96.738 272.437 100.506 273.96 103.86C275.71 107.86 278.76 111.24 280.64 115.21C281.422 116.529 281.652 118.103 281.28 119.59C281.04 120.26 280.58 120.97 280.88 121.59C281.014 121.823 281.216 122.01 281.459 122.126C281.702 122.242 281.974 122.282 282.24 122.24C282.769 122.142 283.272 121.937 283.72 121.64C283.31 121.87 283.77 123.12 283.94 123.38C284.092 123.66 284.329 123.885 284.616 124.023C284.903 124.161 285.226 124.206 285.54 124.15C287.009 124.067 288.394 123.436 289.42 122.38C289.379 122.677 289.405 122.98 289.497 123.265C289.589 123.551 289.744 123.812 289.95 124.03C290.184 124.248 290.468 124.404 290.777 124.484C291.086 124.565 291.41 124.567 291.72 124.49C292.626 124.308 293.446 123.83 294.05 123.13C294.201 122.95 294.345 122.763 294.48 122.57V122.57Z" fill="#263238"/>
<path id="Vector_170" d="M298.96 119.73C298.96 119.73 300.76 124.23 305.26 125.01L305.13 122.76C302.916 122.109 300.829 121.084 298.96 119.73Z" fill="#F28F8F"/>
</g>
</g>
</g>
</g>
<defs>
<clipPath id="clip0_1_4">
<rect width="843.6" height="468.24" fill="white"/>
</clipPath>
</defs>
</svg>
