<svg width="345" height="529" viewBox="0 0 345 529" fill="none" xmlns="http://www.w3.org/2000/svg">
<g id="2201_w020_n001_1251a_p30_1251 [Convertido] 1" clip-path="url(#clip0_1_3)">
<g id="Group">
<g id="illustration">
<g id="Group_2">
<path id="Vector" d="M297.595 502.865V528.528H140.689C140.689 528.528 140.466 476.127 136.42 443.028C132.375 409.929 287.685 493.763 297.595 502.865Z" fill="url(#paint0_linear_1_3)"/>
<path id="Vector_2" d="M156.799 156.544L20.2938 166.222C20.2938 166.222 15.1978 61.5387 3.31036 4.19077C3.31036 4.19077 88.7944 -5.23606 148.806 4.19077C148.803 4.19077 156.306 74.2413 156.799 156.544Z" fill="url(#paint1_linear_1_3)"/>
<path id="Vector_3" d="M-3.45585e-05 8.50715L3.30802 4.19077C3.30802 4.19077 19.158 86.8089 20.2938 166.222H16.8957C16.8957 166.222 16.9739 93.9554 -3.45585e-05 8.50715Z" fill="url(#paint2_linear_1_3)"/>
<path id="Vector_4" d="M149.802 19.3064C146.871 26.5502 146.264 4.99431 118.832 2.42012C91.4005 -0.154065 17.4269 7.3196 11.4108 9.14713C5.39478 10.9747 4.26837 4.93978 4.26837 4.93978C4.26837 4.93978 76.262 -0.43614 106.738 0.696881C137.215 1.8299 147.288 3.6124 148.161 4.84497C149.033 6.07755 149.802 19.3064 149.802 19.3064Z" fill="#93C2FF"/>
<path id="Vector_5" d="M89.3731 224.803C93.6984 226.396 95.9511 246.013 90.9571 258.274C85.9631 270.536 72.4773 282.196 63.5066 286.379C54.5359 290.563 63.694 246.389 72.5627 235.827C81.4315 225.265 89.3731 224.803 89.3731 224.803Z" fill="#4B81EE"/>
<path id="Vector_6" d="M253.948 186.963C258.454 190.371 266.841 207.16 280.144 211.403C293.447 215.646 303.091 208.639 308.885 217.803C314.678 226.967 278.446 292.893 273.078 363.065C267.709 433.236 298.837 511.611 298.837 511.611C298.837 511.611 256.779 515.347 239.393 516.705C200.707 519.723 155.04 498.311 133.527 488.41C132.458 475.907 147.105 276.761 152.377 232.236C157.648 187.712 156.906 186.588 178.042 182.438C199.177 178.287 213.666 173.063 213.666 173.063L253.948 186.963Z" fill="url(#paint3_linear_1_3)"/>
<g id="Vector_7" style="mix-blend-mode:multiply" opacity="0.5">
<path d="M254.344 508.895C257.498 507.646 231.105 479.066 217.688 452.753C204.271 426.44 195.507 396.164 192.675 394.749C189.844 393.334 171.717 452.187 168.609 478.218C165.5 504.249 213.543 520.614 254.344 508.895Z" fill="#E392AD"/>
</g>
<g id="Vector_8" style="mix-blend-mode:soft-light" opacity="0.5">
<path d="M253.585 222.809C254.534 224.646 247.152 272.214 244.427 275.445C241.703 278.676 221.311 272.537 205.132 257.43C188.952 242.324 196.832 217.765 199.946 216.803C203.059 215.841 207.645 233.902 219.002 236.346C237.766 240.381 251.89 219.5 253.585 222.809Z" fill="#FFBB9A"/>
</g>
<path id="Vector_9" style="mix-blend-mode:multiply" d="M257.363 207.748C257.363 207.748 239.554 372.397 224.183 412.01C208.812 451.623 205.687 465.202 208.95 470.863C212.213 476.523 244.09 446.685 251.361 345.029C258.631 243.372 257.363 207.748 257.363 207.748Z" fill="url(#paint4_linear_1_3)"/>
<path id="Vector_10" style="mix-blend-mode:multiply" d="M237.766 511.971C254.97 512.827 205.646 447.095 189.391 373.527C173.136 299.959 192.256 228.093 192.256 228.093C192.256 228.093 171.544 302.073 184.044 390.712C196.543 479.351 226.149 511.393 237.766 511.971Z" fill="url(#paint5_linear_1_3)"/>
<path id="Vector_11" d="M106.345 339.003C111.438 339.854 131.531 318.351 140.601 295.152C140.601 295.152 138.509 313.534 134.744 339.24C134.744 339.271 134.729 339.285 134.744 339.302C134.736 339.315 134.731 339.33 134.729 339.345C133.816 345.633 132.787 352.381 131.666 359.386V359.431C129.65 372.051 127.333 385.55 124.749 398.989C114.829 450.494 126.152 467.743 130.397 471.147C134.642 474.551 153.897 477.658 178.248 493.786C187.39 499.85 192.934 501.073 196.099 499.148C196.327 499.009 196.542 498.85 196.742 498.674C197.729 497.854 198.447 496.673 198.924 495.18L198.969 495C200.629 489.669 199.476 480.681 197.783 471.138C194.108 450.485 178.812 390.783 180.513 321.46C182.213 252.138 201.324 192.438 204.148 186.351C206.972 180.264 212.139 178.617 212.139 178.617L213.695 173.075C209.765 171.89 183.92 181.26 181.082 180.812C178.243 180.364 148.81 170.193 127.672 172.971C127.672 172.971 119.373 177.711 118.813 214.516C118.813 214.516 109.176 234.884 102.961 248.174C96.7455 261.465 101.249 338.167 106.345 339.003Z" fill="url(#paint6_linear_1_3)"/>
<g id="Vector_12" style="mix-blend-mode:multiply">
<path d="M212.134 178.617C212.134 178.617 204.665 189.994 198.438 212.911C192.21 235.827 187.805 418.817 187.805 418.817C187.805 418.817 175.237 349.43 179.567 291.473C183.897 233.516 198.25 185.915 202.4 178.617C206.55 171.319 213.683 173.07 213.683 173.07L212.134 178.617Z" fill="#E392AD"/>
</g>
<path id="Vector_13" d="M259.324 484.9C260.713 489.112 262.298 492.471 264.104 494.817C277.699 512.467 302.859 512.595 313.838 511.675C313.918 511.679 313.997 511.675 314.075 511.661H314.09C317.286 511.393 319.214 511.033 319.214 511.033C317.07 507.802 315.139 504.436 313.433 500.954C313.419 500.923 313.402 500.878 313.388 500.85C312.043 498.145 310.744 495.28 309.518 492.262C299.165 467.137 292.207 431.963 287.588 399.034L287.543 398.722C286.886 394.047 286.272 389.432 285.719 384.907C280.671 344.273 279.146 310.121 279.041 307.478C279.475 310.972 286.302 366.942 292.321 373.245C298.55 379.754 333.658 392.763 336.482 389.655C339.306 386.547 350.077 358.535 342.145 322.591C334.213 286.647 312.714 251.867 312.714 251.867C318.643 230.079 317.329 217.803 317.329 217.803C297.132 204.482 275.812 206.961 271.285 204.141C266.758 201.32 257.137 179.619 255.077 180.859L253.955 186.951C253.955 186.951 256.376 192.448 256.943 197.255C257.51 202.062 258.079 247.326 253.552 298.636C249.464 344.721 246.924 447.747 259.324 484.9Z" fill="url(#paint7_linear_1_3)"/>
<g id="Vector_14" style="mix-blend-mode:multiply">
<path d="M255.055 180.866C255.055 180.866 262.001 202.884 261.536 230.956C261.072 259.028 256.713 406.916 256.251 445.396C255.788 483.876 268.921 499.98 268.921 499.98C268.921 499.98 250.593 492.931 246.208 432.188C241.823 371.446 256.526 232.509 257.296 212.906C258.067 193.303 252.26 188.43 252.26 188.43L255.055 180.866Z" fill="#E392AD"/>
</g>
<path id="Vector_15" d="M255.055 180.866C255.055 180.866 259.971 187.233 268.921 201.725C277.87 216.217 291.785 235.033 291.785 237.297C291.785 242.376 282.978 242.376 279.532 243.934C276.087 245.491 285.269 259.308 285.982 268.929C286.696 278.55 271.358 368.72 266.262 399.838C261.166 430.956 257.913 460.993 257.434 461.519C256.955 462.045 253.995 357.961 257.156 301.654C260.317 245.346 264.069 210.545 261.06 196.399C258.05 182.253 255.055 180.866 255.055 180.866Z" fill="url(#paint8_linear_1_3)"/>
<path id="Vector_16" d="M208.103 173.54C208.103 173.54 186.166 181.691 168.236 196.027C150.307 210.363 153.33 215.613 153.14 217.798C152.951 219.984 165.784 227.339 166.728 228.093C167.672 228.847 156.555 244.128 153.055 264.122C149.555 284.116 182.581 418.045 186.166 428.232C189.751 438.42 194.157 453.121 194.157 453.121C194.157 453.121 176.541 378.642 176.164 307.708C175.787 236.773 203.813 185.384 208.103 173.54Z" fill="url(#paint9_linear_1_3)"/>
<g id="Vector_17" style="mix-blend-mode:multiply">
<path d="M287.128 396.354C288.358 406.013 254.346 397.401 225.985 321.195C215.902 294.104 193.339 308.827 182.203 303.735C171.068 298.644 168.611 270.346 168.611 270.346C168.611 270.346 206.019 268.728 222.796 278.254C239.573 287.78 286.186 337.877 286.186 337.877L286.217 385.087L287.128 396.354Z" fill="#D07CAD"/>
</g>
<path id="Vector_18" d="M289.203 374.66C288.942 393.274 262.03 371.548 258.774 341.272C256.559 320.671 257.783 310.147 257.783 310.147C257.783 310.147 261.887 299.395 272.077 303.922C282.266 308.45 289.345 364.615 289.203 374.66Z" fill="#4B81EE"/>
<g id="Vector_19" style="mix-blend-mode:multiply">
<path d="M153.169 214.342C152.953 218.946 161.824 223.001 167.871 222.812C173.918 222.622 190.083 220.325 190.083 220.325C190.083 220.325 189.747 221.854 189.761 221.795C189.775 221.736 180.42 221.458 175.327 223.217C172.198 224.319 169.29 225.969 166.74 228.09C166.74 228.09 156.069 224.883 152.021 221.676C147.973 218.469 153.169 214.342 153.169 214.342Z" fill="#B588AD"/>
</g>
<path id="Vector_20" d="M193.844 243.099C193.884 243.14 193.919 243.186 193.949 243.235L193.904 243.22L193.785 243.189C192.082 242.877 177.53 240.144 175.274 240.397C172.87 240.682 171.167 247.61 171.077 248.456C170.987 249.303 172.675 249.964 172.675 249.964C171.699 249.866 170.714 249.902 169.747 250.071C168.433 250.353 167.297 257.893 167.376 259.208C167.403 259.588 167.53 259.955 167.745 260.269C167.96 260.584 168.255 260.836 168.599 261C168.599 261 166.806 265.153 166.806 268.931C166.806 272.71 175.547 278.458 178.663 285.104C178.663 285.104 185.879 286.657 187.015 281.712C187.015 281.712 199.758 293.45 204.42 295.572C205.824 296.214 207.74 296.304 209.858 296.169C214.816 295.839 220.987 294.213 224.947 295.005C230.609 296.138 269.108 335.592 283.644 348.421C283.644 348.421 286.751 322.212 269.959 302.739C269.959 302.739 253.834 288.643 239.369 276.756C224.904 264.869 211.207 242.094 210.221 240.964C209.234 239.833 199.033 235.303 193.235 224.416C193.221 224.416 193.221 224.416 193.206 224.402C192.652 224.118 183.75 219.579 179.073 214.366C174.262 208.99 171.857 205.885 168.749 205.316C165.64 204.747 162.804 207.153 161.817 211.678C161.324 213.932 162.446 217.936 165.642 221.923C168.839 225.91 174.053 229.852 181.767 232.047C181.781 232.049 189.438 236.934 193.844 243.099Z" fill="url(#paint10_linear_1_3)"/>
<path id="Vector_21" style="mix-blend-mode:multiply" d="M165.656 221.925C168.822 225.898 174.067 229.854 181.781 232.049C181.781 232.049 189.446 236.934 193.851 243.099L193.059 242.95L193.792 243.187L193.911 243.218L193.956 243.232C193.956 243.232 202.493 244.59 203.353 244.875C203.51 244.905 203.67 244.91 203.828 244.889H203.856C205.409 244.68 209.4 242.993 210.235 240.964C209.234 239.828 199.047 235.303 193.249 224.416C193.235 224.416 193.235 224.416 193.221 224.402C187.11 222.639 186.318 228.538 184.57 230.643C182.822 232.748 165.656 221.925 165.656 221.925Z" fill="url(#paint11_linear_1_3)"/>
<path id="Vector_22" style="mix-blend-mode:multiply" opacity="0.5" d="M166.818 268.936C166.818 272.698 175.559 278.462 178.675 285.109C178.675 285.109 185.891 286.661 187.027 281.717C187.027 281.717 199.77 293.455 204.432 295.576C205.836 296.219 207.752 296.309 209.87 296.174C203.161 296.472 189.002 279.029 187.221 272.982C185.44 266.936 189.493 264.499 190.897 263.453C192.301 262.408 193.527 254.683 196.171 253.555C198.815 252.427 199.666 247.326 200.996 246.491C201.933 245.903 202.905 245.374 203.908 244.908L203.863 244.891H203.835L193.854 243.099L193.062 242.95L193.795 243.187C192.092 242.874 177.539 240.141 175.284 240.395C172.879 240.679 171.177 247.608 171.087 248.454C170.997 249.3 172.685 249.962 172.685 249.962C171.708 249.863 170.723 249.899 169.756 250.068C168.443 250.35 167.307 257.89 167.385 259.206C167.412 259.586 167.54 259.952 167.755 260.267C167.97 260.582 168.264 260.834 168.609 260.998C168.609 260.998 166.818 265.158 166.818 268.936Z" fill="url(#paint12_linear_1_3)"/>
<g id="Vector_23" style="mix-blend-mode:multiply">
<path d="M177.684 212.799C177.684 212.799 179.704 215.082 179.232 217.393C178.76 219.704 169.588 218.147 165.654 215.411C161.72 212.676 162.358 209.284 164.724 207.943C167.091 206.601 177.684 212.799 177.684 212.799Z" fill="#E392AD"/>
</g>
<path id="Vector_24" d="M168.976 205.741C171.312 205.387 180.015 213.352 178.955 216.796C177.895 220.24 164.8 216.068 163.385 211.965C161.969 207.862 168.976 205.741 168.976 205.741Z" fill="#FFC4B1"/>
<path id="Vector_25" d="M171.11 206.49C171.11 206.49 167.245 207.485 165.358 209.372C163.47 211.259 163.894 212.299 163.517 212.297C163.14 212.294 161.884 209.49 165.652 207.319C169.42 205.148 171.11 206.49 171.11 206.49Z" fill="#FFE4DB"/>
<path id="Vector_26" d="M178.827 215.009C178.827 215.009 177.205 213.465 175.981 214.342C174.758 215.22 175.213 218.033 175.213 218.033C175.213 218.033 180.081 218.566 178.827 215.009Z" fill="#FFE4DB"/>
<g id="Vector_27" style="mix-blend-mode:multiply" opacity="0.5">
<path d="M186.545 229.866C185.194 233.689 194.015 224.936 192.12 224.153C190.226 223.371 187.582 226.929 186.545 229.866Z" fill="#E392AD"/>
</g>
<g id="Vector_28" style="mix-blend-mode:multiply">
<path d="M171.077 248.461C171.077 248.461 185.602 247.899 197.017 252.145L172.675 249.969C172.675 249.969 171.461 249.118 171.077 248.461Z" fill="#E392AD"/>
</g>
<g id="Vector_29" style="mix-blend-mode:multiply">
<path d="M168.611 261.005C168.611 261.005 176.436 259.689 191.376 262.835L168.611 261.005Z" fill="#E392AD"/>
</g>
<g id="Vector_30" style="mix-blend-mode:multiply">
<path d="M187.017 281.717C187.017 281.717 179.666 275.417 177.745 274.426C175.825 273.435 171.376 273.004 171.376 273.004C171.376 273.004 177.11 274.348 177.541 274.772C177.973 275.196 172.303 275.196 172.303 275.196C172.303 275.196 176.809 276.144 178.663 276.516C180.517 276.889 182.071 278.026 182.4 278.828C182.73 279.629 182.381 282.857 184.06 283.402C185.739 283.947 187.017 281.717 187.017 281.717Z" fill="#E392AD"/>
</g>
<g id="Vector_31" style="mix-blend-mode:soft-light" opacity="0.3">
<path d="M240.799 282.997C242.046 293.564 223.657 292.066 212.13 289.648C200.603 287.23 191.874 271.674 191.381 267.564C190.887 263.454 193.716 257.945 197.017 254.408C200.318 250.872 202.708 248.141 206.265 244.903C209.822 241.665 216.113 251.637 222.796 260.732C229.478 269.827 240.232 278.197 240.799 282.997Z" fill="white"/>
</g>
<path id="Vector_32" style="mix-blend-mode:multiply" opacity="0.5" d="M205.421 246.522C208.181 246.996 209.312 252.709 209.312 252.709C209.312 252.709 205.12 249.928 205.421 246.522Z" fill="url(#paint13_linear_1_3)"/>
<path id="Vector_33" style="mix-blend-mode:multiply" opacity="0.5" d="M197.985 252.709C197.985 252.709 203.647 254.053 203.858 258.509C204.07 262.965 197.985 252.709 197.985 252.709Z" fill="url(#paint14_linear_1_3)"/>
<path id="Vector_34" style="mix-blend-mode:multiply" opacity="0.5" d="M193.811 262.472C193.811 262.472 197.812 264.895 199.317 267.836C195.744 267.516 193.811 262.472 193.811 262.472Z" fill="url(#paint15_linear_1_3)"/>
<path id="Vector_35" d="M262.784 151.882C262.784 151.882 254.695 173.48 251.71 203.472C251.71 203.472 239.76 219.033 223.91 217.713C208.06 216.393 208.245 193.192 208.245 193.192C208.245 193.192 214.783 167.637 218.969 155.892L262.784 151.882Z" fill="url(#paint16_linear_1_3)"/>
<g id="Vector_36" style="mix-blend-mode:multiply">
<path d="M257.889 168.287C257.889 168.287 243.552 178.562 228.542 184.841C213.531 191.12 215.158 167.938 215.158 167.938L218.969 155.897C218.969 155.897 240.908 158.113 262.791 151.889L257.889 168.287Z" fill="#E392AD"/>
</g>
<path id="Vector_37" style="mix-blend-mode:multiply" d="M259.744 152.993C267.047 151.209 246.414 185.164 234.451 197.236C222.488 209.308 228.591 198.312 234.451 184.166C240.311 170.02 246.794 155.342 249.67 154.795C252.547 154.247 259.744 152.993 259.744 152.993Z" fill="url(#paint17_linear_1_3)"/>
<path id="Vector_38" d="M255.767 322.072C256.737 361.183 272.978 380.506 272.978 380.506C276.563 382.165 280.761 383.613 285.257 384.836C305.785 390.482 332.468 391.84 335.244 390.108C338.635 388.003 343.357 373.338 341.474 350.893C339.591 328.448 326.086 302.794 317.407 301.763C308.728 300.732 300.988 311.481 295.895 311.007C290.801 310.533 275.143 300.912 274.097 300.54C274.048 300.522 273.999 300.507 273.948 300.495C272.843 300.18 270.512 300.54 270.512 300.54L269.959 302.749C280.521 316.845 291.472 376.744 279.385 376.549C267.299 376.355 259.338 325.566 259.338 325.566L255.767 322.072Z" fill="url(#paint18_linear_1_3)"/>
<path id="Vector_39" d="M50.4098 164.089C50.4098 164.089 56.3381 189.43 58.79 193.566C61.242 197.703 63.8315 199.175 66.4755 205.238C69.1195 211.301 68.9796 263.932 77.2864 289.589C85.5932 315.245 113.843 278.195 113.843 278.195C113.843 278.195 88.9984 239.067 84.9505 204.259C84.7703 202.766 84.6375 201.272 84.5474 199.793C84.5474 199.793 102.294 194.403 104.028 188.43C104.042 188.397 104.053 188.362 104.059 188.326C104.059 188.309 104.059 188.309 104.073 188.295C104.656 185.996 105.15 183.173 105.702 180.112C105.703 180.101 105.708 180.09 105.716 180.082C106.613 175.104 107.689 169.569 109.555 164.895C109.736 164.447 109.93 163.999 110.122 163.551C113.29 156.44 118.804 149.289 118.804 146.975C118.804 144.527 112.199 140.002 104.64 145.468C99.501 149.201 98.9177 153.456 98.754 156.859C98.6948 158.443 98.709 159.848 98.4102 160.936C98.2516 161.549 97.9628 162.12 97.5634 162.611C97.164 163.102 96.6634 163.501 96.0958 163.781C95.4039 164.114 94.6508 164.302 93.8833 164.333L94.0778 161.121L50.4098 164.089Z" fill="url(#paint19_linear_1_3)"/>
<path id="Vector_40" style="mix-blend-mode:multiply" d="M93.888 164.335C93.888 164.335 85.2232 166.552 79.6601 178.012C74.0969 189.473 79.0388 169.358 88.5929 166.222C88.5929 166.222 81.6567 167.543 71.8205 175.324C61.9842 183.106 55.4749 168.45 54.3414 166.976C53.2079 165.502 51.3274 167.836 51.3274 167.836L50.4263 164.087L94.0778 161.126L93.888 164.335Z" fill="url(#paint20_linear_1_3)"/>
<path id="Vector_41" style="mix-blend-mode:multiply" d="M84.9506 204.266C84.7703 202.773 84.6375 201.28 84.5474 199.8C84.5474 199.8 102.294 194.41 104.028 188.437C104.042 188.404 104.053 188.369 104.059 188.333C100.786 192.289 75.24 199.428 73.8954 201.133C72.8497 202.453 77.9741 204.721 84.9506 204.266Z" fill="url(#paint21_linear_1_3)"/>
<g id="Vector_42" style="mix-blend-mode:multiply">
<path d="M116.333 152.472C116.333 152.472 113.122 159.306 108.507 158.872C104.569 158.495 105.251 148.611 107.884 146.622C110.516 144.633 116.333 152.472 116.333 152.472Z" fill="#E392AD"/>
</g>
<g id="Vector_43" style="mix-blend-mode:multiply" opacity="0.3">
<path d="M105.702 180.112C105.703 180.101 105.708 180.09 105.716 180.082C106.613 175.104 107.689 169.569 109.555 164.895C109.736 164.447 109.93 163.999 110.122 163.551C103.864 166.343 99.9255 155.515 99.9255 155.515C99.9255 155.515 99.5816 155.338 98.7588 156.859C98.6995 158.443 98.7137 159.848 98.4149 160.936C98.2563 161.549 97.9675 162.12 97.5681 162.611C97.1687 163.102 96.6681 163.501 96.1005 163.781C93.3024 172.601 104.028 188.43 105.702 180.112Z" fill="#E392AD"/>
</g>
<path id="Vector_44" d="M118.567 148.039C119.351 145.792 111.061 145.001 108.607 146.039C106.153 147.077 104.827 156.599 108.607 157.829C112.387 159.059 117.111 152.209 118.567 148.039Z" fill="#FFC4B1"/>
<path id="Vector_45" d="M118.216 148.94C118.216 148.94 117.665 147.169 113.136 146.605C108.607 146.041 106.956 148.385 106.956 148.385C106.956 148.385 106.838 144.572 114.127 145.588C121.417 146.605 118.216 148.94 118.216 148.94Z" fill="#FFE4DB"/>
<path id="Vector_46" d="M112.432 156.845C112.432 156.845 109.74 154.949 106.956 156.648C106.956 156.648 108.329 160.673 112.432 156.845Z" fill="#FFE4DB"/>
<g id="Vector_47" style="mix-blend-mode:soft-light" opacity="0.3">
<path d="M100.869 189.613C104.488 186.638 96.6009 174.428 94.6753 168.486C92.7498 162.544 78.6973 173.013 75.017 187.631C71.3367 202.249 93.4162 195.733 100.869 189.613Z" fill="white"/>
</g>
<path id="Vector_48" d="M246.22 312.828L240.747 307.712C240.747 307.712 242.644 315.58 243.77 315.864C244.897 316.148 246.22 312.828 246.22 312.828Z" fill="#C2096F"/>
<path id="Vector_49" d="M53.1297 287.811C53.3968 288.408 53.6956 289.021 54.026 289.648C63.6015 307.852 97.291 338.195 101.818 339.153C106.477 340.136 115.396 337.882 124.032 320.754C132.669 303.626 128.424 258.511 120.207 251.303C111.991 244.095 106.627 254.977 101.249 245.778C98.0972 240.388 95.3488 232.845 93.0629 228C91.448 224.549 90.075 222.475 88.9699 223.497C88.9699 223.497 92.5696 233.578 90.6868 246.032C88.804 258.485 66.7079 288.098 62.7502 283.009C58.7924 277.92 70.6823 240.852 70.6823 240.852L70.5044 235.491C57.6115 264.918 53.1297 287.811 53.1297 287.811Z" fill="url(#paint22_linear_1_3)"/>
<g id="Vector_50" style="mix-blend-mode:soft-light">
<path d="M53.1296 287.811C53.3968 288.408 53.6956 289.021 54.026 289.648C58.6856 288.423 64.512 285.884 71.773 281.286C96.4538 265.665 96.5131 239.591 93.0628 227.988C91.4479 224.537 90.0749 222.463 88.9699 223.485C88.9699 223.485 92.5696 233.566 90.6867 246.02C88.8039 258.473 66.7079 288.086 62.7501 282.997C58.7924 277.908 70.6822 240.84 70.6822 240.84L70.5043 235.479C57.6114 264.918 53.1296 287.811 53.1296 287.811Z" fill="#A4A6FF"/>
</g>
<path id="Vector_51" d="M65.4985 220.97C65.5293 221.074 65.5578 221.193 65.5886 221.297C67.8438 228.944 74.014 275.445 74.014 275.445C100.86 251.479 89.7169 226.092 89.7169 226.092C88.3724 217.713 88.0878 210.979 87.9384 210.128C87.789 209.277 85.6667 209.306 85.6667 209.306C85.6667 209.306 86.2192 213.413 85.1924 215.07C79.8593 223.852 66.9806 220.446 67.1703 217.44C67.36 214.435 67.8438 214.359 67.8438 214.359L67.6066 211.925C67.6066 211.925 63.4378 213.622 65.4985 220.97Z" fill="url(#paint23_linear_1_3)"/>
<path id="Vector_52" d="M67.858 214.342L68.5528 219.038C68.5528 219.038 67.0351 219.484 66.5253 216.952C66.0155 214.421 67.858 214.342 67.858 214.342Z" fill="#E33D6F"/>
<g id="Vector_53" style="mix-blend-mode:multiply">
<path d="M252.272 198.416C252.272 198.416 242.969 217.813 227.401 216.964C211.833 216.115 208.748 195.273 209.488 188.435L208.245 193.856C208.245 193.856 205.509 216.964 224.193 219.417C242.876 221.871 251.489 205.61 251.7 203.477C251.911 201.344 252.272 198.416 252.272 198.416Z" fill="#E392AD"/>
</g>
<g id="Vector_54" style="mix-blend-mode:multiply">
<path d="M261.548 230.956C261.548 230.956 277.173 243.019 277.951 243.519C278.728 244.019 289.627 240.336 291.185 238.354C292.743 236.372 291.185 241.672 288.354 244.581C285.522 247.489 278.773 245.512 278.783 245.709C278.792 245.906 279.309 248.302 279.309 248.302C279.309 248.302 277.099 242.504 268.61 236.941C263.305 233.464 261.548 233.402 261.548 233.402V230.956Z" fill="#B588AD"/>
</g>
<g id="Vector_55" style="mix-blend-mode:multiply">
<path d="M255.767 322.072C256.737 361.183 272.978 380.506 272.978 380.506C276.563 382.165 280.761 383.613 285.257 384.836C286.393 383.523 287.424 381.641 288.339 379.088C294.182 362.929 277.431 310.976 273.938 300.495C272.833 300.18 270.502 300.54 270.502 300.54L269.95 302.749C280.512 316.845 291.462 376.744 279.376 376.549C267.289 376.355 259.329 325.566 259.329 325.566L255.767 322.072Z" fill="#E392AD"/>
</g>
<path id="Vector_56" d="M237.766 304.97C237.766 304.97 241.667 315.513 244.669 319.455C245.38 320.403 246.044 320.963 246.597 320.903C249.443 320.619 284.379 355.413 284.379 355.413C284.379 355.413 281.271 317.827 269.962 302.744C269.962 302.744 256.874 291.26 253.633 286.752C249.824 281.48 247.23 283.3 247.23 283.3C247.23 283.3 254.655 298.831 245.032 314.959L240.745 307.703L237.766 304.97Z" fill="url(#paint24_linear_1_3)"/>
<path id="Vector_57" style="mix-blend-mode:multiply" opacity="0.8" d="M140.594 295.152C140.594 295.152 144.841 256.011 140.594 236.771C136.347 217.531 122.384 221.617 121.441 219.666C120.497 217.715 131.44 213.804 139.178 220.759C146.916 227.714 146.923 269.78 140.594 295.152Z" fill="url(#paint25_linear_1_3)"/>
<g id="Vector_58" style="mix-blend-mode:multiply">
<path d="M118.799 214.511C127.006 212.814 131.82 226.962 139.463 226.125C147.105 225.289 132.612 177.607 127.668 172.978C120.317 180.826 119.159 204.193 119.038 207.016C118.917 209.839 118.799 214.511 118.799 214.511Z" fill="#E392AD"/>
</g>
<g id="Vector_59" style="mix-blend-mode:multiply">
<path d="M317.317 217.798C314.396 213.098 292.231 246.242 288.92 260.915C285.61 275.587 285.522 285.107 287.498 285.531C289.473 285.955 301.51 255.963 304.906 250.872C308.301 245.78 312.691 251.86 312.691 251.86C312.691 251.86 318.823 228.723 317.317 217.798Z" fill="#E392AD"/>
</g>
<path id="Vector_60" style="mix-blend-mode:multiply" opacity="0.8" d="M283.4 305.686C283.4 305.686 290.9 290.369 312.416 289.648C312.416 289.648 295.342 298.655 291.802 309.775L283.4 305.686Z" fill="url(#paint26_linear_1_3)"/>
<path id="Vector_61" style="mix-blend-mode:multiply" opacity="0.8" d="M290.9 309.393C290.9 309.393 293.184 311.581 295.897 311.003C298.61 310.424 309.385 301.104 317.41 301.758C325.434 302.412 332.439 319.201 332.439 319.201C332.439 319.201 328.382 304.119 317.554 298.634C306.727 293.149 290.9 309.393 290.9 309.393Z" fill="url(#paint27_linear_1_3)"/>
<path id="Vector_62" style="mix-blend-mode:multiply" opacity="0.8" d="M330.53 331.653C330.53 331.653 322.404 310.879 297.595 310.794L300.659 308.35C300.659 308.35 324.68 303.545 330.53 331.653Z" fill="url(#paint28_linear_1_3)"/>
<path id="Vector_63" style="mix-blend-mode:multiply" opacity="0.8" d="M102.947 248.181C105.73 249.604 123.044 259.796 124.177 284.4C124.177 284.4 124.279 265.546 117.808 257.236C111.336 248.926 107.637 249.651 107.637 249.651C107.637 249.651 116.816 247.864 122.195 253.899C127.573 259.934 128.218 279.567 128.218 279.567C128.218 279.567 131.82 262.572 123.61 248.307C115.401 234.042 104.021 245.901 104.021 245.901L102.947 248.181Z" fill="url(#paint29_linear_1_3)"/>
<g id="Vector_64" style="mix-blend-mode:multiply">
<path d="M140.594 295.152C140.594 295.152 149.18 284.682 149.747 270.723C150.314 256.764 141.644 241.27 141.644 241.27C141.644 241.27 146.349 266.762 140.594 295.152Z" fill="#E392AD"/>
</g>
<path id="Vector_65" style="mix-blend-mode:multiply" opacity="0.8" d="M110.679 337.221C124.032 320.754 73.5064 297.667 65.074 295.851C56.6415 294.036 76.1694 319.751 88.9936 329.451C101.818 339.15 105.51 341.483 110.679 337.221Z" fill="url(#paint30_linear_1_3)"/>
<path id="Vector_66" style="mix-blend-mode:multiply" opacity="0.5" d="M130.397 471.147C134.665 474.537 153.897 477.659 178.248 493.786C187.39 499.85 192.934 501.073 196.099 499.148C196.327 499.009 196.542 498.851 196.742 498.674C197.857 497.801 198.629 496.565 198.924 495.18L198.969 495C203 475.857 170.823 366.888 161.71 327.958C152.597 289.027 149.086 265.999 146.534 265.656C143.982 265.312 142.066 286.413 140.606 295.15C139.183 303.6 135.002 337.14 134.748 339.238C134.748 339.269 134.734 339.283 134.748 339.3C135.223 337.877 147.298 302.159 156.802 345.586C166.498 389.878 198.514 475.506 187.503 484.63C176.493 493.753 150.124 476.333 137.679 449.926C125.413 423.925 131.478 361.401 131.673 359.428C129.657 372.048 127.34 385.547 124.756 398.987C114.829 450.494 126.152 467.743 130.397 471.147Z" fill="url(#paint31_linear_1_3)"/>
<path id="Vector_67" style="mix-blend-mode:multiply" opacity="0.8" d="M314.078 511.661C317.274 511.393 319.202 511.033 319.202 511.033C317.059 507.802 315.127 504.436 313.421 500.954C315.363 505.956 316.767 511.303 314.078 511.661Z" fill="url(#paint32_linear_1_3)"/>
<path id="Vector_68" style="mix-blend-mode:multiply" opacity="0.8" d="M256.846 447.657C255.186 459.933 256.635 472.953 259.324 484.9C260.713 489.112 262.298 492.471 264.104 494.817C277.699 512.467 302.859 512.595 313.838 511.675C307.758 511.99 263.732 500.596 264.104 481.944C264.479 463.024 265.091 377.111 290.9 422.001C289.689 417.357 288.451 407.428 287.569 399.034L287.524 398.722C286.732 391.255 286.21 385.087 286.21 385.087L285.7 384.907L272.973 380.501C258.288 361.301 256.848 336.239 256.848 336.239C256.848 336.239 253.725 358.995 259.013 368.239C264.301 377.483 270.144 376.424 268.932 384.831C267.721 393.239 261.835 410.682 256.846 447.657Z" fill="url(#paint33_linear_1_3)"/>
<path id="Vector_69" style="mix-blend-mode:multiply" opacity="0.8" d="M335.247 390.101C339.589 385.41 298.169 369.59 293.732 366.734C289.295 363.878 289.833 382.307 286.217 385.085C286.217 385.087 319.584 392.909 335.247 390.101Z" fill="url(#paint34_linear_1_3)"/>
<g id="Vector_70" style="mix-blend-mode:multiply" opacity="0.8">
<path d="M237.766 304.97C237.766 304.97 241.667 315.513 244.669 319.455C248.359 317.274 252.108 312.614 253.184 302.803C255.485 281.852 247.24 283.3 247.24 283.3C247.24 283.3 254.664 298.831 245.041 314.959L240.754 307.703L237.766 304.97Z" fill="#E392AD"/>
</g>
<g id="Vector_71" style="mix-blend-mode:multiply">
<path d="M269.962 302.744C269.962 302.744 282.938 333.26 275.2 346.389L260.562 332.404C260.562 332.404 271.318 364.66 276.675 367.485C282.032 370.311 284.379 355.397 284.379 355.397C284.379 355.397 282.99 321.937 269.962 302.744Z" fill="#E392AD"/>
</g>
<g id="Vector_72" style="mix-blend-mode:multiply">
<path d="M89.373 224.803C89.373 224.803 93.1007 241.094 86.6223 255.162C80.1438 269.23 73.3428 270.37 73.3428 270.37L69.6175 244.256C69.6175 244.256 66.2407 255.134 67.0896 265.663C67.9386 276.192 72.2757 277.417 72.2757 277.417C72.2757 277.417 101.562 260.133 89.373 224.803Z" fill="#E392AD"/>
</g>
<path id="Vector_73" d="M190.878 441.959C191.547 438.877 156.574 298.634 156.574 298.634C156.574 298.634 164.127 354.005 173.731 394.749C183.335 435.493 190.878 441.959 190.878 441.959Z" fill="#391861"/>
<g id="Vector_74" style="mix-blend-mode:multiply">
<path d="M264.242 405.814C268.084 389.281 261.667 474.883 261.072 481.482C260.476 488.081 254.75 474.243 257.446 450.3C260.142 426.357 264.242 405.814 264.242 405.814Z" fill="#E392AD"/>
</g>
<g id="Vector_75" style="mix-blend-mode:multiply">
<path d="M240.754 307.703C240.754 307.703 250.14 308.516 247.24 283.288C247.24 283.288 254.19 295.247 246.22 312.806L240.754 307.703Z" fill="#FEB1C8"/>
</g>
<g id="Vector_76" style="mix-blend-mode:multiply">
<path d="M257.363 207.748C257.363 207.748 239.668 236.46 219.421 230.956C199.175 225.452 199.948 196.323 199.948 196.323C199.948 196.323 198.819 227.375 219.986 233.414C241.152 239.454 257.294 209.185 257.294 209.185L257.363 207.748Z" fill="#E392AD"/>
</g>
<g id="Vector_77" style="mix-blend-mode:multiply">
<path d="M140.594 506.306C155.03 494.064 195.099 525.376 221.487 528.535C247.875 531.695 270.521 517.831 280.853 514.719C291.185 511.607 297.595 516.987 297.595 516.987V511.972C297.595 511.972 289.753 511.448 275.992 512.749C261.679 514.105 241.024 517.253 219.379 515.001C176.918 510.604 133.515 488.406 133.515 488.406L140.155 491.942L140.594 506.306Z" fill="#D07CAD"/>
</g>
<g id="Vector_78" style="mix-blend-mode:multiply">
<path d="M181.715 495.955C173.74 495.663 165.813 494.587 158.049 492.743C145.595 489.726 133.518 481.937 133.518 481.937L133.937 472.963C133.937 472.963 147.181 476.144 157.615 480.858C168.049 485.573 181.715 495.955 181.715 495.955Z" fill="#D07CAD"/>
</g>
<g id="Vector_79" style="mix-blend-mode:multiply">
<path d="M297.597 511.972C297.597 511.972 275.615 512.327 264.294 506.306C252.973 500.286 252.027 447.66 252.027 447.66C252.027 447.66 256.559 484.25 264.104 494.829C271.65 505.408 297.597 511.972 297.597 511.972Z" fill="#D07CAD"/>
</g>
<path id="Vector_80" style="mix-blend-mode:multiply" opacity="0.8" d="M102.947 248.181C102.947 248.181 118 273.587 119.546 300.36C121.092 327.133 126.186 292.063 123.598 275.44C121.011 258.817 102.947 248.181 102.947 248.181Z" fill="url(#paint35_linear_1_3)"/>
<g id="Vector_81" style="mix-blend-mode:soft-light" opacity="0.2">
<path d="M181.07 180.814C184.051 185.258 156.882 198.75 149.024 199.559C141.165 200.367 129 174.829 129 174.829C129 174.829 137.762 168.903 181.07 180.814Z" fill="white"/>
</g>
<g id="Vector_82" style="mix-blend-mode:soft-light" opacity="0.2">
<path d="M314.019 216.682C315.15 218.474 299.772 233.187 296.751 235.545C293.729 237.904 275.333 209.851 274.202 207.748C273.07 205.646 297.789 205.646 314.019 216.682Z" fill="white"/>
</g>
<g id="Vector_83" style="mix-blend-mode:soft-light" opacity="0.2">
<path d="M320.03 318.279C329.307 324.781 341.471 364.29 336.753 373.722C332.034 383.153 300.99 360.298 291.792 345.041C282.594 329.783 294.104 310.725 294.104 310.725C294.104 310.725 306.331 308.672 320.03 318.279Z" fill="white"/>
</g>
<g id="Vector_84" style="mix-blend-mode:multiply" opacity="0.5">
<path d="M98.8987 241.27C98.8987 241.27 112.019 266.848 115.972 281.283C119.925 295.719 120.646 319.626 118.801 323.304C116.956 326.983 92.6123 301.234 89.6339 293.455C86.6555 285.675 101.253 260.208 100.39 253.56C99.5271 246.911 98.8987 241.27 98.8987 241.27Z" fill="#E392AD"/>
</g>
<g id="Vector_85" style="mix-blend-mode:soft-light" opacity="0.2">
<path d="M140.594 313.148C153.52 299.774 158.96 383.547 156.807 399.565C154.653 415.584 136.811 431.06 133.276 429.929C129.74 428.799 129.743 392.952 133.513 358.248C137.283 323.544 140.594 313.148 140.594 313.148Z" fill="white"/>
</g>
<g id="Vector_86" style="mix-blend-mode:soft-light" opacity="0.2">
<path d="M134.829 466.335C140.302 461.242 129.923 436.201 126.714 424.105C123.506 412.01 119.496 439.721 123.506 453.735C127.516 467.748 134.829 466.335 134.829 466.335Z" fill="white"/>
</g>
<path id="Vector_87" d="M230.922 23.2246C230.922 23.2246 221.736 25.5546 216.694 33.3578C211.653 41.1609 212.134 69.4533 212.134 69.4533L230.922 23.2246Z" fill="url(#paint36_linear_1_3)"/>
<path id="Vector_88" d="M193.024 128.785C193.031 128.816 193.04 128.846 193.052 128.875C195.443 139.492 203.183 150.365 212.13 154.143C223.723 159.057 252.781 155.473 262.791 151.889C266.348 150.618 269.668 147.11 272.964 142.481L272.995 142.45C278.956 134.073 284.828 122.037 291.745 112.928C293.058 111.209 294.299 109.552 295.48 107.924C303.964 96.2452 308.996 86.8278 311 74.175C313.257 59.7349 291.7 41.1277 288.92 37.9467C265.466 11.2022 240.517 18.4294 228.625 29.1765C225.017 32.475 221.924 36.2958 219.45 40.5114L219.421 40.5541C215.03 47.9922 213.685 54.3542 213.685 54.3542C213.685 54.3542 213.356 57.8481 212.594 62.3588C212.49 63.0439 212.357 63.7621 212.22 64.4921C211.772 66.9123 210.681 70.5721 209.995 72.9898C208.843 77.0383 205.049 84.9813 200.911 94.5599C200.463 95.5886 200.015 96.6339 199.566 97.665C196.099 105.909 193.007 114.182 192.395 119.721C192.106 122.756 192.318 125.819 193.024 128.785V128.785Z" fill="url(#paint37_linear_1_3)"/>
<path id="Vector_89" style="mix-blend-mode:multiply" d="M219.422 40.5588C219.422 40.5588 222.677 48.5066 246.177 50.4029C269.677 52.2991 282.973 42.2015 288.351 48.4141C293.729 54.6268 284.394 86.6145 277.583 80.6697C277.583 80.6697 280.004 86.048 278.555 98.561C277.106 111.074 279.006 109.538 282.406 109.642C283.675 109.687 289.046 109.059 295.48 107.924C303.964 96.2452 308.996 86.8278 311 74.175C313.257 59.7349 291.7 41.1277 288.92 37.9467C265.466 11.2022 240.517 18.4294 228.625 29.1765C225.017 32.475 221.924 36.2958 219.45 40.5114L219.422 40.5588Z" fill="url(#paint38_linear_1_3)"/>
<path id="Vector_90" d="M288.071 112.65C288.071 112.65 297.557 107.836 304.63 110.382C311.704 112.928 309.3 126.519 302.224 132.741C295.148 138.963 289.203 139.53 281.42 142.078C273.637 144.626 274.766 133.156 274.766 133.156C274.766 133.156 276.606 117.038 288.071 112.65Z" fill="url(#paint39_linear_1_3)"/>
<path id="Vector_91" d="M294.865 43.6118C296.525 48.4213 315.496 51.0642 319.878 59.2205C324.26 67.3768 323.421 73.2814 322.164 74.9975C320.907 76.7136 318.311 64.9283 306.864 57.3811C295.418 49.834 294.865 43.6118 294.865 43.6118Z" fill="url(#paint40_linear_1_3)"/>
<path id="Vector_92" style="mix-blend-mode:multiply" d="M283.874 122.459C283.874 122.459 294.865 116.329 301.28 117.555C307.694 118.78 303.955 128.641 301.28 132.08C298.605 135.519 293.929 136.325 293.929 136.325C293.929 136.325 300.391 135.074 302.091 128.214C303.791 121.354 300.251 120.079 297.562 119.444C294.872 118.808 297.303 123.528 296.139 129.771C294.974 136.015 290.618 137.2 288.143 137.411C285.667 137.622 290.689 133.45 290.689 128.427C290.689 123.404 287.37 132.388 283.047 130.973C278.724 129.558 283.874 122.459 283.874 122.459Z" fill="url(#paint41_linear_1_3)"/>
<path id="Vector_93" style="mix-blend-mode:multiply" d="M251.71 71.2903C237.685 71.9089 230.922 67.3816 230.922 67.3816C230.922 67.3816 220.925 60.2137 217.51 58.1373C214.096 56.0608 212.917 61.5079 212.917 61.5079C212.917 61.5079 210.735 74.4381 204.679 85.9982C204.679 85.9982 214.036 92.2369 220.607 90.7697C227.178 89.3024 226.173 84.5831 230.42 78.8469C238.157 74.8173 239.289 82.2815 239.289 82.2815C239.289 82.2815 236.647 95.0268 240.894 102.14C245.141 109.254 263.708 115.032 272.964 108.938C282.219 102.844 280.144 87.0435 280.144 87.0435C280.144 87.0435 268.572 72.0014 251.71 71.2903Z" fill="url(#paint42_linear_1_3)"/>
<g id="Vector_94" style="mix-blend-mode:multiply" opacity="0.6">
<path d="M290.452 119.441C296.352 117.711 290.972 129.698 286.018 129.982C281.064 130.267 285.454 125.17 285.807 123.687C286.16 122.203 283.874 122.459 283.874 122.459C283.874 122.459 287.616 120.418 290.452 119.441Z" fill="#BF7988"/>
</g>
<path id="Vector_95" style="mix-blend-mode:multiply" d="M266.4 100.486C266.4 100.486 270.194 92.4266 262.084 84.8533C253.974 77.2801 243.185 92.9883 243.185 92.9883L266.4 100.486Z" fill="url(#paint43_linear_1_3)"/>
<g id="Vector_96" style="mix-blend-mode:multiply">
<path d="M266.151 101.794C265.032 105.978 247.254 97.4659 243.441 95.7711C239.628 94.0763 245.198 92.1635 247.304 89.6082C249.409 87.053 253.405 84.3461 260.059 87.2379C266.713 90.1297 267.149 98.0964 266.151 101.794Z" fill="#E392AD"/>
</g>
<path id="Vector_97" d="M245.231 96.0887C246.336 96.4727 248.629 97.4398 251.318 98.5041C255.387 100.102 260.329 101.929 263.386 102.339C264.809 102.531 265.831 102.408 266.144 101.794C266.405 101.289 266.568 100.306 266.528 99.0635C266.445 95.1074 264.394 88.5155 257.19 86.9321C257.112 86.9134 257.032 86.8999 256.953 86.8918C247.673 85.0501 242.295 95.0932 245.231 96.0887Z" fill="#FFE4EC"/>
<path id="Vector_98" d="M250.581 95.0671C250.579 96.2522 250.831 97.424 251.318 98.5041C255.387 100.102 260.329 101.929 263.386 102.339C264.716 101.559 265.804 100.425 266.528 99.0635C266.445 95.1074 264.394 88.5155 257.19 86.9321C257.112 86.9134 257.032 86.8999 256.953 86.8918C255.131 87.3495 253.514 88.4026 252.36 89.8838C251.205 91.365 250.579 93.1894 250.581 95.0671Z" fill="#7F6186"/>
<path id="Vector_99" style="mix-blend-mode:multiply" d="M253.647 95.0719C253.646 96.1428 253.964 97.1899 254.559 98.0805C255.154 98.9712 255.999 99.6655 256.989 100.076C257.979 100.486 259.068 100.593 260.119 100.384C261.17 100.175 262.135 99.6597 262.893 98.9024C263.65 98.1451 264.166 97.1802 264.375 96.1298C264.584 95.0794 264.477 93.9907 264.066 93.0014C263.656 92.012 262.962 91.1665 262.071 90.5718C261.18 89.9771 260.132 89.6599 259.061 89.6604C257.625 89.6604 256.248 90.2305 255.233 91.2454C254.217 92.2602 253.647 93.6367 253.647 95.0719Z" fill="url(#paint44_linear_1_3)"/>
<path id="Vector_100" d="M245.359 91.9857C245.359 91.9857 249.265 85.2776 258.717 87.738C268.169 90.1985 266.305 101.415 266.305 101.415C266.305 101.415 269.827 93.2491 262.686 87.2569C255.117 80.9091 246.739 89.1081 245.359 91.9857Z" fill="#6C2A51"/>
<path id="Vector_101" d="M255.248 92.9883C255.248 92.9883 253.094 90.6322 250.41 91.3078L255.248 92.9883Z" fill="white"/>
<path id="Vector_102" style="mix-blend-mode:multiply" d="M221.719 85.92C221.719 85.92 225.658 74.5922 221.482 69.4224C217.306 64.2527 210.946 74.6372 210.946 74.6372L221.719 85.92Z" fill="url(#paint45_linear_1_3)"/>
<g id="Vector_103" style="mix-blend-mode:multiply">
<path d="M221.724 87.2071C223.472 85.0904 224.155 77.2872 219.232 72.9305C214.309 68.5739 209.953 76.5595 208.741 80.07C207.529 83.5805 212.772 85.9958 215.926 86.6429C219.08 87.29 221.432 87.5626 221.724 87.2071Z" fill="#E392AD"/>
</g>
<path id="Vector_104" d="M210.033 82.7271C210.783 83.5188 212.068 84.2963 213.514 84.9529C215.042 85.6505 216.645 86.1676 218.293 86.4936C219.535 86.7306 220.6 86.7662 221.2 86.5078C221.329 86.4614 221.444 86.3832 221.535 86.2804C221.626 86.1777 221.689 86.0537 221.719 85.92C222.265 82.9997 222.25 79.2475 221.283 76.4386C220.778 74.9382 219.986 73.7104 218.878 72.9993C218.303 72.6348 217.646 72.4197 216.967 72.3735C212.054 71.9611 207.453 80.0249 210.033 82.7271Z" fill="#FFE4EC"/>
<path id="Vector_105" d="M212.941 81.4448C212.936 82.6379 213.13 83.8234 213.514 84.9529C215.042 85.6506 216.645 86.1676 218.293 86.4936C218.74 86.7389 219.243 86.8662 219.753 86.8634C220.257 86.8624 220.753 86.7405 221.2 86.5078C221.329 86.4614 221.444 86.3832 221.535 86.2804C221.626 86.1777 221.689 86.0537 221.719 85.92C222.265 82.9997 222.25 79.2475 221.283 76.4386C220.778 74.9382 219.986 73.7104 218.878 72.9993C215.561 73.3122 212.941 76.9791 212.941 81.4448Z" fill="#7F6186"/>
<path id="Vector_106" style="mix-blend-mode:multiply" d="M215.644 81.4448C215.644 83.7511 216.749 85.7304 218.293 86.4936C218.74 86.7389 219.243 86.8662 219.753 86.8634C220.257 86.8624 220.753 86.7405 221.2 86.5078C221.329 86.4614 221.444 86.3832 221.535 86.2804C221.626 86.1777 221.689 86.0537 221.719 85.92C222.265 82.9997 222.25 79.2475 221.283 76.4386C220.815 76.1797 220.289 76.0435 219.753 76.0428C217.486 76.0309 215.644 78.4558 215.644 81.4448Z" fill="url(#paint46_linear_1_3)"/>
<path id="Vector_107" d="M222.08 83.379C222.08 83.379 221.734 74.7865 216.73 73.0941C211.727 71.4017 209.289 79.5153 209.289 79.5153C209.289 79.5153 211.119 71.0343 214.933 70.7309C218.746 70.4275 222.751 74.7249 222.08 83.379Z" fill="#6C2A51"/>
<path id="Vector_108" d="M215.348 78.8469C215.348 78.8469 213.194 76.4932 210.51 77.1687L215.348 78.8469Z" fill="white"/>
<path id="Vector_109" style="mix-blend-mode:multiply" d="M235.471 103.674C235.471 103.674 235.563 109.962 234.572 111.591C233.581 113.219 228.542 111.996 228.542 111.996C228.542 111.996 232.779 113.854 235.516 111.802C238.252 109.749 235.471 103.674 235.471 103.674Z" fill="url(#paint47_linear_1_3)"/>
<g id="Vector_110" style="mix-blend-mode:multiply">
<path d="M240.799 124.623C240.799 124.623 215.039 128.486 205.416 115.853C205.416 115.853 209.483 124.085 220.984 126.045C230.42 127.647 240.799 124.623 240.799 124.623Z" fill="#CE7988"/>
</g>
<path id="Vector_111" style="mix-blend-mode:multiply" d="M237.15 119.271C237.15 119.271 241.892 122.392 240.688 128.752C240.688 128.752 246.123 123.421 237.15 119.271Z" fill="url(#paint48_linear_1_3)"/>
<g id="Vector_112" style="mix-blend-mode:multiply">
<path d="M284.697 141.073C281.425 142.078 275.103 138.248 275.103 138.248C275.103 138.248 275.947 142.344 278.769 142.448C281.591 142.552 284.697 141.073 284.697 141.073Z" fill="#FEB1C8"/>
</g>
<g id="Vector_113" style="mix-blend-mode:multiply">
<path d="M193.052 128.875C195.443 139.492 203.183 150.365 212.13 154.143C223.723 159.057 252.781 155.473 262.791 151.889C266.348 150.618 269.668 147.11 272.964 142.481C272.252 143.121 260.55 153.486 239.739 153.994C218.241 154.532 203.242 145.676 200.138 142.45C197.195 139.433 193.5 130.041 193.052 128.875Z" fill="#E392AD"/>
</g>
<path id="Vector_114" d="M229.993 67.3792C229.993 67.3792 231.084 61.7212 229.993 57.6893V64.4163C229.993 64.4163 229.611 56.9474 224.506 54.2594L228.888 62.4347C228.888 62.4347 221.966 53.0221 218.409 51.5311C214.852 50.0402 213.137 56.6629 212.753 57.6632C212.369 58.6635 212.9 61.5055 212.9 61.5055C212.9 61.5055 216.049 57.7604 229.993 67.3792Z" fill="url(#paint49_linear_1_3)"/>
<path id="Vector_115" d="M251.361 72.4541C251.361 72.4541 256.561 66.6894 262.269 65.5659L254.067 71.5273C254.067 71.5273 261.745 65.8385 265.798 66.7866C265.798 66.7866 268.693 66.4903 272.312 70.0435C276.94 74.5874 280.976 85.8536 280.976 85.8536C280.976 85.8536 264.166 74.3433 251.361 72.4541Z" fill="url(#paint50_linear_1_3)"/>
<path id="Vector_116" style="mix-blend-mode:multiply" opacity="0.4" d="M279.295 115.48C272.418 106.615 254.159 130.193 243.185 141.317C232.21 152.441 249.763 153.46 262.784 148.803C275.805 144.145 273.552 130.904 277.087 124.623C280.623 118.341 279.295 115.48 279.295 115.48Z" fill="url(#paint51_linear_1_3)"/>
<path id="Vector_117" d="M208.741 69.2921L200.591 64.0773C200.591 64.0773 200.679 60.3251 202.206 60.811C203.733 61.2969 209.607 65.7745 209.607 65.7745L208.741 69.2921Z" fill="#8075BA"/>
<g id="Vector_118" style="mix-blend-mode:multiply" opacity="0.5">
<path d="M201.618 92.6233C202.215 93.3818 203.607 95.5601 204.385 96.0295C210.448 99.7343 226.08 102.372 228.079 73.497C228.39 69.1261 219.229 63.8427 212.54 62.795C212.72 62.053 212.777 61.278 212.929 60.5787C221.283 62.0199 231.081 68.8749 231.323 71.7525C231.409 72.7978 231.271 74.3314 230.889 76.1826L231.067 75.4549C231.067 75.4549 239.248 72.6319 244.584 80.2644C244.877 79.7781 245.211 79.3167 245.58 78.8848C248.425 75.7275 270.329 75.7583 280.163 88.4278C284.265 93.7089 275.278 112.221 266.172 116.161C257.887 119.757 243.282 115.962 240.484 105.281C238.456 97.5868 240.522 88.9682 242.883 83.5354C242.222 82.1701 238.518 75.5379 230.349 78.406C228.902 83.7772 225.862 90.7578 221.219 95.8564C215.343 102.306 205.068 101.334 199.955 96.75C200.467 95.7213 201.105 93.6805 201.618 92.6233ZM259.324 115.236C270.199 116.222 281.946 99.2413 278.294 90.9712C273.673 80.518 251.56 76.4054 247.941 82.3076C232.872 106.874 250.768 114.478 259.324 115.236Z" fill="#E15153"/>
</g>
<path id="Vector_119" d="M202.206 60.8205C214.942 55.0558 228.833 65.4189 229.182 69.5007C229.53 73.5824 226.189 85.4933 219.106 93.0974C212.023 100.701 199.785 98.5965 196.135 91.2983C192.486 84 196.892 63.2311 202.206 60.8205ZM202.274 93.2633C208.343 96.8899 223.977 99.4688 225.94 71.2002C226.415 64.4021 210.408 57.3906 202.213 63.9019C195.746 69.0313 194.549 88.6364 202.274 93.2633Z" fill="url(#paint52_linear_1_3)"/>
<g id="Vector_120" style="mix-blend-mode:soft-light">
<path d="M202.274 93.2633C208.343 96.8899 223.977 99.4688 225.94 71.2002C226.415 64.4021 210.408 57.3906 202.213 63.9019C195.746 69.0313 194.549 88.6364 202.274 93.2633Z" fill="#CFC7B8"/>
</g>
<path id="Vector_121" d="M243.436 76.4813C246.282 73.3857 268.183 73.4165 278.036 85.8133C282.141 90.9878 273.18 109.104 264.083 112.975C255.802 116.495 241.188 112.778 238.373 102.323C235.558 91.8672 240.607 79.5865 243.436 76.4813ZM257.228 112.06C268.105 113.032 279.831 96.4016 276.17 88.314C271.536 78.0718 249.416 74.0493 245.817 79.8306C230.775 103.871 248.684 111.306 257.228 112.06Z" fill="url(#paint53_linear_1_3)"/>
<g id="Vector_122" style="mix-blend-mode:soft-light">
<path d="M257.228 112.06C268.105 113.032 279.831 96.4016 276.17 88.314C271.536 78.0718 249.416 74.0493 245.817 79.8306C230.775 103.871 248.684 111.306 257.228 112.06Z" fill="#CFC7B8"/>
</g>
<path id="Vector_123" d="M240.877 81.2883C240.877 81.2883 237.285 72.8997 228.221 76.0143L228.933 73.113C228.933 73.113 237.138 70.3469 242.473 77.8537L240.877 81.2883Z" fill="#382A8D"/>
<path id="Vector_124" d="M278.795 92.3863C278.795 92.3863 281.961 93.6426 283.222 94.6262C284.484 95.6099 296.027 109.258 296.027 109.258L293.032 110.164C293.032 110.164 282.729 100.398 281.207 99.073C279.684 97.748 277.287 96.9681 277.287 96.9681L278.795 92.3863Z" fill="url(#paint54_linear_1_3)"/>
<g id="Vector_125" style="mix-blend-mode:soft-light">
<path d="M282.8 94.3323C284.085 95.4037 283.597 97.1483 282.577 97.9613C281.557 98.7743 277.948 96.7761 277.659 96.148C277.37 95.5199 278.406 92.3863 278.406 92.3863C278.406 92.3863 281.882 93.5714 282.8 94.3323Z" fill="#5CF1FF"/>
</g>
<g id="Vector_126" style="mix-blend-mode:soft-light">
<path d="M223.493 81.2884C218.871 72.9922 206.465 87.9253 204.048 90.3833C201.632 92.8414 198.279 87.9585 198.279 87.9585C198.279 87.9585 200.856 95.8588 211.084 93.8677C221.311 91.8767 223.493 81.2884 223.493 81.2884Z" fill="#5CF1FF"/>
</g>
<g id="Vector_127" style="mix-blend-mode:soft-light">
<path d="M272.805 98.8715C268.183 90.5753 255.779 105.508 253.36 107.966C250.941 110.425 247.591 105.542 247.591 105.542C247.591 105.542 250.168 113.44 260.396 111.451C270.623 109.462 272.805 98.8715 272.805 98.8715Z" fill="#5CF1FF"/>
</g>
<g id="Vector_128" style="mix-blend-mode:soft-light">
<path d="M258.463 75.9172C259.049 76.2656 250.32 76.0025 247.541 78.0505C244.762 80.0985 241.494 86.1238 240.1 85.7873C238.705 85.4507 241.344 78.7331 244.655 76.3604C247.965 73.9877 257.472 75.3199 258.463 75.9172Z" fill="#5CF1FF"/>
</g>
<g id="Vector_129" style="mix-blend-mode:soft-light">
<path d="M215.044 60.299C215.898 60.7731 208.947 59.9032 204.48 61.8066C200.012 63.7099 198.032 70.0364 197.603 70.1454C197.174 70.2544 198.689 62.7784 202.301 60.9817C205.912 59.185 212.203 58.7536 215.044 60.299Z" fill="#5CF1FF"/>
</g>
<path id="Vector_130" d="M198.594 93.7184C200.728 94.4058 197.852 88.8758 196.778 87.1644C195.703 85.453 194.8 92.4929 198.594 93.7184Z" fill="#FAFBF9"/>
<path id="Vector_131" d="M241.52 106.649C243.355 107.241 240.882 102.479 239.955 101.007C239.028 99.5352 238.255 105.594 241.52 106.649Z" fill="#FAFBF9"/>
<path id="Vector_132" d="M235.516 110.308C234.482 112.916 225.807 110.545 220.23 108.938C214.653 107.331 211.845 105.065 211.779 102.937C211.712 100.808 217.522 95.0197 222.153 90.3146C226.784 85.6095 230.42 83.8839 233.536 85.3938C236.652 86.9037 237.308 105.795 235.516 110.308Z" fill="url(#paint55_linear_1_3)"/>
<path id="Vector_133" style="mix-blend-mode:multiply" opacity="0.3" d="M213.678 106.869C208.812 104.539 215.324 97.6555 218.343 95.9655C221.361 94.2754 225.575 86.7212 230.911 90.0254C236.246 93.3297 237.984 110.088 234.904 111.705C231.824 113.321 227.116 110.827 224.427 110.548C221.738 110.268 218.99 111.795 216.348 108.125L213.678 106.869Z" fill="url(#paint56_linear_1_3)"/>
<path id="Vector_134" style="mix-blend-mode:multiply" d="M215.846 107.957C215.846 107.957 211.103 106.061 210.548 103.669C209.993 101.277 212.789 101.65 217.994 100.528C223.199 99.4072 226.668 102.204 229.516 105.407C232.364 108.609 235.139 110.199 234.916 111.695C234.693 113.191 229.061 112.406 227.766 111.709C226.471 111.012 226.147 110.368 224.446 110.538C222.746 110.709 219.813 109.872 218.518 108.898C217.747 108.314 216.813 107.985 215.846 107.957V107.957Z" fill="url(#paint57_linear_1_3)"/>
<g id="Vector_135" style="mix-blend-mode:soft-light" opacity="0.5">
<path d="M215.082 99.5613C219.678 97.8641 226.31 101.123 229.886 100.599C233.462 100.076 231.98 95.079 229.886 92.2275C227.792 89.3759 223.009 93.5264 220.422 95.5459C217.835 97.5655 215.082 99.5613 215.082 99.5613Z" fill="#E7ECFF"/>
</g>
<g id="Vector_136" style="mix-blend-mode:multiply">
<path d="M217.51 108.324C215.888 106.521 214.641 105.75 213.97 106.011C212.948 106.412 215.796 108.249 216.36 108.116C216.756 108.055 217.161 108.128 217.51 108.324V108.324Z" fill="#D1A1C8"/>
</g>
<path id="Vector_137" style="mix-blend-mode:multiply" d="M217.51 108.324C217.51 108.324 213.889 103.645 214.449 101.175C215.008 98.7056 217.373 95.2307 217.373 95.2307C217.373 95.2307 213.958 98.4638 211.919 101.481C209.879 104.499 212.426 106.542 214.643 107.329C216.86 108.116 217.51 108.324 217.51 108.324Z" fill="url(#paint58_linear_1_3)"/>
<g id="Vector_138" style="mix-blend-mode:multiply" opacity="0.5">
<path d="M235.516 111.095C232.874 113.783 226.6 118.242 219.946 117.393C213.292 116.545 211.186 102.934 211.186 102.934C211.186 102.934 212.021 102.754 214.143 102.42C216.265 102.086 218.343 98.7127 224.183 101.413C228.686 103.496 231.174 109.453 235.516 111.095Z" fill="#FEB1C8"/>
</g>
<g id="Vector_139" style="mix-blend-mode:multiply">
<path d="M227.548 111.283C227.548 111.283 225.874 109.562 224.672 109.114C223.469 108.666 223.287 109.915 223.578 110.199C223.87 110.484 225.355 110.316 226.227 110.718C227.1 111.121 227.548 111.283 227.548 111.283Z" fill="#D1A1C8"/>
</g>
<path id="Vector_140" style="mix-blend-mode:multiply" d="M253.633 72.6461C253.633 72.6461 261.622 67.5783 266.81 67.8817C271.999 68.1851 277.583 76.7207 278.214 79.6955C278.845 82.6703 272.048 78.3041 264.754 75.9029C257.46 73.5018 253.633 72.6461 253.633 72.6461Z" fill="url(#paint59_linear_1_3)"/>
<g id="Vector_141" style="mix-blend-mode:multiply">
<path d="M228.686 66.4951C228.686 66.4951 223.28 53.7972 218.774 52.2896C214.631 50.8959 214.224 57.0303 215.302 59.3485C216.381 61.6667 220.415 60.6475 228.686 66.4951Z" fill="#E392AD"/>
</g>
<path id="Vector_142" style="mix-blend-mode:multiply" d="M227.548 129.127C227.548 129.127 218.252 129.987 212.296 126.367C212.296 126.367 213.13 134.009 217.513 134.427C221.895 134.844 227.548 129.127 227.548 129.127Z" fill="url(#paint60_linear_1_3)"/>
<path id="Vector_143" d="M288.629 33.1278C288.629 33.1278 264.942 2.83493 243.656 2.31346C222.371 1.79198 220.059 27.6097 222.094 28.9798C224.129 30.3498 220.591 8.59485 243.182 5.83815C260.668 3.71195 283.604 25.8154 288.629 33.1278Z" fill="url(#paint61_linear_1_3)"/>
<path id="Vector_144" d="M208.95 34.9743C216.597 41.7701 220.408 38.9778 220.408 38.9778C220.408 38.9778 222.962 41.3482 236.272 42.3674C249.582 43.3867 261.043 43.7564 261.043 43.7564C261.178 47.2954 262.791 48.983 262.791 48.983C268.349 44.4581 288.92 40.9784 291.804 49.6538C294.687 58.3293 290.056 75.2938 290.056 75.2938C290.056 75.2938 293.729 83.7914 294.299 91.9904C294.868 100.189 279.3 115.48 279.3 115.48L281.14 119.437C284.683 113.779 297.052 109.865 297.052 109.865C313.108 96.9041 315.524 81.8051 317.229 67.9481C318.934 54.0911 296.181 49.834 291.811 37.7666C287.441 25.6992 275.437 2.68561 256.953 2.30161C239.948 1.95791 230.868 21.2951 226.443 26.965C226.125 27.3898 225.765 27.7806 225.366 28.1312C221.383 31.3904 208.95 34.9743 208.95 34.9743Z" fill="url(#paint62_linear_1_3)"/>
<path id="Vector_145" d="M287.924 35.3488C287.924 35.3488 289.06 25.6874 284.958 17.8984C280.856 10.1095 272.784 10.1735 272.786 9.36521C272.786 9.36521 286.231 8.19664 290.9 20.1218C295.57 32.047 293.307 39.5278 294.865 43.7304C296.423 47.933 287.924 35.3488 287.924 35.3488Z" fill="url(#paint63_linear_1_3)"/>
<path id="Vector_146" style="mix-blend-mode:multiply" d="M208.95 34.9743C216.597 41.7701 220.408 38.9778 220.408 38.9778C220.408 38.9778 222.962 41.3482 236.272 42.3674C249.582 43.3867 261.043 43.7564 261.043 43.7564C275.833 33.4526 290.908 37.513 291.759 37.7524C281.704 31.7649 265.032 41.1562 258.233 41.3505C251.434 41.5449 232.054 37.9467 232.054 37.9467C232.054 37.9467 248.055 25.986 260.723 25.3128C273.391 24.6397 287.929 35.3488 287.929 35.3488C287.929 35.3488 271.285 16.6374 255.494 23.2222C239.703 29.807 226.661 30.5987 226.452 26.9697C226.135 27.3945 225.774 27.7854 225.376 28.1359C221.383 31.3904 208.95 34.9743 208.95 34.9743Z" fill="url(#paint64_linear_1_3)"/>
<path id="Vector_147" style="mix-blend-mode:multiply" d="M291.059 48.1605C291.059 48.1605 307.054 66.2106 308.885 81.3666C310.715 96.5225 300.191 107.144 300.191 107.144C300.191 107.144 306.471 87.2474 302.366 72.9969C298.261 58.7464 291.059 48.1605 291.059 48.1605Z" fill="url(#paint65_linear_1_3)"/>
<path id="Vector_148" style="mix-blend-mode:multiply" d="M290.052 75.3009C290.052 75.3009 297.977 82.2317 300.668 89.6604C303.359 97.089 299.008 108.22 299.008 108.22L297.801 108.931C297.801 108.931 302.79 90.5801 290.052 75.3009Z" fill="url(#paint66_linear_1_3)"/>
<g id="Vector_149" style="mix-blend-mode:multiply">
<path d="M286.177 33.5664C286.177 33.5664 272.423 17.0143 259.367 13.7598C246.31 10.5053 239.611 33.5664 239.611 33.5664C239.611 33.5664 250.173 25.256 262.895 25.3081C275.617 25.3603 286.177 33.5664 286.177 33.5664Z" fill="#E392AD"/>
</g>
<g id="Vector_150" style="mix-blend-mode:multiply">
<path d="M291.059 48.1605C291.059 48.1605 289.345 41.0661 280.151 38.9423C270.958 36.8184 262.798 48.983 262.798 48.983C262.798 48.983 274.09 43.7944 291.059 48.1605Z" fill="#E392AD"/>
</g>
<g id="Vector_151" style="mix-blend-mode:multiply">
<path d="M322.164 74.9975C322.164 74.9975 318.097 60.9651 311.161 54.5533C304.225 48.1416 296.53 47.5869 296.53 47.5869C296.53 47.5869 306.49 59.4386 309.098 63.3354C311.707 67.2323 317.229 67.941 317.229 67.941C317.229 67.941 319.328 71.6458 320.443 73.3098C321.557 74.9738 321.216 75.3554 322.164 74.9975Z" fill="#E392AD"/>
</g>
<g id="Vector_152" style="mix-blend-mode:soft-light" opacity="0.5">
<path d="M262.459 3.11225C251.608 2.87522 247.216 7.11101 244.951 11.6455C242.687 16.1799 255.859 13.3379 261.117 14.2837C266.374 15.2294 255.188 12.6908 250.353 11.6455C245.518 10.6002 250.998 2.22575 262.459 3.11225Z" fill="white"/>
</g>
<g id="Vector_153" style="mix-blend-mode:soft-light" opacity="0.5">
<path d="M268.131 25.7798C259.952 25.3199 265.015 31.8834 269.765 34.4671C274.515 37.0507 279.677 35.7423 283.26 35.766C286.843 35.7897 274.294 34.6567 269.295 31.3548C264.297 28.0529 268.131 25.7798 268.131 25.7798Z" fill="white"/>
</g>
<g id="Vector_154" style="mix-blend-mode:multiply" opacity="0.2">
<path d="M271.759 115.324C288.468 111.15 273.765 127.299 260.879 134.185C247.994 141.071 260.035 118.251 271.759 115.324Z" fill="#E392AD"/>
</g>
<g id="Vector_155" style="mix-blend-mode:multiply">
<path d="M108.379 143.491C108.379 143.491 97.0965 145.588 95.6333 160.88L98.4102 160.936C98.4102 160.936 98.8109 155.942 99.9278 151.78C101.045 147.618 108.379 143.491 108.379 143.491Z" fill="#A46BAD"/>
</g>
<g id="Vector_156" style="mix-blend-mode:soft-light" opacity="0.5">
<path d="M228.653 231.274C237.465 227.853 219.023 221.245 213.775 214.342C208.528 207.44 207.539 195.271 206.265 195.413C204.992 195.555 200.32 207.58 207.114 220.595C213.908 233.611 228.653 231.274 228.653 231.274Z" fill="white"/>
</g>
<g id="Vector_157" style="mix-blend-mode:soft-light" opacity="0.3">
<path d="M274.766 319.201C277.204 336.431 266.739 327.55 260.562 317.647C254.384 307.743 253.502 291.359 253.59 289.648C253.678 287.937 263.495 296.522 267.22 300.36C270.946 304.197 274.026 313.965 274.766 319.201Z" fill="white"/>
</g>
<g id="Vector_158" style="mix-blend-mode:soft-light" opacity="0.5">
<path d="M65.4985 220.97C67.8295 222.269 71.3842 223.34 76.345 222.523C86.3994 220.849 87.9384 210.128 87.9384 210.128C87.8032 209.277 85.6667 209.306 85.6667 209.306C85.6667 209.306 86.2192 213.413 85.1924 215.07C79.8593 223.852 66.9806 220.446 67.1703 217.44C67.36 214.435 67.8438 214.359 67.8438 214.359L67.6066 211.925C67.6066 211.925 63.4378 213.622 65.4985 220.97Z" fill="white"/>
</g>
<g id="Vector_159" style="mix-blend-mode:multiply">
<path d="M85.8042 212.297C85.8042 212.297 83.3499 218.773 76.8145 219.394C70.2791 220.015 67.8603 214.34 67.8603 214.34L68.5528 219.441C68.5528 219.441 83.1009 225.362 85.8042 212.297Z" fill="#E392AD"/>
</g>
<g id="Vector_160" style="mix-blend-mode:multiply" opacity="0.5">
<path d="M294.109 310.713C294.109 310.713 306.44 308.343 321.894 319.846C331.924 327.32 304.898 309.791 294.121 289.323C288.294 278.259 299.373 261.446 295.996 258.369C286.371 249.599 281.659 304.74 281.659 304.74L294.109 310.713Z" fill="#E392AD"/>
</g>
<g id="Vector_161" style="mix-blend-mode:soft-light" opacity="0.2">
<path d="M286.186 234.211C285.771 238.738 278.069 238.845 270.332 232.997C262.594 227.149 261.368 193.384 260.801 191.876C260.234 190.369 271.309 205.688 276.013 212.674C280.718 219.659 286.473 231.084 286.186 234.211Z" fill="white"/>
</g>
<path id="Vector_162" d="M162.825 236.339C163.522 238.563 156.1 274.058 157.264 291.395C158.429 308.732 168.898 348.425 168.898 348.425C168.898 348.425 150.52 284.305 153.057 264.122C155.595 243.938 162.825 236.339 162.825 236.339Z" fill="#5E4FB8"/>
<path id="Vector_163" d="M282.402 297.503C282.402 297.503 283.189 272.902 281.659 261.782C280.13 250.663 275.129 242.327 275.129 242.327C275.129 242.327 283.054 254.446 284.884 262.835C286.715 271.223 282.402 297.503 282.402 297.503Z" fill="#5E4FB8"/>
<path id="Vector_164" d="M291.185 238.349C289.392 236.017 282.976 239.506 277.315 238.75C271.655 237.994 266.644 234.211 266.644 234.211C266.644 234.211 275.978 242.772 278.344 242.9C280.711 243.028 289.58 239.364 291.185 238.349Z" fill="#5E4FB8"/>
<path id="Vector_165" d="M92.3419 255.257C92.3419 255.257 76.62 276.154 68.5528 281.079C60.4855 286.005 56.3096 281.883 55.0148 283.495C53.7201 285.107 54.026 289.658 54.026 289.658C54.026 289.658 82.6811 282.419 92.3419 255.257Z" fill="#6A5CD4"/>
<g id="Vector_166" style="mix-blend-mode:soft-light" opacity="0.5">
<path d="M234.005 348.425C237.598 351.132 225.706 407.342 216.972 424.105C208.238 440.869 191.577 376.395 190.887 358.248C190.197 340.101 208.245 380.885 218.158 377.211C228.07 373.537 228.096 343.974 234.005 348.425Z" fill="#FFBB9A"/>
</g>
<path id="Vector_167" d="M203.515 175.414C203.515 175.414 171.613 195.78 161.718 202.41C161.718 202.41 176.135 184.23 203.515 175.414Z" fill="#5E4FB8"/>
<g id="Vector_168" style="mix-blend-mode:multiply">
<path d="M297.595 528.528C297.595 528.528 297.507 516.693 296.563 514.994C295.619 513.294 291.797 528.993 291.797 528.993L297.595 528.528Z" fill="#D07CAD"/>
</g>
<g id="Vector_169" style="mix-blend-mode:multiply">
<path d="M140.689 528.528C140.689 528.528 140.689 508.769 142.197 507.449C143.705 506.129 147.445 528.891 147.445 528.891L140.689 528.528Z" fill="#D07CAD"/>
</g>
<g id="Vector_170" style="mix-blend-mode:soft-light">
<path d="M337.815 388.524C337.815 388.524 344.319 355.176 340.438 328.946C336.556 302.716 312.693 251.851 312.693 251.851C312.693 251.851 340.321 297.42 343.776 331.653C347.231 365.885 337.815 388.524 337.815 388.524Z" fill="#4BFFFF"/>
</g>
<g id="Vector_171" style="mix-blend-mode:soft-light">
<path d="M312.698 251.86C311 252.427 313.829 244.358 306.471 241.533C299.112 238.707 311.171 224.964 312.916 219.673C314.661 214.383 294.982 208.36 294.982 208.36C294.982 208.36 308.944 211.581 316.618 217.367C316.627 217.358 319.774 221.586 312.698 251.86Z" fill="#4BFFFF"/>
</g>
<g id="Vector_172" style="mix-blend-mode:soft-light">
<path d="M151.952 173.926C151.952 173.926 134.248 172.444 128.787 176.218C123.326 179.992 124.673 206.497 124.67 210.367C124.668 214.238 120.845 213.686 119.216 216.056C111.865 226.773 111.576 240.968 109.086 242.367C106.596 243.765 102.939 248.172 102.939 248.172L118.792 214.513C118.792 214.513 118.412 180.091 127.661 172.968C127.668 172.978 135.066 171.567 151.952 173.926Z" fill="#4BFFFF"/>
</g>
<g id="Vector_173" style="mix-blend-mode:soft-light">
<path d="M309.511 511.173C316.689 507.013 298.603 472.183 292.788 451.81C286.974 431.437 289.203 411.161 289.203 411.161C289.203 411.161 293.554 442.687 301.095 467.338C308.636 491.99 315.138 505.079 319.2 511.026C319.202 511.033 312.079 512.251 309.511 511.173Z" fill="#4BFFFF"/>
</g>
<g id="Vector_174" style="mix-blend-mode:soft-light">
<path d="M130.656 314.262C130.656 314.262 114.704 334.962 104.507 334.481C94.3101 333.999 61.242 300.428 61.242 300.428C61.242 300.428 89.5058 334.061 101.818 339.153C101.818 339.153 106.435 340.641 112.475 336.005C118.514 331.368 130.656 314.262 130.656 314.262Z" fill="#4BFFFF"/>
</g>
<g id="Vector_175" style="mix-blend-mode:soft-light">
<path d="M135.026 471.522C137.857 468.599 125.403 459.8 123.326 441.959C121.248 424.117 126.074 391.964 126.074 391.964C126.074 391.964 119.306 420.363 121.317 446.531C123.328 472.7 135.026 471.522 135.026 471.522Z" fill="#4BFFFF"/>
</g>
<g id="Vector_176" style="mix-blend-mode:multiply" opacity="0.8">
<path d="M140.601 295.159C140.601 295.159 129.764 325.144 118.619 325.144C107.473 325.144 88.1779 293.706 89.4679 288.288C90.7579 282.869 102.622 256.105 104.059 252.709C105.496 249.312 117.895 262.835 117.895 262.835C117.895 262.835 119.6 249.295 125.145 259.633C130.689 269.97 133.8 228.377 139.178 228.093C144.556 227.808 146.833 269.981 140.601 295.159Z" fill="#B892AD"/>
</g>
</g>
</g>
</g>
<g id="contact-me" filter="url(#filter0_d_1_3)">
<path d="M38.9994 58.2315H32.9624C32.882 57.6117 32.7169 57.0523 32.4674 56.5533C32.2179 56.0542 31.8879 55.6276 31.4774 55.2734C31.0669 54.9193 30.5799 54.6496 30.0164 54.4645C29.461 54.2713 28.8453 54.1747 28.1691 54.1747C26.9698 54.1747 25.9355 54.4685 25.0661 55.0561C24.2049 55.6437 23.5408 56.4929 23.074 57.6037C22.6151 58.7145 22.3857 60.0587 22.3857 61.6364C22.3857 63.2784 22.6192 64.6548 23.086 65.7656C23.5609 66.8684 24.225 67.7015 25.0782 68.2649C25.9395 68.8203 26.9577 69.098 28.1329 69.098C28.7929 69.098 29.3926 69.0135 29.9319 68.8445C30.4793 68.6754 30.9582 68.4299 31.3687 68.108C31.7873 67.7779 32.1294 67.3795 32.395 66.9126C32.6686 66.4377 32.8578 65.9025 32.9624 65.3068L38.9994 65.343C38.8947 66.4377 38.5768 67.5163 38.0455 68.5788C37.5223 69.6413 36.8019 70.6113 35.8843 71.4886C34.9667 72.358 33.8479 73.0502 32.5278 73.5653C31.2158 74.0805 29.7106 74.3381 28.0122 74.3381C25.7745 74.3381 23.7702 73.8471 21.9994 72.8651C20.2366 71.875 18.8441 70.4342 17.8218 68.5426C16.7996 66.651 16.2884 64.349 16.2884 61.6364C16.2884 58.9157 16.8076 56.6096 17.846 54.718C18.8843 52.8265 20.2889 51.3897 22.0597 50.4077C23.8306 49.4257 25.8147 48.9347 28.0122 48.9347C29.5093 48.9347 30.8938 49.1439 32.1656 49.5625C33.4374 49.973 34.5562 50.5767 35.5221 51.3736C36.488 52.1624 37.2728 53.1323 37.8765 54.2834C38.4802 55.4344 38.8545 56.7505 38.9994 58.2315ZM51.0763 74.3501C49.1283 74.3501 47.4541 73.9517 46.0535 73.1548C44.661 72.3499 43.5864 71.2311 42.8298 69.7983C42.0812 68.3575 41.7069 66.6873 41.7069 64.7876C41.7069 62.88 42.0812 61.2098 42.8298 59.777C43.5864 58.3362 44.661 57.2173 46.0535 56.4205C47.4541 55.6155 49.1283 55.2131 51.0763 55.2131C53.0242 55.2131 54.6944 55.6155 56.0869 56.4205C57.4875 57.2173 58.5621 58.3362 59.3106 59.777C60.0673 61.2098 60.4456 62.88 60.4456 64.7876C60.4456 66.6873 60.0673 68.3575 59.3106 69.7983C58.5621 71.2311 57.4875 72.3499 56.0869 73.1548C54.6944 73.9517 53.0242 74.3501 51.0763 74.3501ZM51.1125 69.8949C51.8208 69.8949 52.4205 69.6776 52.9115 69.2429C53.4025 68.8082 53.7768 68.2045 54.0344 67.4318C54.3 66.6591 54.4328 65.7656 54.4328 64.7514C54.4328 63.7211 54.3 62.8196 54.0344 62.0469C53.7768 61.2741 53.4025 60.6705 52.9115 60.2358C52.4205 59.8011 51.8208 59.5838 51.1125 59.5838C50.38 59.5838 49.7602 59.8011 49.2531 60.2358C48.7541 60.6705 48.3717 61.2741 48.1061 62.0469C47.8485 62.8196 47.7197 63.7211 47.7197 64.7514C47.7197 65.7656 47.8485 66.6591 48.1061 67.4318C48.3717 68.2045 48.7541 68.8082 49.2531 69.2429C49.7602 69.6776 50.38 69.8949 51.1125 69.8949ZM69.3742 63.4233V74H63.4701V55.4545H69.0844V58.8594H69.2897C69.7002 57.7244 70.4005 56.835 71.3905 56.1911C72.3806 55.5391 73.5598 55.2131 74.9282 55.2131C76.2322 55.2131 77.3631 55.5069 78.3209 56.0945C79.2868 56.674 80.0354 57.487 80.5667 58.5334C81.106 59.5717 81.3716 60.7872 81.3635 62.1797V74H75.4594V63.3388C75.4675 62.3085 75.2059 61.5036 74.6746 60.924C74.1514 60.3445 73.423 60.0547 72.4893 60.0547C71.8695 60.0547 71.3221 60.1915 70.8472 60.4652C70.3804 60.7308 70.0181 61.1132 69.7606 61.6122C69.511 62.1113 69.3823 62.715 69.3742 63.4233ZM95.487 55.4545V59.8011H83.7874V55.4545H95.487ZM86.2384 51.0114H92.1425V68.1683C92.1425 68.5305 92.1988 68.8243 92.3115 69.0497C92.4323 69.267 92.6053 69.424 92.8307 69.5206C93.0561 69.6091 93.3257 69.6534 93.6396 69.6534C93.865 69.6534 94.1025 69.6333 94.352 69.593C94.6096 69.5447 94.8028 69.5045 94.9316 69.4723L95.825 73.7344C95.5433 73.8149 95.1449 73.9155 94.6297 74.0362C94.1226 74.157 93.5149 74.2334 92.8066 74.2656C91.4221 74.33 90.2348 74.169 89.2448 73.7827C88.2628 73.3883 87.5102 72.7765 86.9869 71.9474C86.4718 71.1184 86.2223 70.076 86.2384 68.8203V51.0114ZM103.727 74.3139C102.544 74.3139 101.494 74.1167 100.576 73.7223C99.6665 73.3198 98.9461 72.7161 98.4149 71.9112C97.8917 71.0982 97.6301 70.08 97.6301 68.8565C97.6301 67.8262 97.8112 66.9569 98.1734 66.2486C98.5356 65.5402 99.0347 64.9647 99.6705 64.522C100.306 64.0793 101.039 63.7453 101.868 63.5199C102.697 63.2865 103.582 63.1295 104.524 63.049C105.579 62.9524 106.428 62.8518 107.072 62.7472C107.716 62.6345 108.183 62.4775 108.472 62.2763C108.77 62.067 108.919 61.7732 108.919 61.3949V61.3345C108.919 60.7147 108.706 60.2358 108.279 59.8977C107.853 59.5597 107.277 59.3906 106.553 59.3906C105.772 59.3906 105.144 59.5597 104.669 59.8977C104.194 60.2358 103.892 60.7027 103.764 61.2983L98.3183 61.1051C98.4793 59.9782 98.8938 58.9721 99.5619 58.0866C100.238 57.1932 101.164 56.4929 102.339 55.9858C103.522 55.4706 104.943 55.2131 106.601 55.2131C107.784 55.2131 108.875 55.3539 109.873 55.6357C110.871 55.9093 111.74 56.3118 112.481 56.843C113.221 57.3662 113.793 58.0102 114.195 58.7749C114.606 59.5395 114.811 60.4129 114.811 61.3949V74H109.257V71.4162H109.112C108.782 72.044 108.36 72.5753 107.845 73.0099C107.337 73.4446 106.738 73.7706 106.046 73.9879C105.361 74.2053 104.589 74.3139 103.727 74.3139ZM105.551 70.4503C106.186 70.4503 106.758 70.3215 107.265 70.0639C107.78 69.8063 108.191 69.4522 108.497 69.0014C108.802 68.5426 108.955 68.0114 108.955 67.4077V65.6449C108.786 65.7334 108.581 65.8139 108.34 65.8864C108.106 65.9588 107.849 66.0272 107.567 66.0916C107.285 66.156 106.995 66.2124 106.698 66.2607C106.4 66.3089 106.114 66.3532 105.84 66.3935C105.285 66.482 104.81 66.6188 104.416 66.804C104.029 66.9891 103.731 67.2306 103.522 67.5284C103.321 67.8182 103.22 68.1643 103.22 68.5668C103.22 69.1785 103.438 69.6454 103.872 69.9673C104.315 70.2893 104.874 70.4503 105.551 70.4503ZM127.078 74.3501C125.122 74.3501 123.444 73.9477 122.043 73.1428C120.651 72.3378 119.58 71.219 118.832 69.7862C118.083 68.3454 117.709 66.6792 117.709 64.7876C117.709 62.888 118.083 61.2218 118.832 59.7891C119.588 58.3482 120.663 57.2254 122.055 56.4205C123.456 55.6155 125.126 55.2131 127.066 55.2131C128.781 55.2131 130.274 55.523 131.546 56.1428C132.825 56.7625 133.823 57.6399 134.54 58.7749C135.264 59.9018 135.647 61.2259 135.687 62.7472H130.169C130.056 61.7973 129.734 61.0528 129.203 60.5135C128.68 59.9742 127.996 59.7045 127.151 59.7045C126.466 59.7045 125.867 59.8977 125.352 60.2841C124.837 60.6624 124.434 61.2259 124.144 61.9744C123.863 62.715 123.722 63.6326 123.722 64.7273C123.722 65.822 123.863 66.7476 124.144 67.5043C124.434 68.2528 124.837 68.8203 125.352 69.2067C125.867 69.585 126.466 69.7741 127.151 69.7741C127.698 69.7741 128.181 69.6574 128.6 69.424C129.026 69.1906 129.376 68.8485 129.65 68.3977C129.924 67.9389 130.097 67.3835 130.169 66.7315H135.687C135.631 68.2609 135.248 69.5971 134.54 70.7401C133.84 71.883 132.854 72.7725 131.582 73.4084C130.318 74.0362 128.817 74.3501 127.078 74.3501ZM149.176 55.4545V59.8011H137.477V55.4545H149.176ZM139.928 51.0114H145.832V68.1683C145.832 68.5305 145.888 68.8243 146.001 69.0497C146.122 69.267 146.295 69.424 146.52 69.5206C146.746 69.6091 147.015 69.6534 147.329 69.6534C147.554 69.6534 147.792 69.6333 148.041 69.593C148.299 69.5447 148.492 69.5045 148.621 69.4723L149.514 73.7344C149.233 73.8149 148.834 73.9155 148.319 74.0362C147.812 74.157 147.204 74.2334 146.496 74.2656C145.112 74.33 143.924 74.169 142.934 73.7827C141.952 73.3883 141.2 72.7765 140.676 71.9474C140.161 71.1184 139.912 70.076 139.928 68.8203V51.0114ZM58.39 115V96.4545H64.0044V99.8594H64.2096C64.596 98.7325 65.248 97.843 66.1656 97.1911C67.0832 96.5391 68.1779 96.2131 69.4497 96.2131C70.7375 96.2131 71.8403 96.5431 72.7579 97.2031C73.6755 97.8632 74.2591 98.7486 74.5086 99.8594H74.7018C75.0479 98.7566 75.724 97.8752 76.7302 97.2152C77.7364 96.5471 78.9236 96.2131 80.292 96.2131C82.0467 96.2131 83.4714 96.7765 84.5661 97.9034C85.6608 99.0223 86.2082 100.56 86.2082 102.516V115H80.3041V103.868C80.3041 102.942 80.0666 102.238 79.5917 101.755C79.1168 101.264 78.501 101.018 77.7444 101.018C76.9314 101.018 76.2915 101.284 75.8247 101.815C75.3659 102.339 75.1365 103.043 75.1365 103.928V115H69.4617V103.808C69.4617 102.946 69.2283 102.266 68.7615 101.767C68.2946 101.268 67.6788 101.018 66.9142 101.018C66.399 101.018 65.9442 101.143 65.5498 101.393C65.1554 101.634 64.8455 101.98 64.6201 102.431C64.4028 102.882 64.2941 103.413 64.2941 104.025V115H58.39ZM98.5356 115.35C96.5957 115.35 94.9215 114.968 93.5129 114.203C92.1123 113.43 91.0337 112.332 90.2771 110.907C89.5285 109.474 89.1542 107.772 89.1542 105.8C89.1542 103.884 89.5325 102.21 90.2892 100.777C91.0458 99.3362 92.1123 98.2173 93.4887 97.4205C94.8651 96.6155 96.4871 96.2131 98.3545 96.2131C99.6746 96.2131 100.882 96.4183 101.977 96.8288C103.071 97.2393 104.017 97.8471 104.814 98.652C105.611 99.4569 106.231 100.451 106.673 101.634C107.116 102.809 107.337 104.158 107.337 105.679V107.152H91.2188V103.723H101.844C101.836 103.095 101.687 102.536 101.397 102.045C101.107 101.554 100.709 101.171 100.202 100.898C99.7027 100.616 99.1272 100.475 98.4752 100.475C97.8152 100.475 97.2236 100.624 96.7004 100.922C96.1772 101.212 95.7626 101.61 95.4568 102.117C95.1509 102.616 94.9899 103.184 94.9738 103.82V107.309C94.9738 108.066 95.1227 108.73 95.4205 109.301C95.7184 109.865 96.141 110.303 96.6883 110.617C97.2356 110.931 97.8876 111.088 98.6443 111.088C99.1675 111.088 99.6424 111.016 100.069 110.871C100.496 110.726 100.862 110.513 101.168 110.231C101.474 109.949 101.703 109.603 101.856 109.192L107.277 109.349C107.052 110.565 106.557 111.623 105.792 112.525C105.035 113.418 104.041 114.115 102.81 114.614C101.578 115.105 100.153 115.35 98.5356 115.35Z" fill="#433F49"/>
</g>
</g>
<defs>
<filter id="filter0_d_1_3" x="12.2885" y="48.9347" width="141.226" height="74.4155" filterUnits="userSpaceOnUse" color-interpolation-filters="sRGB">
<feFlood flood-opacity="0" result="BackgroundImageFix"/>
<feColorMatrix in="SourceAlpha" type="matrix" values="0 0 0 0 0 0 0 0 0 0 0 0 0 0 0 0 0 0 127 0" result="hardAlpha"/>
<feOffset dy="4"/>
<feGaussianBlur stdDeviation="2"/>
<feComposite in2="hardAlpha" operator="out"/>
<feColorMatrix type="matrix" values="0 0 0 0 0 0 0 0 0 0 0 0 0 0 0 0 0 0 0.25 0"/>
<feBlend mode="normal" in2="BackgroundImageFix" result="effect1_dropShadow_1_3"/>
<feBlend mode="normal" in="SourceGraphic" in2="effect1_dropShadow_1_3" result="shape"/>
</filter>
<linearGradient id="paint0_linear_1_3" x1="216.972" y1="528.535" x2="216.972" y2="435.339" gradientUnits="userSpaceOnUse">
<stop stop-color="#C50B79"/>
<stop offset="1" stop-color="#C01160"/>
</linearGradient>
<linearGradient id="paint1_linear_1_3" x1="80.0537" y1="166.222" x2="80.0537" y2="1.79077e-05" gradientUnits="userSpaceOnUse">
<stop stop-color="#7E8EFF"/>
<stop offset="1" stop-color="#7096FF"/>
</linearGradient>
<linearGradient id="paint2_linear_1_3" x1="10.1445" y1="166.222" x2="10.1445" y2="4.19077" gradientUnits="userSpaceOnUse">
<stop stop-color="#26258A"/>
<stop offset="1" stop-color="#3C2C95"/>
</linearGradient>
<linearGradient id="paint3_linear_1_3" x1="221.487" y1="516.987" x2="221.487" y2="173.07" gradientUnits="userSpaceOnUse">
<stop stop-color="#FF6686"/>
<stop offset="1" stop-color="#FF7C89"/>
</linearGradient>
<linearGradient id="paint4_linear_1_3" x1="232.616" y1="471.522" x2="232.616" y2="207.748" gradientUnits="userSpaceOnUse">
<stop offset="0.02" stop-color="white"/>
<stop offset="0.99" stop-color="#EA8CC1"/>
</linearGradient>
<linearGradient id="paint5_linear_1_3" x1="210.697" y1="511.981" x2="210.697" y2="228.093" gradientUnits="userSpaceOnUse">
<stop offset="0.02" stop-color="white"/>
<stop offset="0.99" stop-color="#EA8CC1"/>
</linearGradient>
<linearGradient id="paint6_linear_1_3" x1="156.807" y1="499.987" x2="156.807" y2="172.494" gradientUnits="userSpaceOnUse">
<stop stop-color="#2B2583"/>
<stop offset="1" stop-color="#482C97"/>
</linearGradient>
<linearGradient id="paint7_linear_1_3" x1="297.597" y1="511.972" x2="297.597" y2="180.807" gradientUnits="userSpaceOnUse">
<stop stop-color="#2B2583"/>
<stop offset="1" stop-color="#482C97"/>
</linearGradient>
<linearGradient id="paint8_linear_1_3" x1="273.431" y1="461.526" x2="273.431" y2="180.866" gradientUnits="userSpaceOnUse">
<stop stop-color="#38328A"/>
<stop offset="1" stop-color="#5C43A2"/>
</linearGradient>
<linearGradient id="paint9_linear_1_3" x1="180.451" y1="453.116" x2="180.451" y2="173.54" gradientUnits="userSpaceOnUse">
<stop stop-color="#38328A"/>
<stop offset="1" stop-color="#5C43A2"/>
</linearGradient>
<linearGradient id="paint10_linear_1_3" x1="222.796" y1="348.425" x2="222.796" y2="205.238" gradientUnits="userSpaceOnUse">
<stop stop-color="#FFB595"/>
<stop offset="0.98" stop-color="#FFAEA9"/>
</linearGradient>
<linearGradient id="paint11_linear_1_3" x1="210.233" y1="233.414" x2="165.654" y2="233.414" gradientUnits="userSpaceOnUse">
<stop offset="0.02" stop-color="white"/>
<stop offset="0.99" stop-color="#EA9DC8"/>
</linearGradient>
<linearGradient id="paint12_linear_1_3" x1="209.86" y1="268.303" x2="166.818" y2="268.303" gradientUnits="userSpaceOnUse">
<stop offset="0.01" stop-color="#EA9DC8"/>
<stop offset="0.98" stop-color="#FFDBD6"/>
</linearGradient>
<linearGradient id="paint13_linear_1_3" x1="209.312" y1="249.615" x2="205.405" y2="249.615" gradientUnits="userSpaceOnUse">
<stop offset="0.02" stop-color="white"/>
<stop offset="0.99" stop-color="#EA9DC8"/>
</linearGradient>
<linearGradient id="paint14_linear_1_3" x1="203.863" y1="256.172" x2="197.985" y2="256.172" gradientUnits="userSpaceOnUse">
<stop offset="0.02" stop-color="white"/>
<stop offset="0.99" stop-color="#EA9DC8"/>
</linearGradient>
<linearGradient id="paint15_linear_1_3" x1="199.317" y1="265.153" x2="193.811" y2="265.153" gradientUnits="userSpaceOnUse">
<stop offset="0.02" stop-color="white"/>
<stop offset="0.99" stop-color="#EA9DC8"/>
</linearGradient>
<linearGradient id="paint16_linear_1_3" x1="235.516" y1="217.798" x2="235.516" y2="151.886" gradientUnits="userSpaceOnUse">
<stop offset="0.02" stop-color="#FFA67F"/>
<stop offset="1" stop-color="#FF8B7C"/>
</linearGradient>
<linearGradient id="paint17_linear_1_3" x1="244.427" y1="202.41" x2="244.427" y2="152.925" gradientUnits="userSpaceOnUse">
<stop offset="0.02" stop-color="white"/>
<stop offset="0.99" stop-color="#F29DC8"/>
</linearGradient>
<linearGradient id="paint18_linear_1_3" x1="298.837" y1="390.807" x2="298.837" y2="300.36" gradientUnits="userSpaceOnUse">
<stop stop-color="#38328A"/>
<stop offset="1" stop-color="#4F349B"/>
</linearGradient>
<linearGradient id="paint19_linear_1_3" x1="84.6067" y1="298.636" x2="84.6067" y2="142.882" gradientUnits="userSpaceOnUse">
<stop stop-color="#FFB595"/>
<stop offset="0.98" stop-color="#FFAEA9"/>
</linearGradient>
<linearGradient id="paint20_linear_1_3" x1="72.2449" y1="181.509" x2="72.2449" y2="161.128" gradientUnits="userSpaceOnUse">
<stop offset="0.02" stop-color="#FFDBD6"/>
<stop offset="0.99" stop-color="#EA9DC8"/>
</linearGradient>
<linearGradient id="paint21_linear_1_3" x1="104.059" y1="196.323" x2="73.7602" y2="196.323" gradientUnits="userSpaceOnUse">
<stop offset="0.01" stop-color="#EA9DC8"/>
<stop offset="0.98" stop-color="white"/>
</linearGradient>
<linearGradient id="paint22_linear_1_3" x1="90.9571" y1="339.347" x2="90.9571" y2="223.219" gradientUnits="userSpaceOnUse">
<stop stop-color="#38328A"/>
<stop offset="1" stop-color="#4F349B"/>
</linearGradient>
<linearGradient id="paint23_linear_1_3" x1="78.4697" y1="275.445" x2="78.4697" y2="209.305" gradientUnits="userSpaceOnUse">
<stop stop-color="#FF6686"/>
<stop offset="1" stop-color="#FF7C89"/>
</linearGradient>
<linearGradient id="paint24_linear_1_3" x1="261.072" y1="355.413" x2="261.072" y2="282.997" gradientUnits="userSpaceOnUse">
<stop stop-color="#FF6686"/>
<stop offset="1" stop-color="#FF7C89"/>
</linearGradient>
<linearGradient id="paint25_linear_1_3" x1="133.278" y1="295.152" x2="133.278" y2="216.796" gradientUnits="userSpaceOnUse">
<stop offset="0.01" stop-color="#C2798B"/>
<stop offset="0.98" stop-color="white"/>
</linearGradient>
<linearGradient id="paint26_linear_1_3" x1="297.908" y1="309.775" x2="297.908" y2="289.648" gradientUnits="userSpaceOnUse">
<stop offset="0.01" stop-color="#C2798B"/>
<stop offset="0.98" stop-color="white"/>
</linearGradient>
<linearGradient id="paint27_linear_1_3" x1="332.439" y1="308.352" x2="290.9" y2="308.352" gradientUnits="userSpaceOnUse">
<stop offset="0.02" stop-color="white"/>
<stop offset="0.99" stop-color="#C2798B"/>
</linearGradient>
<linearGradient id="paint28_linear_1_3" x1="330.53" y1="319.846" x2="297.595" y2="319.846" gradientUnits="userSpaceOnUse">
<stop offset="0.02" stop-color="white"/>
<stop offset="0.99" stop-color="#C2798B"/>
</linearGradient>
<linearGradient id="paint29_linear_1_3" x1="129.003" y1="262.835" x2="102.947" y2="262.835" gradientUnits="userSpaceOnUse">
<stop offset="0.02" stop-color="white"/>
<stop offset="0.99" stop-color="#C2798B"/>
</linearGradient>
<linearGradient id="paint30_linear_1_3" x1="112.913" y1="317.511" x2="63.0275" y2="317.511" gradientUnits="userSpaceOnUse">
<stop offset="0.01" stop-color="#C2798B"/>
<stop offset="0.98" stop-color="white"/>
</linearGradient>
<linearGradient id="paint31_linear_1_3" x1="160.053" y1="499.987" x2="160.053" y2="265.66" gradientUnits="userSpaceOnUse">
<stop offset="0.01" stop-color="#C2798B"/>
<stop offset="0.98" stop-color="white"/>
</linearGradient>
<linearGradient id="paint32_linear_1_3" x1="316.312" y1="511.661" x2="316.312" y2="500.954" gradientUnits="userSpaceOnUse">
<stop offset="0.02" stop-color="white"/>
<stop offset="0.99" stop-color="#C2798B"/>
</linearGradient>
<linearGradient id="paint33_linear_1_3" x1="284.884" y1="511.971" x2="284.884" y2="336.239" gradientUnits="userSpaceOnUse">
<stop offset="0.02" stop-color="white"/>
<stop offset="0.99" stop-color="#C2798B"/>
</linearGradient>
<linearGradient id="paint34_linear_1_3" x1="335.567" y1="378.574" x2="286.217" y2="378.574" gradientUnits="userSpaceOnUse">
<stop offset="0.01" stop-color="#C2798B"/>
<stop offset="0.98" stop-color="white"/>
</linearGradient>
<linearGradient id="paint35_linear_1_3" x1="130.437" y1="304.878" x2="99.0251" y2="250.446" gradientUnits="userSpaceOnUse">
<stop offset="0.02" stop-color="white"/>
<stop offset="0.99" stop-color="#C2798B"/>
</linearGradient>
<linearGradient id="paint36_linear_1_3" x1="216.457" y1="70.1383" x2="224.056" y2="22.138" gradientUnits="userSpaceOnUse">
<stop stop-color="#3E2987"/>
<stop offset="0.14" stop-color="#372987"/>
<stop offset="0.66" stop-color="#212885"/>
<stop offset="1" stop-color="#192885"/>
</linearGradient>
<linearGradient id="paint37_linear_1_3" x1="251.712" y1="156.544" x2="251.712" y2="19.496" gradientUnits="userSpaceOnUse">
<stop stop-color="#FFB595"/>
<stop offset="0.98" stop-color="#FFC2A9"/>
</linearGradient>
<linearGradient id="paint38_linear_1_3" x1="257.498" y1="106.042" x2="270.845" y2="21.7414" gradientUnits="userSpaceOnUse">
<stop offset="0.02" stop-color="white"/>
<stop offset="0.99" stop-color="#F29DC8"/>
</linearGradient>
<linearGradient id="paint39_linear_1_3" x1="278.925" y1="143.088" x2="303.491" y2="109.265" gradientUnits="userSpaceOnUse">
<stop stop-color="#FFB595"/>
<stop offset="0.98" stop-color="#FF958D"/>
</linearGradient>
<linearGradient id="paint40_linear_1_3" x1="306.622" y1="72.7528" x2="310.835" y2="46.1405" gradientUnits="userSpaceOnUse">
<stop stop-color="#3E2987"/>
<stop offset="0.57" stop-color="#2C2F90"/>
<stop offset="1" stop-color="#243294"/>
</linearGradient>
<linearGradient id="paint41_linear_1_3" x1="293.073" y1="137.416" x2="293.073" y2="117.393" gradientUnits="userSpaceOnUse">
<stop offset="0.02" stop-color="white"/>
<stop offset="0.99" stop-color="#F29DC8"/>
</linearGradient>
<linearGradient id="paint42_linear_1_3" x1="242.511" y1="111.503" x2="242.511" y2="57.6656" gradientUnits="userSpaceOnUse">
<stop offset="0.02" stop-color="white"/>
<stop offset="0.99" stop-color="#F29DC8"/>
</linearGradient>
<linearGradient id="paint43_linear_1_3" x1="267.284" y1="91.6372" x2="243.185" y2="91.6372" gradientUnits="userSpaceOnUse">
<stop offset="0.01" stop-color="#EA9DC8"/>
<stop offset="0.98" stop-color="white"/>
</linearGradient>
<linearGradient id="paint44_linear_1_3" x1="259.061" y1="100.486" x2="259.061" y2="89.6604" gradientUnits="userSpaceOnUse">
<stop offset="0.02" stop-color="#E0B3D1"/>
<stop offset="0.99" stop-color="#C2798B"/>
</linearGradient>
<linearGradient id="paint45_linear_1_3" x1="223.403" y1="76.9506" x2="210.956" y2="76.9506" gradientUnits="userSpaceOnUse">
<stop offset="0.02" stop-color="white"/>
<stop offset="0.99" stop-color="#EA9DC8"/>
</linearGradient>
<linearGradient id="paint46_linear_1_3" x1="218.862" y1="86.8634" x2="218.862" y2="76.0404" gradientUnits="userSpaceOnUse">
<stop offset="0.02" stop-color="#E0B3D1"/>
<stop offset="0.99" stop-color="#C2798B"/>
</linearGradient>
<linearGradient id="paint47_linear_1_3" x1="232.63" y1="112.766" x2="232.63" y2="103.674" gradientUnits="userSpaceOnUse">
<stop offset="0.01" stop-color="#EA9DC8"/>
<stop offset="0.98" stop-color="white"/>
</linearGradient>
<linearGradient id="paint48_linear_1_3" x1="235.677" y1="122.586" x2="242.518" y2="127.957" gradientUnits="userSpaceOnUse">
<stop offset="0.02" stop-color="white"/>
<stop offset="0.99" stop-color="#F29DC8"/>
</linearGradient>
<linearGradient id="paint49_linear_1_3" x1="221.546" y1="67.3792" x2="221.546" y2="51.3202" gradientUnits="userSpaceOnUse">
<stop stop-color="#B877B8"/>
<stop offset="0.23" stop-color="#9A6DBA"/>
<stop offset="0.56" stop-color="#7762BB"/>
<stop offset="0.83" stop-color="#615BBD"/>
<stop offset="1" stop-color="#5958BD"/>
</linearGradient>
<linearGradient id="paint50_linear_1_3" x1="266.783" y1="86.9952" x2="265.029" y2="65.3253" gradientUnits="userSpaceOnUse">
<stop stop-color="#B877B8"/>
<stop offset="0.23" stop-color="#9A6DBA"/>
<stop offset="0.56" stop-color="#7762BB"/>
<stop offset="0.83" stop-color="#615BBD"/>
<stop offset="1" stop-color="#5958BD"/>
</linearGradient>
<linearGradient id="paint51_linear_1_3" x1="259.637" y1="151.424" x2="259.637" y2="113.53" gradientUnits="userSpaceOnUse">
<stop offset="0.02" stop-color="white"/>
<stop offset="0.99" stop-color="#F29DC8"/>
</linearGradient>
<linearGradient id="paint52_linear_1_3" x1="211.014" y1="98.5375" x2="211.014" y2="59.6239" gradientUnits="userSpaceOnUse">
<stop stop-color="#26258A"/>
<stop offset="1" stop-color="#3C2C95"/>
</linearGradient>
<linearGradient id="paint53_linear_1_3" x1="257.321" y1="114.988" x2="257.321" y2="75.3393" gradientUnits="userSpaceOnUse">
<stop stop-color="#26258A"/>
<stop offset="1" stop-color="#3C2C95"/>
</linearGradient>
<linearGradient id="paint54_linear_1_3" x1="286.566" y1="110.858" x2="286.566" y2="93.0251" gradientUnits="userSpaceOnUse">
<stop stop-color="#26258A"/>
<stop offset="1" stop-color="#3C2C95"/>
</linearGradient>
<linearGradient id="paint55_linear_1_3" x1="236.497" y1="98.1652" x2="211.776" y2="98.1652" gradientUnits="userSpaceOnUse">
<stop stop-color="#FFB595"/>
<stop offset="0.98" stop-color="#FFC2A9"/>
</linearGradient>
<linearGradient id="paint56_linear_1_3" x1="224.183" y1="112.235" x2="224.183" y2="89.1887" gradientUnits="userSpaceOnUse">
<stop offset="0.01" stop-color="#F29DC8"/>
<stop offset="0.98" stop-color="white"/>
</linearGradient>
<linearGradient id="paint57_linear_1_3" x1="222.703" y1="112.546" x2="222.703" y2="100.277" gradientUnits="userSpaceOnUse">
<stop offset="0.01" stop-color="#F29DC8"/>
<stop offset="0.98" stop-color="white"/>
</linearGradient>
<linearGradient id="paint58_linear_1_3" x1="217.51" y1="101.775" x2="211.186" y2="101.775" gradientUnits="userSpaceOnUse">
<stop offset="0.01" stop-color="#EA9DC8"/>
<stop offset="0.98" stop-color="#FFDBD6"/>
</linearGradient>
<linearGradient id="paint59_linear_1_3" x1="277.73" y1="73.7858" x2="253.853" y2="75.7203" gradientUnits="userSpaceOnUse">
<stop offset="0.02" stop-color="white"/>
<stop offset="0.99" stop-color="#F29DC8"/>
</linearGradient>
<linearGradient id="paint60_linear_1_3" x1="219.915" y1="134.46" x2="219.915" y2="126.372" gradientUnits="userSpaceOnUse">
<stop offset="0.02" stop-color="white"/>
<stop offset="0.99" stop-color="#F29DC8"/>
</linearGradient>
<linearGradient id="paint61_linear_1_3" x1="254.235" y1="34.1044" x2="258.919" y2="4.50779" gradientUnits="userSpaceOnUse">
<stop stop-color="#3E2987"/>
<stop offset="0.57" stop-color="#2C2F90"/>
<stop offset="1" stop-color="#243294"/>
</linearGradient>
<linearGradient id="paint62_linear_1_3" x1="253.092" y1="114.997" x2="270.625" y2="4.25487" gradientUnits="userSpaceOnUse">
<stop stop-color="#3E2987"/>
<stop offset="0.57" stop-color="#2C2F90"/>
<stop offset="1" stop-color="#243294"/>
</linearGradient>
<linearGradient id="paint63_linear_1_3" x1="281.46" y1="42.4575" x2="286.426" y2="11.076" gradientUnits="userSpaceOnUse">
<stop stop-color="#3E2987"/>
<stop offset="0.57" stop-color="#2C2F90"/>
<stop offset="1" stop-color="#243294"/>
</linearGradient>
<linearGradient id="paint64_linear_1_3" x1="291.759" y1="32.7865" x2="208.95" y2="32.7865" gradientUnits="userSpaceOnUse">
<stop offset="0.02" stop-color="white"/>
<stop offset="0.99" stop-color="#C2798B"/>
</linearGradient>
<linearGradient id="paint65_linear_1_3" x1="300.078" y1="107.144" x2="300.078" y2="48.1605" gradientUnits="userSpaceOnUse">
<stop offset="0.02" stop-color="white"/>
<stop offset="0.99" stop-color="#C2798B"/>
</linearGradient>
<linearGradient id="paint66_linear_1_3" x1="295.797" y1="108.938" x2="295.797" y2="75.3009" gradientUnits="userSpaceOnUse">
<stop offset="0.02" stop-color="white"/>
<stop offset="0.99" stop-color="#C2798B"/>
</linearGradient>
<clipPath id="clip0_1_3">
<rect width="345" height="529" fill="white" transform="matrix(-1 0 0 1 345 0)"/>
</clipPath>
</defs>
</svg>
