<svg width="481" height="738" viewBox="0 0 481 738" fill="none" xmlns="http://www.w3.org/2000/svg">
<g clip-path="url(#clip0_1_3)">
<path d="M414.907 701.539V737.342H196.148C196.148 737.342 195.838 664.238 190.197 618.062C184.557 571.885 401.091 688.841 414.907 701.539Z" fill="url(#paint0_linear_1_3)"/>
<path d="M218.61 218.392L28.2938 231.894C28.2938 231.894 21.1889 85.8517 4.61535 5.84646C4.61535 5.84646 123.797 -7.30477 207.465 5.84646C207.462 5.84646 217.923 103.573 218.61 218.392Z" fill="url(#paint1_linear_1_3)"/>
<path d="M-2.35164e-05 11.8682L4.61207 5.84647C4.61207 5.84647 26.7101 121.106 28.2937 231.894H23.556C23.556 231.894 23.6651 131.076 -2.35164e-05 11.8682Z" fill="url(#paint2_linear_1_3)"/>
<path d="M208.854 26.9341C204.768 37.0397 203.921 6.96748 165.676 3.37627C127.431 -0.214934 24.2967 10.2115 15.9091 12.761C7.52145 15.3106 5.95101 6.89142 5.95101 6.89142C5.95101 6.89142 106.325 -0.608453 148.815 0.972208C191.305 2.55287 205.349 5.0396 206.566 6.75915C207.783 8.47869 208.854 26.9341 208.854 26.9341Z" fill="#93C2FF"/>
<path d="M124.604 313.619C130.635 315.841 133.775 343.208 126.813 360.315C119.85 377.421 101.048 393.687 88.5411 399.524C76.0341 405.36 88.8023 343.734 101.167 328.999C113.532 314.264 124.604 313.619 124.604 313.619Z" fill="#4B81EE"/>
<path d="M354.055 260.829C360.337 265.584 372.03 289.006 390.578 294.926C409.125 300.845 422.571 291.07 430.648 303.854C438.725 316.638 388.211 408.611 380.726 506.506C373.241 604.401 416.64 713.741 416.64 713.741C416.64 713.741 358.003 718.953 333.762 720.848C279.826 725.057 216.157 695.187 186.164 681.374C184.673 663.931 205.095 386.105 212.444 323.989C219.794 261.874 218.759 260.306 248.226 254.516C277.694 248.726 297.894 241.438 297.894 241.438L354.055 260.829Z" fill="url(#paint3_linear_1_3)"/>
<g style="mix-blend-mode:multiply" opacity="0.5">
<path d="M354.607 709.952C359.004 708.209 322.207 668.339 303.501 631.629C284.795 594.92 272.576 552.682 268.628 550.708C264.681 548.734 239.409 630.839 235.075 667.155C230.74 703.47 297.722 726.3 354.607 709.952Z" fill="#E392AD"/>
</g>
<g style="mix-blend-mode:soft-light" opacity="0.5">
<path d="M353.549 310.838C354.872 313.401 344.58 379.762 340.781 384.269C336.982 388.776 308.553 380.212 285.995 359.137C263.438 338.063 274.424 303.801 278.765 302.458C283.106 301.116 289.5 326.314 305.333 329.723C331.494 335.351 351.185 306.222 353.549 310.838Z" fill="#FFBB9A"/>
</g>
<path style="mix-blend-mode:multiply" d="M358.816 289.826C358.816 289.826 333.987 519.525 312.557 574.789C291.127 630.052 286.769 648.997 291.318 656.894C295.867 664.79 340.312 623.164 350.448 481.344C360.585 339.525 358.816 289.826 358.816 289.826Z" fill="url(#paint4_linear_1_3)"/>
<path style="mix-blend-mode:multiply" d="M331.494 714.244C355.48 715.437 286.713 623.736 264.049 521.102C241.386 418.468 268.043 318.209 268.043 318.209C268.043 318.209 239.168 421.418 256.594 545.077C274.021 668.735 315.298 713.437 331.494 714.244Z" fill="url(#paint5_linear_1_3)"/>
<path d="M148.266 472.938C155.368 474.126 183.38 444.126 196.026 411.762C196.026 411.762 193.11 437.407 187.86 473.269C187.86 473.312 187.84 473.332 187.86 473.355C187.849 473.373 187.843 473.394 187.84 473.415C186.567 482.188 185.133 491.602 183.569 501.374V501.437C180.759 519.042 177.528 537.874 173.925 556.624C160.095 628.478 175.882 652.542 181.8 657.29C187.718 662.039 214.564 666.374 248.514 688.874C261.259 697.333 268.989 699.039 273.402 696.354C273.72 696.16 274.02 695.939 274.298 695.693C275.674 694.548 276.676 692.902 277.34 690.818L277.403 690.567C279.717 683.13 278.11 670.59 275.75 657.277C270.625 628.465 249.301 545.176 251.671 448.465C254.042 351.753 280.686 268.468 284.623 259.976C288.561 251.484 295.765 249.186 295.765 249.186L297.934 241.454C292.456 239.801 256.422 252.873 252.465 252.248C248.507 251.623 207.472 237.433 178.001 241.309C178.001 241.309 166.43 247.922 165.65 299.267C165.65 299.267 152.214 327.683 143.548 346.224C134.883 364.766 141.161 471.771 148.266 472.938Z" fill="url(#paint6_linear_1_3)"/>
<g style="mix-blend-mode:multiply">
<path d="M295.758 249.186C295.758 249.186 285.344 265.058 276.662 297.029C267.98 328.999 261.838 584.286 261.838 584.286C261.838 584.286 244.315 487.485 250.352 406.63C256.389 325.775 276.401 259.367 282.187 249.186C287.972 239.004 297.917 241.448 297.917 241.448L295.758 249.186Z" fill="#E392AD"/>
</g>
<path d="M361.55 676.477C363.487 682.353 365.696 687.039 368.215 690.312C387.169 714.935 422.247 715.113 437.554 713.83C437.665 713.836 437.776 713.83 437.885 713.811H437.905C442.361 713.437 445.049 712.934 445.049 712.934C442.06 708.427 439.368 703.73 436.989 698.874C436.969 698.831 436.946 698.768 436.926 698.728C435.052 694.955 433.24 690.957 431.531 686.748C417.096 651.695 407.396 602.625 400.956 556.687L400.893 556.25C399.977 549.729 399.121 543.291 398.35 536.978C391.312 480.289 389.186 432.645 389.04 428.958C389.645 433.832 399.164 511.916 407.555 520.709C416.24 529.789 465.187 547.937 469.124 543.602C473.062 539.267 488.078 500.187 477.019 450.042C465.96 399.897 435.987 351.376 435.987 351.376C444.253 320.98 442.421 303.854 442.421 303.854C414.263 285.27 384.537 288.729 378.226 284.793C371.915 280.858 358.502 250.584 355.629 252.314L354.065 260.812C354.065 260.812 357.441 268.481 358.231 275.187C359.021 281.893 359.814 345.04 353.503 416.623C347.803 480.914 344.262 624.645 361.55 676.477Z" fill="url(#paint7_linear_1_3)"/>
<g style="mix-blend-mode:multiply">
<path d="M355.599 252.324C355.599 252.324 365.283 283.041 364.635 322.203C363.987 361.366 357.91 567.682 357.265 621.365C356.621 675.048 374.93 697.515 374.93 697.515C374.93 697.515 349.377 687.68 343.264 602.939C337.151 518.199 357.649 324.369 358.723 297.022C359.798 269.675 351.701 262.876 351.701 262.876L355.599 252.324Z" fill="#E392AD"/>
</g>
<path d="M355.599 252.324C355.599 252.324 362.453 261.206 374.93 281.424C387.407 301.642 406.807 327.891 406.807 331.049C406.807 338.136 394.529 338.136 389.725 340.308C384.921 342.481 397.722 361.756 398.717 375.179C399.713 388.601 378.329 514.396 371.224 557.808C364.119 601.22 359.583 643.124 358.915 643.858C358.247 644.592 354.121 499.386 358.528 420.833C362.935 342.279 368.166 293.728 363.97 273.993C359.775 254.258 355.599 252.324 355.599 252.324Z" fill="url(#paint8_linear_1_3)"/>
<path d="M290.138 242.102C290.138 242.102 259.553 253.475 234.556 273.474C209.558 293.474 213.773 300.798 213.509 303.847C213.244 306.896 231.137 317.157 232.453 318.209C233.769 319.26 218.27 340.58 213.39 368.473C208.51 396.366 254.554 583.208 259.553 597.42C264.552 611.633 270.695 632.142 270.695 632.142C270.695 632.142 246.134 528.238 245.608 429.278C245.082 330.318 284.157 258.627 290.138 242.102Z" fill="url(#paint9_linear_1_3)"/>
<g style="mix-blend-mode:multiply">
<path d="M400.314 552.947C402.03 566.422 354.611 554.409 315.069 448.094C301.012 410.301 269.554 430.839 254.029 423.736C238.503 416.633 235.078 377.156 235.078 377.156C235.078 377.156 287.232 374.898 310.623 388.188C334.013 401.478 399.002 471.368 399.002 471.368L399.045 537.23L400.314 552.947Z" fill="#D07CAD"/>
</g>
<path d="M403.207 522.683C402.843 548.651 365.322 518.341 360.783 476.103C357.695 447.363 359.401 432.681 359.401 432.681C359.401 432.681 365.124 417.681 379.33 423.997C393.537 430.313 403.405 508.669 403.207 522.683Z" fill="#4B81EE"/>
<g style="mix-blend-mode:multiply">
<path d="M213.549 299.026C213.248 305.448 225.616 311.106 234.046 310.841C242.477 310.577 265.015 307.372 265.015 307.372C265.015 307.372 264.545 309.505 264.565 309.423C264.585 309.34 251.542 308.953 244.441 311.407C240.078 312.944 236.024 315.246 232.469 318.206C232.469 318.206 217.592 313.731 211.948 309.257C206.305 304.783 213.549 299.026 213.549 299.026Z" fill="#B588AD"/>
</g>
<path d="M270.258 339.144C270.314 339.201 270.363 339.265 270.404 339.333L270.341 339.313L270.176 339.27C267.802 338.833 247.512 335.021 244.368 335.375C241.016 335.771 238.642 345.437 238.516 346.618C238.391 347.798 240.745 348.721 240.745 348.721C239.383 348.584 238.009 348.634 236.662 348.87C234.83 349.263 233.246 359.782 233.355 361.618C233.393 362.148 233.571 362.659 233.871 363.098C234.171 363.537 234.581 363.889 235.061 364.117C235.061 364.117 232.562 369.911 232.562 375.182C232.562 380.453 244.748 388.472 249.093 397.745C249.093 397.745 259.153 399.91 260.737 393.012C260.737 393.012 278.504 409.388 285.004 412.347C286.961 413.244 289.632 413.369 292.585 413.181C299.498 412.721 308.1 410.453 313.621 411.557C321.516 413.138 375.191 468.18 395.458 486.076C395.458 486.076 399.789 449.513 376.378 422.347C376.378 422.347 353.896 402.682 333.729 386.098C313.562 369.514 294.466 337.742 293.09 336.165C291.715 334.588 277.492 328.268 269.409 313.08C269.389 313.08 269.389 313.08 269.369 313.06C268.595 312.663 256.184 306.331 249.665 299.059C242.956 291.559 239.604 287.227 235.27 286.434C230.935 285.64 226.981 288.996 225.606 295.309C224.918 298.454 226.482 304.039 230.939 309.601C235.395 315.163 242.665 320.663 253.42 323.725C253.44 323.728 264.116 330.543 270.258 339.144Z" fill="url(#paint10_linear_1_3)"/>
<path style="mix-blend-mode:multiply" d="M230.959 309.604C235.372 315.147 242.685 320.666 253.44 323.728C253.44 323.728 264.126 330.543 270.268 339.144L269.164 338.936L270.186 339.267L270.351 339.31L270.414 339.33C270.414 339.33 282.316 341.224 283.516 341.621C283.734 341.663 283.957 341.67 284.177 341.641H284.217C286.382 341.35 291.946 338.996 293.11 336.165C291.715 334.581 277.512 328.268 269.429 313.08C269.409 313.08 269.409 313.08 269.389 313.06C260.869 310.6 259.765 318.831 257.328 321.767C254.892 324.703 230.959 309.604 230.959 309.604Z" fill="url(#paint11_linear_1_3)"/>
<path style="mix-blend-mode:multiply" opacity="0.5" d="M232.579 375.189C232.579 380.437 244.765 388.479 249.109 397.751C249.109 397.751 259.17 399.917 260.753 393.019C260.753 393.019 278.52 409.394 285.02 412.354C286.977 413.25 289.649 413.376 292.601 413.187C283.248 413.604 263.507 389.269 261.024 380.833C258.541 372.398 264.192 368.998 266.149 367.54C268.106 366.082 269.815 355.305 273.502 353.731C277.188 352.157 278.375 345.04 280.23 343.876C281.535 343.055 282.891 342.318 284.29 341.667L284.227 341.644H284.187L270.272 339.144L269.167 338.936L270.189 339.267C267.815 338.83 247.525 335.017 244.381 335.371C241.029 335.768 238.655 345.434 238.53 346.614C238.404 347.795 240.758 348.718 240.758 348.718C239.396 348.581 238.023 348.631 236.675 348.866C234.843 349.26 233.26 359.779 233.369 361.614C233.407 362.145 233.584 362.655 233.884 363.095C234.184 363.534 234.595 363.886 235.075 364.114C235.075 364.114 232.579 369.918 232.579 375.189Z" fill="url(#paint12_linear_1_3)"/>
<g style="mix-blend-mode:multiply">
<path d="M247.727 296.873C247.727 296.873 250.544 300.058 249.886 303.282C249.228 306.506 236.44 304.333 230.955 300.517C225.47 296.701 226.36 291.969 229.659 290.098C232.959 288.226 247.727 296.873 247.727 296.873Z" fill="#E392AD"/>
</g>
<path d="M235.587 287.026C238.844 286.533 250.977 297.644 249.499 302.449C248.021 307.253 229.765 301.433 227.791 295.709C225.818 289.985 235.587 287.026 235.587 287.026Z" fill="#FFC4B1"/>
<path d="M238.563 288.07C238.563 288.07 233.174 289.459 230.542 292.092C227.91 294.724 228.502 296.175 227.976 296.172C227.451 296.169 225.699 292.257 230.952 289.228C236.205 286.199 238.563 288.07 238.563 288.07Z" fill="#FFE4DB"/>
<path d="M249.321 299.955C249.321 299.955 247.059 297.802 245.353 299.026C243.647 300.25 244.282 304.175 244.282 304.175C244.282 304.175 251.07 304.919 249.321 299.955Z" fill="#FFE4DB"/>
<g style="mix-blend-mode:multiply" opacity="0.5">
<path d="M260.082 320.682C258.198 326.016 270.496 313.804 267.855 312.713C265.213 311.622 261.527 316.585 260.082 320.682Z" fill="#E392AD"/>
</g>
<g style="mix-blend-mode:multiply">
<path d="M238.516 346.624C238.516 346.624 258.766 345.841 274.682 351.763L240.745 348.728C240.745 348.728 239.052 347.54 238.516 346.624Z" fill="#E392AD"/>
</g>
<g style="mix-blend-mode:multiply">
<path d="M235.078 364.124C235.078 364.124 245.988 362.289 266.817 366.677L235.078 364.124Z" fill="#E392AD"/>
</g>
<g style="mix-blend-mode:multiply">
<path d="M260.74 393.019C260.74 393.019 250.491 384.23 247.813 382.847C245.135 381.465 238.933 380.863 238.933 380.863C238.933 380.863 246.927 382.738 247.529 383.33C248.131 383.922 240.226 383.922 240.226 383.922C240.226 383.922 246.507 385.245 249.093 385.764C251.678 386.283 253.843 387.87 254.303 388.988C254.763 390.106 254.277 394.61 256.617 395.37C258.958 396.131 260.74 393.019 260.74 393.019Z" fill="#E392AD"/>
</g>
<g style="mix-blend-mode:soft-light" opacity="0.3">
<path d="M335.723 394.805C337.462 409.547 311.823 407.457 295.752 404.084C279.681 400.711 267.511 379.008 266.823 373.274C266.136 367.54 270.08 359.855 274.682 354.921C279.284 349.987 282.617 346.178 287.576 341.661C292.535 337.144 301.306 351.056 310.623 363.744C319.939 376.432 334.933 388.108 335.723 394.805Z" fill="white"/>
</g>
<path style="mix-blend-mode:multiply" opacity="0.5" d="M286.399 343.919C290.247 344.581 291.824 352.55 291.824 352.55C291.824 352.55 285.979 348.671 286.399 343.919Z" fill="url(#paint13_linear_1_3)"/>
<path style="mix-blend-mode:multiply" opacity="0.5" d="M276.031 352.55C276.031 352.55 283.926 354.425 284.22 360.642C284.514 366.859 276.031 352.55 276.031 352.55Z" fill="url(#paint14_linear_1_3)"/>
<path style="mix-blend-mode:multiply" opacity="0.5" d="M270.212 366.171C270.212 366.171 275.789 369.551 277.889 373.654C272.907 373.208 270.212 366.171 270.212 366.171Z" fill="url(#paint15_linear_1_3)"/>
<path d="M366.374 211.888C366.374 211.888 355.097 242.02 350.934 283.861C350.934 283.861 334.275 305.57 312.177 303.728C290.079 301.886 290.336 269.519 290.336 269.519C290.336 269.519 299.451 233.868 305.287 217.483L366.374 211.888Z" fill="url(#paint16_linear_1_3)"/>
<g style="mix-blend-mode:multiply">
<path d="M359.55 234.774C359.55 234.774 339.561 249.11 318.633 257.869C297.706 266.629 299.974 234.288 299.974 234.288L305.287 217.49C305.287 217.49 335.875 220.582 366.384 211.898L359.55 234.774Z" fill="#E392AD"/>
</g>
<path style="mix-blend-mode:multiply" d="M362.135 213.439C372.318 210.949 343.552 258.319 326.872 275.161C310.193 292.002 318.703 276.662 326.872 256.927C335.042 237.192 344.081 216.716 348.091 215.952C352.101 215.188 362.135 213.439 362.135 213.439Z" fill="url(#paint17_linear_1_3)"/>
<path d="M356.591 449.318C357.943 503.88 380.587 530.838 380.587 530.838C385.586 533.152 391.437 535.173 397.706 536.879C426.327 544.756 463.527 546.651 467.399 544.233C472.126 541.297 478.709 520.838 476.084 489.525C473.459 458.213 454.63 422.423 442.53 420.985C430.43 419.546 419.639 434.543 412.537 433.881C405.435 433.22 383.605 419.798 382.147 419.279C382.079 419.253 382.01 419.232 381.939 419.216C380.398 418.776 377.148 419.279 377.148 419.279L376.378 422.361C391.103 442.026 406.371 525.59 389.52 525.318C372.669 525.047 361.57 454.192 361.57 454.192L356.591 449.318Z" fill="url(#paint18_linear_1_3)"/>
<path d="M70.2814 228.918C70.2814 228.918 78.5467 264.271 81.9652 270.042C85.3837 275.812 88.994 277.866 92.6803 286.324C96.3667 294.783 96.1716 368.208 107.753 404.001C119.334 439.794 158.72 388.105 158.72 388.105C158.72 388.105 124.082 333.519 118.438 284.959C118.187 282.875 118.002 280.792 117.876 278.729C117.876 278.729 142.619 271.209 145.036 262.876C145.056 262.829 145.071 262.78 145.079 262.73C145.079 262.707 145.079 262.707 145.099 262.687C145.912 259.48 146.6 255.541 147.37 251.272C147.371 251.256 147.378 251.241 147.39 251.229C148.64 244.285 150.141 236.563 152.743 230.042C152.994 229.417 153.265 228.792 153.533 228.167C157.95 218.247 165.636 208.27 165.636 205.043C165.636 201.627 156.429 195.314 145.889 202.94C138.725 208.148 137.911 214.084 137.683 218.832C137.601 221.041 137.62 223.002 137.204 224.52C136.983 225.375 136.58 226.171 136.023 226.856C135.466 227.541 134.768 228.098 133.977 228.488C133.012 228.953 131.962 229.216 130.892 229.259L131.164 224.778L70.2814 228.918Z" fill="url(#paint19_linear_1_3)"/>
<path style="mix-blend-mode:multiply" d="M130.899 229.262C130.899 229.262 118.818 232.354 111.062 248.342C103.306 264.331 110.196 236.269 123.516 231.894C123.516 231.894 113.846 233.736 100.132 244.592C86.4185 255.449 77.3432 235.003 75.7629 232.946C74.1826 230.889 71.5608 234.146 71.5608 234.146L70.3045 228.915L131.163 224.785L130.899 229.262Z" fill="url(#paint20_linear_1_3)"/>
<path style="mix-blend-mode:multiply" d="M118.438 284.969C118.187 282.885 118.002 280.802 117.876 278.739C117.876 278.739 142.619 271.219 145.036 262.886C145.056 262.839 145.071 262.79 145.079 262.74C140.517 268.259 104.9 278.219 103.025 280.597C101.567 282.439 108.712 285.604 118.438 284.969Z" fill="url(#paint21_linear_1_3)"/>
<g style="mix-blend-mode:multiply">
<path d="M162.191 212.711C162.191 212.711 157.715 222.245 151.281 221.64C145.79 221.114 146.742 207.324 150.412 204.55C154.082 201.776 162.191 212.711 162.191 212.711Z" fill="#E392AD"/>
</g>
<g style="mix-blend-mode:multiply" opacity="0.3">
<path d="M147.37 251.272C147.371 251.256 147.378 251.241 147.39 251.229C148.64 244.285 150.141 236.563 152.743 230.042C152.994 229.417 153.265 228.792 153.533 228.167C144.808 232.063 139.316 216.957 139.316 216.957C139.316 216.957 138.837 216.709 137.69 218.832C137.607 221.041 137.627 223.002 137.21 224.52C136.989 225.375 136.587 226.171 136.03 226.856C135.473 227.541 134.775 228.098 133.984 228.488C130.082 240.793 145.036 262.876 147.37 251.272Z" fill="#E392AD"/>
</g>
<path d="M165.306 206.528C166.4 203.393 154.842 202.288 151.42 203.737C147.998 205.185 146.15 218.469 151.42 220.185C156.69 221.901 163.276 212.344 165.306 206.528Z" fill="#FFC4B1"/>
<path d="M164.816 207.784C164.816 207.784 164.049 205.314 157.735 204.527C151.42 203.74 149.119 207.01 149.119 207.01C149.119 207.01 148.954 201.69 159.117 203.108C169.28 204.527 164.816 207.784 164.816 207.784Z" fill="#FFE4DB"/>
<path d="M156.753 218.812C156.753 218.812 153 216.167 149.119 218.538C149.119 218.538 151.033 224.153 156.753 218.812Z" fill="#FFE4DB"/>
<g style="mix-blend-mode:soft-light" opacity="0.3">
<path d="M140.632 264.526C145.677 260.376 134.681 243.342 131.997 235.052C129.312 226.762 109.72 241.368 104.589 261.761C99.4578 282.155 130.241 273.064 140.632 264.526Z" fill="white"/>
</g>
<path d="M343.28 436.421L335.65 429.285C335.65 429.285 338.295 440.26 339.865 440.657C341.436 441.054 343.28 436.421 343.28 436.421Z" fill="#C2096F"/>
<path d="M74.0735 401.521C74.446 402.354 74.8626 403.208 75.3232 404.084C88.6733 429.48 135.643 471.811 141.955 473.147C148.451 474.519 160.885 471.374 172.926 447.479C184.967 423.584 179.049 360.645 167.594 350.589C156.138 340.533 148.659 355.715 141.161 342.881C136.767 335.361 132.936 324.839 129.748 318.08C127.497 313.265 125.583 310.372 124.042 311.797C124.042 311.797 129.061 325.861 126.436 343.235C123.811 360.609 93.0043 401.921 87.4864 394.821C81.9685 387.722 98.5454 336.009 98.5454 336.009L98.2974 328.529C80.3221 369.584 74.0735 401.521 74.0735 401.521Z" fill="url(#paint22_linear_1_3)"/>
<g style="mix-blend-mode:soft-light">
<path d="M74.0735 401.521C74.4459 402.354 74.8625 403.208 75.3232 404.084C81.8197 402.374 89.9428 398.832 100.066 392.417C134.476 370.625 134.559 334.25 129.748 318.063C127.497 313.249 125.583 310.355 124.042 311.78C124.042 311.78 129.061 325.844 126.436 343.218C123.811 360.592 93.0043 401.905 87.4864 394.805C81.9685 387.705 98.5453 335.993 98.5453 335.993L98.2974 328.513C80.322 369.584 74.0735 401.521 74.0735 401.521Z" fill="#A4A6FF"/>
</g>
<path d="M91.3182 308.272C91.3612 308.417 91.4009 308.583 91.4438 308.728C94.588 319.396 103.19 384.269 103.19 384.269C140.619 350.834 125.084 315.418 125.084 315.418C123.209 303.728 122.812 294.334 122.604 293.146C122.396 291.959 119.437 291.999 119.437 291.999C119.437 291.999 120.207 297.73 118.776 300.041C111.34 312.293 93.3846 307.541 93.649 303.348C93.9135 299.155 94.588 299.049 94.588 299.049L94.2574 295.653C94.2574 295.653 88.4452 298.021 91.3182 308.272Z" fill="url(#paint23_linear_1_3)"/>
<path d="M94.6078 299.026L95.5765 305.577C95.5765 305.577 93.4605 306.198 92.7497 302.667C92.0389 299.135 94.6078 299.026 94.6078 299.026Z" fill="#E33D6F"/>
<g style="mix-blend-mode:multiply">
<path d="M351.718 276.807C351.718 276.807 338.748 303.867 317.043 302.683C295.339 301.499 291.037 272.423 292.069 262.882L290.336 270.445C290.336 270.445 286.521 302.683 312.57 306.106C338.619 309.528 350.627 286.844 350.921 283.868C351.215 280.891 351.718 276.807 351.718 276.807Z" fill="#E392AD"/>
</g>
<g style="mix-blend-mode:multiply">
<path d="M364.651 322.203C364.651 322.203 386.435 339.032 387.52 339.73C388.604 340.427 403.799 335.289 405.971 332.524C408.143 329.76 405.971 337.154 402.024 341.211C398.076 345.269 388.667 342.511 388.68 342.785C388.693 343.06 389.414 346.403 389.414 346.403C389.414 346.403 386.333 338.314 374.497 330.553C367.101 325.702 364.651 325.616 364.651 325.616V322.203Z" fill="#B588AD"/>
</g>
<g style="mix-blend-mode:multiply">
<path d="M356.591 449.318C357.943 503.88 380.587 530.838 380.587 530.838C385.586 533.152 391.437 535.173 397.706 536.879C399.289 535.047 400.728 532.422 402.004 528.86C410.15 506.317 386.796 433.839 381.926 419.216C380.385 418.776 377.135 419.279 377.135 419.279L376.365 422.361C391.09 442.026 406.358 525.59 389.507 525.318C372.655 525.047 361.557 454.192 361.557 454.192L356.591 449.318Z" fill="#E392AD"/>
</g>
<path d="M331.494 425.459C331.494 425.459 336.933 440.168 341.118 445.667C342.11 446.99 343.036 447.77 343.806 447.687C347.773 447.291 396.482 495.832 396.482 495.832C396.482 495.832 392.148 443.395 376.381 422.354C376.381 422.354 358.135 406.332 353.615 400.043C348.306 392.688 344.689 395.228 344.689 395.228C344.689 395.228 355.04 416.894 341.624 439.394L335.647 429.272L331.494 425.459Z" fill="url(#paint24_linear_1_3)"/>
<path style="mix-blend-mode:multiply" opacity="0.8" d="M196.016 411.762C196.016 411.762 201.937 357.157 196.016 330.315C190.095 303.474 170.629 309.175 169.313 306.453C167.997 303.732 183.255 298.275 194.042 307.978C204.83 317.68 204.84 376.366 196.016 411.762Z" fill="url(#paint25_linear_1_3)"/>
<g style="mix-blend-mode:multiply">
<path d="M165.63 299.261C177.072 296.893 183.784 316.631 194.439 315.464C205.095 314.297 184.888 247.777 177.995 241.319C167.746 252.268 166.132 284.866 165.964 288.805C165.795 292.743 165.63 299.261 165.63 299.261Z" fill="#E392AD"/>
</g>
<g style="mix-blend-mode:multiply">
<path d="M442.404 303.847C438.331 297.29 407.429 343.529 402.814 363.998C398.198 384.468 398.076 397.748 400.83 398.34C403.584 398.932 420.366 357.09 425.1 349.987C429.835 342.884 435.954 351.366 435.954 351.366C435.954 351.366 444.504 319.088 442.404 303.847Z" fill="#E392AD"/>
</g>
<path style="mix-blend-mode:multiply" opacity="0.8" d="M395.117 426.458C395.117 426.458 405.574 405.089 435.571 404.084C435.571 404.084 411.767 416.65 406.831 432.162L395.117 426.458Z" fill="url(#paint26_linear_1_3)"/>
<path style="mix-blend-mode:multiply" opacity="0.8" d="M405.574 431.63C405.574 431.63 408.758 434.682 412.54 433.875C416.322 433.068 431.345 420.066 442.533 420.978C453.721 421.891 463.488 445.313 463.488 445.313C463.488 445.313 457.831 424.272 442.735 416.62C427.639 408.968 405.574 431.63 405.574 431.63Z" fill="url(#paint27_linear_1_3)"/>
<path style="mix-blend-mode:multiply" opacity="0.8" d="M460.826 462.684C460.826 462.684 449.496 433.703 414.907 433.584L419.179 430.175C419.179 430.175 452.67 423.472 460.826 462.684Z" fill="url(#paint28_linear_1_3)"/>
<path style="mix-blend-mode:multiply" opacity="0.8" d="M143.528 346.234C147.41 348.218 171.548 362.438 173.128 396.762C173.128 396.762 173.27 370.46 164.248 358.866C155.225 347.272 150.068 348.284 150.068 348.284C150.068 348.284 162.866 345.791 170.364 354.21C177.862 362.629 178.762 390.02 178.762 390.02C178.762 390.02 183.784 366.31 172.338 346.409C160.892 326.509 145.026 343.053 145.026 343.053L143.528 346.234Z" fill="url(#paint29_linear_1_3)"/>
<g style="mix-blend-mode:multiply">
<path d="M196.016 411.762C196.016 411.762 207.988 397.156 208.778 377.682C209.568 358.208 197.481 336.591 197.481 336.591C197.481 336.591 204.04 372.156 196.016 411.762Z" fill="#E392AD"/>
</g>
<path style="mix-blend-mode:multiply" opacity="0.8" d="M154.31 470.452C172.926 447.479 102.483 415.271 90.7264 412.738C78.9698 410.205 106.196 446.08 124.075 459.612C141.955 473.143 147.102 476.397 154.31 470.452Z" fill="url(#paint30_linear_1_3)"/>
<path style="mix-blend-mode:multiply" opacity="0.5" d="M181.8 657.29C187.751 662.019 214.564 666.374 248.514 688.874C261.259 697.333 268.989 699.039 273.402 696.354C273.72 696.16 274.02 695.939 274.298 695.693C275.853 694.475 276.93 692.75 277.34 690.818L277.403 690.567C283.023 663.861 238.163 511.84 225.457 457.529C212.752 403.217 207.855 371.092 204.298 370.612C200.741 370.133 198.069 399.57 196.033 411.759C194.049 423.548 188.22 470.339 187.867 473.266C187.867 473.309 187.847 473.329 187.867 473.352C188.528 471.368 205.363 421.537 218.614 482.121C232.132 543.913 276.768 663.372 261.418 676.1C246.068 688.828 209.304 664.526 191.953 627.684C174.851 591.412 183.308 504.185 183.579 501.433C180.768 519.039 177.538 537.871 173.935 556.621C160.095 628.478 175.882 652.542 181.8 657.29Z" fill="url(#paint31_linear_1_3)"/>
<path style="mix-blend-mode:multiply" opacity="0.8" d="M437.888 713.811C442.345 713.437 445.033 712.934 445.033 712.934C442.044 708.427 439.351 703.73 436.972 698.874C439.68 705.851 441.637 713.311 437.888 713.811Z" fill="url(#paint32_linear_1_3)"/>
<path style="mix-blend-mode:multiply" opacity="0.8" d="M358.095 624.52C355.781 641.646 357.801 659.81 361.55 676.477C363.487 682.353 365.696 687.039 368.215 690.312C387.169 714.935 422.247 715.113 437.554 713.83C429.077 714.27 367.696 698.374 368.215 672.353C368.738 645.958 369.591 526.102 405.574 588.727C403.885 582.249 402.159 568.396 400.929 556.687L400.866 556.25C399.762 545.834 399.035 537.23 399.035 537.23L398.324 536.978L380.58 530.831C360.105 504.046 358.099 469.083 358.099 469.083C358.099 469.083 353.744 500.828 361.117 513.725C368.49 526.621 376.636 525.143 374.946 536.872C373.257 548.602 365.051 572.937 358.095 624.52Z" fill="url(#paint33_linear_1_3)"/>
<path style="mix-blend-mode:multiply" opacity="0.8" d="M467.402 544.224C473.455 537.679 415.708 515.61 409.522 511.625C403.336 507.64 404.087 533.351 399.045 537.226C399.045 537.23 445.565 548.142 467.402 544.224Z" fill="url(#paint34_linear_1_3)"/>
<g style="mix-blend-mode:multiply" opacity="0.8">
<path d="M331.494 425.459C331.494 425.459 336.933 440.168 341.118 445.667C346.263 442.625 351.49 436.124 352.991 422.437C356.197 393.208 344.702 395.228 344.702 395.228C344.702 395.228 355.054 416.894 341.637 439.394L335.66 429.272L331.494 425.459Z" fill="#E392AD"/>
</g>
<g style="mix-blend-mode:multiply">
<path d="M376.381 422.354C376.381 422.354 394.472 464.926 383.685 483.242L363.276 463.732C363.276 463.732 378.272 508.731 385.741 512.673C393.209 516.615 396.482 495.808 396.482 495.808C396.482 495.808 394.545 449.129 376.381 422.354Z" fill="#E392AD"/>
</g>
<g style="mix-blend-mode:multiply">
<path d="M124.604 313.619C124.604 313.619 129.801 336.347 120.769 355.973C111.737 375.599 102.255 377.189 102.255 377.189L97.0609 340.758C97.0609 340.758 92.353 355.933 93.5366 370.622C94.7202 385.311 100.767 387.021 100.767 387.021C100.767 387.021 141.598 362.907 124.604 313.619Z" fill="#E392AD"/>
</g>
<path d="M266.122 616.57C267.055 612.271 218.296 416.62 218.296 416.62C218.296 416.62 228.826 493.867 242.216 550.708C255.606 607.549 266.122 616.57 266.122 616.57Z" fill="#391861"/>
<g style="mix-blend-mode:multiply">
<path d="M368.407 566.144C373.763 543.079 364.817 662.502 363.987 671.708C363.157 680.914 355.173 661.609 358.932 628.207C362.691 594.805 368.407 566.144 368.407 566.144Z" fill="#E392AD"/>
</g>
<g style="mix-blend-mode:multiply">
<path d="M335.66 429.272C335.66 429.272 348.746 430.406 344.702 395.212C344.702 395.212 354.392 411.894 343.281 436.391L335.66 429.272Z" fill="#FEB1C8"/>
</g>
<g style="mix-blend-mode:multiply">
<path d="M358.816 289.826C358.816 289.826 334.146 329.882 305.918 322.203C277.69 314.525 278.768 273.888 278.768 273.888C278.768 273.888 277.195 317.207 306.705 325.633C336.215 334.058 358.72 291.83 358.72 291.83L358.816 289.826Z" fill="#E392AD"/>
</g>
<g style="mix-blend-mode:multiply">
<path d="M196.016 706.34C216.144 689.261 272.007 732.944 308.798 737.352C345.588 741.76 377.162 722.418 391.566 718.076C405.971 713.735 414.907 721.241 414.907 721.241V714.244C414.907 714.244 403.974 713.513 384.789 715.328C364.833 717.22 336.037 721.611 305.859 718.47C246.659 712.336 186.147 681.367 186.147 681.367L195.405 686.301L196.016 706.34Z" fill="#D07CAD"/>
</g>
<g style="mix-blend-mode:multiply">
<path d="M253.348 691.9C242.229 691.492 231.177 689.991 220.353 687.419C202.989 683.209 186.151 672.343 186.151 672.343L186.736 659.823C186.736 659.823 205.201 664.261 219.748 670.838C234.294 677.416 253.348 691.9 253.348 691.9Z" fill="#D07CAD"/>
</g>
<g style="mix-blend-mode:multiply">
<path d="M414.911 714.244C414.911 714.244 384.263 714.74 368.48 706.34C352.696 697.941 351.377 624.523 351.377 624.523C351.377 624.523 357.695 675.571 368.215 690.329C378.735 705.087 414.911 714.244 414.911 714.244Z" fill="#D07CAD"/>
</g>
<path style="mix-blend-mode:multiply" opacity="0.8" d="M143.528 346.234C143.528 346.234 164.516 381.677 166.671 419.027C168.827 456.378 175.928 407.453 172.321 384.263C168.714 361.072 143.528 346.234 143.528 346.234Z" fill="url(#paint35_linear_1_3)"/>
<g style="mix-blend-mode:soft-light" opacity="0.2">
<path d="M252.448 252.251C256.604 258.451 218.726 277.274 207.769 278.401C196.813 279.529 179.853 243.901 179.853 243.901C179.853 243.901 192.069 235.634 252.448 252.251Z" fill="white"/>
</g>
<g style="mix-blend-mode:soft-light" opacity="0.2">
<path d="M437.806 302.29C439.383 304.79 417.942 325.315 413.73 328.605C409.519 331.896 383.87 292.76 382.293 289.826C380.716 286.893 415.179 286.893 437.806 302.29Z" fill="white"/>
</g>
<g style="mix-blend-mode:soft-light" opacity="0.2">
<path d="M446.187 444.027C459.12 453.097 476.081 508.216 469.501 521.373C462.922 534.531 419.642 502.647 406.817 481.361C393.993 460.075 410.041 433.488 410.041 433.488C410.041 433.488 427.087 430.624 446.187 444.027Z" fill="white"/>
</g>
<g style="mix-blend-mode:multiply" opacity="0.5">
<path d="M137.885 336.591C137.885 336.591 156.178 372.275 161.689 392.414C167.2 412.552 168.205 445.905 165.633 451.037C163.061 456.169 129.12 420.247 124.968 409.394C120.815 398.541 141.168 363.013 139.964 353.737C138.761 344.462 137.885 336.591 137.885 336.591Z" fill="#E392AD"/>
</g>
<g style="mix-blend-mode:soft-light" opacity="0.2">
<path d="M196.016 436.868C214.038 418.21 221.622 535.08 218.62 557.428C215.618 579.775 190.743 601.365 185.814 599.788C180.884 598.211 180.887 548.202 186.144 499.786C191.401 451.371 196.016 436.868 196.016 436.868Z" fill="white"/>
</g>
<g style="mix-blend-mode:soft-light" opacity="0.2">
<path d="M187.979 650.578C195.61 643.471 181.139 608.538 176.666 591.663C172.192 574.788 166.602 613.449 172.192 632.998C177.783 652.548 187.979 650.578 187.979 650.578Z" fill="white"/>
</g>
<path d="M321.953 32.4002C321.953 32.4002 309.145 35.6508 302.116 46.5369C295.087 57.423 295.758 96.8932 295.758 96.8932L321.953 32.4002Z" fill="url(#paint36_linear_1_3)"/>
<path d="M269.114 179.666C269.124 179.709 269.137 179.751 269.154 179.792C272.487 194.603 283.278 209.772 295.752 215.043C311.915 221.898 352.429 216.898 366.384 211.898C371.343 210.125 375.971 205.231 380.567 198.773L380.61 198.73C388.921 187.044 397.107 170.252 406.751 157.544C408.583 155.146 410.312 152.835 411.958 150.563C423.788 134.27 430.803 121.132 433.597 103.48C436.744 83.3352 406.688 57.3767 402.814 52.9389C370.113 15.628 335.329 25.7105 318.749 40.7037C313.719 45.3054 309.407 50.6358 305.958 56.5169L305.918 56.5764C299.795 66.9532 297.921 75.8287 297.921 75.8287C297.921 75.8287 297.461 80.703 296.4 86.9959C296.254 87.9515 296.069 88.9535 295.877 89.972C295.253 93.3483 293.732 98.454 292.776 101.827C291.17 107.475 285.88 118.556 280.111 131.919C279.486 133.354 278.861 134.813 278.236 136.251C273.402 147.752 269.091 159.293 268.238 167.021C267.835 171.256 268.131 175.528 269.114 179.666V179.666Z" fill="url(#paint37_linear_1_3)"/>
<path style="mix-blend-mode:multiply" d="M305.918 56.583C305.918 56.583 310.457 67.6708 343.221 70.3163C375.985 72.9617 394.522 58.8747 402.02 67.5418C409.518 76.209 396.502 120.835 387.007 112.541C387.007 112.541 390.383 120.044 388.363 137.501C386.343 154.958 388.991 152.815 393.732 152.96C395.501 153.023 402.989 152.147 411.958 150.563C423.788 134.27 430.803 121.132 433.597 103.48C436.744 83.3352 406.688 57.3767 402.814 52.9389C370.113 15.628 335.329 25.7105 318.749 40.7037C313.719 45.3054 309.407 50.6358 305.958 56.5169L305.918 56.583Z" fill="url(#paint38_linear_1_3)"/>
<path d="M401.63 157.157C401.63 157.157 414.855 150.441 424.717 153.992C434.579 157.544 431.226 176.505 421.361 185.185C411.496 193.866 403.207 194.656 392.356 198.211C381.506 201.766 383.079 185.764 383.079 185.764C383.079 185.764 385.645 163.278 401.63 157.157Z" fill="url(#paint39_linear_1_3)"/>
<path d="M411.102 60.8422C413.416 67.5518 439.865 71.2389 445.975 82.6176C452.085 93.9964 450.914 102.234 449.162 104.628C447.41 107.022 443.79 90.5805 427.831 80.0516C411.872 69.5226 411.102 60.8422 411.102 60.8422Z" fill="url(#paint40_linear_1_3)"/>
<path style="mix-blend-mode:multiply" d="M395.778 170.84C395.778 170.84 411.102 162.289 420.045 163.999C428.988 165.708 423.774 179.465 420.045 184.263C416.316 189.061 409.796 190.185 409.796 190.185C409.796 190.185 418.805 188.439 421.176 178.869C423.546 169.299 418.61 167.52 414.861 166.634C411.112 165.748 414.501 172.332 412.878 181.042C411.254 189.752 405.181 191.405 401.729 191.7C398.278 191.994 405.28 186.174 405.28 179.167C405.28 172.16 400.651 184.693 394.624 182.718C388.597 180.744 395.778 170.84 395.778 170.84Z" fill="url(#paint41_linear_1_3)"/>
<path style="mix-blend-mode:multiply" d="M350.934 99.456C331.382 100.319 321.953 94.003 321.953 94.003C321.953 94.003 308.014 84.0032 303.253 81.1064C298.493 78.2096 296.849 85.8087 296.849 85.8087C296.849 85.8087 293.808 103.847 285.364 119.975C285.364 119.975 298.41 128.678 307.571 126.631C316.732 124.584 315.331 118.001 321.252 109.998C332.04 104.377 333.617 114.79 333.617 114.79C333.617 114.79 329.934 132.57 335.855 142.494C341.776 152.418 367.663 160.48 380.567 151.978C393.471 143.476 390.578 121.433 390.578 121.433C390.578 121.433 374.444 100.448 350.934 99.456Z" fill="url(#paint42_linear_1_3)"/>
<g style="mix-blend-mode:multiply" opacity="0.6">
<path d="M404.949 166.631C413.175 164.217 405.673 180.939 398.767 181.336C391.861 181.733 397.98 174.623 398.473 172.553C398.965 170.483 395.778 170.84 395.778 170.84C395.778 170.84 400.995 167.993 404.949 166.631Z" fill="#BF7988"/>
</g>
<path style="mix-blend-mode:multiply" d="M371.415 140.186C371.415 140.186 376.705 128.943 365.398 118.378C354.091 107.812 339.049 129.727 339.049 129.727L371.415 140.186Z" fill="url(#paint43_linear_1_3)"/>
<g style="mix-blend-mode:multiply">
<path d="M371.068 142.011C369.508 147.848 344.722 135.973 339.406 133.609C334.09 131.244 341.856 128.576 344.791 125.011C347.727 121.446 353.298 117.67 362.575 121.704C371.852 125.739 372.46 136.853 371.068 142.011Z" fill="#E392AD"/>
</g>
<path d="M341.902 134.052C343.442 134.588 346.639 135.937 350.389 137.422C356.062 139.65 362.952 142.2 367.213 142.772C369.197 143.04 370.622 142.868 371.058 142.011C371.422 141.307 371.65 139.935 371.594 138.202C371.478 132.683 368.619 123.487 358.575 121.278C358.466 121.252 358.355 121.233 358.244 121.221C345.307 118.652 337.809 132.663 341.902 134.052Z" fill="#FFE4EC"/>
<path d="M349.36 132.627C349.358 134.28 349.709 135.915 350.389 137.422C356.062 139.65 362.952 142.2 367.213 142.772C369.068 141.683 370.585 140.101 371.594 138.202C371.478 132.683 368.619 123.487 358.575 121.278C358.466 121.252 358.355 121.233 358.244 121.221C355.704 121.86 353.45 123.329 351.841 125.396C350.231 127.462 349.358 130.007 349.36 132.627Z" fill="#7F6186"/>
<path style="mix-blend-mode:multiply" d="M353.635 132.633C353.635 134.127 354.077 135.588 354.906 136.831C355.736 138.073 356.915 139.042 358.295 139.614C359.675 140.186 361.194 140.336 362.659 140.044C364.124 139.753 365.47 139.034 366.526 137.977C367.582 136.921 368.301 135.575 368.593 134.109C368.884 132.644 368.734 131.125 368.162 129.745C367.59 128.365 366.622 127.185 365.38 126.355C364.137 125.526 362.677 125.083 361.183 125.084C359.181 125.084 357.261 125.879 355.846 127.295C354.43 128.711 353.635 130.631 353.635 132.633Z" fill="url(#paint44_linear_1_3)"/>
<path d="M342.08 128.328C342.08 128.328 347.526 118.97 360.704 122.402C373.882 125.835 371.283 141.482 371.283 141.482C371.283 141.482 376.193 130.09 366.238 121.731C355.685 112.875 344.005 124.313 342.08 128.328Z" fill="#6C2A51"/>
<path d="M355.867 129.727C355.867 129.727 352.865 126.44 349.122 127.382L355.867 129.727Z" fill="white"/>
<path style="mix-blend-mode:multiply" d="M309.122 119.866C309.122 119.866 314.613 104.062 308.791 96.8502C302.969 89.638 294.102 104.125 294.102 104.125L309.122 119.866Z" fill="url(#paint45_linear_1_3)"/>
<g style="mix-blend-mode:multiply">
<path d="M309.128 121.661C311.565 118.708 312.517 107.822 305.654 101.744C298.79 95.6664 292.717 106.807 291.027 111.704C289.338 116.602 296.648 119.972 301.045 120.874C305.442 121.777 308.722 122.157 309.128 121.661Z" fill="#E392AD"/>
</g>
<path d="M292.829 115.411C293.874 116.516 295.666 117.601 297.683 118.516C299.812 119.49 302.048 120.211 304.344 120.666C306.077 120.997 307.561 121.046 308.398 120.686C308.578 120.621 308.738 120.512 308.865 120.369C308.991 120.225 309.08 120.052 309.122 119.866C309.882 115.792 309.862 110.557 308.513 106.638C307.809 104.545 306.705 102.832 305.161 101.84C304.359 101.332 303.443 101.032 302.496 100.967C295.646 100.392 289.232 111.642 292.829 115.411Z" fill="#FFE4EC"/>
<path d="M296.882 113.622C296.876 115.287 297.147 116.941 297.683 118.517C299.812 119.49 302.048 120.211 304.344 120.666C304.968 121.008 305.669 121.186 306.381 121.182C307.083 121.18 307.775 121.01 308.398 120.686C308.578 120.621 308.738 120.512 308.865 120.369C308.991 120.225 309.08 120.052 309.122 119.866C309.882 115.792 309.862 110.557 308.513 106.638C307.809 104.545 306.705 102.832 305.161 101.84C300.536 102.277 296.882 107.392 296.882 113.622Z" fill="#7F6186"/>
<path style="mix-blend-mode:multiply" d="M300.651 113.622C300.651 116.84 302.192 119.601 304.344 120.666C304.968 121.008 305.669 121.186 306.381 121.182C307.083 121.18 307.775 121.01 308.398 120.686C308.578 120.621 308.738 120.512 308.865 120.369C308.991 120.225 309.08 120.052 309.122 119.866C309.882 115.792 309.862 110.557 308.513 106.638C307.861 106.277 307.127 106.087 306.381 106.086C303.22 106.07 300.651 109.453 300.651 113.622Z" fill="url(#paint46_linear_1_3)"/>
<path d="M309.624 116.321C309.624 116.321 309.142 104.334 302.166 101.972C295.19 99.6114 291.791 110.931 291.791 110.931C291.791 110.931 294.343 99.0988 299.66 98.6756C304.976 98.2523 310.56 104.248 309.624 116.321Z" fill="#6C2A51"/>
<path d="M300.238 109.998C300.238 109.998 297.236 106.714 293.494 107.657L300.238 109.998Z" fill="white"/>
<path style="mix-blend-mode:multiply" d="M328.294 144.634C328.294 144.634 328.423 153.407 327.041 155.679C325.659 157.95 318.633 156.244 318.633 156.244C318.633 156.244 324.541 158.837 328.357 155.973C332.172 153.109 328.294 144.634 328.294 144.634Z" fill="url(#paint47_linear_1_3)"/>
<g style="mix-blend-mode:multiply">
<path d="M335.723 173.859C335.723 173.859 299.808 179.25 286.392 161.624C286.392 161.624 292.062 173.109 308.097 175.844C321.252 178.079 335.723 173.859 335.723 173.859Z" fill="#CE7988"/>
</g>
<path style="mix-blend-mode:multiply" d="M330.635 166.393C330.635 166.393 337.247 170.748 335.567 179.62C335.567 179.62 343.145 172.183 330.635 166.393Z" fill="url(#paint48_linear_1_3)"/>
<g style="mix-blend-mode:multiply">
<path d="M396.926 196.809C392.363 198.211 383.549 192.867 383.549 192.867C383.549 192.867 384.726 198.581 388.66 198.727C392.594 198.872 396.926 196.809 396.926 196.809Z" fill="#FEB1C8"/>
</g>
<g style="mix-blend-mode:multiply">
<path d="M269.154 179.792C272.487 194.603 283.278 209.772 295.752 215.043C311.915 221.898 352.429 216.898 366.384 211.898C371.343 210.125 375.971 205.231 380.567 198.773C379.575 199.666 363.259 214.127 334.245 214.834C304.272 215.585 283.36 203.231 279.033 198.73C274.93 194.521 269.779 181.419 269.154 179.792Z" fill="#E392AD"/>
</g>
<path d="M320.657 93.9997C320.657 93.9997 322.178 86.1063 320.657 80.4814V89.8662C320.657 89.8662 320.124 79.4464 313.006 75.6965L319.116 87.1017C319.116 87.1017 309.466 73.9703 304.506 71.8903C299.547 69.8103 297.157 79.0496 296.621 80.4451C296.086 81.8405 296.826 85.8054 296.826 85.8054C296.826 85.8054 301.217 80.5806 320.657 93.9997Z" fill="url(#paint49_linear_1_3)"/>
<path d="M350.448 101.08C350.448 101.08 357.698 93.0374 365.656 91.47L354.22 99.7867C354.22 99.7867 364.926 91.8503 370.576 93.173C370.576 93.173 374.613 92.7597 379.658 97.7166C386.111 104.056 391.738 119.773 391.738 119.773C391.738 119.773 368.301 103.715 350.448 101.08Z" fill="url(#paint50_linear_1_3)"/>
<path style="mix-blend-mode:multiply" opacity="0.4" d="M389.394 161.105C379.806 148.738 354.349 181.63 339.049 197.149C323.748 212.668 348.22 214.09 366.374 207.592C384.528 201.094 381.387 182.623 386.316 173.859C391.246 165.096 389.394 161.105 389.394 161.105Z" fill="url(#paint51_linear_1_3)"/>
<path d="M291.027 96.6683L279.664 89.3933C279.664 89.3933 279.787 84.1586 281.916 84.8365C284.045 85.5144 292.234 91.761 292.234 91.761L291.027 96.6683Z" fill="#8075BA"/>
<g style="mix-blend-mode:multiply" opacity="0.5">
<path d="M281.096 129.217C281.929 130.276 283.87 133.315 284.954 133.969C293.408 139.138 315.202 142.818 317.989 102.535C318.422 96.4369 305.65 89.0659 296.324 87.6043C296.575 86.5693 296.654 85.488 296.866 84.5125C308.513 86.523 322.174 96.0863 322.511 100.101C322.631 101.559 322.439 103.699 321.906 106.281L322.154 105.266C322.154 105.266 333.56 101.328 340.999 111.976C341.409 111.297 341.873 110.654 342.388 110.051C346.355 105.646 376.894 105.689 390.604 123.364C396.324 130.732 383.794 156.558 371.098 162.054C359.547 167.071 339.184 161.776 335.283 146.876C332.456 136.142 335.336 124.118 338.629 116.539C337.706 114.634 332.542 105.382 321.153 109.383C319.136 116.876 314.898 126.615 308.424 133.728C300.232 142.726 285.906 141.37 278.778 134.975C279.492 133.539 280.382 130.692 281.096 129.217ZM361.55 160.764C376.712 162.14 393.09 138.45 387.999 126.913C381.555 112.329 350.726 106.592 345.681 114.826C324.67 149.098 349.622 159.706 361.55 160.764Z" fill="#E15153"/>
</g>
<path d="M281.916 84.8498C299.673 76.8076 319.04 91.265 319.526 96.9593C320.012 102.654 315.354 119.27 305.478 129.879C295.603 140.487 278.54 137.551 273.452 127.369C268.364 117.187 274.507 88.2128 281.916 84.8498ZM282.012 130.11C290.472 135.17 312.269 138.767 315.007 99.3303C315.668 89.8464 293.352 80.0648 281.926 89.1486C272.91 96.3046 271.24 123.655 282.012 130.11Z" fill="url(#paint52_linear_1_3)"/>
<g style="mix-blend-mode:soft-light">
<path d="M282.012 130.11C290.472 135.17 312.269 138.767 315.007 99.3303C315.668 89.8463 293.352 80.0648 281.926 89.1486C272.91 96.3046 271.24 123.655 282.012 130.11Z" fill="#CFC7B8"/>
</g>
<path d="M339.399 106.698C343.366 102.379 373.902 102.422 387.639 119.717C393.362 126.936 380.868 152.21 368.185 157.61C356.64 162.52 336.265 157.335 332.341 142.749C328.416 128.162 335.455 111.03 339.399 106.698ZM358.627 156.333C373.793 157.689 390.141 134.488 385.037 123.206C378.577 108.917 347.737 103.305 342.718 111.37C321.748 144.908 346.716 155.282 358.627 156.333Z" fill="url(#paint53_linear_1_3)"/>
<g style="mix-blend-mode:soft-light">
<path d="M358.627 156.333C373.793 157.689 390.141 134.488 385.037 123.206C378.577 108.917 347.737 103.305 342.718 111.37C321.748 144.908 346.716 155.282 358.627 156.333Z" fill="#CFC7B8"/>
</g>
<path d="M335.832 113.404C335.832 113.404 330.823 101.701 318.187 106.046L319.179 101.999C319.179 101.999 330.618 98.1399 338.057 108.613L335.832 113.404Z" fill="#382A8D"/>
<path d="M388.697 128.887C388.697 128.887 393.11 130.639 394.869 132.012C396.628 133.384 412.722 152.425 412.722 152.425L408.547 153.688C408.547 153.688 394.181 140.064 392.059 138.215C389.936 136.367 386.594 135.279 386.594 135.279L388.697 128.887Z" fill="url(#paint54_linear_1_3)"/>
<g style="mix-blend-mode:soft-light">
<path d="M394.281 131.602C396.073 133.096 395.391 135.53 393.97 136.664C392.548 137.799 387.516 135.011 387.113 134.135C386.71 133.258 388.154 128.887 388.154 128.887C388.154 128.887 393.001 130.54 394.281 131.602Z" fill="#5CF1FF"/>
</g>
<g style="mix-blend-mode:soft-light">
<path d="M311.595 113.404C305.151 101.83 287.853 122.663 284.485 126.092C281.116 129.522 276.441 122.71 276.441 122.71C276.441 122.71 280.035 133.731 294.294 130.953C308.553 128.176 311.595 113.404 311.595 113.404Z" fill="#5CF1FF"/>
</g>
<g style="mix-blend-mode:soft-light">
<path d="M380.345 137.934C373.902 126.36 356.607 147.193 353.235 150.622C349.863 154.052 345.191 147.24 345.191 147.24C345.191 147.24 348.785 158.258 363.044 155.483C377.304 152.709 380.345 137.934 380.345 137.934Z" fill="#5CF1FF"/>
</g>
<g style="mix-blend-mode:soft-light">
<path d="M360.35 105.911C361.167 106.397 348.997 106.03 345.122 108.887C341.247 111.744 336.691 120.15 334.747 119.68C332.803 119.211 336.483 109.839 341.098 106.529C345.714 103.219 358.968 105.078 360.35 105.911Z" fill="#5CF1FF"/>
</g>
<g style="mix-blend-mode:soft-light">
<path d="M299.815 84.1222C301.005 84.7836 291.315 83.57 285.086 86.2254C278.858 88.8807 276.097 97.7067 275.499 97.8588C274.9 98.0109 277.013 87.5812 282.048 85.0746C287.083 82.568 295.854 81.9662 299.815 84.1222Z" fill="#5CF1FF"/>
</g>
<path d="M276.88 130.745C279.856 131.704 275.846 123.989 274.348 121.602C272.85 119.214 271.591 129.035 276.88 130.745Z" fill="#FAFBF9"/>
<path d="M336.728 148.784C339.287 149.611 335.838 142.967 334.546 140.914C333.253 138.86 332.175 147.312 336.728 148.784Z" fill="#FAFBF9"/>
<path d="M328.357 153.89C326.915 157.527 314.821 154.22 307.045 151.978C299.269 149.736 295.355 146.575 295.262 143.605C295.17 140.636 303.27 132.561 309.727 125.997C316.184 119.432 321.252 117.025 325.596 119.132C329.94 121.238 330.856 147.593 328.357 153.89Z" fill="url(#paint55_linear_1_3)"/>
<path style="mix-blend-mode:multiply" opacity="0.3" d="M297.911 149.091C291.127 145.841 300.205 136.238 304.414 133.88C308.623 131.522 314.497 120.983 321.936 125.593C329.375 130.203 331.798 153.582 327.504 155.837C323.209 158.093 316.646 154.614 312.897 154.224C309.148 153.833 305.316 155.963 301.633 150.844L297.911 149.091Z" fill="url(#paint56_linear_1_3)"/>
<path style="mix-blend-mode:multiply" d="M300.932 150.609C300.932 150.609 294.32 147.964 293.547 144.627C292.773 141.291 296.671 141.81 303.928 140.246C311.185 138.681 316.022 142.584 319.992 147.051C323.963 151.519 327.831 153.737 327.52 155.824C327.209 157.911 319.357 156.816 317.552 155.844C315.747 154.872 315.294 153.972 312.924 154.21C310.553 154.448 306.464 153.281 304.658 151.922C303.583 151.107 302.281 150.648 300.932 150.609V150.609Z" fill="url(#paint57_linear_1_3)"/>
<g style="mix-blend-mode:soft-light" opacity="0.5">
<path d="M299.868 138.896C306.275 136.529 315.522 141.076 320.508 140.345C325.494 139.614 323.427 132.643 320.508 128.665C317.589 124.687 310.92 130.477 307.313 133.295C303.706 136.112 299.868 138.896 299.868 138.896Z" fill="#E7ECFF"/>
</g>
<g style="mix-blend-mode:multiply">
<path d="M303.253 151.122C300.992 148.605 299.253 147.531 298.317 147.894C296.892 148.453 300.863 151.016 301.65 150.831C302.202 150.745 302.767 150.848 303.253 151.122V151.122Z" fill="#D1A1C8"/>
</g>
<path style="mix-blend-mode:multiply" d="M303.253 151.122C303.253 151.122 298.205 144.594 298.985 141.148C299.765 137.703 303.062 132.855 303.062 132.855C303.062 132.855 298.301 137.365 295.458 141.575C292.614 145.785 296.165 148.635 299.256 149.733C302.347 150.831 303.253 151.122 303.253 151.122Z" fill="url(#paint58_linear_1_3)"/>
<g style="mix-blend-mode:multiply" opacity="0.5">
<path d="M328.357 154.987C324.674 158.737 315.926 164.958 306.649 163.774C297.372 162.59 294.436 143.602 294.436 143.602C294.436 143.602 295.6 143.351 298.559 142.884C301.518 142.418 304.414 137.713 312.557 141.479C318.835 144.386 322.303 152.696 328.357 154.987Z" fill="#FEB1C8"/>
</g>
<g style="mix-blend-mode:multiply">
<path d="M317.248 155.249C317.248 155.249 314.914 152.848 313.238 152.223C311.562 151.598 311.307 153.341 311.714 153.737C312.12 154.134 314.19 153.899 315.407 154.462C316.623 155.024 317.248 155.249 317.248 155.249Z" fill="#D1A1C8"/>
</g>
<path style="mix-blend-mode:multiply" d="M353.615 101.347C353.615 101.347 364.754 94.2775 371.987 94.7008C379.221 95.124 387.007 107.032 387.887 111.182C388.766 115.332 379.291 109.241 369.121 105.891C358.951 102.541 353.615 101.347 353.615 101.347Z" fill="url(#paint59_linear_1_3)"/>
<g style="mix-blend-mode:multiply">
<path d="M318.835 92.7663C318.835 92.7663 311.297 75.0516 305.016 72.9485C299.24 71.0041 298.671 79.5621 300.175 82.7962C301.68 86.0303 307.303 84.6083 318.835 92.7663Z" fill="#E392AD"/>
</g>
<path style="mix-blend-mode:multiply" d="M317.248 180.142C317.248 180.142 304.288 181.343 295.983 176.293C295.983 176.293 297.147 186.954 303.257 187.536C309.366 188.118 317.248 180.142 317.248 180.142Z" fill="url(#paint60_linear_1_3)"/>
<path d="M402.407 46.2161C402.407 46.2161 369.382 3.95496 339.707 3.22746C310.031 2.49995 306.807 38.5179 309.644 40.4292C312.481 42.3405 307.548 11.9905 339.045 8.1447C363.425 5.17848 395.401 36.0146 402.407 46.2161Z" fill="url(#paint61_linear_1_3)"/>
<path d="M291.318 48.7922C301.98 58.2728 307.293 54.3774 307.293 54.3774C307.293 54.3774 310.854 57.6842 329.411 59.1061C347.969 60.5281 363.947 61.0439 363.947 61.0439C364.135 65.981 366.384 68.3355 366.384 68.3355C374.133 62.0228 402.814 57.1683 406.834 69.2713C410.854 81.3743 404.397 105.041 404.397 105.041C404.397 105.041 409.518 116.896 410.312 128.334C411.105 139.773 389.401 161.105 389.401 161.105L391.966 166.624C396.906 158.731 414.15 153.271 414.15 153.271C436.536 135.189 439.905 114.125 442.282 94.7934C444.659 75.4617 412.937 69.5226 406.844 52.6876C400.751 35.8526 384.015 3.74664 358.244 3.21093C334.536 2.73144 321.877 29.7085 315.707 37.6184C315.265 38.2111 314.762 38.7563 314.207 39.2454C308.652 43.7923 291.318 48.7922 291.318 48.7922Z" fill="url(#paint62_linear_1_3)"/>
<path d="M401.425 49.3146C401.425 49.3146 403.009 35.836 397.289 24.9698C391.57 14.1036 380.316 14.1929 380.319 13.0652C380.319 13.0652 399.065 11.435 405.574 28.0716C412.084 44.7082 408.93 55.1446 411.102 61.0076C413.274 66.8706 401.425 49.3146 401.425 49.3146Z" fill="url(#paint63_linear_1_3)"/>
<path style="mix-blend-mode:multiply" d="M291.318 48.7922C301.98 58.2728 307.293 54.3774 307.293 54.3774C307.293 54.3774 310.854 57.6842 329.411 59.1061C347.969 60.5281 363.947 61.0439 363.947 61.0439C384.567 46.6692 405.584 52.3338 406.771 52.6678C392.753 44.3147 369.508 57.4163 360.029 57.6875C350.551 57.9587 323.53 52.9389 323.53 52.9389C323.53 52.9389 345.839 36.2527 363.501 35.3135C381.162 34.3744 401.432 49.3146 401.432 49.3146C401.432 49.3146 378.226 23.2106 356.211 32.3969C334.195 41.5833 316.012 42.6878 315.721 37.625C315.278 38.2177 314.775 38.763 314.22 39.252C308.652 43.7922 291.318 48.7922 291.318 48.7922Z" fill="url(#paint64_linear_1_3)"/>
<path style="mix-blend-mode:multiply" d="M405.796 67.188C405.796 67.188 428.096 92.3695 430.648 113.513C433.2 134.657 418.528 149.475 418.528 149.475C418.528 149.475 427.282 121.718 421.559 101.837C415.836 81.9563 405.796 67.188 405.796 67.188Z" fill="url(#paint65_linear_1_3)"/>
<path style="mix-blend-mode:multiply" d="M404.391 105.051C404.391 105.051 415.44 114.72 419.192 125.084C422.945 135.447 416.878 150.976 416.878 150.976L415.195 151.968C415.195 151.968 422.151 126.367 404.391 105.051Z" fill="url(#paint66_linear_1_3)"/>
<g style="mix-blend-mode:multiply">
<path d="M398.989 46.8279C398.989 46.8279 379.813 23.7364 361.61 19.1961C343.406 14.6558 334.066 46.8279 334.066 46.8279C334.066 46.8279 348.792 35.2342 366.529 35.3069C384.266 35.3797 398.989 46.8279 398.989 46.8279Z" fill="#E392AD"/>
</g>
<g style="mix-blend-mode:multiply">
<path d="M405.796 67.188C405.796 67.188 403.406 57.2907 390.588 54.3278C377.77 51.3649 366.394 68.3355 366.394 68.3355C366.394 68.3355 382.137 61.0968 405.796 67.188Z" fill="#E392AD"/>
</g>
<g style="mix-blend-mode:multiply">
<path d="M449.162 104.628C449.162 104.628 443.492 85.0515 433.822 76.1065C424.151 67.1616 413.423 66.3878 413.423 66.3878C413.423 66.3878 427.309 82.9219 430.945 88.3583C434.582 93.7947 442.282 94.7834 442.282 94.7834C442.282 94.7834 445.208 99.952 446.762 102.273C448.316 104.595 447.84 105.127 449.162 104.628Z" fill="#E392AD"/>
</g>
<g style="mix-blend-mode:soft-light" opacity="0.5">
<path d="M365.921 4.34184C350.792 4.01116 344.669 9.92045 341.512 16.2464C338.354 22.5724 356.72 18.6075 364.05 19.9269C371.379 21.2463 355.784 17.7047 349.043 16.2464C342.302 14.7881 349.942 3.10509 365.921 4.34184Z" fill="white"/>
</g>
<g style="mix-blend-mode:soft-light" opacity="0.5">
<path d="M373.829 35.965C362.426 35.3235 369.485 44.48 376.107 48.0845C382.729 51.6889 389.926 49.8636 394.922 49.8966C399.918 49.9297 382.422 48.349 375.452 43.7426C368.483 39.1362 373.829 35.965 373.829 35.965Z" fill="white"/>
</g>
<g style="mix-blend-mode:multiply" opacity="0.2">
<path d="M378.887 160.887C402.182 155.063 381.684 177.593 363.719 187.199C345.753 196.806 362.542 164.971 378.887 160.887Z" fill="#E392AD"/>
</g>
<g style="mix-blend-mode:multiply">
<path d="M151.103 200.182C151.103 200.182 135.372 203.108 133.332 224.441L137.204 224.52C137.204 224.52 137.762 217.553 139.32 211.746C140.877 205.939 151.103 200.182 151.103 200.182Z" fill="#A46BAD"/>
</g>
<g style="mix-blend-mode:soft-light" opacity="0.5">
<path d="M318.789 322.647C331.074 317.875 305.363 308.655 298.046 299.026C290.73 289.397 289.351 272.419 287.576 272.618C285.8 272.816 279.287 289.592 288.759 307.749C298.231 325.907 318.789 322.647 318.789 322.647Z" fill="white"/>
</g>
<g style="mix-blend-mode:soft-light" opacity="0.3">
<path d="M383.079 445.313C386.478 469.351 371.888 456.96 363.276 443.144C354.663 429.328 353.434 406.471 353.556 404.084C353.678 401.696 367.366 413.674 372.559 419.027C377.753 424.381 382.048 438.008 383.079 445.313Z" fill="white"/>
</g>
<g style="mix-blend-mode:soft-light" opacity="0.5">
<path d="M91.3182 308.272C94.5681 310.084 99.524 311.579 106.44 310.438C120.458 308.103 122.604 293.146 122.604 293.146C122.416 291.959 119.437 291.999 119.437 291.999C119.437 291.999 120.207 297.73 118.776 300.041C111.34 312.293 93.3845 307.541 93.649 303.348C93.9135 299.155 94.588 299.049 94.588 299.049L94.2573 295.653C94.2573 295.653 88.4452 298.021 91.3182 308.272Z" fill="white"/>
</g>
<g style="mix-blend-mode:multiply">
<path d="M119.628 296.172C119.628 296.172 116.207 305.206 107.095 306.073C97.9833 306.939 94.6111 299.023 94.6111 299.023L95.5765 306.139C95.5765 306.139 115.859 314.399 119.628 296.172Z" fill="#E392AD"/>
</g>
<g style="mix-blend-mode:multiply" opacity="0.5">
<path d="M410.047 433.471C410.047 433.471 427.239 430.165 448.785 446.213C462.77 456.639 425.09 432.185 410.064 403.631C401.941 388.194 417.387 364.739 412.679 360.447C399.26 348.212 392.69 425.138 392.69 425.138L410.047 433.471Z" fill="#E392AD"/>
</g>
<g style="mix-blend-mode:soft-light" opacity="0.2">
<path d="M399.002 326.744C398.423 333.06 387.685 333.209 376.897 325.051C366.109 316.893 364.4 269.787 363.61 267.684C362.82 265.581 378.259 286.953 384.819 296.698C391.378 306.443 399.402 322.382 399.002 326.744Z" fill="white"/>
</g>
<path d="M227.011 329.713C227.983 332.815 217.635 382.335 219.258 406.521C220.882 430.707 235.478 486.083 235.478 486.083C235.478 486.083 209.856 396.63 213.393 368.473C216.931 340.315 227.011 329.713 227.011 329.713Z" fill="#5E4FB8"/>
<path d="M393.725 415.042C393.725 415.042 394.823 380.721 392.69 365.209C390.558 349.696 383.585 338.066 383.585 338.066C383.585 338.066 394.634 354.974 397.187 366.677C399.739 378.38 393.725 415.042 393.725 415.042Z" fill="#5E4FB8"/>
<path d="M405.971 332.517C403.472 329.264 394.525 334.131 386.634 333.076C378.742 332.021 371.756 326.744 371.756 326.744C371.756 326.744 384.769 338.688 388.068 338.867C391.368 339.045 403.733 333.933 405.971 332.517Z" fill="#5E4FB8"/>
<path d="M128.743 356.105C128.743 356.105 106.824 385.258 95.5765 392.13C84.3291 399.001 78.507 393.251 76.7019 395.499C74.8967 397.748 75.3232 404.097 75.3232 404.097C75.3232 404.097 115.274 393.998 128.743 356.105Z" fill="#6A5CD4"/>
<g style="mix-blend-mode:soft-light" opacity="0.5">
<path d="M326.251 486.083C331.259 489.859 314.679 568.277 302.503 591.663C290.326 615.049 267.098 525.103 266.136 499.786C265.174 474.469 290.336 531.367 304.156 526.241C317.976 521.115 318.012 479.873 326.251 486.083Z" fill="#FFBB9A"/>
</g>
<path d="M283.741 244.718C283.741 244.718 239.264 273.13 225.467 282.379C225.467 282.379 245.568 257.016 283.741 244.718Z" fill="#5E4FB8"/>
<g style="mix-blend-mode:multiply">
<path d="M414.907 737.342C414.907 737.342 414.785 720.831 413.469 718.46C412.153 716.089 406.824 737.99 406.824 737.99L414.907 737.342Z" fill="#D07CAD"/>
</g>
<g style="mix-blend-mode:multiply">
<path d="M196.148 737.342C196.148 737.342 196.148 709.776 198.251 707.934C200.354 706.093 205.568 737.848 205.568 737.848L196.148 737.342Z" fill="#D07CAD"/>
</g>
<g style="mix-blend-mode:soft-light">
<path d="M470.982 542.024C470.982 542.024 480.051 495.501 474.639 458.908C469.227 422.314 435.957 351.353 435.957 351.353C435.957 351.353 474.477 414.927 479.294 462.684C484.111 510.441 470.982 542.024 470.982 542.024Z" fill="#4BFFFF"/>
</g>
<g style="mix-blend-mode:soft-light">
<path d="M435.964 351.366C433.597 352.157 437.541 340.9 427.282 336.959C417.023 333.017 433.835 313.844 436.268 306.463C438.702 299.082 411.264 290.68 411.264 290.68C411.264 290.68 430.731 295.174 441.429 303.245C441.442 303.232 445.83 309.132 435.964 351.366Z" fill="#4BFFFF"/>
</g>
<g style="mix-blend-mode:soft-light">
<path d="M211.853 242.641C211.853 242.641 187.169 240.575 179.555 245.839C171.941 251.104 173.819 288.08 173.816 293.48C173.812 298.881 168.483 298.11 166.212 301.417C155.963 316.367 155.559 336.172 152.088 338.123C148.616 340.074 143.518 346.221 143.518 346.221L165.62 299.264C165.62 299.264 165.091 251.242 177.985 241.305C177.995 241.319 188.31 239.351 211.853 242.641Z" fill="#4BFFFF"/>
</g>
<g style="mix-blend-mode:soft-light">
<path d="M431.521 713.129C441.528 707.326 416.313 658.736 408.206 630.313C400.099 601.891 403.207 573.605 403.207 573.605C403.207 573.605 409.274 617.585 419.787 651.976C430.301 686.367 439.366 704.628 445.029 712.924C445.033 712.934 435.101 714.634 431.521 713.129Z" fill="#4BFFFF"/>
</g>
<g style="mix-blend-mode:soft-light">
<path d="M182.16 438.422C182.16 438.422 159.92 467.3 145.704 466.629C131.488 465.958 85.3838 419.123 85.3838 419.123C85.3838 419.123 124.789 466.044 141.955 473.147C141.955 473.147 148.392 475.223 156.812 468.755C165.233 462.287 182.16 438.422 182.16 438.422Z" fill="#4BFFFF"/>
</g>
<g style="mix-blend-mode:soft-light">
<path d="M188.253 657.813C192.201 653.736 174.837 641.461 171.941 616.57C169.045 591.68 175.773 546.823 175.773 546.823C175.773 546.823 166.337 586.442 169.141 622.949C171.944 659.456 188.253 657.813 188.253 657.813Z" fill="#4BFFFF"/>
</g>
<g style="mix-blend-mode:multiply" opacity="0.8">
<path d="M196.026 411.772C196.026 411.772 180.917 453.603 165.378 453.603C149.84 453.603 122.938 409.745 124.736 402.186C126.535 394.626 143.075 357.289 145.079 352.55C147.082 347.812 164.37 366.677 164.37 366.677C164.37 366.677 166.747 347.788 174.477 362.209C182.207 376.63 186.544 318.606 194.042 318.209C201.541 317.812 204.715 376.647 196.026 411.772Z" fill="#B892AD"/>
</g>
<g filter="url(#filter0_d_1_3)">
<path d="M67.2756 83H63.7528C63.5445 81.9867 63.1799 81.0966 62.6591 80.3295C62.1477 79.5625 61.5227 78.9186 60.7841 78.3977C60.0549 77.8674 59.2453 77.4697 58.3551 77.2045C57.465 76.9394 56.5369 76.8068 55.571 76.8068C53.8097 76.8068 52.214 77.2519 50.7841 78.142C49.3636 79.0322 48.232 80.3438 47.3892 82.0767C46.5559 83.8097 46.1392 85.9356 46.1392 88.4545C46.1392 90.9735 46.5559 93.0994 47.3892 94.8324C48.232 96.5653 49.3636 97.8769 50.7841 98.767C52.214 99.6572 53.8097 100.102 55.571 100.102C56.5369 100.102 57.465 99.9697 58.3551 99.7045C59.2453 99.4394 60.0549 99.0464 60.7841 98.5256C61.5227 97.9953 62.1477 97.3466 62.6591 96.5795C63.1799 95.803 63.5445 94.9129 63.7528 93.9091H67.2756C67.0104 95.3958 66.5275 96.7263 65.8267 97.9006C65.1259 99.0748 64.2547 100.074 63.2131 100.898C62.1714 101.712 61.0019 102.332 59.7045 102.759C58.4167 103.185 57.0388 103.398 55.571 103.398C53.09 103.398 50.8835 102.792 48.9517 101.58C47.0199 100.367 45.5 98.6439 44.392 96.4091C43.2841 94.1742 42.7301 91.5227 42.7301 88.4545C42.7301 85.3864 43.2841 82.7348 44.392 80.5C45.5 78.2652 47.0199 76.5417 48.9517 75.3295C50.8835 74.1174 53.09 73.5114 55.571 73.5114C57.0388 73.5114 58.4167 73.7244 59.7045 74.1506C61.0019 74.5767 62.1714 75.2017 63.2131 76.0256C64.2547 76.84 65.1259 77.8343 65.8267 79.0085C66.5275 80.1733 67.0104 81.5038 67.2756 83ZM81.3771 103.455C79.4074 103.455 77.6792 102.986 76.1925 102.048C74.7152 101.111 73.5599 99.7992 72.7266 98.1136C71.9027 96.428 71.4908 94.4583 71.4908 92.2045C71.4908 89.9318 71.9027 87.9479 72.7266 86.2528C73.5599 84.5578 74.7152 83.2415 76.1925 82.304C77.6792 81.3665 79.4074 80.8977 81.3771 80.8977C83.3468 80.8977 85.0703 81.3665 86.5476 82.304C88.0343 83.2415 89.1896 84.5578 90.0135 86.2528C90.8468 87.9479 91.2635 89.9318 91.2635 92.2045C91.2635 94.4583 90.8468 96.428 90.0135 98.1136C89.1896 99.7992 88.0343 101.111 86.5476 102.048C85.0703 102.986 83.3468 103.455 81.3771 103.455ZM81.3771 100.443C82.8733 100.443 84.1044 100.06 85.0703 99.2926C86.0362 98.5256 86.7512 97.517 87.2152 96.267C87.6792 95.017 87.9112 93.6629 87.9112 92.2045C87.9112 90.7462 87.6792 89.3873 87.2152 88.1278C86.7512 86.8684 86.0362 85.8504 85.0703 85.0739C84.1044 84.2973 82.8733 83.9091 81.3771 83.9091C79.8809 83.9091 78.6499 84.2973 77.6839 85.0739C76.718 85.8504 76.0031 86.8684 75.5391 88.1278C75.075 89.3873 74.843 90.7462 74.843 92.2045C74.843 93.6629 75.075 95.017 75.5391 96.267C76.0031 97.517 76.718 98.5256 77.6839 99.2926C78.6499 100.06 79.8809 100.443 81.3771 100.443ZM99.733 89.875V103H96.3807V81.1818H99.6193V84.5909H99.9034C100.415 83.483 101.191 82.5928 102.233 81.9205C103.275 81.2386 104.619 80.8977 106.267 80.8977C107.744 80.8977 109.037 81.2008 110.145 81.8068C111.253 82.4034 112.115 83.3125 112.73 84.5341C113.346 85.7462 113.653 87.2803 113.653 89.1364V103H110.301V89.3636C110.301 87.6496 109.856 86.3144 108.966 85.358C108.076 84.392 106.854 83.9091 105.301 83.9091C104.231 83.9091 103.275 84.1411 102.432 84.6051C101.598 85.0691 100.94 85.7462 100.457 86.6364C99.9744 87.5265 99.733 88.6061 99.733 89.875ZM129.268 81.1818V84.0227H117.961V81.1818H129.268ZM121.256 75.9545H124.609V96.75C124.609 97.697 124.746 98.4072 125.021 98.8807C125.305 99.3447 125.665 99.6572 126.1 99.8182C126.545 99.9697 127.014 100.045 127.506 100.045C127.876 100.045 128.179 100.027 128.415 99.9886C128.652 99.9413 128.842 99.9034 128.984 99.875L129.665 102.886C129.438 102.972 129.121 103.057 128.714 103.142C128.307 103.237 127.79 103.284 127.165 103.284C126.219 103.284 125.29 103.08 124.381 102.673C123.482 102.266 122.734 101.646 122.137 100.812C121.55 99.9792 121.256 98.928 121.256 97.6591V75.9545ZM140.731 103.511C139.348 103.511 138.094 103.251 136.967 102.73C135.84 102.2 134.945 101.438 134.282 100.443C133.619 99.4394 133.288 98.2273 133.288 96.8068C133.288 95.5568 133.534 94.5436 134.026 93.767C134.519 92.9811 135.177 92.3655 136.001 91.9205C136.825 91.4754 137.734 91.1439 138.728 90.9261C139.732 90.6989 140.74 90.5189 141.754 90.3864C143.079 90.2159 144.154 90.0881 144.978 90.0028C145.811 89.9081 146.417 89.7519 146.796 89.5341C147.184 89.3163 147.379 88.9375 147.379 88.3977V88.2841C147.379 86.8826 146.995 85.7936 146.228 85.017C145.47 84.2405 144.32 83.8523 142.776 83.8523C141.176 83.8523 139.921 84.2027 139.012 84.9034C138.103 85.6042 137.464 86.3523 137.094 87.1477L133.913 86.0114C134.481 84.6856 135.238 83.6534 136.185 82.9148C137.142 82.1667 138.183 81.6458 139.31 81.3523C140.447 81.0492 141.564 80.8977 142.663 80.8977C143.363 80.8977 144.168 80.983 145.077 81.1534C145.996 81.3144 146.881 81.6506 147.734 82.1619C148.595 82.6733 149.31 83.4451 149.879 84.4773C150.447 85.5095 150.731 86.892 150.731 88.625V103H147.379V100.045H147.208C146.981 100.519 146.602 101.026 146.072 101.565C145.541 102.105 144.836 102.564 143.955 102.943C143.075 103.322 142 103.511 140.731 103.511ZM141.242 100.5C142.568 100.5 143.685 100.24 144.594 99.7188C145.513 99.1979 146.204 98.5256 146.668 97.7017C147.142 96.8778 147.379 96.0114 147.379 95.1023V92.0341C147.237 92.2045 146.924 92.3608 146.441 92.5028C145.968 92.6354 145.418 92.7538 144.793 92.858C144.178 92.9527 143.576 93.0379 142.989 93.1136C142.412 93.1799 141.943 93.2367 141.583 93.2841C140.712 93.3977 139.897 93.5824 139.14 93.8381C138.392 94.0843 137.786 94.4583 137.322 94.9602C136.867 95.4527 136.64 96.125 136.64 96.9773C136.64 98.142 137.071 99.0227 137.933 99.6193C138.804 100.206 139.907 100.5 141.242 100.5ZM165.713 103.455C163.668 103.455 161.906 102.972 160.429 102.006C158.952 101.04 157.815 99.7093 157.02 98.0142C156.224 96.3191 155.827 94.3826 155.827 92.2045C155.827 89.9886 156.234 88.0331 157.048 86.3381C157.872 84.6335 159.018 83.303 160.486 82.3466C161.963 81.3807 163.687 80.8977 165.656 80.8977C167.19 80.8977 168.573 81.1818 169.804 81.75C171.035 82.3182 172.044 83.1136 172.83 84.1364C173.616 85.1591 174.103 86.3523 174.293 87.7159H170.94C170.685 86.7216 170.116 85.8409 169.236 85.0739C168.365 84.2973 167.19 83.9091 165.713 83.9091C164.406 83.9091 163.26 84.25 162.276 84.9318C161.3 85.6042 160.538 86.5559 159.989 87.7869C159.449 89.0085 159.179 90.4432 159.179 92.0909C159.179 93.7765 159.444 95.2443 159.974 96.4943C160.514 97.7443 161.272 98.715 162.247 99.4062C163.232 100.098 164.387 100.443 165.713 100.443C166.584 100.443 167.375 100.292 168.085 99.9886C168.795 99.6856 169.397 99.25 169.889 98.6818C170.382 98.1136 170.732 97.4318 170.94 96.6364H174.293C174.103 97.9242 173.634 99.0843 172.886 100.116C172.148 101.139 171.168 101.954 169.946 102.56C168.734 103.156 167.323 103.455 165.713 103.455ZM188.682 81.1818V84.0227H177.375V81.1818H188.682ZM180.67 75.9545H184.023V96.75C184.023 97.697 184.16 98.4072 184.435 98.8807C184.719 99.3447 185.079 99.6572 185.514 99.8182C185.959 99.9697 186.428 100.045 186.92 100.045C187.29 100.045 187.593 100.027 187.83 99.9886C188.066 99.9413 188.256 99.9034 188.398 99.875L189.08 102.886C188.852 102.972 188.535 103.057 188.128 103.142C187.721 103.237 187.205 103.284 186.58 103.284C185.633 103.284 184.705 103.08 183.795 102.673C182.896 102.266 182.148 101.646 181.551 100.812C180.964 99.9792 180.67 98.928 180.67 97.6591V75.9545ZM89.5447 151V129.182H92.7834V132.591H93.0675C93.522 131.426 94.2559 130.522 95.2692 129.878C96.2824 129.224 97.4993 128.898 98.9197 128.898C100.359 128.898 101.557 129.224 102.513 129.878C103.479 130.522 104.232 131.426 104.772 132.591H104.999C105.558 131.464 106.396 130.569 107.513 129.906C108.631 129.234 109.971 128.898 111.533 128.898C113.484 128.898 115.08 129.509 116.32 130.73C117.561 131.942 118.181 133.831 118.181 136.398V151H114.829V136.398C114.829 134.788 114.388 133.637 113.508 132.946C112.627 132.255 111.59 131.909 110.397 131.909C108.863 131.909 107.674 132.373 106.832 133.301C105.989 134.22 105.567 135.384 105.567 136.795V151H102.158V136.057C102.158 134.816 101.756 133.817 100.951 133.06C100.146 132.293 99.1091 131.909 97.8402 131.909C96.969 131.909 96.1546 132.141 95.397 132.605C94.6489 133.069 94.0429 133.713 93.5788 134.537C93.1243 135.351 92.897 136.294 92.897 137.364V151H89.5447ZM133.458 151.455C131.356 151.455 129.542 150.991 128.018 150.062C126.503 149.125 125.333 147.818 124.509 146.142C123.695 144.456 123.288 142.496 123.288 140.261C123.288 138.027 123.695 136.057 124.509 134.352C125.333 132.638 126.479 131.303 127.947 130.347C129.424 129.381 131.147 128.898 133.117 128.898C134.254 128.898 135.376 129.087 136.484 129.466C137.592 129.845 138.6 130.46 139.509 131.312C140.418 132.155 141.143 133.273 141.683 134.665C142.222 136.057 142.492 137.771 142.492 139.807V141.227H125.674V138.33H139.083C139.083 137.098 138.837 136 138.344 135.034C137.862 134.068 137.17 133.306 136.271 132.747C135.38 132.188 134.329 131.909 133.117 131.909C131.782 131.909 130.627 132.241 129.651 132.903C128.685 133.557 127.942 134.409 127.421 135.46C126.9 136.511 126.64 137.638 126.64 138.841V140.773C126.64 142.42 126.924 143.817 127.492 144.963C128.07 146.099 128.87 146.966 129.893 147.562C130.915 148.15 132.104 148.443 133.458 148.443C134.339 148.443 135.134 148.32 135.844 148.074C136.564 147.818 137.184 147.439 137.705 146.938C138.226 146.426 138.629 145.792 138.913 145.034L142.151 145.943C141.81 147.042 141.237 148.008 140.433 148.841C139.628 149.665 138.633 150.309 137.45 150.773C136.266 151.227 134.935 151.455 133.458 151.455Z" fill="#433F49"/>
</g>
</g>
<defs>
<filter id="filter0_d_1_3" x="38.7301" y="73.5114" width="154.349" height="85.9432" filterUnits="userSpaceOnUse" color-interpolation-filters="sRGB">
<feFlood flood-opacity="0" result="BackgroundImageFix"/>
<feColorMatrix in="SourceAlpha" type="matrix" values="0 0 0 0 0 0 0 0 0 0 0 0 0 0 0 0 0 0 127 0" result="hardAlpha"/>
<feOffset dy="4"/>
<feGaussianBlur stdDeviation="2"/>
<feComposite in2="hardAlpha" operator="out"/>
<feColorMatrix type="matrix" values="0 0 0 0 0 0 0 0 0 0 0 0 0 0 0 0 0 0 0.25 0"/>
<feBlend mode="normal" in2="BackgroundImageFix" result="effect1_dropShadow_1_3"/>
<feBlend mode="normal" in="SourceGraphic" in2="effect1_dropShadow_1_3" result="shape"/>
</filter>
<linearGradient id="paint0_linear_1_3" x1="302.503" y1="737.352" x2="302.503" y2="607.334" gradientUnits="userSpaceOnUse">
<stop stop-color="#C50B79"/>
<stop offset="1" stop-color="#C01160"/>
</linearGradient>
<linearGradient id="paint1_linear_1_3" x1="111.611" y1="231.894" x2="111.611" y2="-2.85194e-07" gradientUnits="userSpaceOnUse">
<stop stop-color="#7E8EFF"/>
<stop offset="1" stop-color="#7096FF"/>
</linearGradient>
<linearGradient id="paint2_linear_1_3" x1="14.1435" y1="231.894" x2="14.1435" y2="5.84647" gradientUnits="userSpaceOnUse">
<stop stop-color="#26258A"/>
<stop offset="1" stop-color="#3C2C95"/>
</linearGradient>
<linearGradient id="paint3_linear_1_3" x1="308.798" y1="721.241" x2="308.798" y2="241.448" gradientUnits="userSpaceOnUse">
<stop stop-color="#FF6686"/>
<stop offset="1" stop-color="#FF7C89"/>
</linearGradient>
<linearGradient id="paint4_linear_1_3" x1="324.313" y1="657.813" x2="324.313" y2="289.826" gradientUnits="userSpaceOnUse">
<stop offset="0.02" stop-color="white"/>
<stop offset="0.99" stop-color="#EA8CC1"/>
</linearGradient>
<linearGradient id="paint5_linear_1_3" x1="293.755" y1="714.257" x2="293.755" y2="318.209" gradientUnits="userSpaceOnUse">
<stop offset="0.02" stop-color="white"/>
<stop offset="0.99" stop-color="#EA8CC1"/>
</linearGradient>
<linearGradient id="paint6_linear_1_3" x1="218.62" y1="697.525" x2="218.62" y2="240.644" gradientUnits="userSpaceOnUse">
<stop stop-color="#2B2583"/>
<stop offset="1" stop-color="#482C97"/>
</linearGradient>
<linearGradient id="paint7_linear_1_3" x1="414.911" y1="714.244" x2="414.911" y2="252.241" gradientUnits="userSpaceOnUse">
<stop stop-color="#2B2583"/>
<stop offset="1" stop-color="#482C97"/>
</linearGradient>
<linearGradient id="paint8_linear_1_3" x1="381.218" y1="643.868" x2="381.218" y2="252.324" gradientUnits="userSpaceOnUse">
<stop stop-color="#38328A"/>
<stop offset="1" stop-color="#5C43A2"/>
</linearGradient>
<linearGradient id="paint9_linear_1_3" x1="251.585" y1="632.135" x2="251.585" y2="242.102" gradientUnits="userSpaceOnUse">
<stop stop-color="#38328A"/>
<stop offset="1" stop-color="#5C43A2"/>
</linearGradient>
<linearGradient id="paint10_linear_1_3" x1="310.623" y1="486.083" x2="310.623" y2="286.324" gradientUnits="userSpaceOnUse">
<stop stop-color="#FFB595"/>
<stop offset="0.98" stop-color="#FFAEA9"/>
</linearGradient>
<linearGradient id="paint11_linear_1_3" x1="293.107" y1="325.633" x2="230.955" y2="325.633" gradientUnits="userSpaceOnUse">
<stop offset="0.02" stop-color="white"/>
<stop offset="0.99" stop-color="#EA9DC8"/>
</linearGradient>
<linearGradient id="paint12_linear_1_3" x1="292.588" y1="374.306" x2="232.579" y2="374.306" gradientUnits="userSpaceOnUse">
<stop offset="0.01" stop-color="#EA9DC8"/>
<stop offset="0.98" stop-color="#FFDBD6"/>
</linearGradient>
<linearGradient id="paint13_linear_1_3" x1="291.824" y1="348.235" x2="286.376" y2="348.235" gradientUnits="userSpaceOnUse">
<stop offset="0.02" stop-color="white"/>
<stop offset="0.99" stop-color="#EA9DC8"/>
</linearGradient>
<linearGradient id="paint14_linear_1_3" x1="284.227" y1="357.381" x2="276.031" y2="357.381" gradientUnits="userSpaceOnUse">
<stop offset="0.02" stop-color="white"/>
<stop offset="0.99" stop-color="#EA9DC8"/>
</linearGradient>
<linearGradient id="paint15_linear_1_3" x1="277.889" y1="369.911" x2="270.212" y2="369.911" gradientUnits="userSpaceOnUse">
<stop offset="0.02" stop-color="white"/>
<stop offset="0.99" stop-color="#EA9DC8"/>
</linearGradient>
<linearGradient id="paint16_linear_1_3" x1="328.357" y1="303.847" x2="328.357" y2="211.895" gradientUnits="userSpaceOnUse">
<stop offset="0.02" stop-color="#FFA67F"/>
<stop offset="1" stop-color="#FF8B7C"/>
</linearGradient>
<linearGradient id="paint17_linear_1_3" x1="340.781" y1="282.379" x2="340.781" y2="213.343" gradientUnits="userSpaceOnUse">
<stop offset="0.02" stop-color="white"/>
<stop offset="0.99" stop-color="#F29DC8"/>
</linearGradient>
<linearGradient id="paint18_linear_1_3" x1="416.64" y1="545.209" x2="416.64" y2="419.027" gradientUnits="userSpaceOnUse">
<stop stop-color="#38328A"/>
<stop offset="1" stop-color="#4F349B"/>
</linearGradient>
<linearGradient id="paint19_linear_1_3" x1="117.959" y1="416.623" x2="117.959" y2="199.332" gradientUnits="userSpaceOnUse">
<stop stop-color="#FFB595"/>
<stop offset="0.98" stop-color="#FFAEA9"/>
</linearGradient>
<linearGradient id="paint20_linear_1_3" x1="100.724" y1="253.22" x2="100.724" y2="224.788" gradientUnits="userSpaceOnUse">
<stop offset="0.02" stop-color="#FFDBD6"/>
<stop offset="0.99" stop-color="#EA9DC8"/>
</linearGradient>
<linearGradient id="paint21_linear_1_3" x1="145.079" y1="273.888" x2="102.837" y2="273.888" gradientUnits="userSpaceOnUse">
<stop offset="0.01" stop-color="#EA9DC8"/>
<stop offset="0.98" stop-color="white"/>
</linearGradient>
<linearGradient id="paint22_linear_1_3" x1="126.813" y1="473.418" x2="126.813" y2="311.41" gradientUnits="userSpaceOnUse">
<stop stop-color="#38328A"/>
<stop offset="1" stop-color="#4F349B"/>
</linearGradient>
<linearGradient id="paint23_linear_1_3" x1="109.403" y1="384.269" x2="109.403" y2="291.999" gradientUnits="userSpaceOnUse">
<stop stop-color="#FF6686"/>
<stop offset="1" stop-color="#FF7C89"/>
</linearGradient>
<linearGradient id="paint24_linear_1_3" x1="363.987" y1="495.832" x2="363.987" y2="394.805" gradientUnits="userSpaceOnUse">
<stop stop-color="#FF6686"/>
<stop offset="1" stop-color="#FF7C89"/>
</linearGradient>
<linearGradient id="paint25_linear_1_3" x1="185.817" y1="411.762" x2="185.817" y2="302.449" gradientUnits="userSpaceOnUse">
<stop offset="0.01" stop-color="#C2798B"/>
<stop offset="0.98" stop-color="white"/>
</linearGradient>
<linearGradient id="paint26_linear_1_3" x1="415.344" y1="432.162" x2="415.344" y2="404.084" gradientUnits="userSpaceOnUse">
<stop offset="0.01" stop-color="#C2798B"/>
<stop offset="0.98" stop-color="white"/>
</linearGradient>
<linearGradient id="paint27_linear_1_3" x1="463.488" y1="430.178" x2="405.574" y2="430.178" gradientUnits="userSpaceOnUse">
<stop offset="0.02" stop-color="white"/>
<stop offset="0.99" stop-color="#C2798B"/>
</linearGradient>
<linearGradient id="paint28_linear_1_3" x1="460.826" y1="446.213" x2="414.907" y2="446.213" gradientUnits="userSpaceOnUse">
<stop offset="0.02" stop-color="white"/>
<stop offset="0.99" stop-color="#C2798B"/>
</linearGradient>
<linearGradient id="paint29_linear_1_3" x1="179.856" y1="366.677" x2="143.528" y2="366.677" gradientUnits="userSpaceOnUse">
<stop offset="0.02" stop-color="white"/>
<stop offset="0.99" stop-color="#C2798B"/>
</linearGradient>
<linearGradient id="paint30_linear_1_3" x1="157.424" y1="442.955" x2="87.8732" y2="442.955" gradientUnits="userSpaceOnUse">
<stop offset="0.01" stop-color="#C2798B"/>
<stop offset="0.98" stop-color="white"/>
</linearGradient>
<linearGradient id="paint31_linear_1_3" x1="223.146" y1="697.524" x2="223.146" y2="370.619" gradientUnits="userSpaceOnUse">
<stop offset="0.01" stop-color="#C2798B"/>
<stop offset="0.98" stop-color="white"/>
</linearGradient>
<linearGradient id="paint32_linear_1_3" x1="441.003" y1="713.811" x2="441.003" y2="698.874" gradientUnits="userSpaceOnUse">
<stop offset="0.02" stop-color="white"/>
<stop offset="0.99" stop-color="#C2798B"/>
</linearGradient>
<linearGradient id="paint33_linear_1_3" x1="397.187" y1="714.244" x2="397.187" y2="469.083" gradientUnits="userSpaceOnUse">
<stop offset="0.02" stop-color="white"/>
<stop offset="0.99" stop-color="#C2798B"/>
</linearGradient>
<linearGradient id="paint34_linear_1_3" x1="467.848" y1="528.142" x2="399.045" y2="528.142" gradientUnits="userSpaceOnUse">
<stop offset="0.01" stop-color="#C2798B"/>
<stop offset="0.98" stop-color="white"/>
</linearGradient>
<linearGradient id="paint35_linear_1_3" x1="181.856" y1="425.33" x2="138.02" y2="349.417" gradientUnits="userSpaceOnUse">
<stop offset="0.02" stop-color="white"/>
<stop offset="0.99" stop-color="#C2798B"/>
</linearGradient>
<linearGradient id="paint36_linear_1_3" x1="301.785" y1="97.8489" x2="312.393" y2="30.8864" gradientUnits="userSpaceOnUse">
<stop stop-color="#3E2987"/>
<stop offset="0.14" stop-color="#372987"/>
<stop offset="0.66" stop-color="#212885"/>
<stop offset="1" stop-color="#192885"/>
</linearGradient>
<linearGradient id="paint37_linear_1_3" x1="350.937" y1="218.392" x2="350.937" y2="27.1986" gradientUnits="userSpaceOnUse">
<stop stop-color="#FFB595"/>
<stop offset="0.98" stop-color="#FFC2A9"/>
</linearGradient>
<linearGradient id="paint38_linear_1_3" x1="359.004" y1="147.937" x2="377.635" y2="30.3347" gradientUnits="userSpaceOnUse">
<stop offset="0.02" stop-color="white"/>
<stop offset="0.99" stop-color="#F29DC8"/>
</linearGradient>
<linearGradient id="paint39_linear_1_3" x1="388.878" y1="199.62" x2="423.156" y2="152.455" gradientUnits="userSpaceOnUse">
<stop stop-color="#FFB595"/>
<stop offset="0.98" stop-color="#FF958D"/>
</linearGradient>
<linearGradient id="paint40_linear_1_3" x1="427.494" y1="101.496" x2="433.375" y2="64.371" gradientUnits="userSpaceOnUse">
<stop stop-color="#3E2987"/>
<stop offset="0.57" stop-color="#2C2F90"/>
<stop offset="1" stop-color="#243294"/>
</linearGradient>
<linearGradient id="paint41_linear_1_3" x1="408.603" y1="191.706" x2="408.603" y2="163.774" gradientUnits="userSpaceOnUse">
<stop offset="0.02" stop-color="white"/>
<stop offset="0.99" stop-color="#F29DC8"/>
</linearGradient>
<linearGradient id="paint42_linear_1_3" x1="338.11" y1="155.556" x2="338.11" y2="80.4484" gradientUnits="userSpaceOnUse">
<stop offset="0.02" stop-color="white"/>
<stop offset="0.99" stop-color="#F29DC8"/>
</linearGradient>
<linearGradient id="paint43_linear_1_3" x1="372.649" y1="127.842" x2="339.049" y2="127.842" gradientUnits="userSpaceOnUse">
<stop offset="0.01" stop-color="#EA9DC8"/>
<stop offset="0.98" stop-color="white"/>
</linearGradient>
<linearGradient id="paint44_linear_1_3" x1="361.183" y1="140.186" x2="361.183" y2="125.084" gradientUnits="userSpaceOnUse">
<stop offset="0.02" stop-color="#E0B3D1"/>
<stop offset="0.99" stop-color="#C2798B"/>
</linearGradient>
<linearGradient id="paint45_linear_1_3" x1="311.469" y1="107.353" x2="294.115" y2="107.353" gradientUnits="userSpaceOnUse">
<stop offset="0.02" stop-color="white"/>
<stop offset="0.99" stop-color="#EA9DC8"/>
</linearGradient>
<linearGradient id="paint46_linear_1_3" x1="305.138" y1="121.182" x2="305.138" y2="106.083" gradientUnits="userSpaceOnUse">
<stop offset="0.02" stop-color="#E0B3D1"/>
<stop offset="0.99" stop-color="#C2798B"/>
</linearGradient>
<linearGradient id="paint47_linear_1_3" x1="324.333" y1="157.319" x2="324.333" y2="144.634" gradientUnits="userSpaceOnUse">
<stop offset="0.01" stop-color="#EA9DC8"/>
<stop offset="0.98" stop-color="white"/>
</linearGradient>
<linearGradient id="paint48_linear_1_3" x1="328.581" y1="171.018" x2="338.124" y2="178.505" gradientUnits="userSpaceOnUse">
<stop offset="0.02" stop-color="white"/>
<stop offset="0.99" stop-color="#F29DC8"/>
</linearGradient>
<linearGradient id="paint49_linear_1_3" x1="308.88" y1="93.9997" x2="308.88" y2="71.596" gradientUnits="userSpaceOnUse">
<stop stop-color="#B877B8"/>
<stop offset="0.23" stop-color="#9A6DBA"/>
<stop offset="0.56" stop-color="#7762BB"/>
<stop offset="0.83" stop-color="#615BBD"/>
<stop offset="1" stop-color="#5958BD"/>
</linearGradient>
<linearGradient id="paint50_linear_1_3" x1="371.95" y1="121.366" x2="369.501" y2="91.1346" gradientUnits="userSpaceOnUse">
<stop stop-color="#B877B8"/>
<stop offset="0.23" stop-color="#9A6DBA"/>
<stop offset="0.56" stop-color="#7762BB"/>
<stop offset="0.83" stop-color="#615BBD"/>
<stop offset="1" stop-color="#5958BD"/>
</linearGradient>
<linearGradient id="paint51_linear_1_3" x1="361.986" y1="211.25" x2="361.986" y2="158.384" gradientUnits="userSpaceOnUse">
<stop offset="0.02" stop-color="white"/>
<stop offset="0.99" stop-color="#F29DC8"/>
</linearGradient>
<linearGradient id="paint52_linear_1_3" x1="294.197" y1="137.468" x2="294.197" y2="83.1805" gradientUnits="userSpaceOnUse">
<stop stop-color="#26258A"/>
<stop offset="1" stop-color="#3C2C95"/>
</linearGradient>
<linearGradient id="paint53_linear_1_3" x1="358.758" y1="160.418" x2="358.758" y2="105.105" gradientUnits="userSpaceOnUse">
<stop stop-color="#26258A"/>
<stop offset="1" stop-color="#3C2C95"/>
</linearGradient>
<linearGradient id="paint54_linear_1_3" x1="399.531" y1="154.657" x2="399.531" y2="129.778" gradientUnits="userSpaceOnUse">
<stop stop-color="#26258A"/>
<stop offset="1" stop-color="#3C2C95"/>
</linearGradient>
<linearGradient id="paint55_linear_1_3" x1="329.725" y1="136.949" x2="295.259" y2="136.949" gradientUnits="userSpaceOnUse">
<stop stop-color="#FFB595"/>
<stop offset="0.98" stop-color="#FFC2A9"/>
</linearGradient>
<linearGradient id="paint56_linear_1_3" x1="312.557" y1="156.578" x2="312.557" y2="124.426" gradientUnits="userSpaceOnUse">
<stop offset="0.01" stop-color="#F29DC8"/>
<stop offset="0.98" stop-color="white"/>
</linearGradient>
<linearGradient id="paint57_linear_1_3" x1="310.494" y1="157.011" x2="310.494" y2="139.895" gradientUnits="userSpaceOnUse">
<stop offset="0.01" stop-color="#F29DC8"/>
<stop offset="0.98" stop-color="white"/>
</linearGradient>
<linearGradient id="paint58_linear_1_3" x1="303.253" y1="141.985" x2="294.436" y2="141.985" gradientUnits="userSpaceOnUse">
<stop offset="0.01" stop-color="#EA9DC8"/>
<stop offset="0.98" stop-color="#FFDBD6"/>
</linearGradient>
<linearGradient id="paint59_linear_1_3" x1="387.212" y1="102.937" x2="353.922" y2="105.633" gradientUnits="userSpaceOnUse">
<stop offset="0.02" stop-color="white"/>
<stop offset="0.99" stop-color="#F29DC8"/>
</linearGradient>
<linearGradient id="paint60_linear_1_3" x1="306.606" y1="187.583" x2="306.606" y2="176.3" gradientUnits="userSpaceOnUse">
<stop offset="0.02" stop-color="white"/>
<stop offset="0.99" stop-color="#F29DC8"/>
</linearGradient>
<linearGradient id="paint61_linear_1_3" x1="354.455" y1="47.5786" x2="360.994" y2="6.29001" gradientUnits="userSpaceOnUse">
<stop stop-color="#3E2987"/>
<stop offset="0.57" stop-color="#2C2F90"/>
<stop offset="1" stop-color="#243294"/>
</linearGradient>
<linearGradient id="paint62_linear_1_3" x1="352.862" y1="160.43" x2="377.337" y2="5.94068" gradientUnits="userSpaceOnUse">
<stop stop-color="#3E2987"/>
<stop offset="0.57" stop-color="#2C2F90"/>
<stop offset="1" stop-color="#243294"/>
</linearGradient>
<linearGradient id="paint63_linear_1_3" x1="392.413" y1="59.2318" x2="399.345" y2="15.4532" gradientUnits="userSpaceOnUse">
<stop stop-color="#3E2987"/>
<stop offset="0.57" stop-color="#2C2F90"/>
<stop offset="1" stop-color="#243294"/>
</linearGradient>
<linearGradient id="paint64_linear_1_3" x1="406.771" y1="45.74" x2="291.318" y2="45.74" gradientUnits="userSpaceOnUse">
<stop offset="0.02" stop-color="white"/>
<stop offset="0.99" stop-color="#C2798B"/>
</linearGradient>
<linearGradient id="paint65_linear_1_3" x1="418.369" y1="149.475" x2="418.369" y2="67.188" gradientUnits="userSpaceOnUse">
<stop offset="0.02" stop-color="white"/>
<stop offset="0.99" stop-color="#C2798B"/>
</linearGradient>
<linearGradient id="paint66_linear_1_3" x1="412.401" y1="151.978" x2="412.401" y2="105.051" gradientUnits="userSpaceOnUse">
<stop offset="0.02" stop-color="white"/>
<stop offset="0.99" stop-color="#C2798B"/>
</linearGradient>
<clipPath id="clip0_1_3">
<rect width="481" height="738" fill="white" transform="matrix(-1 0 0 1 481 0)"/>
</clipPath>
</defs>
</svg>
