<svg width="553" height="538" viewBox="0 0 553 538" fill="none" xmlns="http://www.w3.org/2000/svg">
<g id="imagen" clip-path="url(#clip0_2_21)">
<g id="hombre">
<path id="Vector" d="M256.979 66.3354C150.07 91.6618 132.554 170.842 116.365 242.705C100.176 314.569 39.3183 381.751 161.988 410.346C284.657 438.941 466.898 400.057 497.285 286.216C527.673 172.375 411.128 183.66 328.178 147.95C245.228 112.24 304.33 55.145 256.979 66.3354Z" fill="#E7ECFF"/>
<path id="Vector_2" d="M299.671 105.704C286.191 112.684 278.671 73.5312 294.362 58.1847C310.053 42.8383 337.51 34.97 348.487 48.42C359.464 61.87 334.219 83.0941 320.09 90.7875C305.961 98.4809 304.703 103.094 299.671 105.704Z" fill="#E7ECFF"/>
<path id="Vector_3" d="M137.6 140.284C137.987 112.967 74.5859 137.594 55.7562 188.125C36.9266 238.657 54.1111 275.443 79.715 277.07C105.319 278.697 108.872 250.399 116.669 211.004C124.466 171.609 137.379 155.63 137.6 140.284Z" fill="#E7ECFF"/>
<path id="Vector_4" d="M451.041 438.376C461.174 419.909 477.308 413.897 488.534 416.466C499.76 419.035 488.797 453.978 473.009 455.336C457.22 456.695 444.861 449.62 451.041 438.376Z" fill="#E7ECFF"/>
<g id="Vector_5" style="mix-blend-mode:multiply">
<path d="M58.3553 420.891L61.6733 459.116C61.6733 459.116 51.4566 467.266 43.604 467.266C43.604 467.266 41.157 451.476 58.3553 420.891Z" fill="#4B81EE"/>
</g>
<path id="Vector_6" d="M367.607 526.42C354.852 527.392 342.021 526.714 329.45 524.402C317.79 521.981 306.5 518.112 295.855 512.889L293.228 496.83C293.228 496.83 312.473 475.484 335.146 485.263C357.819 495.041 367.607 526.42 367.607 526.42Z" fill="#4B81EE"/>
<path id="Vector_7" d="M186.361 210.398C162.416 214.084 150.734 233.263 150.222 243.539C149.711 253.815 157.895 293.21 160.688 303.795C163.481 314.38 183.914 325.409 191.103 327.117C197.963 328.525 205.11 327.619 211.37 324.549C217.301 321.859 231.444 310.063 234.417 299.639C237.389 289.215 238.26 240.809 234.417 228.744C230.573 216.68 205.992 207.359 186.361 210.398Z" fill="url(#paint0_linear_2_21)"/>
<path id="Vector_8" d="M178.342 321.361L179.559 366.351C179.559 366.351 184.826 396.815 201.209 397.824C221.725 399.169 224.089 363.782 224.089 363.782L220.868 317.877C220.868 317.877 208.965 327.817 198.098 327.803C187.232 327.79 178.342 321.361 178.342 321.361Z" fill="url(#paint1_linear_2_21)"/>
<path id="Vector_9" style="mix-blend-mode:multiply" d="M153.458 243.539C153.458 243.539 158.241 223.243 186.278 221.669C214.315 220.096 225.223 229.161 228.928 235.631C232.633 242.1 237.306 253.21 237.306 253.21L236.007 222.275L218.352 214.205C218.352 214.205 181.329 210.909 167.877 217.325C154.425 223.741 153.153 232.685 153.458 243.539Z" fill="url(#paint2_linear_2_21)"/>
<path id="Vector_10" d="M236.947 263.728C238.182 262.532 239.649 261.587 241.263 260.948C242.877 260.308 244.605 259.987 246.348 260.002C246.348 260.002 250.274 263.149 247.73 271.165C245.546 278.24 240.016 287.48 238.965 289.78C238.637 290.46 238.158 291.061 237.563 291.54C236.968 292.019 236.271 292.365 235.523 292.551C235.523 292.551 237.03 273.358 236.947 263.728Z" fill="url(#paint3_linear_2_21)"/>
<path id="Vector_11" d="M153.458 269.794C152.192 268.862 150.648 268.358 149.061 268.358C147.474 268.358 145.93 268.862 144.665 269.794C145.58 274.73 147.054 279.552 149.061 284.172C152.517 292.322 154.342 297.918 159.195 297.864L153.458 269.794Z" fill="url(#paint4_linear_2_21)"/>
<path id="Vector_12" style="mix-blend-mode:multiply" d="M236.96 272.699C236.96 272.699 242.656 266.848 245.629 266.27C248.601 265.691 246.472 273.95 244.647 278.254C242.822 282.558 242.615 282.961 242.615 282.961C242.615 282.961 246.292 272.51 245.173 270.157C244.053 267.803 242.173 268.812 242.103 269.767C242.034 270.722 244.053 275.819 241.246 280.849C238.44 285.88 238.094 287.158 237.32 284.548C236.546 281.939 238.951 277.675 239.02 275.133C239.09 272.591 236.96 272.699 236.96 272.699Z" fill="url(#paint5_linear_2_21)"/>
<path id="Vector_13" style="mix-blend-mode:multiply" d="M155.006 277.07C155.006 277.07 150.222 273.519 148.398 274.461C146.573 275.402 148.826 284.104 152.918 291.152C152.918 291.152 148.688 281.468 150.153 279.168C151.619 276.868 155.02 280.863 153.444 281.038C148.702 281.576 151.204 288.18 154.964 290.816C158.725 293.452 154.37 288.772 153.665 284.615C152.96 280.459 155.504 280.58 155.504 280.58L155.006 277.07Z" fill="url(#paint6_linear_2_21)"/>
<path id="Vector_14" d="M170.545 212.846C170.545 212.846 179.462 190.721 199.578 187.116C199.578 187.116 192.14 189.43 183.9 197.271C181.135 199.961 174.789 209.82 174.789 209.82C174.789 209.82 195.873 187.964 209.891 189.107C223.91 190.25 224.297 210.143 230.712 213.452C234.685 215.694 237.609 219.349 238.868 223.647C238.868 223.647 244.467 230.264 244.108 237.231C243.749 244.198 236.905 268.328 236.905 268.328C236.905 268.328 238.702 245.906 232.412 236.895C232.412 236.895 230.311 224.534 221.283 219.571C210.934 220.312 200.534 220.019 190.246 218.697C171.375 216.532 165.223 220.836 165.223 220.836C165.223 220.836 153.568 229.887 153.693 241.105C153.693 241.105 149.296 249.444 153.872 271.825C153.872 271.825 143.351 248.96 143.531 239.612C143.711 230.264 153.568 221.091 153.568 221.091C153.568 221.091 145.398 225.368 140.725 231.031C140.725 231.031 134.255 219.356 164.697 216.505C167.059 216.065 169.154 214.754 170.545 212.846V212.846Z" fill="url(#paint7_linear_2_21)"/>
<path id="Vector_15" d="M179.117 350.386C179.117 350.386 163.909 367.118 151.978 374.515C145.306 378.699 138.329 382.403 131.102 385.598C131.102 385.598 128.337 477.717 140.96 525.882H265.73C265.73 525.882 276.21 410.924 269.67 381.119C269.67 381.119 236.767 367.225 223.094 349.579L223.688 365.584C223.688 365.584 218.283 390.965 201.209 392.215C185.449 393.372 179.449 362.545 179.449 362.545L179.117 350.386Z" fill="url(#paint8_linear_2_21)"/>
<path id="Vector_16" d="M178.978 344.831L173.006 343.553C166.818 353.303 159.124 362.067 150.195 369.539C139.66 378.039 130.577 376.035 114.25 385.598C114.25 385.598 132.222 432.283 130.909 473.722C130.909 473.722 133.771 500.622 138.222 525.882L271.869 525.128C271.869 525.128 280.551 492.848 281.076 461.913C281.076 461.913 287.989 403.244 302.463 381.092C283.343 372.188 269.2 372.699 252.956 365.315C236.712 357.931 225.707 339.491 225.707 339.491L222.444 340.971L223.149 349.552C223.149 349.552 234.209 361.751 238.813 373.291C244.343 387.4 228.334 525.855 228.334 525.855L177.513 525.101C177.513 525.101 164.158 387.481 165.983 374.461C167.808 361.442 179.172 350.332 179.172 350.332L178.978 344.831Z" fill="url(#paint9_linear_2_21)"/>
<path id="Vector_17" d="M114.194 385.598V401.348L89.1851 441.537C89.1851 441.537 83.2956 424.59 83.033 421.362C82.7703 418.134 83.033 412.565 83.033 412.565L79.0928 409.512L79.7564 415.242C79.7564 415.242 81.844 449.647 43.6041 465.195C43.6041 465.195 46.369 440.904 58.3553 420.81L57.83 418.295C57.83 418.295 44.3921 437.125 40.4658 469.002L52.2447 474.382C52.2447 474.382 64.0374 507.442 79.4938 526.231L96.7335 526.393C96.7335 526.393 122.586 504.375 134.241 470.239C134.241 470.239 140.006 428.53 114.194 385.598Z" fill="url(#paint10_linear_2_21)"/>
<path id="Vector_18" d="M110.227 307.911C110.227 307.911 97.1344 327.279 94.6874 334.421C92.2404 341.563 94.1621 354.811 92.0607 357.864C92.0607 357.864 78.6228 369.243 77.0467 372.821C75.4707 376.398 77.0467 394.905 77.0467 394.905C71.7241 404.71 59.0742 407.764 59.0742 407.764C59.0742 407.764 57.8991 376.049 57.4982 375.282C57.0972 374.515 49.6179 369.902 49.6179 369.902C47.7487 365.5 46.2056 360.974 45.0004 356.358C43.5487 350.978 42.5257 345.732 41.8344 341.442C40.8252 335.309 40.4519 331.099 40.4519 331.099L39.4012 318.483C41.2261 310.332 46.1202 311.61 46.1202 311.61C46.5884 316.496 47.5139 321.332 48.8852 326.055L49.77 325.49C48.7896 320.294 48.1477 315.042 47.8483 309.767C50.2953 302.894 56.323 304.764 56.323 304.764C57.8023 313.089 59.724 321.495 59.724 321.495C58.065 310.735 59.1986 293.883 59.1986 293.883C61.4659 298.899 68.019 299.666 68.019 299.666C66.7056 305.517 68.019 317.864 68.019 317.864L69.4015 317.07C69.8854 311.112 70.784 304.723 71.89 298.617C73.5268 288.754 75.8361 279.008 78.8025 269.444C80.5583 265.019 85.0929 268.543 85.0929 268.543C86.9454 276.962 87.8579 283.244 86.8901 287.722C85.4247 294.555 81.056 297.245 81.056 297.245C81.056 297.245 77.9177 313.385 78.1804 316.075C78.443 318.765 79.8808 336.465 79.8808 336.465C87.0837 332.645 89.0468 327.292 89.0468 327.292C89.1851 315.819 94.2865 309.579 100.84 306.902C107.393 304.226 110.227 307.911 110.227 307.911Z" fill="url(#paint11_linear_2_21)"/>
<g id="Vector_19" style="mix-blend-mode:multiply">
<path d="M160.287 268.812L159.776 270.466C159.776 270.466 170.213 273.062 179.269 267.238L160.287 268.812Z" fill="#FEB1C8"/>
</g>
<path id="Vector_20" d="M58.7424 399.64C58.7424 399.64 53.4751 405.181 52.77 409.593C52.77 409.593 56.171 417.838 58.3 420.891L59.6825 455.942C59.6825 455.942 80.42 441.537 79.632 415.282C79.632 415.282 78.2495 397.569 79.632 392.605L76.784 391.395L77.0467 394.932C77.0467 394.932 68.2264 405.773 59.0742 407.804L58.7424 399.64Z" fill="url(#paint12_linear_2_21)"/>
<path id="Vector_21" d="M302.408 381.119V395.148C302.408 395.148 348.998 466.258 363.722 510.428L367.607 526.42C367.607 526.42 340.385 487.657 319.219 489.701C298.053 491.745 295.855 503.972 295.855 503.972L297.431 510.347L295.855 512.889L291.403 493.521H287.477V490.468L280.233 476.412C280.233 476.412 276.998 411.852 302.408 381.119Z" fill="url(#paint13_linear_2_21)"/>
<path id="Vector_22" d="M198.804 239.961C198.804 239.961 199.785 232.954 202.744 231.3L198.804 239.961Z" fill="url(#paint14_linear_2_21)"/>
<g id="Vector_23" style="mix-blend-mode:multiply">
<path d="M205.163 264.145C211.97 265.357 218.995 264.561 225.334 261.858L223.951 260.271C223.951 260.271 219.817 264.306 205.163 264.145Z" fill="#FEB1C8"/>
</g>
<path id="Vector_24" style="mix-blend-mode:multiply" d="M156.527 249.632C149.351 255.12 157.204 276.061 157.204 276.061C157.204 276.061 174.582 279.666 184.135 268.812V255.55C184.135 255.55 186.9 251.327 196.799 251.65C196.799 251.65 200.366 264.508 202.882 270.237C202.882 270.237 220.771 274.662 230.2 263.203C230.2 263.203 230.974 250.479 226.619 244.373C222.265 238.267 198.804 240.042 198.804 240.042C198.804 240.042 193.274 244.373 178.896 243.351C178.896 243.27 161.186 246.135 156.527 249.632Z" fill="url(#paint15_linear_2_21)"/>
<path id="Vector_25" style="mix-blend-mode:multiply" d="M179.269 265.395C179.269 265.395 176.919 255.886 169.591 255.496C162.264 255.106 160.868 265.395 160.868 265.395H179.269Z" fill="url(#paint16_linear_2_21)"/>
<path id="Vector_26" style="mix-blend-mode:multiply" d="M203.85 261.858C203.85 261.858 203.656 250.789 211.246 248.879C218.836 246.969 222.099 255.752 222.099 255.752L203.85 261.858Z" fill="url(#paint17_linear_2_21)"/>
<path id="Vector_27" d="M223.426 261.872C221.998 262.636 220.429 263.121 218.808 263.297C215.479 263.874 212.11 264.207 208.73 264.293C206.103 264.293 204.126 264.158 203.919 263.66C203.131 261.75 205.481 254.245 212.781 252.82C220.08 251.394 225.79 259.962 223.426 261.872Z" fill="#FFE4EC"/>
<path id="Vector_28" d="M179.601 266.861C179.504 267.252 178.591 267.722 177.195 268.206C173.512 269.331 169.699 269.999 165.845 270.197C164.458 270.289 163.066 270.216 161.697 269.982C157.992 269.202 160.674 261.334 167.49 259.639C168.351 259.421 169.243 259.339 170.13 259.397C172.261 259.591 174.285 260.391 175.951 261.697C175.974 261.692 175.997 261.692 176.02 261.697C178.439 263.539 179.849 265.88 179.601 266.861Z" fill="#FFE4EC"/>
<g id="Vector_29" style="mix-blend-mode:multiply">
<path d="M187.287 285.866C187.287 285.866 182.048 286.203 180.472 284.293C178.895 282.383 181.647 281.509 186.002 278.254C190.356 274.999 194.78 276.007 198.831 277.675C202.882 279.343 206.172 279.558 206.628 281.011C207.085 282.463 201.527 284.172 200.02 284.104C198.513 284.037 197.919 283.593 196.412 284.481C194.496 285.44 192.33 285.819 190.191 285.57C189.215 285.37 188.199 285.473 187.287 285.866V285.866Z" fill="#FEB1C8"/>
</g>
<g id="Vector_30" style="mix-blend-mode:multiply">
<path d="M196.384 284.481C196.634 284.003 197.019 283.606 197.495 283.337C197.971 283.067 198.516 282.937 199.066 282.961C200.905 283.149 202.882 283.526 202.882 283.526C200.889 284.55 198.599 284.886 196.384 284.481Z" fill="#D1A1C8"/>
</g>
<g id="Vector_31" style="mix-blend-mode:multiply">
<path d="M189.803 285.517C189.528 285.029 189.13 284.618 188.646 284.322C188.162 284.025 187.609 283.853 187.038 283.822C185.144 283.728 184.094 285.759 184.094 285.759C185.126 286.005 186.199 286.042 187.246 285.866C188.074 285.617 188.937 285.499 189.803 285.517V285.517Z" fill="#D1A1C8"/>
</g>
<path id="Vector_32" style="mix-blend-mode:multiply" d="M199.633 273.25C199.633 273.25 206.836 272.537 206.545 281.011C206.425 279.16 205.684 277.398 204.435 275.996C203.187 274.594 201.5 273.629 199.633 273.25V273.25Z" fill="url(#paint18_linear_2_21)"/>
<path id="Vector_33" d="M220.053 259.585C220.056 260.937 219.62 262.255 218.808 263.351C215.479 263.928 212.11 264.261 208.73 264.346C207.919 263.604 207.31 262.677 206.958 261.649C206.607 260.621 206.523 259.524 206.715 258.457C206.908 257.39 207.369 256.386 208.059 255.536C208.749 254.685 209.646 254.015 210.668 253.585C211.69 253.155 212.806 252.979 213.915 253.073C215.025 253.167 216.093 253.527 217.024 254.122C217.954 254.717 218.718 255.528 219.247 256.482C219.776 257.435 220.052 258.502 220.053 259.585V259.585Z" fill="#7F6186"/>
<path id="Vector_34" d="M177.624 265.893C177.624 266.674 177.479 267.449 177.195 268.18C173.512 269.304 169.699 269.973 165.845 270.17C164.762 268.995 164.166 267.471 164.172 265.893C164.171 264.28 164.782 262.724 165.886 261.52C166.99 260.317 168.511 259.552 170.158 259.37V259.37H170.849C171.828 259.367 172.794 259.574 173.681 259.976C174.568 260.378 175.352 260.966 175.978 261.697C176.001 261.692 176.025 261.692 176.048 261.697C177.073 262.867 177.632 264.356 177.624 265.893Z" fill="#7F6186"/>
<path id="Vector_35" d="M203.85 261.858C203.85 261.858 206.048 253.869 213.417 253.142C215.441 252.975 217.471 253.397 219.249 254.355C221.026 255.313 222.47 256.764 223.398 258.522C223.398 258.522 221.559 251.972 215.269 251.636C208.979 251.3 205.011 256.586 203.85 261.858Z" fill="#6C2A51"/>
<path id="Vector_36" d="M179.02 264.965C179.02 264.965 174.389 258.697 167.711 260.19C165.841 260.569 164.122 261.465 162.761 262.77C161.401 264.075 160.455 265.733 160.038 267.547C160.038 267.547 160.674 260.688 167.117 258.778C174.195 256.639 179.02 264.965 179.02 264.965Z" fill="#6C2A51"/>
<g id="Vector_37" style="mix-blend-mode:multiply">
<path d="M177.624 297.245C177.624 297.245 182.172 299.02 194.573 297.864C202.139 297.053 209.082 293.405 213.928 287.695C213.928 287.695 204.734 299.975 197.158 300.823C189.582 301.67 186.472 299.572 182.67 298.563L177.624 297.245Z" fill="#BF7988"/>
</g>
<path id="Vector_38" d="M189.25 298.657C190.404 299.455 191.712 300.016 193.095 300.308C194.478 300.599 195.907 300.614 197.297 300.352C200.073 299.487 202.529 297.851 204.361 295.644C199.557 297.543 194.435 298.564 189.25 298.657Z" fill="#FFE4EC"/>
<path id="Vector_39" style="mix-blend-mode:multiply" d="M210.721 286.848C212.383 286.807 214.022 287.234 215.44 288.079C216.858 288.924 217.994 290.15 218.711 291.609C218.711 291.609 219.638 284.804 210.721 286.848Z" fill="url(#paint19_linear_2_21)"/>
<path id="Vector_40" style="mix-blend-mode:multiply" d="M192.167 303.889C196.354 304.476 200.623 303.725 204.334 301.751C204.334 301.751 202.605 307.871 198.541 308.247C194.476 308.624 192.167 303.889 192.167 303.889Z" fill="url(#paint20_linear_2_21)"/>
<path id="Vector_41" style="mix-blend-mode:multiply" d="M216.845 259.343C216.845 260.022 216.638 260.685 216.25 261.25C215.862 261.814 215.311 262.254 214.666 262.513C214.021 262.772 213.311 262.839 212.627 262.706C211.943 262.572 211.315 262.244 210.822 261.763C210.33 261.282 209.995 260.67 209.86 260.004C209.726 259.338 209.798 258.648 210.067 258.021C210.336 257.395 210.79 256.86 211.371 256.485C211.953 256.109 212.636 255.911 213.334 255.913C214.266 255.917 215.159 256.28 215.817 256.922C216.476 257.565 216.845 258.436 216.845 259.343V259.343Z" fill="url(#paint21_linear_2_21)"/>
<path id="Vector_42" style="mix-blend-mode:multiply" d="M174.416 265.395C174.416 266.074 174.209 266.738 173.821 267.302C173.433 267.867 172.882 268.306 172.237 268.565C171.592 268.825 170.882 268.892 170.198 268.758C169.514 268.625 168.886 268.297 168.393 267.816C167.901 267.335 167.566 266.722 167.432 266.056C167.297 265.39 167.369 264.7 167.638 264.074C167.907 263.447 168.361 262.912 168.942 262.537C169.524 262.162 170.207 261.963 170.905 261.966C171.837 261.969 172.73 262.332 173.389 262.975C174.047 263.618 174.416 264.488 174.416 265.395V265.395Z" fill="url(#paint22_linear_2_21)"/>
<path id="Vector_43" d="M216.223 258.63C216.223 258.63 219.375 257.177 221.407 259.531L216.223 258.63Z" fill="white"/>
<path id="Vector_44" d="M173.075 264.696C173.902 264.341 174.806 264.188 175.707 264.252C176.608 264.315 177.48 264.592 178.246 265.059L173.075 264.696Z" fill="white"/>
<g id="Vector_45" style="mix-blend-mode:multiply">
<path d="M159.776 300.11C164.158 310.009 172.356 318.832 184.135 322.356C191.269 324.481 208.592 322.181 216.845 317.877C221.31 315.597 225.243 312.446 228.4 308.621C231.556 304.796 233.868 300.378 235.191 295.644C235.191 295.644 236.159 304.051 220.868 317.877L221.407 337.487C221.407 337.487 204.942 348.516 197.49 351.408C190.038 354.3 178.757 336.613 178.757 336.613L178.343 321.347C178.343 321.347 163.757 314.394 159.776 300.11Z" fill="#E392AD"/>
</g>
<path id="Vector_46" d="M198.942 239.948C198.942 239.948 201.707 231.488 209.241 231.3L200.463 238.684C200.463 238.684 208.287 232.685 215.67 234.03C218.132 234.931 220.38 236.306 222.281 238.075C224.182 239.843 225.695 241.967 226.73 244.319C217.9 240.927 208.42 239.436 198.942 239.948V239.948Z" fill="url(#paint23_linear_2_21)"/>
<path id="Vector_47" d="M178.895 243.27C178.895 243.27 178.246 237.191 173.96 235.052L177.817 241.67C177.817 241.67 174.375 237.984 172.094 237.406C169.812 236.828 160.951 240.096 156.527 249.632C163.73 246.747 171.229 244.614 178.895 243.27V243.27Z" fill="url(#paint24_linear_2_21)"/>
<g id="Vector_48" style="mix-blend-mode:multiply">
<path d="M176.601 218.199C182.877 217.191 195.956 196.114 209.062 194.42C222.168 192.725 225.845 214.178 223.398 217.285C220.951 220.392 206.628 219.975 206.628 219.975C206.628 219.975 189.223 219.074 183.873 218.253C178.522 217.433 176.601 218.199 176.601 218.199Z" fill="#E392AD"/>
</g>
<path id="Vector_49" style="mix-blend-mode:multiply" d="M224.103 221.481C224.103 221.481 234.043 225.368 239.103 231.3C244.163 237.231 242.712 245.893 242.712 245.893L241.039 252.981C241.039 252.981 243.859 231.058 224.103 221.481Z" fill="url(#paint25_linear_2_21)"/>
<path id="Vector_50" style="mix-blend-mode:multiply" d="M163.647 222.261C163.647 222.261 142.162 232.241 146.365 252.658L148.798 259.531C148.798 259.531 144.25 237.016 163.647 222.261Z" fill="url(#paint26_linear_2_21)"/>
<path id="Vector_51" style="mix-blend-mode:multiply" d="M165.278 220.836C165.278 220.836 151.619 223.27 144.72 234.03C146.557 230.196 149.451 226.933 153.08 224.603C156.71 222.274 160.932 220.97 165.278 220.836Z" fill="url(#paint27_linear_2_21)"/>
<path id="Vector_52" d="M178.246 217.581C178.246 217.581 188.67 206.525 204.361 208.34C220.053 210.156 223.398 221.481 223.398 221.481C223.398 221.481 221.67 204.87 206.601 202.234C191.532 199.598 178.246 217.581 178.246 217.581Z" fill="url(#paint28_linear_2_21)"/>
<path id="Vector_53" d="M231.002 214.232C231.002 214.232 245.007 218.495 245.601 230.291C245.601 230.291 249.514 217.204 231.002 214.232Z" fill="url(#paint29_linear_2_21)"/>
<g id="Vector_54" style="mix-blend-mode:soft-light">
<path d="M185.255 275.12C183.872 277.218 190.108 274.77 194.684 275.12C199.26 275.469 198.831 276.034 199.011 275.12C199.191 274.205 195.596 269.968 191.545 270.601C190.206 270.822 188.939 271.346 187.847 272.131C186.754 272.916 185.866 273.94 185.255 275.12V275.12Z" fill="#E7ECFF"/>
</g>
<path id="Vector_55" style="mix-blend-mode:multiply" d="M190.163 285.57C188.909 284.959 187.801 284.099 186.91 283.044C186.019 281.99 185.366 280.766 184.992 279.451L182.462 280.715C183.282 282.04 184.402 283.166 185.736 284.008C187.071 284.849 188.585 285.383 190.163 285.57V285.57Z" fill="url(#paint30_linear_2_21)"/>
<g id="Vector_56" style="mix-blend-mode:multiply">
<path d="M182.393 253.546C180.527 250.466 163.494 249.255 153.361 259.087C149.213 263.19 153.361 279.262 159.554 283.459C165.748 287.655 177.527 285.275 181.481 276.33C185.435 267.386 184.246 256.626 182.393 253.546ZM165.416 283.459C156.264 283.028 150.209 268.26 154.563 261.508C160.011 252.968 177.831 250.668 179.905 256.223C188.587 279.33 172.605 283.795 165.416 283.459Z" fill="#FFB8CB"/>
</g>
<g id="Vector_57" style="mix-blend-mode:multiply">
<path d="M199.398 250.331C200.78 246.915 219.099 240.594 231.375 248.139C236.504 251.286 234.887 269.054 228.527 274.931C222.748 280.311 210.237 280.473 204.486 272.51C198.734 264.548 198.029 253.748 199.398 250.331ZM222.5 276.142C231.914 273.802 236.325 256.478 230.615 250.762C223.412 243.512 203.601 246.552 202.453 252.443C197.697 276.936 215.103 277.985 222.5 276.142Z" fill="#FFB8CB"/>
</g>
<path id="Vector_58" d="M182.393 252.981C180.527 250.089 163.494 248.946 153.361 258.173C149.213 262.019 153.361 277.003 159.554 281.038C165.748 285.073 177.527 282.732 181.481 274.313C185.435 265.893 184.246 255.873 182.393 252.981ZM165.416 281.011C156.264 280.594 150.209 266.767 154.563 260.446C160.011 252.443 177.831 250.291 179.905 255.483C188.587 277.137 172.605 281.32 165.416 281.011Z" fill="url(#paint31_linear_2_21)"/>
<path id="Vector_59" d="M199.398 249.968C200.78 246.767 219.099 240.849 231.375 247.924C236.504 250.869 234.887 267.507 228.527 273.008C222.748 278.025 210.237 278.2 204.486 270.762C198.734 263.324 198.029 253.169 199.398 249.968ZM222.5 274.178C231.914 271.986 236.325 255.765 230.615 250.399C223.412 243.606 203.601 246.458 202.453 251.972C197.697 274.905 215.103 275.873 222.5 274.151V274.178Z" fill="url(#paint32_linear_2_21)"/>
<path id="Vector_60" d="M183.43 257.473C183.43 257.473 192.555 253.909 200.02 256.72L199.509 252.981C196.796 252.159 193.941 251.881 191.115 252.166C188.289 252.45 185.552 253.29 183.071 254.635L183.43 257.473Z" fill="url(#paint33_linear_2_21)"/>
<path id="Vector_61" d="M236.048 255.483L238.702 261.979L242.034 260.701L237.569 248.879L236.048 255.483Z" fill="url(#paint34_linear_2_21)"/>
<path id="Vector_62" d="M151.978 261.858L148.508 262.948L149.559 266.848L152.144 267.507L151.978 261.858Z" fill="#5143A1"/>
<path id="Vector_63" d="M237.901 255.227L234.403 255.806L232.813 249.336L237.569 248.879L237.901 255.227Z" fill="#5143A1"/>
<g id="Vector_64" style="mix-blend-mode:soft-light">
<path d="M202.882 258.24C202.882 258.24 201.651 268.395 211.384 273.304C215.551 274.229 219.897 274.043 223.965 272.766L218.324 257.541L202.882 258.24Z" fill="#5CF1FF"/>
</g>
<g id="Vector_65" style="mix-blend-mode:soft-light">
<path d="M155.047 264.36C155.047 264.36 154.024 274.501 161.96 279.424C165.362 280.341 168.978 280.152 172.259 278.886L167.67 263.62L155.047 264.36Z" fill="#5CF1FF"/>
</g>
<g id="Vector_66" style="mix-blend-mode:multiply">
<path d="M184.121 263.028C186.236 261.393 188.767 260.346 191.445 259.998C194.122 259.65 196.847 260.014 199.329 261.051L198.444 258.24C196.116 257.214 193.55 256.807 191.007 257.059C188.464 257.312 186.036 258.216 183.969 259.679L184.121 263.028Z" fill="#FEB1C8"/>
</g>
<g id="Vector_67" style="mix-blend-mode:multiply">
<path d="M235.979 286.848C235.979 286.848 238.412 287.4 239.034 289.027C239.656 290.655 235.578 292.551 235.578 292.551L235.979 286.848Z" fill="#FEB1C8"/>
</g>
<g id="Vector_68" style="mix-blend-mode:multiply">
<path d="M158.061 292.551C158.061 292.551 155.296 295.497 155.697 296.586C156.098 297.675 159.25 297.931 159.25 297.931L158.061 292.551Z" fill="#FEB1C8"/>
</g>
<path id="Vector_69" d="M178.246 217.581C185.029 215.74 192.2 215.74 198.983 217.581C210.928 220.54 204.403 227.171 204.403 227.171C204.403 227.171 200.684 213.721 178.246 217.581Z" fill="url(#paint35_linear_2_21)"/>
<g id="Vector_70" style="mix-blend-mode:soft-light">
<path d="M206.628 189.107C207.615 189.574 208.371 190.402 208.732 191.411C209.092 192.419 209.026 193.525 208.55 194.487C209.838 194.199 211.175 194.183 212.47 194.44C213.765 194.698 214.989 195.223 216.057 195.98C215.127 194.707 213.855 193.706 212.38 193.088C210.334 192.456 210.154 189.053 210.154 189.053C208.989 188.813 207.785 188.832 206.628 189.107V189.107Z" fill="white"/>
</g>
<g id="Vector_71" style="mix-blend-mode:soft-light">
<path d="M207.154 202.342C208.44 203.512 204.928 208.408 204.928 208.408L210.873 209.82C210.873 209.82 208.757 207.816 208.965 206.081C209.172 204.346 211.343 203.673 211.343 203.673L207.154 202.342Z" fill="white"/>
</g>
<g id="Vector_72" style="mix-blend-mode:multiply">
<path d="M173.02 357.864C173.02 357.864 175.702 397.932 200.767 399.478C228.748 401.214 230.242 367.373 226.758 353.748C231.942 374.233 227.366 399.922 201.333 400.474C174.651 401.066 173.02 357.864 173.02 357.864Z" fill="#E392AD"/>
</g>
<g id="Vector_73" style="mix-blend-mode:multiply">
<path d="M179.117 350.386C179.117 350.386 178.342 388.409 201.651 387.683C224.089 386.997 223.426 358.51 223.426 358.51L223.688 365.584C223.688 365.584 217.177 394.825 199.633 392.229C182.089 389.633 178.342 360.756 179.117 350.386Z" fill="#E392AD"/>
</g>
<path id="Vector_74" style="mix-blend-mode:multiply" d="M180.029 322.316C180.029 322.316 193.37 373.264 196.384 376.116C199.398 378.967 191.075 327.171 191.075 327.171L180.029 322.316Z" fill="url(#paint36_linear_2_21)"/>
<g id="Vector_75" style="mix-blend-mode:multiply">
<path d="M222.389 340.998L224.103 339.518C224.103 339.518 236.131 359.317 240.32 370.991C244.509 382.666 231.361 525.895 231.361 525.895L216.762 525.451C216.762 525.451 232.398 441.066 235.191 407.777C236.811 387.664 232.621 367.511 223.094 349.592L222.389 340.998Z" fill="#E392AD"/>
</g>
<g id="Vector_76" style="mix-blend-mode:multiply">
<path d="M188.532 525.599C188.532 525.599 167.794 393.144 169.08 376.062C170.365 358.981 179.117 350.386 179.117 350.386L178.978 344.831L173.006 343.553C173.006 343.553 164.891 364.818 163.577 376.17C162.264 387.521 173.02 525.599 173.02 525.599H188.532Z" fill="#E392AD"/>
</g>
<path id="Vector_77" d="M153.457 366.351C153.457 366.351 140.227 380.796 129.748 390.306C129.748 390.306 132.361 396.762 146.338 399.142L134.752 411.893C134.752 411.893 146.504 482.223 161.172 526.056L172.978 525.599C172.978 525.599 162.485 392.606 163.536 376.17C164.587 359.734 172.965 343.553 172.965 343.553C172.965 343.553 164.255 355.08 153.457 366.351Z" fill="url(#paint37_linear_2_21)"/>
<path id="Vector_78" d="M225.652 339.518C225.652 339.518 240.555 362.303 257.325 367.185L275.947 389.969C275.947 389.969 275.823 397.622 255.652 401.536L268.44 416.331C268.44 416.331 260.048 480.891 241.149 525.276L231.361 525.855C231.361 525.855 245.629 394.045 240.804 373.385C238.04 361.253 232.895 349.754 225.652 339.518V339.518Z" fill="url(#paint38_linear_2_21)"/>
<path id="Vector_79" style="mix-blend-mode:multiply" d="M173.075 366.351C173.075 366.351 172.315 411.893 196.799 440.084L173.075 366.351Z" fill="url(#paint39_linear_2_21)"/>
<path id="Vector_80" style="mix-blend-mode:multiply" d="M232.813 370.817C232.813 370.817 238.343 403.971 205.163 424.415C205.163 424.415 227.559 401.442 232.813 370.817Z" fill="url(#paint40_linear_2_21)"/>
<g id="Vector_81" style="mix-blend-mode:multiply">
<path d="M52.77 430.319L56.5995 458.309C56.5995 458.309 79.314 446.54 79.7564 415.269C79.7564 415.269 76.7011 436.345 60.277 446.365L58.3553 420.877L57.2908 419.142L52.77 430.319Z" fill="#E392AD"/>
</g>
<g id="Vector_82" style="mix-blend-mode:multiply">
<path d="M59.0604 407.764L53.8207 408.92C54.8648 405.962 56.5638 403.262 58.7977 401.012L59.0604 407.764Z" fill="#E392AD"/>
</g>
<path id="Vector_83" style="mix-blend-mode:multiply" d="M85.715 287.722C84.3325 294.555 81.056 297.245 81.056 297.245C81.056 297.245 77.9177 313.385 78.1804 316.075C65.8761 318.415 48.7608 327.171 45.0833 331.919C41.71 336.29 44.4612 353.305 44.9174 356.022L41.8206 341.469C40.8114 335.335 40.4381 331.126 40.4381 331.126L39.3874 318.509C41.2123 310.359 46.1064 311.637 46.1064 311.637C46.5746 316.523 47.5001 321.359 48.8714 326.082L49.77 325.49C48.7896 320.294 48.1477 315.042 47.8483 309.767C50.2953 302.894 56.323 304.764 56.323 304.764C57.8023 313.089 59.724 321.495 59.724 321.495C58.065 310.735 59.1986 293.883 59.1986 293.883C61.4659 298.899 68.019 299.666 68.019 299.666C66.7056 305.517 68.019 317.864 68.019 317.864L69.4015 317.07C69.8854 311.112 70.784 304.723 71.89 298.617C81.3739 296.734 85.5076 288.247 85.715 287.722Z" fill="url(#paint41_linear_2_21)"/>
<path id="Vector_84" d="M59.1433 293.896L84.2081 281.011C84.2081 281.011 92.6966 296.707 67.9637 299.666C67.9637 299.666 60.277 301.28 59.1433 293.896Z" fill="url(#paint42_linear_2_21)"/>
<path id="Vector_85" d="M50.558 305.382L67.8393 293.977C67.8393 293.977 71.7656 299.357 68.3093 304.414C65.337 308.731 55.6042 312.86 47.9175 311.139C47.9175 311.206 46.9221 308.166 50.558 305.382Z" fill="url(#paint43_linear_2_21)"/>
<path id="Vector_86" d="M45.6225 311.314L60.83 310.157C60.83 310.157 61.4245 318.227 53.5442 319.209C48.8737 319.934 44.0879 319.385 39.7192 317.622C39.6149 316.817 39.6911 316 39.9426 315.227C40.194 314.454 40.6149 313.743 41.176 313.144C41.7371 312.544 42.4252 312.07 43.1929 311.754C43.9605 311.438 44.7894 311.288 45.6225 311.314Z" fill="url(#paint44_linear_2_21)"/>
<path id="Vector_87" d="M75.3324 285.57C71.8347 287.373 77.4615 286.915 80.2126 285.57C81.0809 283.718 82.4649 282.138 84.2081 281.011L75.3324 285.57Z" fill="#FFE4DB"/>
<path id="Vector_88" d="M67.8393 293.977C67.8393 293.977 62.807 297.151 62.0328 300.217C62.0328 300.217 55.3968 303.54 57.1387 301.374C58.8807 299.209 67.8393 293.977 67.8393 293.977Z" fill="#FFE4DB"/>
<path id="Vector_89" d="M60.9268 310.157C60.9268 310.157 57.747 309.74 55.2585 313.372C55.2585 313.372 49.3138 313.735 50.3645 311.879C51.4152 310.022 60.9268 310.157 60.9268 310.157Z" fill="#FFE4DB"/>
<path id="Vector_90" style="mix-blend-mode:multiply" d="M92.0607 357.864C92.0607 357.864 74.42 368.221 70.0651 373.318C68.1553 375.402 66.4041 377.618 64.8254 379.949L77.0467 372.807C77.0467 372.807 82.1067 367.185 92.0607 357.864Z" fill="url(#paint45_linear_2_21)"/>
<path id="Vector_91" style="mix-blend-mode:multiply" d="M79.8808 336.411C79.8808 336.411 64.466 339.007 63.595 356.331C63.595 356.331 63.512 331.69 79.7702 335.107L79.8808 336.411Z" fill="url(#paint46_linear_2_21)"/>
<path id="Vector_92" style="mix-blend-mode:multiply" opacity="0.5" d="M89.0468 327.239C90.139 330.332 101.019 322.316 101.019 322.316C101.019 322.316 92.5722 333.479 93.3326 344.441C93.3326 344.441 90.9823 337.555 84.8855 336.788C80.7563 336.491 76.6258 337.35 72.9822 339.263C75.1453 338.017 77.4701 337.058 79.8947 336.411C79.8947 336.411 86.7242 332.538 89.0468 327.239Z" fill="url(#paint47_linear_2_21)"/>
<g id="Vector_93" style="mix-blend-mode:multiply">
<path d="M58.8807 403.904C65.7506 402.807 72.0995 399.657 77.0467 394.892C77.0467 394.892 69.8854 404.67 59.0742 407.764L58.8807 403.904Z" fill="#FEB1C8"/>
</g>
<path id="Vector_94" style="mix-blend-mode:multiply" opacity="0.8" d="M114.195 401.348C114.195 401.348 127.204 428.786 130.854 459.183C130.854 459.183 133.453 413.574 114.195 385.665V401.348Z" fill="url(#paint48_linear_2_21)"/>
<path id="Vector_95" style="mix-blend-mode:multiply" opacity="0.8" d="M89.1851 441.537C89.1851 441.537 105.941 461.927 106.992 485.922C106.992 485.922 112.231 449.472 90.0837 440.124L89.1851 441.537Z" fill="url(#paint49_linear_2_21)"/>
<path id="Vector_96" style="mix-blend-mode:multiply" opacity="0.8" d="M40.4658 469.055C40.4658 469.055 63.3323 466.002 77.0467 442.559C77.0467 442.559 73.7287 469.566 52.2447 474.408L40.4658 469.055Z" fill="url(#paint50_linear_2_21)"/>
<path id="Vector_97" style="mix-blend-mode:multiply" opacity="0.8" d="M83.0329 421.402C83.0329 421.402 88.397 454.274 92.0607 478.995C95.7243 503.716 94.1621 507.065 94.1621 507.065C94.1621 507.065 95.9731 493.454 93.374 468.571C91.5485 452.553 88.0843 436.751 83.0329 421.402V421.402Z" fill="url(#paint51_linear_2_21)"/>
<g id="Vector_98" style="mix-blend-mode:multiply">
<path d="M130.854 473.722L129.789 450.05C129.789 450.05 137.462 508.222 152.13 525.801L156.858 522.828C156.858 522.828 149.946 489.472 143.891 459.116L161.213 526.056L138.167 525.895C138.167 525.895 132.623 489.701 130.854 473.722Z" fill="#E392AD"/>
</g>
<path id="Vector_99" style="mix-blend-mode:multiply" opacity="0.8" d="M302.408 381.119C302.408 381.119 284.933 405.181 282.542 434.57C282.542 434.57 289.053 408.409 302.408 395.148V381.119Z" fill="url(#paint52_linear_2_21)"/>
<path id="Vector_100" style="mix-blend-mode:multiply" opacity="0.8" d="M294.293 421.402C294.293 421.402 296.906 467.522 291.403 493.521H287.477C287.477 493.521 298.219 458.86 294.293 421.402Z" fill="url(#paint53_linear_2_21)"/>
<path id="Vector_101" style="mix-blend-mode:multiply" opacity="0.8" d="M280.233 476.412L282.542 446.379C282.542 446.379 274.122 506.137 261.016 525.182H271.813C271.813 525.182 279.154 498.524 280.233 476.412Z" fill="url(#paint54_linear_2_21)"/>
<path id="Vector_102" style="mix-blend-mode:multiply" opacity="0.8" d="M292.482 498.188C292.482 498.188 299.394 484.213 311.228 481.779C323.063 479.345 346.413 485.814 346.413 485.814C344.403 481.33 340.942 477.606 336.558 475.21C332.174 472.814 327.105 471.876 322.122 472.539C303.956 474.583 301.164 483.299 297.583 488.598C294.002 493.897 291.735 494.624 291.735 494.624L292.482 498.188Z" fill="url(#paint55_linear_2_21)"/>
<path id="Vector_103" style="mix-blend-mode:multiply" opacity="0.8" d="M301.537 488.343C301.537 488.343 310.523 481.618 326.339 483.837C342.155 486.056 345.694 489.217 345.694 489.217C345.694 489.217 321.528 480.528 301.537 488.343Z" fill="url(#paint56_linear_2_21)"/>
<path id="Vector_104" style="mix-blend-mode:multiply" d="M285.32 486.285C285.32 486.285 294.887 449.687 288.956 416.345C288.956 416.345 279.804 424.684 280.233 476.453L285.32 486.285Z" fill="url(#paint57_linear_2_21)"/>
<g id="Vector_105" style="mix-blend-mode:multiply">
<path d="M246.348 525.182C246.348 525.182 262.938 470.481 262.799 424.415C262.799 424.415 257.435 482.156 241.149 525.29L246.348 525.182Z" fill="#E392AD"/>
</g>
<path id="Vector_106" d="M306.072 493.521L307.91 506.904C307.91 506.904 325.537 509.378 325.758 509.029C325.98 508.679 325.758 491.234 325.758 491.234L306.072 493.521Z" fill="url(#paint58_linear_2_21)"/>
<path id="Vector_107" d="M325.897 486.984C301.274 483.245 292.717 499.21 292.717 499.21L295.855 512.889C325.15 530.522 367.607 526.42 367.607 526.42C367.607 526.42 350.519 490.723 325.897 486.984ZM297.431 510.347L296.38 501.927C296.38 501.927 299.145 487.751 323.629 489.822C342.832 491.423 362.519 522.963 362.519 522.963C324.417 529.123 297.431 510.347 297.431 510.347Z" fill="url(#paint59_linear_2_21)"/>
<path id="Vector_108" d="M298.426 509.029C298.426 509.029 283.067 515.942 280.094 518.444C279.646 520.138 279.646 521.915 280.094 523.609C280.924 525.707 286.827 525.707 290.353 524.563C293.878 523.42 299.132 513.978 299.132 513.978L298.426 509.029Z" fill="url(#paint60_linear_2_21)"/>
<path id="Vector_109" d="M289.883 526.567C289.883 526.567 294.459 506.392 309.238 500.111C324.017 493.83 343.662 512.458 344.533 526.904L289.883 526.567Z" fill="url(#paint61_linear_2_21)"/>
<g id="Vector_110" style="mix-blend-mode:multiply">
<path d="M291.943 520.313H309.044C309.044 520.313 311.588 506.177 316.205 499.13C316.205 499.13 300.417 498.255 291.943 520.313Z" fill="#E392AD"/>
</g>
<g id="Vector_111" style="mix-blend-mode:multiply">
<path d="M299.007 508.047C304.498 506.321 310.38 506.143 315.97 507.536C325.648 509.809 339.722 523.756 340.855 524.362C341.934 524.8 343.062 525.116 344.215 525.303C344.215 525.303 340.33 505.29 324.348 500.017C308.367 494.745 299.007 508.047 299.007 508.047Z" fill="#BFA1BC"/>
</g>
<g id="Vector_112" style="mix-blend-mode:multiply">
<path d="M313.689 520.313C313.689 520.313 314.809 505.881 317.698 500.017C317.698 500.017 326.464 501.255 330.874 504.496L329.906 520.636L313.689 520.313Z" fill="#E392AD"/>
</g>
<path id="Vector_113" d="M347.118 511.705C347.118 515.189 345.127 519.775 344.27 521.564L343.911 522.277C338.588 523.044 337.607 519.291 337.607 519.291L338.906 516.601C338.193 517.02 337.375 517.241 336.542 517.241C335.709 517.241 334.891 517.02 334.178 516.601C331.551 515.135 329.505 510.549 329.505 510.549L330.459 506.917C330.11 507.388 329.732 507.837 329.325 508.262C329.015 508.612 328.646 508.908 328.233 509.136C327.279 509.553 319.593 507.603 318.805 506.029C318.463 504.492 318.384 502.911 318.569 501.349V501.349C318.722 498.403 319.095 495.229 319.095 495.229L316.178 494.718C315.046 497.149 313.616 499.439 311.92 501.537V501.537C311.78 501.671 311.632 501.796 311.477 501.914C308.579 503.487 305.572 504.862 302.477 506.029C298.122 504.483 297.721 501.456 297.998 499.479C298.083 498.818 298.26 498.171 298.523 497.556C302.021 492.795 302.311 486.056 307.91 486.191C313.51 486.325 315.749 489.607 315.749 489.607C316.825 489.99 317.963 490.186 319.109 490.185C321.836 489.509 324.701 489.555 327.404 490.32C331.358 491.665 333.749 496.641 333.749 496.641C333.749 496.641 340.123 500.044 341.256 501.658C342.39 503.272 342.044 507.939 342.044 507.939C344.588 508.558 347.118 511.705 347.118 511.705Z" fill="url(#paint62_linear_2_21)"/>
<g id="Vector_114" style="mix-blend-mode:multiply">
<path d="M255.652 401.536L241.827 393.238C246.926 395.143 251.615 397.957 255.652 401.536V401.536Z" fill="#E392AD"/>
</g>
<g id="Vector_115" style="mix-blend-mode:multiply">
<path d="M146.379 399.142C146.379 399.142 157.287 389.794 163.716 388.382C157.657 391.523 151.86 395.12 146.379 399.142V399.142Z" fill="#E392AD"/>
</g>
<path id="Vector_116" d="M124.702 526.42C124.702 526.42 110.669 468.813 106.605 425.545C106.605 425.545 209.255 411.314 286.095 419.398C286.095 419.398 282.777 476.856 274.177 526.406L124.702 526.42Z" fill="url(#paint63_linear_2_21)"/>
<g id="Vector_117" style="mix-blend-mode:soft-light" opacity="0.5">
<path d="M205.163 419.505L124.701 526.42H190.163L262.799 419.505C262.799 419.505 228.679 416.95 205.163 419.505Z" fill="white"/>
</g>
<path id="Vector_118" d="M106.605 425.558L109.701 421.066C109.701 421.066 196.799 408.678 281.131 416.506L286.067 419.411C286.067 419.411 186.638 415.013 106.605 425.558Z" fill="url(#paint64_linear_2_21)"/>
<path id="Vector_119" d="M177.997 480.999C177.997 480.999 189.541 462.169 208.647 460.057C208.647 460.057 206.808 472.472 177.997 480.999Z" fill="white"/>
<path id="Vector_120" d="M255.652 414.717V418.752L225.652 418.537V413.924C225.652 413.924 247.924 414.26 255.652 414.717Z" fill="white"/>
<path id="Vector_121" d="M119.061 419.896V424.011L141.098 421.953L142.093 417.528C142.093 417.528 125.089 419.156 119.061 419.896Z" fill="white"/>
<g id="Vector_122" style="mix-blend-mode:multiply">
<path d="M122.586 517.341C122.586 517.341 134.683 524.214 196.799 525.317C258.915 526.42 275.214 520.286 275.214 520.286L274.177 526.42H124.701L122.586 517.341Z" fill="#EBC2D4"/>
</g>
<g id="Vector_123" style="mix-blend-mode:multiply">
<path d="M311.864 501.685C311.724 501.819 311.577 501.944 311.422 502.062C308.523 503.635 305.516 505.01 302.422 506.177C298.067 504.631 297.666 501.604 297.943 499.627C300.058 500.703 310.537 498.39 311.588 498.901C312.639 499.412 311.864 501.685 311.864 501.685Z" fill="#E392AD"/>
</g>
<g id="Vector_124" style="mix-blend-mode:multiply">
<path d="M330.417 505.048C330.282 506.222 329.891 507.354 329.27 508.37C328.96 508.72 328.591 509.015 328.178 509.244C327.224 509.661 319.537 507.711 318.749 506.137C318.408 504.6 318.329 503.019 318.514 501.456V501.456C318.514 501.456 322.662 498.766 325.841 500.044C329.021 501.322 330.417 503.138 330.417 505.048Z" fill="#E392AD"/>
</g>
<g id="Vector_125" style="mix-blend-mode:multiply">
<path d="M340.192 513.279C340.122 514.509 339.663 515.688 338.878 516.655V516.655C338.165 517.074 337.348 517.295 336.514 517.295C335.681 517.295 334.864 517.074 334.15 516.655C331.523 515.189 329.477 510.602 329.477 510.602C329.92 508.908 332.242 508.114 335.007 509.325C336.976 510.313 338.735 511.655 340.192 513.279Z" fill="#E392AD"/>
</g>
<g id="Vector_126" style="mix-blend-mode:multiply">
<path d="M344.242 521.564C344.235 521.7 344.2 521.834 344.138 521.956C344.076 522.079 343.989 522.188 343.883 522.277V522.277C338.56 523.044 337.579 519.291 337.579 519.291C338.215 517.946 341.104 517.825 342.68 518.78C343.173 519.066 343.577 519.475 343.852 519.964C344.127 520.454 344.262 521.007 344.242 521.564V521.564Z" fill="#E392AD"/>
</g>
<g id="Vector_127" style="mix-blend-mode:multiply">
<path d="M280.095 523.662C281.32 524.34 282.691 524.727 284.099 524.792C285.506 524.857 286.91 524.599 288.196 524.039C292.979 522.196 289.426 513.521 289.426 513.521L297.998 509.338C297.998 509.338 291.708 518.686 290.325 524.617C290.325 524.617 282.03 526.917 280.095 523.662Z" fill="#E392AD"/>
</g>
<path id="Vector_128" d="M299.132 498.067C302.291 496.904 305.708 496.565 309.044 497.085C309.044 497.085 307.662 493.131 304.095 493.521C300.528 493.911 299.132 498.067 299.132 498.067Z" fill="#FFE4DB"/>
<path id="Vector_129" d="M323.228 498.78C323.228 498.78 328.869 498.551 330.763 501.47C330.763 501.47 329.063 496.561 326.699 496.762C326.002 496.826 325.33 497.041 324.729 497.39C324.129 497.739 323.616 498.214 323.228 498.78V498.78Z" fill="#FFE4DB"/>
<path id="Vector_130" d="M334.814 507.724C334.814 507.724 339.072 508.935 340.192 511.678C340.192 511.678 340.192 506.581 338.229 506.137C336.265 505.693 334.814 507.724 334.814 507.724Z" fill="#FFE4DB"/>
<path id="Vector_131" d="M340.924 517.206C340.924 517.206 343.579 517.758 344.284 518.874C344.284 518.874 345.362 515.377 343.662 514.933C341.961 514.489 340.924 517.206 340.924 517.206Z" fill="#FFE4DB"/>
<path id="Vector_132" style="mix-blend-mode:multiply" d="M333.666 496.749C332.931 500.255 331.833 503.68 330.39 506.971C332.94 504.355 334.501 500.973 334.814 497.381L333.666 496.749Z" fill="url(#paint65_linear_2_21)"/>
<path id="Vector_133" style="mix-blend-mode:multiply" d="M341.961 508.047L339.694 515.35C339.694 515.35 344.491 513.171 343.703 508.733L341.961 508.047Z" fill="url(#paint66_linear_2_21)"/>
<g id="Vector_134" style="mix-blend-mode:multiply">
<path d="M313.385 499.681L315.68 489.715L316.662 489.997L316.122 494.799L319.04 495.31L318.666 499.13C318.666 499.13 314.657 498.82 313.385 499.681Z" fill="#E392AD"/>
</g>
<g id="Vector_135" style="mix-blend-mode:multiply">
<path d="M255.652 401.536C255.652 401.536 269.933 397.273 275.947 389.969C275.947 389.969 273.279 402.437 257.974 404.146L255.652 401.536Z" fill="#E392AD"/>
</g>
<g id="Vector_136" style="mix-blend-mode:multiply">
<path d="M129.789 390.306C129.789 390.306 128.669 399.115 143.379 402.411L147.927 397.838C141.365 396.722 135.157 394.144 129.789 390.306V390.306Z" fill="#E392AD"/>
</g>
<path id="Vector_137" style="mix-blend-mode:multiply" opacity="0.5" d="M236.96 353.358C236.96 353.358 245.048 371.287 250.785 377.138C256.523 382.989 272.353 385.598 272.353 385.598L257.325 367.185C257.325 367.185 246.458 364.643 236.96 353.358Z" fill="url(#paint67_linear_2_21)"/>
<path id="Vector_138" style="mix-blend-mode:multiply" opacity="0.5" d="M169.84 347.561C169.84 347.561 163.702 362.787 159.776 375.269C155.849 387.75 138.844 389.297 138.844 389.297C138.844 389.297 157.246 360.756 169.84 347.561Z" fill="url(#paint68_linear_2_21)"/>
<g id="Vector_139" style="mix-blend-mode:multiply">
<path d="M48.9958 368.422L60.9268 375.013L57.4843 375.282L49.6041 369.875L48.9958 368.422Z" fill="#FEB1C8"/>
</g>
<path id="Vector_140" style="mix-blend-mode:multiply" opacity="0.5" d="M51.7193 340.702C54.3046 334.246 71.0743 326.378 74.8209 327.763C78.5675 329.148 77.5029 337.487 77.5029 337.487C77.5029 337.487 67.3416 338.483 63.6779 353.775C63.6779 353.775 58.8807 358.658 55.5488 355.968C52.217 353.278 51.7193 340.702 51.7193 340.702Z" fill="url(#paint69_linear_2_21)"/>
<g id="Vector_141" style="mix-blend-mode:soft-light" opacity="0.2">
<path d="M302.408 395.148C306.107 410.489 311.068 425.516 317.242 440.084C327.943 465.841 354.763 488.06 354.763 488.06C354.763 488.06 324.376 426.742 302.408 395.148Z" fill="white"/>
</g>
<g id="Vector_142" style="mix-blend-mode:soft-light" opacity="0.2">
<path d="M262.799 369.472C265.653 373.643 269.129 377.378 273.113 380.554C278.878 384.791 296.339 389.969 296.339 389.969L302.408 381.119C295.178 378.041 287.719 375.501 280.095 373.52C269.062 370.83 262.799 369.472 262.799 369.472Z" fill="white"/>
</g>
<g id="Vector_143" style="mix-blend-mode:soft-light" opacity="0.2">
<path d="M114.195 385.598C116.475 389.303 118.543 393.129 120.388 397.057C120.388 397.057 128.172 389.727 133.052 384.791C135.865 382.002 138.199 378.792 139.964 375.282C132.029 377.945 118.563 381.805 114.195 385.598Z" fill="white"/>
</g>
<path id="Vector_144" style="mix-blend-mode:multiply" d="M203.227 239.719C205.399 238.042 207.894 236.805 210.566 236.082C213.237 235.358 216.031 235.164 218.781 235.51C213.397 236.087 208.144 237.508 203.227 239.719V239.719Z" fill="url(#paint70_linear_2_21)"/>
<path id="Vector_145" style="mix-blend-mode:multiply" d="M206.145 239.719C206.145 239.719 216.9 236.33 223.398 239.329C217.703 238.066 211.774 238.2 206.145 239.719V239.719Z" fill="url(#paint71_linear_2_21)"/>
<path id="Vector_146" style="mix-blend-mode:multiply" d="M178.246 243.445C178.246 243.445 172.826 237.729 167.78 238.361L178.246 243.445Z" fill="url(#paint72_linear_2_21)"/>
<path id="Vector_147" style="mix-blend-mode:multiply" d="M176.601 243.66C176.601 243.66 168.665 237.89 161.96 242.1C161.96 242.1 167.78 239.41 176.601 243.66Z" fill="url(#paint73_linear_2_21)"/>
<path id="Vector_148" style="mix-blend-mode:multiply" d="M69.7333 299.424C69.7503 297.453 69.083 295.533 67.8393 293.977C68.741 294.558 69.493 295.334 70.0372 296.243C70.5814 297.153 70.9031 298.172 70.9776 299.222L69.7333 299.424Z" fill="url(#paint74_linear_2_21)"/>
<path id="Vector_149" style="mix-blend-mode:multiply" d="M59.5996 310.144L47.9174 311.206C47.9174 311.206 51.7332 309.632 59.5996 310.144Z" fill="url(#paint75_linear_2_21)"/>
</g>
<g id="luz">
<path id="Vector_150" opacity="0.36" fill-rule="evenodd" clip-rule="evenodd" d="M368.895 178.165L272.388 538H553L464.97 183.587" fill="#FFFC80"/>
</g>
<g id="lamparaconluz">
<g id="lampara">
<path id="Vector_151" fill-rule="evenodd" clip-rule="evenodd" d="M355.998 189.806C355.998 189.806 398.432 198.417 486.443 190.199C486.427 190.199 438.776 165.716 355.998 189.806Z" fill="url(#paint76_linear_2_21)"/>
<path id="Vector_152" fill-rule="evenodd" clip-rule="evenodd" d="M371.573 85.5091L373.946 78.865C373.946 78.865 415.138 56.5588 467.332 78.865L468.29 85.5091C468.29 85.5091 410.911 72.4597 371.573 85.5091Z" fill="url(#paint77_linear_2_21)"/>
<path id="Vector_153" fill-rule="evenodd" clip-rule="evenodd" d="M428.557 527L418 137H423.355L437 527H428.557Z" fill="url(#paint78_linear_2_21)"/>
<path id="Vector_154" fill-rule="evenodd" clip-rule="evenodd" d="M355.998 189.806L371.573 85.5091C371.573 85.5091 419.932 65.352 468.29 85.5091L486.427 190.199C486.427 190.199 423.075 171.068 355.998 189.806Z" fill="url(#paint79_linear_2_21)"/>
<g id="Vector_155" style="mix-blend-mode:soft-light">
<path fill-rule="evenodd" clip-rule="evenodd" d="M382.433 81.9552V75.283L394.99 71.673V79.0616L382.433 81.9552Z" fill="white"/>
</g>
<path id="Vector_156" fill-rule="evenodd" clip-rule="evenodd" d="M361.845 150.686C361.845 150.686 428.733 128.787 480.533 156.192L475.017 124.433C475.017 124.433 429 104.964 364.847 130.585L361.845 150.686Z" fill="url(#paint80_linear_2_21)"/>
<path id="Vector_157" fill-rule="evenodd" clip-rule="evenodd" d="M359.613 165.603C359.613 165.603 424.049 143.325 482.199 165.603L486.458 190.199C486.458 190.199 435.931 172.95 356.014 189.806L359.613 165.603Z" fill="url(#paint81_linear_2_21)"/>
<path id="Vector_158" fill-rule="evenodd" clip-rule="evenodd" d="M400.208 182.993L398.416 250.024H402.33L403.178 182.783L400.208 182.993Z" fill="url(#paint82_linear_2_21)"/>
<path id="Vector_159" style="mix-blend-mode:multiply" opacity="0.3" fill-rule="evenodd" clip-rule="evenodd" d="M355.998 189.806C355.998 189.806 409.056 177.585 435.742 162.654C452.669 153.186 449.887 72.8389 449.887 72.8389L467.395 78.865L486.49 190.199C486.49 190.199 441.683 172.95 355.998 189.806Z" fill="url(#paint83_linear_2_21)"/>
</g>
</g>
<path id="escritorio" d="M553 526.42H0V538H553V526.42Z" fill="url(#paint84_linear_2_21)"/>
</g>
<defs>
<linearGradient id="paint0_linear_2_21" x1="193.578" y1="327.817" x2="193.578" y2="209.82" gradientUnits="userSpaceOnUse">
<stop stop-color="#FFB595"/>
<stop offset="0.98" stop-color="#FFC2A9"/>
</linearGradient>
<linearGradient id="paint1_linear_2_21" x1="201.209" y1="397.864" x2="201.209" y2="317.877" gradientUnits="userSpaceOnUse">
<stop offset="0.02" stop-color="#FFA67F"/>
<stop offset="1" stop-color="#FF8B7C"/>
</linearGradient>
<linearGradient id="paint2_linear_2_21" x1="195.403" y1="253.21" x2="195.403" y2="213.384" gradientUnits="userSpaceOnUse">
<stop offset="0.02" stop-color="white"/>
<stop offset="0.99" stop-color="#F29DC8"/>
</linearGradient>
<linearGradient id="paint3_linear_2_21" x1="242.103" y1="292.551" x2="242.103" y2="260.002" gradientUnits="userSpaceOnUse">
<stop offset="0.02" stop-color="#FFA67F"/>
<stop offset="1" stop-color="#FF8B7C"/>
</linearGradient>
<linearGradient id="paint4_linear_2_21" x1="151.978" y1="297.864" x2="151.978" y2="268.328" gradientUnits="userSpaceOnUse">
<stop offset="0.02" stop-color="#FFA67F"/>
<stop offset="1" stop-color="#FF8B7C"/>
</linearGradient>
<linearGradient id="paint5_linear_2_21" x1="242.034" y1="285.866" x2="242.034" y2="266.243" gradientUnits="userSpaceOnUse">
<stop offset="0.02" stop-color="white"/>
<stop offset="0.99" stop-color="#F29DC8"/>
</linearGradient>
<linearGradient id="paint6_linear_2_21" x1="152.13" y1="291.609" x2="152.13" y2="274.326" gradientUnits="userSpaceOnUse">
<stop offset="0.02" stop-color="white"/>
<stop offset="0.99" stop-color="#F29DC8"/>
</linearGradient>
<linearGradient id="paint7_linear_2_21" x1="199.025" y1="274.165" x2="185.935" y2="189.224" gradientUnits="userSpaceOnUse">
<stop stop-color="#3E2987"/>
<stop offset="0.57" stop-color="#2C2F90"/>
<stop offset="1" stop-color="#243294"/>
</linearGradient>
<linearGradient id="paint8_linear_2_21" x1="201.333" y1="525.882" x2="201.333" y2="349.579" gradientUnits="userSpaceOnUse">
<stop stop-color="#FF6686"/>
<stop offset="1" stop-color="#FF7C89"/>
</linearGradient>
<linearGradient id="paint9_linear_2_21" x1="208.301" y1="525.882" x2="208.301" y2="339.518" gradientUnits="userSpaceOnUse">
<stop stop-color="#2B2583"/>
<stop offset="1" stop-color="#482C97"/>
</linearGradient>
<linearGradient id="paint10_linear_2_21" x1="87.6228" y1="526.42" x2="87.6228" y2="385.598" gradientUnits="userSpaceOnUse">
<stop stop-color="#26258A"/>
<stop offset="1" stop-color="#3C2C95"/>
</linearGradient>
<linearGradient id="paint11_linear_2_21" x1="74.8209" y1="407.764" x2="74.8209" y2="267.211" gradientUnits="userSpaceOnUse">
<stop offset="0.02" stop-color="#FFC2A0"/>
<stop offset="1" stop-color="#FFA195"/>
</linearGradient>
<linearGradient id="paint12_linear_2_21" x1="66.277" y1="455.942" x2="66.277" y2="391.355" gradientUnits="userSpaceOnUse">
<stop stop-color="#FF6686"/>
<stop offset="1" stop-color="#FF7C89"/>
</linearGradient>
<linearGradient id="paint13_linear_2_21" x1="323.851" y1="526.42" x2="323.851" y2="381.119" gradientUnits="userSpaceOnUse">
<stop stop-color="#26258A"/>
<stop offset="1" stop-color="#3C2C95"/>
</linearGradient>
<linearGradient id="paint14_linear_2_21" x1="198.804" y1="235.631" x2="202.744" y2="235.631" gradientUnits="userSpaceOnUse">
<stop stop-color="#8453B8"/>
<stop offset="0.23" stop-color="#7755BA"/>
<stop offset="0.7" stop-color="#6157BC"/>
<stop offset="1" stop-color="#5958BD"/>
</linearGradient>
<linearGradient id="paint15_linear_2_21" x1="191.877" y1="276.64" x2="191.877" y2="239.719" gradientUnits="userSpaceOnUse">
<stop offset="0.02" stop-color="white"/>
<stop offset="0.99" stop-color="#F29DC8"/>
</linearGradient>
<linearGradient id="paint16_linear_2_21" x1="160.799" y1="260.446" x2="179.269" y2="260.446" gradientUnits="userSpaceOnUse">
<stop offset="0.02" stop-color="white"/>
<stop offset="0.99" stop-color="#EA9DC8"/>
</linearGradient>
<linearGradient id="paint17_linear_2_21" x1="203.85" y1="255.227" x2="222.099" y2="255.227" gradientUnits="userSpaceOnUse">
<stop offset="0.02" stop-color="white"/>
<stop offset="0.99" stop-color="#EA9DC8"/>
</linearGradient>
<linearGradient id="paint18_linear_2_21" x1="199.633" y1="277.124" x2="206.601" y2="277.124" gradientUnits="userSpaceOnUse">
<stop offset="0.02" stop-color="white"/>
<stop offset="0.99" stop-color="#EA9DC8"/>
</linearGradient>
<linearGradient id="paint19_linear_2_21" x1="210.721" y1="289.027" x2="218.739" y2="289.027" gradientUnits="userSpaceOnUse">
<stop offset="0.02" stop-color="white"/>
<stop offset="0.99" stop-color="#F29DC8"/>
</linearGradient>
<linearGradient id="paint20_linear_2_21" x1="198.278" y1="308.274" x2="198.278" y2="301.751" gradientUnits="userSpaceOnUse">
<stop offset="0.02" stop-color="white"/>
<stop offset="0.99" stop-color="#F29DC8"/>
</linearGradient>
<linearGradient id="paint21_linear_2_21" x1="213.334" y1="262.773" x2="213.334" y2="255.913" gradientUnits="userSpaceOnUse">
<stop offset="0.02" stop-color="#E0B3D1"/>
<stop offset="0.99" stop-color="#C2798B"/>
</linearGradient>
<linearGradient id="paint22_linear_2_21" x1="170.905" y1="268.825" x2="170.905" y2="261.966" gradientUnits="userSpaceOnUse">
<stop offset="0.02" stop-color="#E0B3D1"/>
<stop offset="0.99" stop-color="#C2798B"/>
</linearGradient>
<linearGradient id="paint23_linear_2_21" x1="212.781" y1="244.292" x2="212.781" y2="231.3" gradientUnits="userSpaceOnUse">
<stop stop-color="#B877B8"/>
<stop offset="0.23" stop-color="#9A6DBA"/>
<stop offset="0.56" stop-color="#7762BB"/>
<stop offset="0.83" stop-color="#615BBD"/>
<stop offset="1" stop-color="#5958BD"/>
</linearGradient>
<linearGradient id="paint24_linear_2_21" x1="167.711" y1="249.632" x2="167.711" y2="235.052" gradientUnits="userSpaceOnUse">
<stop stop-color="#B877B8"/>
<stop offset="0.23" stop-color="#9A6DBA"/>
<stop offset="0.56" stop-color="#7762BB"/>
<stop offset="0.83" stop-color="#615BBD"/>
<stop offset="1" stop-color="#5958BD"/>
</linearGradient>
<linearGradient id="paint25_linear_2_21" x1="224.103" y1="237.231" x2="242.905" y2="237.231" gradientUnits="userSpaceOnUse">
<stop offset="0.02" stop-color="white"/>
<stop offset="0.99" stop-color="#C2798B"/>
</linearGradient>
<linearGradient id="paint26_linear_2_21" x1="145.826" y1="240.89" x2="163.647" y2="240.89" gradientUnits="userSpaceOnUse">
<stop offset="0.01" stop-color="#C2798B"/>
<stop offset="0.98" stop-color="white"/>
</linearGradient>
<linearGradient id="paint27_linear_2_21" x1="144.72" y1="227.44" x2="165.278" y2="227.44" gradientUnits="userSpaceOnUse">
<stop offset="0.01" stop-color="#C2798B"/>
<stop offset="0.98" stop-color="white"/>
</linearGradient>
<linearGradient id="paint28_linear_2_21" x1="201.693" y1="224.83" x2="198.26" y2="202.568" gradientUnits="userSpaceOnUse">
<stop stop-color="#3E2987"/>
<stop offset="0.57" stop-color="#2C2F90"/>
<stop offset="1" stop-color="#243294"/>
</linearGradient>
<linearGradient id="paint29_linear_2_21" x1="238.424" y1="231.236" x2="239.368" y2="216.055" gradientUnits="userSpaceOnUse">
<stop stop-color="#3E2987"/>
<stop offset="0.57" stop-color="#2C2F90"/>
<stop offset="1" stop-color="#243294"/>
</linearGradient>
<linearGradient id="paint30_linear_2_21" x1="182.462" y1="282.517" x2="190.163" y2="282.517" gradientUnits="userSpaceOnUse">
<stop offset="0.02" stop-color="white"/>
<stop offset="0.99" stop-color="#D172A6"/>
</linearGradient>
<linearGradient id="paint31_linear_2_21" x1="167.918" y1="282.907" x2="167.918" y2="250.91" gradientUnits="userSpaceOnUse">
<stop stop-color="#26258A"/>
<stop offset="1" stop-color="#3C2C95"/>
</linearGradient>
<linearGradient id="paint32_linear_2_21" x1="220.788" y1="276.33" x2="214.754" y2="244.395" gradientUnits="userSpaceOnUse">
<stop stop-color="#26258A"/>
<stop offset="1" stop-color="#3C2C95"/>
</linearGradient>
<linearGradient id="paint33_linear_2_21" x1="191.601" y1="257.473" x2="191.601" y2="252.066" gradientUnits="userSpaceOnUse">
<stop stop-color="#26258A"/>
<stop offset="1" stop-color="#3C2C95"/>
</linearGradient>
<linearGradient id="paint34_linear_2_21" x1="239.034" y1="261.966" x2="239.034" y2="248.879" gradientUnits="userSpaceOnUse">
<stop stop-color="#26258A"/>
<stop offset="1" stop-color="#3C2C95"/>
</linearGradient>
<linearGradient id="paint35_linear_2_21" x1="193.591" y1="228.771" x2="191.508" y2="215.263" gradientUnits="userSpaceOnUse">
<stop stop-color="#3E2987"/>
<stop offset="0.57" stop-color="#2C2F90"/>
<stop offset="1" stop-color="#243294"/>
</linearGradient>
<linearGradient id="paint36_linear_2_21" x1="188.532" y1="376.17" x2="188.532" y2="322.316" gradientUnits="userSpaceOnUse">
<stop offset="0.02" stop-color="white"/>
<stop offset="0.99" stop-color="#F29DC8"/>
</linearGradient>
<linearGradient id="paint37_linear_2_21" x1="151.398" y1="526.056" x2="151.398" y2="343.553" gradientUnits="userSpaceOnUse">
<stop stop-color="#38328A"/>
<stop offset="1" stop-color="#5C43A2"/>
</linearGradient>
<linearGradient id="paint38_linear_2_21" x1="250.799" y1="525.882" x2="250.799" y2="339.518" gradientUnits="userSpaceOnUse">
<stop stop-color="#38328A"/>
<stop offset="1" stop-color="#5C43A2"/>
</linearGradient>
<linearGradient id="paint39_linear_2_21" x1="184.937" y1="440.084" x2="184.937" y2="366.351" gradientUnits="userSpaceOnUse">
<stop offset="0.02" stop-color="white"/>
<stop offset="0.99" stop-color="#EA8CC1"/>
</linearGradient>
<linearGradient id="paint40_linear_2_21" x1="219.154" y1="424.415" x2="219.154" y2="370.817" gradientUnits="userSpaceOnUse">
<stop offset="0.02" stop-color="white"/>
<stop offset="0.99" stop-color="#EA8CC1"/>
</linearGradient>
<linearGradient id="paint41_linear_2_21" x1="62.5858" y1="355.968" x2="62.5858" y2="287.722" gradientUnits="userSpaceOnUse">
<stop offset="0.01" stop-color="#EA9DC8"/>
<stop offset="0.98" stop-color="#FFDBD6"/>
</linearGradient>
<linearGradient id="paint42_linear_2_21" x1="72.3739" y1="299.827" x2="72.3739" y2="281.011" gradientUnits="userSpaceOnUse">
<stop stop-color="#FFB595"/>
<stop offset="0.98" stop-color="#FFC290"/>
</linearGradient>
<linearGradient id="paint43_linear_2_21" x1="58.7563" y1="311.583" x2="58.7563" y2="293.977" gradientUnits="userSpaceOnUse">
<stop stop-color="#FFB595"/>
<stop offset="0.98" stop-color="#FFC290"/>
</linearGradient>
<linearGradient id="paint44_linear_2_21" x1="50.3783" y1="319.451" x2="50.3783" y2="310.157" gradientUnits="userSpaceOnUse">
<stop stop-color="#FFB595"/>
<stop offset="0.98" stop-color="#FFC290"/>
</linearGradient>
<linearGradient id="paint45_linear_2_21" x1="78.443" y1="379.949" x2="78.443" y2="357.864" gradientUnits="userSpaceOnUse">
<stop offset="0.02" stop-color="white"/>
<stop offset="0.99" stop-color="#EA9DC8"/>
</linearGradient>
<linearGradient id="paint46_linear_2_21" x1="71.7379" y1="356.331" x2="71.7379" y2="334.784" gradientUnits="userSpaceOnUse">
<stop offset="0.02" stop-color="white"/>
<stop offset="0.99" stop-color="#EA9DC8"/>
</linearGradient>
<linearGradient id="paint47_linear_2_21" x1="87.0007" y1="344.441" x2="87.0007" y2="322.316" gradientUnits="userSpaceOnUse">
<stop offset="0.01" stop-color="#EA9DC8"/>
<stop offset="0.98" stop-color="white"/>
</linearGradient>
<linearGradient id="paint48_linear_2_21" x1="114.195" y1="422.357" x2="130.964" y2="422.357" gradientUnits="userSpaceOnUse">
<stop offset="0.01" stop-color="#C2798B"/>
<stop offset="0.98" stop-color="white"/>
</linearGradient>
<linearGradient id="paint49_linear_2_21" x1="98.3649" y1="485.881" x2="98.3649" y2="440.084" gradientUnits="userSpaceOnUse">
<stop offset="0.02" stop-color="white"/>
<stop offset="0.99" stop-color="#C2798B"/>
</linearGradient>
<linearGradient id="paint50_linear_2_21" x1="40.4658" y1="458.484" x2="77.0467" y2="458.484" gradientUnits="userSpaceOnUse">
<stop offset="0.01" stop-color="#C2798B"/>
<stop offset="0.98" stop-color="white"/>
</linearGradient>
<linearGradient id="paint51_linear_2_21" x1="88.8947" y1="507.025" x2="88.8947" y2="421.402" gradientUnits="userSpaceOnUse">
<stop offset="0.02" stop-color="white"/>
<stop offset="0.99" stop-color="#C2798B"/>
</linearGradient>
<linearGradient id="paint52_linear_2_21" x1="282.542" y1="407.844" x2="302.408" y2="407.844" gradientUnits="userSpaceOnUse">
<stop offset="0.02" stop-color="white"/>
<stop offset="0.99" stop-color="#C2798B"/>
</linearGradient>
<linearGradient id="paint53_linear_2_21" x1="287.477" y1="457.461" x2="295.15" y2="457.461" gradientUnits="userSpaceOnUse">
<stop offset="0.01" stop-color="#C2798B"/>
<stop offset="0.98" stop-color="white"/>
</linearGradient>
<linearGradient id="paint54_linear_2_21" x1="261.016" y1="485.774" x2="282.542" y2="485.774" gradientUnits="userSpaceOnUse">
<stop offset="0.01" stop-color="#C2798B"/>
<stop offset="0.98" stop-color="white"/>
</linearGradient>
<linearGradient id="paint55_linear_2_21" x1="291.666" y1="485.263" x2="346.413" y2="485.263" gradientUnits="userSpaceOnUse">
<stop offset="0.01" stop-color="#C2798B"/>
<stop offset="0.98" stop-color="white"/>
</linearGradient>
<linearGradient id="paint56_linear_2_21" x1="301.537" y1="486.285" x2="345.722" y2="486.285" gradientUnits="userSpaceOnUse">
<stop offset="0.01" stop-color="#C2798B"/>
<stop offset="0.98" stop-color="white"/>
</linearGradient>
<linearGradient id="paint57_linear_2_21" x1="285.555" y1="486.285" x2="285.555" y2="416.304" gradientUnits="userSpaceOnUse">
<stop offset="0.01" stop-color="#C2798B"/>
<stop offset="0.98" stop-color="white"/>
</linearGradient>
<linearGradient id="paint58_linear_2_21" x1="315.97" y1="509.069" x2="315.97" y2="491.234" gradientUnits="userSpaceOnUse">
<stop offset="0.02" stop-color="#FFA67F"/>
<stop offset="1" stop-color="#FF8B7C"/>
</linearGradient>
<linearGradient id="paint59_linear_2_21" x1="330.155" y1="526.837" x2="330.155" y2="486.419" gradientUnits="userSpaceOnUse">
<stop stop-color="#2B2583"/>
<stop offset="1" stop-color="#231868"/>
</linearGradient>
<linearGradient id="paint60_linear_2_21" x1="289.426" y1="525.384" x2="289.426" y2="509.029" gradientUnits="userSpaceOnUse">
<stop offset="0.02" stop-color="#FFC2A0"/>
<stop offset="1" stop-color="#FFA195"/>
</linearGradient>
<linearGradient id="paint61_linear_2_21" x1="317.242" y1="526.904" x2="317.242" y2="498.86" gradientUnits="userSpaceOnUse">
<stop stop-color="#C50B79"/>
<stop offset="1" stop-color="#E51160"/>
</linearGradient>
<linearGradient id="paint62_linear_2_21" x1="322.496" y1="522.411" x2="322.496" y2="486.298" gradientUnits="userSpaceOnUse">
<stop offset="0.02" stop-color="#FFC2A0"/>
<stop offset="1" stop-color="#FFA195"/>
</linearGradient>
<linearGradient id="paint63_linear_2_21" x1="196.343" y1="526.42" x2="196.343" y2="416.937" gradientUnits="userSpaceOnUse">
<stop stop-color="#C9B6E9"/>
<stop offset="1" stop-color="#BBABD1"/>
</linearGradient>
<linearGradient id="paint64_linear_2_21" x1="196.343" y1="425.558" x2="196.343" y2="413.91" gradientUnits="userSpaceOnUse">
<stop stop-color="#D8CAEF"/>
<stop offset="1" stop-color="#EADEF4"/>
</linearGradient>
<linearGradient id="paint65_linear_2_21" x1="332.602" y1="506.971" x2="332.602" y2="496.749" gradientUnits="userSpaceOnUse">
<stop offset="0.02" stop-color="white"/>
<stop offset="0.99" stop-color="#EA9DC8"/>
</linearGradient>
<linearGradient id="paint66_linear_2_21" x1="341.754" y1="515.35" x2="341.754" y2="508.047" gradientUnits="userSpaceOnUse">
<stop offset="0.02" stop-color="white"/>
<stop offset="0.99" stop-color="#EA9DC8"/>
</linearGradient>
<linearGradient id="paint67_linear_2_21" x1="254.67" y1="385.598" x2="254.67" y2="353.358" gradientUnits="userSpaceOnUse">
<stop offset="0.02" stop-color="white"/>
<stop offset="0.99" stop-color="#C2798B"/>
</linearGradient>
<linearGradient id="paint68_linear_2_21" x1="154.342" y1="389.297" x2="154.342" y2="347.561" gradientUnits="userSpaceOnUse">
<stop offset="0.02" stop-color="white"/>
<stop offset="0.99" stop-color="#C2798B"/>
</linearGradient>
<linearGradient id="paint69_linear_2_21" x1="64.6872" y1="356.775" x2="64.6872" y2="327.602" gradientUnits="userSpaceOnUse">
<stop offset="0.02" stop-color="white"/>
<stop offset="0.99" stop-color="#F29DC8"/>
</linearGradient>
<linearGradient id="paint70_linear_2_21" x1="203.255" y1="237.527" x2="218.808" y2="237.527" gradientUnits="userSpaceOnUse">
<stop offset="0.01" stop-color="#F29DC8"/>
<stop offset="0.98" stop-color="white"/>
</linearGradient>
<linearGradient id="paint71_linear_2_21" x1="206.145" y1="238.899" x2="223.398" y2="238.899" gradientUnits="userSpaceOnUse">
<stop offset="0.01" stop-color="#F29DC8"/>
<stop offset="0.98" stop-color="white"/>
</linearGradient>
<linearGradient id="paint72_linear_2_21" x1="167.78" y1="240.809" x2="178.246" y2="240.809" gradientUnits="userSpaceOnUse">
<stop offset="0.02" stop-color="white"/>
<stop offset="0.99" stop-color="#F29DC8"/>
</linearGradient>
<linearGradient id="paint73_linear_2_21" x1="161.96" y1="242.127" x2="176.601" y2="242.127" gradientUnits="userSpaceOnUse">
<stop offset="0.02" stop-color="white"/>
<stop offset="0.99" stop-color="#F29DC8"/>
</linearGradient>
<linearGradient id="paint74_linear_2_21" x1="69.4015" y1="299.424" x2="69.4015" y2="293.977" gradientUnits="userSpaceOnUse">
<stop offset="0.01" stop-color="#EA9DC8"/>
<stop offset="0.98" stop-color="#FFDBD6"/>
</linearGradient>
<linearGradient id="paint75_linear_2_21" x1="53.7516" y1="311.206" x2="53.7516" y2="310.049" gradientUnits="userSpaceOnUse">
<stop offset="0.01" stop-color="#EA9DC8"/>
<stop offset="0.98" stop-color="#FFDBD6"/>
</linearGradient>
<linearGradient id="paint76_linear_2_21" x1="421.221" y1="193.753" x2="421.221" y2="179.201" gradientUnits="userSpaceOnUse">
<stop offset="0.01" stop-color="#791D36"/>
<stop offset="0.98" stop-color="#A64021"/>
</linearGradient>
<linearGradient id="paint77_linear_2_21" x1="419.932" y1="85.5091" x2="419.932" y2="68.948" gradientUnits="userSpaceOnUse">
<stop offset="0.01" stop-color="#533F9C"/>
<stop offset="1" stop-color="#292686"/>
</linearGradient>
<linearGradient id="paint78_linear_2_21" x1="418" y1="331.993" x2="437" y2="331.993" gradientUnits="userSpaceOnUse">
<stop offset="0.02" stop-color="#523E63"/>
<stop offset="0.99" stop-color="#24052E"/>
</linearGradient>
<linearGradient id="paint79_linear_2_21" x1="421.221" y1="190.199" x2="421.221" y2="76.5473" gradientUnits="userSpaceOnUse">
<stop stop-color="#FFC7CB"/>
<stop offset="1" stop-color="white"/>
</linearGradient>
<linearGradient id="paint80_linear_2_21" x1="421.189" y1="156.192" x2="421.189" y2="117.311" gradientUnits="userSpaceOnUse">
<stop offset="0.01" stop-color="#25267A"/>
<stop offset="1" stop-color="#2C278D"/>
</linearGradient>
<linearGradient id="paint81_linear_2_21" x1="421.22" y1="190.199" x2="421.22" y2="155.701" gradientUnits="userSpaceOnUse">
<stop stop-color="#FF7688"/>
<stop offset="1" stop-color="#533E9C"/>
</linearGradient>
<linearGradient id="paint82_linear_2_21" x1="400.805" y1="250.01" x2="400.805" y2="182.783" gradientUnits="userSpaceOnUse">
<stop offset="0.02" stop-color="#523E63"/>
<stop offset="0.99" stop-color="#24052E"/>
</linearGradient>
<linearGradient id="paint83_linear_2_21" x1="421.221" y1="190.199" x2="421.221" y2="72.8389" gradientUnits="userSpaceOnUse">
<stop stop-color="#892F74"/>
<stop offset="1" stop-color="#D69386"/>
</linearGradient>
<linearGradient id="paint84_linear_2_21" x1="276.5" y1="538" x2="276.5" y2="526.42" gradientUnits="userSpaceOnUse">
<stop stop-color="#FF6686"/>
<stop offset="1" stop-color="#FF7C89"/>
</linearGradient>
<clipPath id="clip0_2_21">
<rect width="553" height="538" fill="white"/>
</clipPath>
</defs>
</svg>
