<svg id="Capa_1" data-name="Capa 1" xmlns="http://www.w3.org/2000/svg" xmlns:xlink="http://www.w3.org/1999/xlink" viewBox="0 0 553 496.46"><defs><style>.cls-1{fill:none;}.cls-2{clip-path:url(#clip-path);}.cls-3{fill:#e7ecff;}.cls-4{fill:#4b81ee;}.cls-5{fill:url(#Degradado_sin_nombre);}.cls-6{fill:url(#Degradado_sin_nombre_2);}.cls-7{fill:url(#Degradado_sin_nombre_3);}.cls-8{fill:url(#Degradado_sin_nombre_4);}.cls-9{fill:url(#Degradado_sin_nombre_5);}.cls-10{fill:url(#Degradado_sin_nombre_6);}.cls-11{fill:url(#Degradado_sin_nombre_7);}.cls-12{fill:url(#Degradado_sin_nombre_8);}.cls-13{fill:url(#Degradado_sin_nombre_9);}.cls-14{fill:url(#Degradado_sin_nombre_10);}.cls-15{fill:url(#Degradado_sin_nombre_11);}.cls-16{fill:url(#Degradado_sin_nombre_12);}.cls-17{fill:#feb1c8;}.cls-18{fill:url(#Degradado_sin_nombre_13);}.cls-19{fill:url(#Degradado_sin_nombre_14);}.cls-20{fill:url(#Degradado_sin_nombre_15);}.cls-21{fill:url(#Degradado_sin_nombre_16);}.cls-22{fill:url(#Degradado_sin_nombre_17);}.cls-23{fill:url(#Degradado_sin_nombre_18);}.cls-24{fill:#ffe4ec;}.cls-25{fill:#d1a1c8;}.cls-26{fill:url(#Degradado_sin_nombre_19);}.cls-27{fill:#7f6186;}.cls-28{fill:#6c2a51;}.cls-29{fill:#bf7988;}.cls-30{fill:url(#Degradado_sin_nombre_20);}.cls-31{fill:url(#Degradado_sin_nombre_21);}.cls-32{fill:url(#Degradado_sin_nombre_22);}.cls-33{fill:url(#Degradado_sin_nombre_23);}.cls-102,.cls-34{fill:#fff;}.cls-35{fill:#e392ad;}.cls-36{fill:url(#Degradado_sin_nombre_24);}.cls-37{fill:url(#Degradado_sin_nombre_25);}.cls-38{fill:url(#Degradado_sin_nombre_26);}.cls-39{fill:url(#Degradado_sin_nombre_27);}.cls-40{fill:url(#Degradado_sin_nombre_28);}.cls-41{fill:url(#Degradado_sin_nombre_29);}.cls-42{fill:url(#Degradado_sin_nombre_30);}.cls-43{fill:url(#Degradado_sin_nombre_31);}.cls-44{fill:#ffb8cb;}.cls-45{fill:url(#Degradado_sin_nombre_32);}.cls-46{fill:url(#Degradado_sin_nombre_33);}.cls-47{fill:url(#Degradado_sin_nombre_34);}.cls-48{fill:url(#Degradado_sin_nombre_35);}.cls-49{fill:#5143a1;}.cls-50{fill:#5cf1ff;}.cls-51{fill:url(#Degradado_sin_nombre_36);}.cls-52{fill:url(#Degradado_sin_nombre_37);}.cls-53{fill:url(#Degradado_sin_nombre_38);}.cls-54{fill:url(#Degradado_sin_nombre_39);}.cls-55{fill:url(#Degradado_sin_nombre_40);}.cls-56{fill:url(#Degradado_sin_nombre_41);}.cls-57{fill:url(#Degradado_sin_nombre_42);}.cls-58{fill:url(#Degradado_sin_nombre_43);}.cls-59{fill:url(#Degradado_sin_nombre_44);}.cls-60{fill:url(#Degradado_sin_nombre_45);}.cls-61{fill:#ffe4db;}.cls-62{fill:url(#Degradado_sin_nombre_46);}.cls-63{fill:url(#Degradado_sin_nombre_47);}.cls-106,.cls-64,.cls-65,.cls-66,.cls-67,.cls-68,.cls-69,.cls-70,.cls-71,.cls-72,.cls-73,.cls-87,.cls-88,.cls-89,.cls-97{isolation:isolate;}.cls-64,.cls-82,.cls-87,.cls-88,.cls-89{opacity:0.5;}.cls-64{fill:url(#Degradado_sin_nombre_48);}.cls-65,.cls-66,.cls-67,.cls-68,.cls-69,.cls-70,.cls-71,.cls-72,.cls-73{opacity:0.8;}.cls-65{fill:url(#Degradado_sin_nombre_49);}.cls-66{fill:url(#Degradado_sin_nombre_50);}.cls-67{fill:url(#Degradado_sin_nombre_51);}.cls-68{fill:url(#Degradado_sin_nombre_52);}.cls-69{fill:url(#Degradado_sin_nombre_53);}.cls-70{fill:url(#Degradado_sin_nombre_54);}.cls-71{fill:url(#Degradado_sin_nombre_55);}.cls-72{fill:url(#Degradado_sin_nombre_56);}.cls-73{fill:url(#Degradado_sin_nombre_57);}.cls-74{fill:url(#Degradado_sin_nombre_58);}.cls-75{fill:url(#Degradado_sin_nombre_59);}.cls-76{fill:url(#Degradado_sin_nombre_60);}.cls-77{fill:url(#Degradado_sin_nombre_61);}.cls-78{fill:url(#Degradado_sin_nombre_62);}.cls-79{fill:#bfa1bc;}.cls-80{fill:url(#Degradado_sin_nombre_63);}.cls-81{fill:url(#Degradado_sin_nombre_64);}.cls-83{fill:url(#Degradado_sin_nombre_65);}.cls-84{fill:#ebc2d4;}.cls-85{fill:url(#Degradado_sin_nombre_66);}.cls-86{fill:url(#Degradado_sin_nombre_67);}.cls-87{fill:url(#Degradado_sin_nombre_68);}.cls-88{fill:url(#Degradado_sin_nombre_69);}.cls-89{fill:url(#Degradado_sin_nombre_70);}.cls-90{opacity:0.2;}.cls-91{fill:url(#Degradado_sin_nombre_71);}.cls-92{fill:url(#Degradado_sin_nombre_72);}.cls-93{fill:url(#Degradado_sin_nombre_73);}.cls-94{fill:url(#Degradado_sin_nombre_74);}.cls-95{fill:url(#Degradado_sin_nombre_75);}.cls-96{fill:url(#Degradado_sin_nombre_76);}.cls-97{fill:#fffc80;opacity:0.36;}.cls-100,.cls-101,.cls-102,.cls-103,.cls-104,.cls-105,.cls-106,.cls-97,.cls-98,.cls-99{fill-rule:evenodd;}.cls-98{fill:url(#Degradado_sin_nombre_77);}.cls-99{fill:url(#Degradado_sin_nombre_78);}.cls-100{fill:url(#Degradado_sin_nombre_79);}.cls-101{fill:url(#Degradado_sin_nombre_80);}.cls-103{fill:url(#Degradado_sin_nombre_81);}.cls-104{fill:url(#Degradado_sin_nombre_82);}.cls-105{fill:url(#Degradado_sin_nombre_83);}.cls-106{opacity:0.3;fill:url(#Degradado_sin_nombre_84);}.cls-107{fill:url(#Degradado_sin_nombre_85);}</style><clipPath id="clip-path" transform="translate(0 -41.54)"><rect class="cls-1" width="553" height="538"/></clipPath><linearGradient id="Degradado_sin_nombre" x1="193.59" y1="212.24" x2="193.59" y2="330.18" gradientTransform="matrix(1, 0, 0, -1, 0, 540)" gradientUnits="userSpaceOnUse"><stop offset="0" stop-color="#ffb595"/><stop offset="0.98" stop-color="#ffc2a9"/></linearGradient><linearGradient id="Degradado_sin_nombre_2" x1="201.22" y1="142.14" x2="201.22" y2="222.12" gradientTransform="matrix(1, 0, 0, -1, 0, 540)" gradientUnits="userSpaceOnUse"><stop offset="0.02" stop-color="#ffa67f"/><stop offset="1" stop-color="#ff8b7c"/></linearGradient><linearGradient id="Degradado_sin_nombre_3" x1="195.36" y1="286.79" x2="195.36" y2="326.64" gradientTransform="matrix(1, 0, 0, -1, 0, 540)" gradientUnits="userSpaceOnUse"><stop offset="0.02" stop-color="#fff"/><stop offset="0.99" stop-color="#f29dc8"/></linearGradient><linearGradient id="Degradado_sin_nombre_4" x1="242.06" y1="247.45" x2="242.06" y2="280" xlink:href="#Degradado_sin_nombre_2"/><linearGradient id="Degradado_sin_nombre_5" x1="151.93" y1="242.14" x2="151.93" y2="271.67" xlink:href="#Degradado_sin_nombre_2"/><linearGradient id="Degradado_sin_nombre_6" x1="242.03" y1="254.13" x2="242.03" y2="273.76" xlink:href="#Degradado_sin_nombre_3"/><linearGradient id="Degradado_sin_nombre_7" x1="152.12" y1="248.39" x2="152.12" y2="265.67" xlink:href="#Degradado_sin_nombre_3"/><linearGradient id="Degradado_sin_nombre_8" x1="198.61" y1="265.77" x2="185.52" y2="350.72" gradientTransform="matrix(1, 0, 0, -1, 0, 540)" gradientUnits="userSpaceOnUse"><stop offset="0" stop-color="#3e2987"/><stop offset="0.57" stop-color="#2c2f90"/><stop offset="1" stop-color="#243294"/></linearGradient><linearGradient id="Degradado_sin_nombre_9" x1="201.33" y1="14.12" x2="201.33" y2="190.42" gradientTransform="matrix(1, 0, 0, -1, 0, 540)" gradientUnits="userSpaceOnUse"><stop offset="0" stop-color="#ff6686"/><stop offset="1" stop-color="#ff7c89"/></linearGradient><linearGradient id="Degradado_sin_nombre_10" x1="208.36" y1="14.12" x2="208.36" y2="200.51" gradientTransform="matrix(1, 0, 0, -1, 0, 540)" gradientUnits="userSpaceOnUse"><stop offset="0" stop-color="#2b2583"/><stop offset="1" stop-color="#482c97"/></linearGradient><linearGradient id="Degradado_sin_nombre_11" x1="87.63" y1="13.61" x2="87.63" y2="154.4" gradientTransform="matrix(1, 0, 0, -1, 0, 540)" gradientUnits="userSpaceOnUse"><stop offset="0" stop-color="#26258a"/><stop offset="1" stop-color="#3c2c95"/></linearGradient><linearGradient id="Degradado_sin_nombre_12" x1="74.81" y1="132.24" x2="74.81" y2="272.79" gradientTransform="matrix(1, 0, 0, -1, 0, 540)" gradientUnits="userSpaceOnUse"><stop offset="0.02" stop-color="#ffc2a0"/><stop offset="1" stop-color="#ffa195"/></linearGradient><linearGradient id="Degradado_sin_nombre_13" x1="66.21" y1="84.06" x2="66.21" y2="148.61" xlink:href="#Degradado_sin_nombre_9"/><linearGradient id="Degradado_sin_nombre_14" x1="323.85" y1="13.58" x2="323.85" y2="158.88" xlink:href="#Degradado_sin_nombre_11"/><linearGradient id="Degradado_sin_nombre_15" x1="198.8" y1="304.37" x2="202.74" y2="304.37" gradientTransform="matrix(1, 0, 0, -1, 0, 540)" gradientUnits="userSpaceOnUse"><stop offset="0" stop-color="#8453b8"/><stop offset="0.23" stop-color="#7755ba"/><stop offset="0.7" stop-color="#6157bc"/><stop offset="1" stop-color="#5958bd"/></linearGradient><linearGradient id="Degradado_sin_nombre_16" x1="191.88" y1="263.36" x2="191.88" y2="300.29" xlink:href="#Degradado_sin_nombre_3"/><linearGradient id="Degradado_sin_nombre_17" x1="160.8" y1="279.56" x2="179.27" y2="279.56" gradientTransform="matrix(1, 0, 0, -1, 0, 540)" gradientUnits="userSpaceOnUse"><stop offset="0.02" stop-color="#fff"/><stop offset="0.99" stop-color="#ea9dc8"/></linearGradient><linearGradient id="Degradado_sin_nombre_18" x1="203.85" y1="284.77" x2="222.1" y2="284.77" xlink:href="#Degradado_sin_nombre_17"/><linearGradient id="Degradado_sin_nombre_19" x1="199.63" y1="262.88" x2="206.6" y2="262.88" xlink:href="#Degradado_sin_nombre_17"/><linearGradient id="Degradado_sin_nombre_20" x1="210.72" y1="250.96" x2="218.74" y2="250.96" xlink:href="#Degradado_sin_nombre_3"/><linearGradient id="Degradado_sin_nombre_21" x1="198.25" y1="231.73" x2="198.25" y2="238.25" xlink:href="#Degradado_sin_nombre_3"/><linearGradient id="Degradado_sin_nombre_22" x1="213.32" y1="277.23" x2="213.32" y2="284.09" gradientTransform="matrix(1, 0, 0, -1, 0, 540)" gradientUnits="userSpaceOnUse"><stop offset="0.02" stop-color="#e0b3d1"/><stop offset="0.99" stop-color="#c2798b"/></linearGradient><linearGradient id="Degradado_sin_nombre_23" x1="170.89" y1="271.17" x2="170.89" y2="278.03" xlink:href="#Degradado_sin_nombre_22"/><linearGradient id="Degradado_sin_nombre_24" x1="212.84" y1="295.71" x2="212.84" y2="308.7" gradientTransform="matrix(1, 0, 0, -1, 0, 540)" gradientUnits="userSpaceOnUse"><stop offset="0" stop-color="#b877b8"/><stop offset="0.23" stop-color="#9a6dba"/><stop offset="0.56" stop-color="#7762bb"/><stop offset="0.83" stop-color="#615bbd"/><stop offset="1" stop-color="#5958bd"/></linearGradient><linearGradient id="Degradado_sin_nombre_25" x1="167.71" y1="290.37" x2="167.71" y2="304.95" xlink:href="#Degradado_sin_nombre_24"/><linearGradient id="Degradado_sin_nombre_26" x1="224.1" y1="302.77" x2="242.9" y2="302.77" gradientTransform="matrix(1, 0, 0, -1, 0, 540)" gradientUnits="userSpaceOnUse"><stop offset="0.02" stop-color="#fff"/><stop offset="0.99" stop-color="#c2798b"/></linearGradient><linearGradient id="Degradado_sin_nombre_27" x1="145.82" y1="299.1" x2="163.65" y2="299.1" gradientTransform="matrix(1, 0, 0, -1, 0, 540)" gradientUnits="userSpaceOnUse"><stop offset="0.01" stop-color="#c2798b"/><stop offset="0.98" stop-color="#fff"/></linearGradient><linearGradient id="Degradado_sin_nombre_28" x1="144.72" y1="312.57" x2="165.28" y2="312.57" xlink:href="#Degradado_sin_nombre_27"/><linearGradient id="Degradado_sin_nombre_29" x1="201.64" y1="315.16" x2="198.21" y2="337.43" xlink:href="#Degradado_sin_nombre_8"/><linearGradient id="Degradado_sin_nombre_30" x1="237.84" y1="308.8" x2="238.79" y2="323.98" xlink:href="#Degradado_sin_nombre_8"/><linearGradient id="Degradado_sin_nombre_31" x1="182.46" y1="257.49" x2="190.16" y2="257.49" gradientTransform="matrix(1, 0, 0, -1, 0, 540)" gradientUnits="userSpaceOnUse"><stop offset="0.02" stop-color="#fff"/><stop offset="0.99" stop-color="#d172a6"/></linearGradient><linearGradient id="Degradado_sin_nombre_32" x1="167.9" y1="257.09" x2="167.9" y2="289.09" xlink:href="#Degradado_sin_nombre_11"/><linearGradient id="Degradado_sin_nombre_33" x1="220.57" y1="263.61" x2="214.54" y2="295.54" xlink:href="#Degradado_sin_nombre_11"/><linearGradient id="Degradado_sin_nombre_34" x1="191.55" y1="282.53" x2="191.55" y2="287.93" xlink:href="#Degradado_sin_nombre_11"/><linearGradient id="Degradado_sin_nombre_35" x1="239.04" y1="278.02" x2="239.04" y2="291.12" xlink:href="#Degradado_sin_nombre_11"/><linearGradient id="Degradado_sin_nombre_36" x1="193.53" y1="311.22" x2="191.45" y2="324.73" xlink:href="#Degradado_sin_nombre_8"/><linearGradient id="Degradado_sin_nombre_37" x1="188.54" y1="163.83" x2="188.54" y2="217.68" xlink:href="#Degradado_sin_nombre_3"/><linearGradient id="Degradado_sin_nombre_38" x1="151.36" y1="13.94" x2="151.36" y2="196.45" gradientTransform="matrix(1, 0, 0, -1, 0, 540)" gradientUnits="userSpaceOnUse"><stop offset="0" stop-color="#38328a"/><stop offset="1" stop-color="#5c43a2"/></linearGradient><linearGradient id="Degradado_sin_nombre_39" x1="250.8" y1="14.15" x2="250.8" y2="200.48" xlink:href="#Degradado_sin_nombre_38"/><linearGradient id="Degradado_sin_nombre_40" x1="184.94" y1="99.92" x2="184.94" y2="173.65" gradientTransform="matrix(1, 0, 0, -1, 0, 540)" gradientUnits="userSpaceOnUse"><stop offset="0.02" stop-color="#fff"/><stop offset="0.99" stop-color="#ea8cc1"/></linearGradient><linearGradient id="Degradado_sin_nombre_41" x1="219.16" y1="115.58" x2="219.16" y2="169.18" xlink:href="#Degradado_sin_nombre_40"/><linearGradient id="Degradado_sin_nombre_42" x1="62.55" y1="183.98" x2="62.55" y2="252.28" gradientTransform="matrix(1, 0, 0, -1, 0, 540)" gradientUnits="userSpaceOnUse"><stop offset="0.01" stop-color="#ea9dc8"/><stop offset="0.98" stop-color="#ffdbd6"/></linearGradient><linearGradient id="Degradado_sin_nombre_43" x1="72.38" y1="240.18" x2="72.38" y2="258.99" gradientTransform="matrix(1, 0, 0, -1, 0, 540)" gradientUnits="userSpaceOnUse"><stop offset="0" stop-color="#ffb595"/><stop offset="0.98" stop-color="#ffc290"/></linearGradient><linearGradient id="Degradado_sin_nombre_44" x1="58.76" y1="228.42" x2="58.76" y2="246.02" xlink:href="#Degradado_sin_nombre_43"/><linearGradient id="Degradado_sin_nombre_45" x1="50.26" y1="220.55" x2="50.26" y2="229.84" xlink:href="#Degradado_sin_nombre_43"/><linearGradient id="Degradado_sin_nombre_46" x1="78.44" y1="160.05" x2="78.44" y2="182.14" xlink:href="#Degradado_sin_nombre_17"/><linearGradient id="Degradado_sin_nombre_47" x1="71.74" y1="183.67" x2="71.74" y2="205.22" xlink:href="#Degradado_sin_nombre_17"/><linearGradient id="Degradado_sin_nombre_48" x1="87" y1="195.56" x2="87" y2="217.68" gradientTransform="matrix(1, 0, 0, -1, 0, 540)" gradientUnits="userSpaceOnUse"><stop offset="0.01" stop-color="#ea9dc8"/><stop offset="0.98" stop-color="#fff"/></linearGradient><linearGradient id="Degradado_sin_nombre_49" x1="114.19" y1="117.58" x2="130.97" y2="117.58" xlink:href="#Degradado_sin_nombre_27"/><linearGradient id="Degradado_sin_nombre_50" x1="98.36" y1="54.08" x2="98.36" y2="99.88" xlink:href="#Degradado_sin_nombre_26"/><linearGradient id="Degradado_sin_nombre_51" x1="40.47" y1="81.52" x2="77.05" y2="81.52" xlink:href="#Degradado_sin_nombre_27"/><linearGradient id="Degradado_sin_nombre_52" x1="88.9" y1="32.93" x2="88.9" y2="118.6" xlink:href="#Degradado_sin_nombre_26"/><linearGradient id="Degradado_sin_nombre_53" x1="282.54" y1="132.16" x2="302.41" y2="132.16" xlink:href="#Degradado_sin_nombre_26"/><linearGradient id="Degradado_sin_nombre_54" x1="287.48" y1="82.54" x2="295.16" y2="82.54" xlink:href="#Degradado_sin_nombre_27"/><linearGradient id="Degradado_sin_nombre_55" x1="261.02" y1="54.22" x2="282.54" y2="54.22" xlink:href="#Degradado_sin_nombre_27"/><linearGradient id="Degradado_sin_nombre_56" x1="291.67" y1="54.74" x2="346.41" y2="54.74" xlink:href="#Degradado_sin_nombre_27"/><linearGradient id="Degradado_sin_nombre_57" x1="301.54" y1="53.7" x2="345.69" y2="53.7" xlink:href="#Degradado_sin_nombre_27"/><linearGradient id="Degradado_sin_nombre_58" x1="285.56" y1="53.71" x2="285.56" y2="123.65" xlink:href="#Degradado_sin_nombre_27"/><linearGradient id="Degradado_sin_nombre_59" x1="315.96" y1="30.94" x2="315.96" y2="48.77" xlink:href="#Degradado_sin_nombre_2"/><linearGradient id="Degradado_sin_nombre_60" x1="330.16" y1="13.17" x2="330.16" y2="53.58" gradientTransform="matrix(1, 0, 0, -1, 0, 540)" gradientUnits="userSpaceOnUse"><stop offset="0" stop-color="#2b2583"/><stop offset="1" stop-color="#231868"/></linearGradient><linearGradient id="Degradado_sin_nombre_61" x1="289.44" y1="14.62" x2="289.44" y2="30.97" xlink:href="#Degradado_sin_nombre_12"/><linearGradient id="Degradado_sin_nombre_62" x1="317.21" y1="13.1" x2="317.21" y2="41.14" gradientTransform="matrix(1, 0, 0, -1, 0, 540)" gradientUnits="userSpaceOnUse"><stop offset="0" stop-color="#c50b79"/><stop offset="1" stop-color="#e51160"/></linearGradient><linearGradient id="Degradado_sin_nombre_63" x1="322.52" y1="17.62" x2="322.52" y2="53.73" xlink:href="#Degradado_sin_nombre_12"/><linearGradient id="Degradado_sin_nombre_64" x1="196.35" y1="13.58" x2="196.35" y2="123.09" gradientTransform="matrix(1, 0, 0, -1, 0, 540)" gradientUnits="userSpaceOnUse"><stop offset="0" stop-color="#c9b6e9"/><stop offset="1" stop-color="#bbabd1"/></linearGradient><linearGradient id="Degradado_sin_nombre_65" x1="196.34" y1="114.44" x2="196.34" y2="126.09" gradientTransform="matrix(1, 0, 0, -1, 0, 540)" gradientUnits="userSpaceOnUse"><stop offset="0" stop-color="#d8caef"/><stop offset="1" stop-color="#eadef4"/></linearGradient><linearGradient id="Degradado_sin_nombre_66" x1="332.6" y1="33.03" x2="332.6" y2="43.25" xlink:href="#Degradado_sin_nombre_17"/><linearGradient id="Degradado_sin_nombre_67" x1="341.74" y1="24.65" x2="341.74" y2="31.95" xlink:href="#Degradado_sin_nombre_17"/><linearGradient id="Degradado_sin_nombre_68" x1="254.66" y1="154.4" x2="254.66" y2="186.64" xlink:href="#Degradado_sin_nombre_26"/><linearGradient id="Degradado_sin_nombre_69" x1="154.34" y1="150.7" x2="154.34" y2="192.44" xlink:href="#Degradado_sin_nombre_26"/><linearGradient id="Degradado_sin_nombre_70" x1="64.68" y1="183.22" x2="64.68" y2="212.4" xlink:href="#Degradado_sin_nombre_3"/><linearGradient id="Degradado_sin_nombre_71" x1="203.26" y1="302.47" x2="218.81" y2="302.47" gradientTransform="matrix(1, 0, 0, -1, 0, 540)" gradientUnits="userSpaceOnUse"><stop offset="0.01" stop-color="#f29dc8"/><stop offset="0.98" stop-color="#fff"/></linearGradient><linearGradient id="Degradado_sin_nombre_72" x1="206.15" y1="301.1" x2="223.4" y2="301.1" xlink:href="#Degradado_sin_nombre_71"/><linearGradient id="Degradado_sin_nombre_73" x1="167.78" y1="299.12" x2="178.25" y2="299.12" xlink:href="#Degradado_sin_nombre_3"/><linearGradient id="Degradado_sin_nombre_74" x1="161.96" y1="297.89" x2="176.6" y2="297.89" xlink:href="#Degradado_sin_nombre_3"/><linearGradient id="Degradado_sin_nombre_75" x1="69.41" y1="240.58" x2="69.41" y2="246.02" xlink:href="#Degradado_sin_nombre_42"/><linearGradient id="Degradado_sin_nombre_76" x1="53.76" y1="228.79" x2="53.76" y2="229.95" xlink:href="#Degradado_sin_nombre_42"/><linearGradient id="Degradado_sin_nombre_77" x1="421.22" y1="346.25" x2="421.22" y2="360.8" gradientTransform="matrix(1, 0, 0, -1, 0, 540)" gradientUnits="userSpaceOnUse"><stop offset="0.01" stop-color="#791d36"/><stop offset="0.98" stop-color="#a64021"/></linearGradient><linearGradient id="Degradado_sin_nombre_78" x1="419.93" y1="454.49" x2="419.93" y2="471.05" gradientTransform="matrix(1, 0, 0, -1, 0, 540)" gradientUnits="userSpaceOnUse"><stop offset="0.01" stop-color="#533f9c"/><stop offset="1" stop-color="#292686"/></linearGradient><linearGradient id="Degradado_sin_nombre_79" x1="418" y1="208" x2="437" y2="208" gradientTransform="matrix(1, 0, 0, -1, 0, 540)" gradientUnits="userSpaceOnUse"><stop offset="0.02" stop-color="#523e63"/><stop offset="0.99" stop-color="#24052e"/></linearGradient><linearGradient id="Degradado_sin_nombre_80" x1="421.21" y1="349.8" x2="421.21" y2="463.45" gradientTransform="matrix(1, 0, 0, -1, 0, 540)" gradientUnits="userSpaceOnUse"><stop offset="0" stop-color="#ffc7cb"/><stop offset="1" stop-color="#fff"/></linearGradient><linearGradient id="Degradado_sin_nombre_81" x1="421.19" y1="383.81" x2="421.19" y2="422.69" gradientTransform="matrix(1, 0, 0, -1, 0, 540)" gradientUnits="userSpaceOnUse"><stop offset="0.01" stop-color="#25267a"/><stop offset="1" stop-color="#2c278d"/></linearGradient><linearGradient id="Degradado_sin_nombre_82" x1="421.24" y1="349.8" x2="421.24" y2="384.3" gradientTransform="matrix(1, 0, 0, -1, 0, 540)" gradientUnits="userSpaceOnUse"><stop offset="0" stop-color="#ff7688"/><stop offset="1" stop-color="#533e9c"/></linearGradient><linearGradient id="Degradado_sin_nombre_83" x1="400.8" y1="289.98" x2="400.8" y2="357.22" xlink:href="#Degradado_sin_nombre_79"/><linearGradient id="Degradado_sin_nombre_84" x1="421.24" y1="349.8" x2="421.24" y2="467.16" gradientTransform="matrix(1, 0, 0, -1, 0, 540)" gradientUnits="userSpaceOnUse"><stop offset="0" stop-color="#892f74"/><stop offset="1" stop-color="#d69386"/></linearGradient><linearGradient id="Degradado_sin_nombre_85" x1="276.5" y1="2" x2="276.5" y2="13.58" xlink:href="#Degradado_sin_nombre_9"/></defs><g class="cls-2"><g id="imagen"><g id="hombre"><path id="Vector" class="cls-3" d="M257,66.34C150.07,91.66,132.55,170.84,116.36,242.71s-77,139,45.63,167.64,304.91-10.29,335.3-124.13S411.13,183.66,328.18,148,304.33,55.15,257,66.34Z" transform="translate(0 -41.54)"/><path id="Vector_2" data-name="Vector 2" class="cls-3" d="M299.67,105.7c-13.48,7-21-32.17-5.31-47.52S337.51,35,348.49,48.42s-14.27,34.67-28.4,42.37S304.7,103.09,299.67,105.7Z" transform="translate(0 -41.54)"/><path id="Vector_3" data-name="Vector 3" class="cls-3" d="M137.6,140.28c.39-27.31-63-2.69-81.84,47.84s-1.65,87.32,23.95,88.95,29.16-26.67,37-66.07S137.38,155.63,137.6,140.28Z" transform="translate(0 -41.54)"/><path id="Vector_4" data-name="Vector 4" class="cls-3" d="M451,438.38c10.13-18.47,26.27-24.48,37.49-21.91S488.8,454,473,455.34,444.86,449.62,451,438.38Z" transform="translate(0 -41.54)"/><g id="Vector_5" data-name="Vector 5"><path class="cls-4" d="M58.36,420.89l3.31,38.23s-10.21,8.15-18.07,8.15C43.6,467.27,41.16,451.48,58.36,420.89Z" transform="translate(0 -41.54)"/></g><path id="Vector_6" data-name="Vector 6" class="cls-4" d="M367.61,526.42a148.77,148.77,0,0,1-38.16-2,141.61,141.61,0,0,1-33.59-11.51l-2.63-16.06s19.24-21.35,41.92-11.57S367.61,526.42,367.61,526.42Z" transform="translate(0 -41.54)"/><path id="Vector_7" data-name="Vector 7" class="cls-5" d="M186.36,210.4c-23.94,3.68-35.63,22.86-36.14,33.14s7.68,49.67,10.47,60.26,23.22,21.61,30.41,23.32a31.7,31.7,0,0,0,20.27-2.57c5.93-2.69,20.07-14.49,23-24.91s3.84-58.83,0-70.9S206,207.36,186.36,210.4Z" transform="translate(0 -41.54)"/><path id="Vector_8" data-name="Vector 8" class="cls-6" d="M178.34,321.36l1.22,45s5.27,30.47,21.65,31.47c20.52,1.35,22.88-34,22.88-34l-3.22-45.9S209,327.82,198.1,327.8,178.34,321.36,178.34,321.36Z" transform="translate(0 -41.54)"/><path id="Vector_9" data-name="Vector 9" class="cls-7" d="M153.46,243.54s4.78-20.3,32.82-21.87,38.94,7.49,42.65,14,8.38,17.58,8.38,17.58L236,222.27l-17.66-8.06s-37-3.3-50.47,3.11S153.15,232.68,153.46,243.54Z" transform="translate(0 -41.54)"/><path id="Vector_10" data-name="Vector 10" class="cls-8" d="M237,263.73a13.09,13.09,0,0,1,4.31-2.78,13.61,13.61,0,0,1,5.09-.95s3.92,3.15,1.38,11.17c-2.18,7.07-7.71,16.31-8.77,18.61a5,5,0,0,1-1.4,1.76,5.28,5.28,0,0,1-2,1S237,273.36,237,263.73Z" transform="translate(0 -41.54)"/><path id="Vector_11" data-name="Vector 11" class="cls-9" d="M153.46,269.79a7.48,7.48,0,0,0-8.8,0,66.57,66.57,0,0,0,4.4,14.38c3.46,8.15,5.28,13.75,10.14,13.69Z" transform="translate(0 -41.54)"/><path id="Vector_12" data-name="Vector 12" class="cls-10" d="M237,272.7s5.7-5.85,8.67-6.43.84,7.68-1,12-2,4.71-2,4.71,3.67-10.45,2.55-12.8-3-1.35-3.07-.39,2,6.05-.85,11.08-3.16,6.31-3.93,3.7,1.63-6.88,1.7-9.42S237,272.7,237,272.7Z" transform="translate(0 -41.54)"/><path id="Vector_13" data-name="Vector 13" class="cls-11" d="M155,277.07s-4.79-3.55-6.61-2.61.43,9.64,4.52,16.69c0,0-4.23-9.68-2.77-12s4.87,1.69,3.29,1.87c-4.74.54-2.24,7.14,1.52,9.78s-.59-2.05-1.3-6.21,1.84-4,1.84-4Z" transform="translate(0 -41.54)"/><path id="Vector_14" data-name="Vector 14" class="cls-12" d="M170.54,212.85s8.92-22.13,29-25.73c0,0-7.44,2.31-15.68,10.15-2.77,2.69-9.11,12.55-9.11,12.55s21.08-21.86,35.1-20.71,14.41,21,20.82,24.34a17.35,17.35,0,0,1,8.16,10.2s5.6,6.61,5.24,13.58-7.21,31.1-7.21,31.1,1.8-22.42-4.49-31.43c0,0-2.1-12.37-11.13-17.33a156.22,156.22,0,0,1-31-.87c-18.87-2.17-25,2.14-25,2.14s-11.65,9-11.53,20.26c0,0-4.39,8.34.18,30.73,0,0-10.52-22.87-10.34-32.22s10-18.52,10-18.52-8.17,4.28-12.84,9.94c0,0-6.47-11.67,24-14.52a9.36,9.36,0,0,0,5.84-3.66Z" transform="translate(0 -41.54)"/><path id="Vector_15" data-name="Vector 15" class="cls-13" d="M179.12,350.39S163.91,367.12,152,374.52A165.3,165.3,0,0,1,131.1,385.6s-2.76,92.12,9.86,140.28H265.73s10.48-115,3.94-144.76c0,0-32.9-13.89-46.58-31.54l.6,16s-5.41,25.38-22.48,26.63c-15.76,1.16-21.76-29.66-21.76-29.66Z" transform="translate(0 -41.54)"/><path id="Vector_16" data-name="Vector 16" class="cls-14" d="M179,344.83l-6-1.28a112.76,112.76,0,0,1-22.81,26c-10.54,8.5-19.62,6.5-35.95,16.06,0,0,18,46.68,16.66,88.12,0,0,2.86,26.9,7.31,52.16l133.65-.75s8.68-32.28,9.21-63.22c0,0,6.91-58.67,21.38-80.82-19.12-8.9-33.26-8.39-49.5-15.77s-27.25-25.83-27.25-25.83L222.44,341l.71,8.58s11.06,12.2,15.66,23.74c5.53,14.11-10.48,152.56-10.48,152.56l-50.82-.75S164.16,387.48,166,374.46s13.19-24.13,13.19-24.13Z" transform="translate(0 -41.54)"/><path id="Vector_17" data-name="Vector 17" class="cls-15" d="M114.19,385.6v15.75l-25,40.19s-5.89-17-6.16-20.18,0-8.79,0-8.79l-3.94-3.06.67,5.73s2.08,34.41-36.16,50c0,0,2.77-24.3,14.76-44.39l-.53-2.51S44.39,437.12,40.47,469l11.77,5.38S64,507.44,79.49,526.23l17.24.16s25.86-22,37.51-56.15C134.24,470.24,140,428.53,114.19,385.6Z" transform="translate(0 -41.54)"/><path id="Vector_18" data-name="Vector 18" class="cls-16" d="M110.23,307.91s-13.1,19.37-15.54,26.51-.53,20.39-2.63,23.44c0,0-13.44,11.38-15,15s0,22.08,0,22.08c-5.33,9.81-18,12.86-18,12.86s-1.17-31.71-1.57-32.48-7.88-5.38-7.88-5.38A98.66,98.66,0,0,1,45,356.36a152.48,152.48,0,0,1-3.17-14.92c-1-6.13-1.38-10.34-1.38-10.34L39.4,318.48c1.83-8.15,6.72-6.87,6.72-6.87a78,78,0,0,0,2.77,14.44l.88-.56a122.45,122.45,0,0,1-1.92-15.72c2.45-6.88,8.47-5,8.47-5,1.48,8.33,3.4,16.73,3.4,16.73-1.66-10.76-.52-27.61-.52-27.61,2.27,5,8.82,5.79,8.82,5.79-1.31,5.85,0,18.19,0,18.19l1.38-.79c.49-6,1.38-12.35,2.49-18.45a221.69,221.69,0,0,1,6.91-29.18c1.76-4.42,6.29-.9,6.29-.9,1.86,8.42,2.77,14.7,1.8,19.18-1.47,6.83-5.83,9.52-5.83,9.52s-3.14,16.15-2.88,18.84,1.7,20.38,1.7,20.38c7.2-3.82,9.17-9.17,9.17-9.17.14-11.47,5.24-17.71,11.79-20.39S110.23,307.91,110.23,307.91Z" transform="translate(0 -41.54)"/><g id="Vector_19" data-name="Vector 19"><path class="cls-17" d="M160.29,268.81l-.51,1.66s10.43,2.59,19.49-3.23Z" transform="translate(0 -41.54)"/></g><path id="Vector_20" data-name="Vector 20" class="cls-18" d="M58.74,399.64s-5.26,5.54-6,9.95c0,0,3.4,8.25,5.53,11.3l1.38,35.05s20.74-14.4,19.95-40.66c0,0-1.38-17.71,0-22.67l-2.85-1.22.27,3.54s-8.82,10.84-18,12.87Z" transform="translate(0 -41.54)"/><path id="Vector_21" data-name="Vector 21" class="cls-19" d="M302.41,381.12v14S349,466.26,363.72,510.43l3.89,16s-27.22-38.76-48.39-36.72S295.86,504,295.86,504l1.57,6.38-1.57,2.54-4.46-19.37h-3.92v-3l-7.25-14.06S277,411.85,302.41,381.12Z" transform="translate(0 -41.54)"/><path id="Vector_22" data-name="Vector 22" class="cls-20" d="M198.8,240s1-7,3.94-8.66Z" transform="translate(0 -41.54)"/><g id="Vector_23" data-name="Vector 23"><path class="cls-17" d="M205.16,264.14a35.53,35.53,0,0,0,20.17-2.28L224,260.27S219.82,264.31,205.16,264.14Z" transform="translate(0 -41.54)"/></g><path id="Vector_24" data-name="Vector 24" class="cls-21" d="M156.53,249.63c-7.18,5.49.67,26.43.67,26.43s17.38,3.61,26.93-7.25V255.55s2.77-4.22,12.67-3.9c0,0,3.57,12.86,6.08,18.59,0,0,17.89,4.42,27.32-7,0,0,.77-12.72-3.58-18.83S198.8,240,198.8,240s-5.53,4.33-19.9,3.31C178.9,243.27,161.19,246.13,156.53,249.63Z" transform="translate(0 -41.54)"/><path id="Vector_25" data-name="Vector 25" class="cls-22" d="M179.27,265.39s-2.35-9.5-9.68-9.89-8.72,9.89-8.72,9.89Z" transform="translate(0 -41.54)"/><path id="Vector_26" data-name="Vector 26" class="cls-23" d="M203.85,261.86s-.19-11.07,7.4-13,10.85,6.87,10.85,6.87Z" transform="translate(0 -41.54)"/><path id="Vector_27" data-name="Vector 27" class="cls-24" d="M223.43,261.87a12.7,12.7,0,0,1-4.62,1.43,69.52,69.52,0,0,1-10.08,1c-2.63,0-4.6-.13-4.81-.63-.79-1.91,1.56-9.42,8.86-10.84S225.79,260,223.43,261.87Z" transform="translate(0 -41.54)"/><path id="Vector_28" data-name="Vector 28" class="cls-24" d="M179.6,266.86c-.1.39-1,.86-2.4,1.35a47.57,47.57,0,0,1-11.35,2,17.48,17.48,0,0,1-4.15-.22c-3.71-.78-1-8.65,5.79-10.34a8.37,8.37,0,0,1,2.64-.24,11,11,0,0,1,5.82,2.3H176C178.44,263.54,179.85,265.88,179.6,266.86Z" transform="translate(0 -41.54)"/><g id="Vector_29" data-name="Vector 29"><path class="cls-17" d="M187.29,285.87s-5.24.33-6.82-1.58,1.18-2.78,5.53-6,8.78-2.24,12.83-.58,7.34,1.89,7.8,3.34-5.1,3.16-6.61,3.09-2.1-.51-3.61.38a11,11,0,0,1-6.22,1.09,4.8,4.8,0,0,0-2.9.3Z" transform="translate(0 -41.54)"/></g><g id="Vector_30" data-name="Vector 30"><path class="cls-25" d="M196.38,284.48a2.83,2.83,0,0,1,1.11-1.14,3,3,0,0,1,1.58-.38c1.83.19,3.81.57,3.81.57A10.2,10.2,0,0,1,196.38,284.48Z" transform="translate(0 -41.54)"/></g><g id="Vector_31" data-name="Vector 31"><path class="cls-25" d="M189.8,285.52a3.31,3.31,0,0,0-1.15-1.2,3.42,3.42,0,0,0-1.61-.5c-1.9-.09-2.95,1.94-2.95,1.94a8,8,0,0,0,3.16.11,8.14,8.14,0,0,1,2.55-.35Z" transform="translate(0 -41.54)"/></g><path id="Vector_32" data-name="Vector 32" class="cls-26" d="M199.63,273.25s7.21-.71,6.91,7.76a8.27,8.27,0,0,0-2.11-5,8.68,8.68,0,0,0-4.8-2.75Z" transform="translate(0 -41.54)"/><path id="Vector_33" data-name="Vector 33" class="cls-27" d="M220.05,259.58a6.24,6.24,0,0,1-1.24,3.77,69.53,69.53,0,0,1-10.08,1,6.56,6.56,0,0,1-1.77-2.7,6.41,6.41,0,0,1-.25-3.19,6.59,6.59,0,0,1,4-4.87,6.8,6.8,0,0,1,3.24-.52,7,7,0,0,1,3.11,1.05,6.72,6.72,0,0,1,2.23,2.36,6.36,6.36,0,0,1,.8,3.1Z" transform="translate(0 -41.54)"/><path id="Vector_34" data-name="Vector 34" class="cls-27" d="M177.62,265.89a6.41,6.41,0,0,1-.42,2.29,47.57,47.57,0,0,1-11.35,2,6.29,6.29,0,0,1-1.68-4.28,6.44,6.44,0,0,1,1.72-4.37,6.79,6.79,0,0,1,4.27-2.15h.69a6.73,6.73,0,0,1,2.83.61,6.63,6.63,0,0,1,2.3,1.72h.07A6.32,6.32,0,0,1,177.62,265.89Z" transform="translate(0 -41.54)"/><path id="Vector_35" data-name="Vector 35" class="cls-28" d="M203.85,261.86s2.2-8,9.57-8.72a10.62,10.62,0,0,1,5.83,1.21,10.11,10.11,0,0,1,4.15,4.17s-1.84-6.55-8.13-6.88S205,256.59,203.85,261.86Z" transform="translate(0 -41.54)"/><path id="Vector_36" data-name="Vector 36" class="cls-28" d="M179,265s-4.63-6.26-11.31-4.77a10,10,0,0,0-5,2.58,9.63,9.63,0,0,0-2.72,4.78s.63-6.86,7.08-8.77C174.2,256.64,179,265,179,265Z" transform="translate(0 -41.54)"/><g id="Vector_37" data-name="Vector 37"><path class="cls-29" d="M177.62,297.24s4.55,1.78,16.95.62a29.53,29.53,0,0,0,19.36-10.16s-9.2,12.28-16.77,13.12-10.69-1.25-14.49-2.26Z" transform="translate(0 -41.54)"/></g><path id="Vector_38" data-name="Vector 38" class="cls-24" d="M189.25,298.66a10.66,10.66,0,0,0,3.85,1.65,10.79,10.79,0,0,0,4.2,0,14.91,14.91,0,0,0,7.06-4.71A43.37,43.37,0,0,1,189.25,298.66Z" transform="translate(0 -41.54)"/><path id="Vector_39" data-name="Vector 39" class="cls-30" d="M210.72,286.85a8.78,8.78,0,0,1,4.72,1.23,8.43,8.43,0,0,1,3.27,3.53S219.64,284.8,210.72,286.85Z" transform="translate(0 -41.54)"/><path id="Vector_40" data-name="Vector 40" class="cls-31" d="M192.17,303.89a19.94,19.94,0,0,0,12.16-2.14s-1.73,6.12-5.79,6.5S192.17,303.89,192.17,303.89Z" transform="translate(0 -41.54)"/><path id="Vector_41" data-name="Vector 41" class="cls-32" d="M216.85,259.34a3.37,3.37,0,0,1-.6,1.91,3.56,3.56,0,0,1-1.58,1.26,3.57,3.57,0,0,1-3.85-.75,3.35,3.35,0,0,1-.75-3.74,3.48,3.48,0,0,1,1.3-1.54,3.67,3.67,0,0,1,2-.57,3.62,3.62,0,0,1,2.49,1,3.4,3.4,0,0,1,1,2.42Z" transform="translate(0 -41.54)"/><path id="Vector_42" data-name="Vector 42" class="cls-33" d="M174.42,265.39a3.35,3.35,0,0,1-.6,1.91,3.51,3.51,0,0,1-1.58,1.27,3.62,3.62,0,0,1-3.85-.75,3.52,3.52,0,0,1-1-1.76,3.4,3.4,0,0,1,.21-2,3.45,3.45,0,0,1,1.3-1.53,3.61,3.61,0,0,1,4.45.44,3.36,3.36,0,0,1,1,2.41Z" transform="translate(0 -41.54)"/><path id="Vector_43" data-name="Vector 43" class="cls-34" d="M216.22,258.63s3.16-1.45,5.19.9Z" transform="translate(0 -41.54)"/><path id="Vector_44" data-name="Vector 44" class="cls-34" d="M173.07,264.7a5.65,5.65,0,0,1,5.18.36Z" transform="translate(0 -41.54)"/><g id="Vector_45" data-name="Vector 45"><path class="cls-35" d="M159.78,300.11c4.38,9.9,12.58,18.72,24.35,22.25,7.14,2.12,24.46-.18,32.72-4.48a36.5,36.5,0,0,0,11.55-9.26,35.16,35.16,0,0,0,6.79-13s1,8.41-14.32,22.24l.54,19.61s-16.47,11-23.92,13.92-18.73-14.8-18.73-14.8l-.42-15.26S163.76,314.39,159.78,300.11Z" transform="translate(0 -41.54)"/></g><path id="Vector_46" data-name="Vector 46" class="cls-36" d="M198.94,240s2.77-8.46,10.3-8.65l-8.78,7.38s7.83-6,15.21-4.65a19.69,19.69,0,0,1,6.61,4,19,19,0,0,1,4.45,6.25A67.46,67.46,0,0,0,198.94,240Z" transform="translate(0 -41.54)"/><path id="Vector_47" data-name="Vector 47" class="cls-37" d="M178.9,243.27s-.65-6.08-4.94-8.22l3.86,6.62s-3.44-3.69-5.73-4.26S161,240.1,156.53,249.63a112.29,112.29,0,0,1,22.37-6.36Z" transform="translate(0 -41.54)"/><g id="Vector_48" data-name="Vector 48"><path class="cls-35" d="M176.6,218.2c6.28-1,19.36-22.09,32.46-23.78s16.79,19.76,14.34,22.87S206.63,220,206.63,220s-17.41-.91-22.76-1.73S176.6,218.2,176.6,218.2Z" transform="translate(0 -41.54)"/></g><path id="Vector_49" data-name="Vector 49" class="cls-38" d="M224.1,221.48s9.94,3.89,15,9.82,3.61,14.59,3.61,14.59L241,253S243.86,231.06,224.1,221.48Z" transform="translate(0 -41.54)"/><path id="Vector_50" data-name="Vector 50" class="cls-39" d="M163.65,222.26s-21.49,10-17.28,30.4l2.43,6.87S144.25,237,163.65,222.26Z" transform="translate(0 -41.54)"/><path id="Vector_51" data-name="Vector 51" class="cls-40" d="M165.28,220.84s-13.66,2.43-20.56,13.19a23.11,23.11,0,0,1,8.36-9.43A23.91,23.91,0,0,1,165.28,220.84Z" transform="translate(0 -41.54)"/><path id="Vector_52" data-name="Vector 52" class="cls-41" d="M178.25,217.58s10.42-11.06,26.11-9.24,19,13.14,19,13.14-1.73-16.61-16.8-19.25S178.25,217.58,178.25,217.58Z" transform="translate(0 -41.54)"/><path id="Vector_53" data-name="Vector 53" class="cls-42" d="M231,214.23s14,4.26,14.6,16.06C245.6,230.29,249.51,217.2,231,214.23Z" transform="translate(0 -41.54)"/><g id="Vector_54" data-name="Vector 54"><path class="cls-3" d="M185.26,275.12c-1.39,2.1,4.85-.35,9.42,0s4.15.91,4.33,0-3.41-5.15-7.47-4.52a8.85,8.85,0,0,0-3.69,1.53,8.45,8.45,0,0,0-2.59,3Z" transform="translate(0 -41.54)"/></g><path id="Vector_55" data-name="Vector 55" class="cls-43" d="M190.16,285.57a9.92,9.92,0,0,1-3.25-2.53,9.68,9.68,0,0,1-1.92-3.59l-2.53,1.26a10.24,10.24,0,0,0,3.28,3.3,10.7,10.7,0,0,0,4.42,1.56Z" transform="translate(0 -41.54)"/><g id="Vector_56" data-name="Vector 56"><path class="cls-44" d="M182.39,253.55c-1.86-3.08-18.9-4.29-29,5.54-4.15,4.1,0,20.17,6.19,24.37s18,1.81,21.93-7.13S184.25,256.63,182.39,253.55Zm-17,29.91c-9.16-.43-15.21-15.2-10.86-21.95,5.45-8.54,23.27-10.84,25.34-5.29C188.59,279.33,172.6,283.8,165.42,283.46Z" transform="translate(0 -41.54)"/></g><g id="Vector_57" data-name="Vector 57"><path class="cls-44" d="M199.4,250.33c1.38-3.42,19.7-9.74,32-2.19,5.12,3.15,3.51,20.91-2.85,26.79-5.78,5.38-18.29,5.54-24-2.42S198,253.75,199.4,250.33Zm23.1,25.81c9.41-2.34,13.82-19.66,8.12-25.38-7.21-7.25-27-4.21-28.17,1.68C197.7,276.94,215.1,278,222.5,276.14Z" transform="translate(0 -41.54)"/></g><path id="Vector_58" data-name="Vector 58" class="cls-45" d="M182.39,253c-1.86-2.89-18.9-4-29,5.19-4.15,3.85,0,18.83,6.19,22.87s18,1.69,21.93-6.73S184.25,255.87,182.39,253Zm-17,28c-9.16-.42-15.21-14.24-10.86-20.56,5.45-8,23.27-10.16,25.34-5C188.59,277.14,172.6,281.32,165.42,281Z" transform="translate(0 -41.54)"/><path id="Vector_59" data-name="Vector 59" class="cls-46" d="M199.4,250c1.38-3.2,19.7-9.12,32-2.05,5.12,3,3.51,19.59-2.85,25.09-5.78,5-18.29,5.19-24-2.25S198,253.17,199.4,250Zm23.1,24.21c9.41-2.19,13.82-18.42,8.12-23.78-7.21-6.79-27-3.94-28.17,1.57-4.75,22.93,12.65,23.9,20.05,22.18Z" transform="translate(0 -41.54)"/><path id="Vector_60" data-name="Vector 60" class="cls-47" d="M183.43,257.47s9.12-3.56,16.59-.75l-.51-3.74a21.58,21.58,0,0,0-16.44,1.65Z" transform="translate(0 -41.54)"/><path id="Vector_61" data-name="Vector 61" class="cls-48" d="M236.05,255.48l2.65,6.5L242,260.7l-4.46-11.82Z" transform="translate(0 -41.54)"/><path id="Vector_62" data-name="Vector 62" class="cls-49" d="M152,261.86,148.51,263l1.05,3.9,2.58.66Z" transform="translate(0 -41.54)"/><path id="Vector_63" data-name="Vector 63" class="cls-49" d="M237.9,255.23l-3.5.58-1.59-6.47,4.76-.46Z" transform="translate(0 -41.54)"/><g id="Vector_64" data-name="Vector 64"><path class="cls-50" d="M202.88,258.24a15.43,15.43,0,0,0,8.5,15.06,24.4,24.4,0,0,0,12.58-.53l-5.64-15.23Z" transform="translate(0 -41.54)"/></g><g id="Vector_65" data-name="Vector 65"><path class="cls-50" d="M155.05,264.36s-1,10.14,6.91,15.06a16.65,16.65,0,0,0,10.3-.53l-4.59-15.27Z" transform="translate(0 -41.54)"/></g><g id="Vector_66" data-name="Vector 66"><path class="cls-17" d="M184.12,263a15.32,15.32,0,0,1,15.21-2l-.89-2.81A14.79,14.79,0,0,0,184,259.68Z" transform="translate(0 -41.54)"/></g><g id="Vector_67" data-name="Vector 67"><path class="cls-17" d="M236,286.85s2.43.55,3.05,2.18-3.45,3.52-3.45,3.52Z" transform="translate(0 -41.54)"/></g><g id="Vector_68" data-name="Vector 68"><path class="cls-17" d="M158.06,292.55s-2.76,2.95-2.36,4,3.55,1.34,3.55,1.34Z" transform="translate(0 -41.54)"/></g><path id="Vector_69" data-name="Vector 69" class="cls-51" d="M178.25,217.58a39.62,39.62,0,0,1,20.73,0c12,3,5.42,9.59,5.42,9.59S200.68,213.72,178.25,217.58Z" transform="translate(0 -41.54)"/><g id="Vector_70" data-name="Vector 70"><path class="cls-34" d="M206.63,189.11a4,4,0,0,1,2.1,2.3,3.93,3.93,0,0,1-.18,3.08,9.43,9.43,0,0,1,7.51,1.49,8.8,8.8,0,0,0-3.68-2.89c-2-.63-2.23-4-2.23-4a8,8,0,0,0-3.52.06Z" transform="translate(0 -41.54)"/></g><g id="Vector_71" data-name="Vector 71"><path class="cls-34" d="M207.15,202.34c1.29,1.17-2.22,6.07-2.22,6.07l5.94,1.41s-2.11-2-1.91-3.74,2.38-2.41,2.38-2.41Z" transform="translate(0 -41.54)"/></g><g id="Vector_72" data-name="Vector 72"><path class="cls-35" d="M173,357.86s2.68,40.07,27.75,41.62c28,1.73,29.47-32.11,26-45.73,5.18,20.48.61,46.17-25.43,46.72C174.65,401.07,173,357.86,173,357.86Z" transform="translate(0 -41.54)"/></g><g id="Vector_73" data-name="Vector 73"><path class="cls-35" d="M179.12,350.39s-.78,38,22.53,37.29c22.44-.68,21.78-29.17,21.78-29.17l.26,7.07s-6.51,29.25-24.06,26.65S178.34,360.76,179.12,350.39Z" transform="translate(0 -41.54)"/></g><path id="Vector_74" data-name="Vector 74" class="cls-52" d="M180,322.32s13.34,50.94,16.35,53.8-5.31-48.95-5.31-48.95Z" transform="translate(0 -41.54)"/><g id="Vector_75" data-name="Vector 75"><path class="cls-35" d="M222.39,341l1.71-1.48s12,19.8,16.22,31.47-9,154.91-9,154.91l-14.6-.45s15.64-84.38,18.43-117.67a105.74,105.74,0,0,0-12.1-58.19Z" transform="translate(0 -41.54)"/></g><g id="Vector_76" data-name="Vector 76"><path class="cls-35" d="M188.53,525.6s-20.74-132.46-19.45-149.54,10-25.67,10-25.67l-.14-5.56-6-1.28s-8.12,21.27-9.43,32.62S173,525.6,173,525.6Z" transform="translate(0 -41.54)"/></g><path id="Vector_77" data-name="Vector 77" class="cls-53" d="M153.46,366.35s-13.23,14.45-23.71,24c0,0,2.61,6.45,16.59,8.83l-11.59,12.75s11.75,70.33,26.42,114.17L173,525.6s-10.49-133-9.44-149.43S173,343.55,173,343.55A288.61,288.61,0,0,1,153.46,366.35Z" transform="translate(0 -41.54)"/><path id="Vector_78" data-name="Vector 78" class="cls-54" d="M225.65,339.52s14.9,22.78,31.68,27.66L276,390s-.13,7.65-20.3,11.57l12.79,14.79s-8.39,64.56-27.29,109l-9.79.57s14.27-131.8,9.44-152.46a95,95,0,0,0-15.15-33.87Z" transform="translate(0 -41.54)"/><path id="Vector_79" data-name="Vector 79" class="cls-55" d="M173.07,366.35s-.75,45.54,23.73,73.73Z" transform="translate(0 -41.54)"/><path id="Vector_80" data-name="Vector 80" class="cls-56" d="M232.81,370.82s5.53,33.15-27.65,53.6C205.16,424.42,227.56,401.44,232.81,370.82Z" transform="translate(0 -41.54)"/><g id="Vector_81" data-name="Vector 81"><path class="cls-35" d="M52.77,430.32l3.83,28s22.71-11.77,23.16-43c0,0-3.06,21.08-19.48,31.09l-1.92-25.48-1.07-1.74Z" transform="translate(0 -41.54)"/></g><g id="Vector_82" data-name="Vector 82"><path class="cls-35" d="M59.06,407.76l-5.24,1.16a21.16,21.16,0,0,1,5-7.91Z" transform="translate(0 -41.54)"/></g><path id="Vector_83" data-name="Vector 83" class="cls-57" d="M85.71,287.72c-1.38,6.83-4.65,9.52-4.65,9.52s-3.14,16.15-2.88,18.84c-12.3,2.34-29.42,11.09-33.1,15.84-3.37,4.37-.62,21.38-.16,24.1l-3.1-14.55c-1-6.14-1.38-10.34-1.38-10.34l-1-12.62c1.82-8.15,6.72-6.87,6.72-6.87a78.15,78.15,0,0,0,2.76,14.44l.9-.59a122.45,122.45,0,0,1-1.92-15.72c2.45-6.88,8.47-5,8.47-5,1.48,8.33,3.4,16.73,3.4,16.73-1.66-10.76-.52-27.61-.52-27.61,2.27,5,8.82,5.79,8.82,5.79-1.31,5.85,0,18.19,0,18.19l1.38-.79c.49-6,1.38-12.35,2.49-18.45C81.37,296.73,85.51,288.25,85.71,287.72Z" transform="translate(0 -41.54)"/><path id="Vector_84" data-name="Vector 84" class="cls-58" d="M59.14,293.9,84.21,281S92.7,296.71,68,299.67C68,299.67,60.28,301.28,59.14,293.9Z" transform="translate(0 -41.54)"/><path id="Vector_85" data-name="Vector 85" class="cls-59" d="M50.56,305.38,67.84,294s3.93,5.38.47,10.43c-3,4.32-12.71,8.45-20.39,6.73C47.92,311.21,46.92,308.17,50.56,305.38Z" transform="translate(0 -41.54)"/><path id="Vector_86" data-name="Vector 86" class="cls-60" d="M45.62,311.31l15.21-1.15s.59,8.07-7.29,9a26.19,26.19,0,0,1-13.82-1.59,5.49,5.49,0,0,1,1.46-4.48,5.85,5.85,0,0,1,2-1.39A6.12,6.12,0,0,1,45.62,311.31Z" transform="translate(0 -41.54)"/><path id="Vector_87" data-name="Vector 87" class="cls-61" d="M75.33,285.57c-3.5,1.8,2.13,1.35,4.88,0a11,11,0,0,1,4-4.56Z" transform="translate(0 -41.54)"/><path id="Vector_88" data-name="Vector 88" class="cls-61" d="M67.84,294s-5,3.17-5.81,6.24c0,0-6.63,3.32-4.89,1.15S67.84,294,67.84,294Z" transform="translate(0 -41.54)"/><path id="Vector_89" data-name="Vector 89" class="cls-61" d="M60.93,310.16s-3.18-.42-5.67,3.21c0,0-5.95.36-4.9-1.49S60.93,310.16,60.93,310.16Z" transform="translate(0 -41.54)"/><path id="Vector_90" data-name="Vector 90" class="cls-62" d="M92.06,357.86s-17.64,10.36-22,15.46A56.52,56.52,0,0,0,64.83,380l12.22-7.14S82.11,367.18,92.06,357.86Z" transform="translate(0 -41.54)"/><path id="Vector_91" data-name="Vector 91" class="cls-63" d="M79.88,336.41S64.47,339,63.6,356.33c0,0-.09-24.64,16.17-21.22Z" transform="translate(0 -41.54)"/><path id="Vector_92" data-name="Vector 92" class="cls-64" d="M89.05,327.24c1.09,3.09,12-4.92,12-4.92s-8.45,11.16-7.69,22.12c0,0-2.35-6.89-8.44-7.65A22.23,22.23,0,0,0,73,339.26a29.19,29.19,0,0,1,6.91-2.85S86.72,332.54,89.05,327.24Z" transform="translate(0 -41.54)"/><g id="Vector_93" data-name="Vector 93"><path class="cls-17" d="M58.88,403.9a33.82,33.82,0,0,0,18.17-9s-7.16,9.78-18,12.87Z" transform="translate(0 -41.54)"/></g><path id="Vector_94" data-name="Vector 94" class="cls-65" d="M114.19,401.35s13,27.44,16.66,57.83c0,0,2.6-45.61-16.66-73.51Z" transform="translate(0 -41.54)"/><path id="Vector_95" data-name="Vector 95" class="cls-66" d="M89.19,441.54s16.75,20.39,17.8,44.38c0,0,5.24-36.45-16.91-45.8Z" transform="translate(0 -41.54)"/><path id="Vector_96" data-name="Vector 96" class="cls-67" d="M40.47,469.05S63.33,466,77.05,442.56c0,0-3.32,27-24.81,31.85Z" transform="translate(0 -41.54)"/><path id="Vector_97" data-name="Vector 97" class="cls-68" d="M83,421.4s5.37,32.87,9,57.59,2.1,28.08,2.1,28.08,1.81-13.62-.79-38.5A236.27,236.27,0,0,0,83,421.4Z" transform="translate(0 -41.54)"/><g id="Vector_98" data-name="Vector 98"><path class="cls-35" d="M130.85,473.72l-1.06-23.67s7.67,58.17,22.34,75.75l4.73-3s-6.91-33.36-13-63.71l17.32,66.94-23-.16S132.62,489.7,130.85,473.72Z" transform="translate(0 -41.54)"/></g><path id="Vector_99" data-name="Vector 99" class="cls-69" d="M302.41,381.12s-17.48,24.06-19.87,53.45c0,0,6.51-26.16,19.87-39.42Z" transform="translate(0 -41.54)"/><path id="Vector_100" data-name="Vector 100" class="cls-70" d="M294.29,421.4s2.62,46.12-2.89,72.12h-3.92S298.22,458.86,294.29,421.4Z" transform="translate(0 -41.54)"/><path id="Vector_101" data-name="Vector 101" class="cls-71" d="M280.23,476.41l2.31-30s-8.42,59.76-21.52,78.8h10.79S279.15,498.52,280.23,476.41Z" transform="translate(0 -41.54)"/><path id="Vector_102" data-name="Vector 102" class="cls-72" d="M292.48,498.19s6.91-14,18.75-16.41,35.18,4,35.18,4a22.73,22.73,0,0,0-9.85-10.6,23.64,23.64,0,0,0-14.44-2.67c-18.16,2-21,10.76-24.54,16.06s-5.85,6-5.85,6Z" transform="translate(0 -41.54)"/><path id="Vector_103" data-name="Vector 103" class="cls-73" d="M301.54,488.34s9-6.72,24.8-4.5,19.35,5.38,19.35,5.38S321.53,480.53,301.54,488.34Z" transform="translate(0 -41.54)"/><path id="Vector_104" data-name="Vector 104" class="cls-74" d="M285.32,486.29s9.57-36.6,3.64-69.94c0,0-9.16,8.33-8.73,60.1Z" transform="translate(0 -41.54)"/><g id="Vector_105" data-name="Vector 105"><path class="cls-35" d="M246.35,525.18s16.59-54.7,16.45-100.76c0,0-5.37,57.74-21.65,100.87Z" transform="translate(0 -41.54)"/></g><path id="Vector_106" data-name="Vector 106" class="cls-75" d="M306.07,493.52l1.84,13.38s17.63,2.48,17.85,2.13,0-17.8,0-17.8Z" transform="translate(0 -41.54)"/><path id="Vector_107" data-name="Vector 107" class="cls-76" d="M325.9,487c-24.63-3.74-33.18,12.23-33.18,12.23l3.14,13.68c29.29,17.63,71.75,13.53,71.75,13.53S350.52,490.72,325.9,487Zm-28.47,23.37-1.05-8.42s2.76-14.18,27.25-12.11c19.2,1.6,38.89,33.14,38.89,33.14C324.42,529.12,297.43,510.35,297.43,510.35Z" transform="translate(0 -41.54)"/><path id="Vector_108" data-name="Vector 108" class="cls-77" d="M298.43,509s-15.36,6.91-18.34,9.41a10.29,10.29,0,0,0,0,5.17c.83,2.1,6.74,2.1,10.26.95S299.13,514,299.13,514Z" transform="translate(0 -41.54)"/><path id="Vector_109" data-name="Vector 109" class="cls-78" d="M289.88,526.57s4.58-20.18,19.36-26.46,34.42,12.35,35.29,26.79Z" transform="translate(0 -41.54)"/><g id="Vector_110" data-name="Vector 110"><path class="cls-35" d="M291.94,520.31H309s2.55-14.13,7.16-21.18C316.2,499.13,300.42,498.26,291.94,520.31Z" transform="translate(0 -41.54)"/></g><g id="Vector_111" data-name="Vector 111"><path class="cls-79" d="M299,508.05a31.23,31.23,0,0,1,17-.51c9.68,2.27,23.75,16.22,24.89,16.82a14.89,14.89,0,0,0,3.35.94s-3.88-20-19.86-25.28S299,508.05,299,508.05Z" transform="translate(0 -41.54)"/></g><g id="Vector_112" data-name="Vector 112"><path class="cls-35" d="M313.69,520.31s1.12-14.43,4-20.29c0,0,8.76,1.24,13.17,4.48l-1,16.14Z" transform="translate(0 -41.54)"/></g><path id="Vector_113" data-name="Vector 113" class="cls-80" d="M347.12,511.7c0,3.49-2,8.08-2.85,9.86l-.36.72c-5.32.76-6.3-3-6.3-3l1.3-2.69a4.69,4.69,0,0,1-4.73,0c-2.63-1.46-4.67-6.05-4.67-6.05l.95-3.63a14.55,14.55,0,0,1-1.13,1.34,4.1,4.1,0,0,1-1.1.88c-1,.41-8.64-1.54-9.43-3.11a13.9,13.9,0,0,1-.23-4.68h0c.15-3,.53-6.12.53-6.12l-2.92-.51a32.87,32.87,0,0,1-4.26,6.82h0a5.07,5.07,0,0,1-.44.37,72.36,72.36,0,0,1-9,4.12c-4.36-1.55-4.76-4.57-4.48-6.55a7.1,7.1,0,0,1,.52-1.92c3.5-4.76,3.79-11.5,9.39-11.37s7.84,3.42,7.84,3.42a9.85,9.85,0,0,0,3.36.57,16.18,16.18,0,0,1,8.29.14c4,1.35,6.35,6.32,6.35,6.32s6.37,3.4,7.51,5,.78,6.28.78,6.28C344.59,508.56,347.12,511.7,347.12,511.7Z" transform="translate(0 -41.54)"/><g id="Vector_114" data-name="Vector 114"><path class="cls-35" d="M255.65,401.54l-13.82-8.3a43.88,43.88,0,0,1,13.82,8.3Z" transform="translate(0 -41.54)"/></g><g id="Vector_115" data-name="Vector 115"><path class="cls-35" d="M146.38,399.14s10.91-9.35,17.34-10.76a132,132,0,0,0-17.34,10.76Z" transform="translate(0 -41.54)"/></g><path id="Vector_116" data-name="Vector 116" class="cls-81" d="M124.7,526.42s-14-57.61-18.09-100.87c0,0,102.65-14.24,179.49-6.15,0,0-3.32,57.46-11.92,107Z" transform="translate(0 -41.54)"/><g id="Vector_117" data-name="Vector 117" class="cls-82"><path class="cls-34" d="M205.16,419.51,124.7,526.42h65.46L262.8,419.51S228.68,417,205.16,419.51Z" transform="translate(0 -41.54)"/></g><path id="Vector_118" data-name="Vector 118" class="cls-83" d="M106.61,425.56l3.09-4.49s87.1-12.39,171.43-4.56l4.94,2.9S186.64,415,106.61,425.56Z" transform="translate(0 -41.54)"/><path id="Vector_119" data-name="Vector 119" class="cls-34" d="M178,481s11.54-18.83,30.65-20.94C208.65,460.06,206.81,472.47,178,481Z" transform="translate(0 -41.54)"/><path id="Vector_120" data-name="Vector 120" class="cls-34" d="M255.65,414.72v4l-30-.21v-4.62S247.92,414.26,255.65,414.72Z" transform="translate(0 -41.54)"/><path id="Vector_121" data-name="Vector 121" class="cls-34" d="M119.06,419.9V424l22-2.06,1-4.42S125.09,419.16,119.06,419.9Z" transform="translate(0 -41.54)"/><g id="Vector_122" data-name="Vector 122"><path class="cls-84" d="M122.59,517.34s12.09,6.87,74.21,8,78.41-5,78.41-5l-1,6.13H124.7Z" transform="translate(0 -41.54)"/></g><g id="Vector_123" data-name="Vector 123"><path class="cls-35" d="M311.86,501.68a4,4,0,0,1-.44.38,71.7,71.7,0,0,1-9,4.12c-4.35-1.55-4.75-4.58-4.48-6.55,2.12,1.07,12.6-1.24,13.65-.73S311.86,501.68,311.86,501.68Z" transform="translate(0 -41.54)"/></g><g id="Vector_124" data-name="Vector 124"><path class="cls-35" d="M330.42,505.05a8.28,8.28,0,0,1-1.15,3.32,4,4,0,0,1-1.09.87c-1,.42-8.64-1.53-9.43-3.1a14.17,14.17,0,0,1-.24-4.68h0s4.15-2.69,7.33-1.42S330.42,503.14,330.42,505.05Z" transform="translate(0 -41.54)"/></g><g id="Vector_125" data-name="Vector 125"><path class="cls-35" d="M340.19,513.28a5.94,5.94,0,0,1-1.31,3.38h0a4.75,4.75,0,0,1-4.73,0c-2.63-1.47-4.67-6.06-4.67-6.06.44-1.69,2.76-2.49,5.53-1.27A17.28,17.28,0,0,1,340.19,513.28Z" transform="translate(0 -41.54)"/></g><g id="Vector_126" data-name="Vector 126"><path class="cls-35" d="M344.24,521.56a1.12,1.12,0,0,1-.1.4,1,1,0,0,1-.26.32h0c-5.32.76-6.3-3-6.3-3,.63-1.34,3.52-1.46,5.1-.51a3.15,3.15,0,0,1,1.17,1.18,3,3,0,0,1,.39,1.6Z" transform="translate(0 -41.54)"/></g><g id="Vector_127" data-name="Vector 127"><path class="cls-35" d="M280.1,523.66a9,9,0,0,0,4,1.13,9.15,9.15,0,0,0,4.1-.75c4.78-1.84,1.23-10.52,1.23-10.52l8.57-4.18s-6.29,9.35-7.67,15.28C290.33,524.62,282,526.92,280.1,523.66Z" transform="translate(0 -41.54)"/></g><path id="Vector_128" data-name="Vector 128" class="cls-61" d="M299.13,498.07a19.9,19.9,0,0,1,9.91-1s-1.38-3.95-4.94-3.56S299.13,498.07,299.13,498.07Z" transform="translate(0 -41.54)"/><path id="Vector_129" data-name="Vector 129" class="cls-61" d="M323.23,498.78s5.64-.23,7.53,2.69c0,0-1.7-4.91-4.06-4.71a4.85,4.85,0,0,0-2,.63,4.64,4.64,0,0,0-1.5,1.39Z" transform="translate(0 -41.54)"/><path id="Vector_130" data-name="Vector 130" class="cls-61" d="M334.81,507.72s4.26,1.21,5.38,4c0,0,0-5.1-2-5.54S334.81,507.72,334.81,507.72Z" transform="translate(0 -41.54)"/><path id="Vector_131" data-name="Vector 131" class="cls-61" d="M340.92,517.21s2.66.55,3.36,1.66c0,0,1.08-3.49-.62-3.94S340.92,517.21,340.92,517.21Z" transform="translate(0 -41.54)"/><path id="Vector_132" data-name="Vector 132" class="cls-85" d="M333.67,496.75A52.47,52.47,0,0,1,330.39,507a15.66,15.66,0,0,0,4.42-9.59Z" transform="translate(0 -41.54)"/><path id="Vector_133" data-name="Vector 133" class="cls-86" d="M342,508.05l-2.27,7.3s4.8-2.18,4-6.62Z" transform="translate(0 -41.54)"/><g id="Vector_134" data-name="Vector 134"><path class="cls-35" d="M313.39,499.68l2.29-10,1,.29-.54,4.8,2.92.51-.37,3.82S314.66,498.82,313.39,499.68Z" transform="translate(0 -41.54)"/></g><g id="Vector_135" data-name="Vector 135"><path class="cls-35" d="M255.65,401.54S269.93,397.27,276,390c0,0-2.67,12.47-18,14.18Z" transform="translate(0 -41.54)"/></g><g id="Vector_136" data-name="Vector 136"><path class="cls-35" d="M129.79,390.31s-1.12,8.8,13.59,12.1l4.55-4.57a44,44,0,0,1-18.14-7.53Z" transform="translate(0 -41.54)"/></g><path id="Vector_137" data-name="Vector 137" class="cls-87" d="M237,353.36s8.09,17.93,13.83,23.78,21.56,8.46,21.56,8.46l-15-18.42S246.46,364.64,237,353.36Z" transform="translate(0 -41.54)"/><path id="Vector_138" data-name="Vector 138" class="cls-88" d="M169.84,347.56s-6.14,15.23-10.06,27.71-20.94,14-20.94,14S157.25,360.76,169.84,347.56Z" transform="translate(0 -41.54)"/><g id="Vector_139" data-name="Vector 139"><path class="cls-17" d="M49,368.42,60.93,375l-3.45.27-7.88-5.4Z" transform="translate(0 -41.54)"/></g><path id="Vector_140" data-name="Vector 140" class="cls-89" d="M51.72,340.7c2.58-6.45,19.35-14.32,23.1-12.94s2.68,9.73,2.68,9.73-10.16,1-13.82,16.28c0,0-4.8,4.89-8.13,2.2S51.72,340.7,51.72,340.7Z" transform="translate(0 -41.54)"/><g id="Vector_141" data-name="Vector 141" class="cls-90"><path class="cls-34" d="M302.41,395.15a288.6,288.6,0,0,0,14.83,44.93c10.7,25.76,37.52,48,37.52,48S324.38,426.74,302.41,395.15Z" transform="translate(0 -41.54)"/></g><g id="Vector_142" data-name="Vector 142" class="cls-90"><path class="cls-34" d="M262.8,369.47a50.9,50.9,0,0,0,10.31,11.08c5.77,4.24,23.23,9.42,23.23,9.42l6.07-8.85a158.89,158.89,0,0,0-22.31-7.6C269.06,370.83,262.8,369.47,262.8,369.47Z" transform="translate(0 -41.54)"/></g><g id="Vector_143" data-name="Vector 143" class="cls-90"><path class="cls-34" d="M114.19,385.6a116.14,116.14,0,0,1,6.2,11.46s7.78-7.33,12.66-12.27a36.21,36.21,0,0,0,6.91-9.51C132,378,118.56,381.8,114.19,385.6Z" transform="translate(0 -41.54)"/></g><path id="Vector_144" data-name="Vector 144" class="cls-91" d="M203.23,239.72a20.79,20.79,0,0,1,7.34-3.64,21.24,21.24,0,0,1,8.21-.57,51.32,51.32,0,0,0-15.55,4.21Z" transform="translate(0 -41.54)"/><path id="Vector_145" data-name="Vector 145" class="cls-92" d="M206.15,239.72s10.75-3.39,17.25-.39a36.2,36.2,0,0,0-17.25.39Z" transform="translate(0 -41.54)"/><path id="Vector_146" data-name="Vector 146" class="cls-93" d="M178.25,243.45s-5.42-5.72-10.47-5.09Z" transform="translate(0 -41.54)"/><path id="Vector_147" data-name="Vector 147" class="cls-94" d="M176.6,243.66s-7.94-5.77-14.64-1.56C162,242.1,167.78,239.41,176.6,243.66Z" transform="translate(0 -41.54)"/><path id="Vector_148" data-name="Vector 148" class="cls-95" d="M69.73,299.42A8.57,8.57,0,0,0,67.84,294a7,7,0,0,1,2.2,2.26,6.86,6.86,0,0,1,.94,3Z" transform="translate(0 -41.54)"/><path id="Vector_149" data-name="Vector 149" class="cls-96" d="M59.6,310.14l-11.68,1.07S51.73,309.63,59.6,310.14Z" transform="translate(0 -41.54)"/></g><g id="luz"><path id="Vector_150" data-name="Vector 150" class="cls-97" d="M368.89,178.16,272.39,538H553L465,183.59" transform="translate(0 -41.54)"/></g><g id="lamparaconluz"><g id="lampara"><path id="Vector_151" data-name="Vector 151" class="cls-98" d="M356,189.81s42.43,8.61,130.44.39C486.43,190.2,438.78,165.72,356,189.81Z" transform="translate(0 -41.54)"/><path id="Vector_152" data-name="Vector 152" class="cls-99" d="M371.57,85.51,374,78.86s41.19-22.3,93.38,0l1,6.65S410.91,72.46,371.57,85.51Z" transform="translate(0 -41.54)"/><path id="Vector_153" data-name="Vector 153" class="cls-100" d="M428.56,527,418,137h5.36L437,527Z" transform="translate(0 -41.54)"/><path id="Vector_154" data-name="Vector 154" class="cls-101" d="M356,189.81l15.57-104.3s48.36-20.16,96.72,0L486.43,190.2S423.08,171.07,356,189.81Z" transform="translate(0 -41.54)"/><g id="Vector_155" data-name="Vector 155"><path class="cls-102" d="M382.43,82V75.28L395,71.67v7.39Z" transform="translate(0 -41.54)"/></g><path id="Vector_156" data-name="Vector 156" class="cls-103" d="M361.85,150.69s66.88-21.9,118.68,5.5L475,124.43S429,105,364.85,130.59Z" transform="translate(0 -41.54)"/><path id="Vector_157" data-name="Vector 157" class="cls-104" d="M359.61,165.6s64.44-22.28,122.59,0l4.26,24.6S435.93,173,356,189.81Z" transform="translate(0 -41.54)"/><path id="Vector_158" data-name="Vector 158" class="cls-105" d="M400.21,183l-1.79,67h3.91l.85-67.24Z" transform="translate(0 -41.54)"/><path id="Vector_159" data-name="Vector 159" class="cls-106" d="M356,189.81s53.06-12.22,79.74-27.16c16.93-9.46,14.15-89.81,14.15-89.81l17.5,6,19.1,111.34S441.68,173,356,189.81Z" transform="translate(0 -41.54)"/></g></g><path id="escritorio" class="cls-107" d="M553,526.42H0V538H553Z" transform="translate(0 -41.54)"/></g></g></svg>